<?xml version="1.0" standalone="no"?>
<!DOCTYPE svg PUBLIC "-//W3C//DTD SVG 1.1//EN" "http://www.w3.org/Graphics/SVG/1.1/DTD/svg11.dtd" >
<svg xmlns="http://www.w3.org/2000/svg">
<metadata>Generated by IcoMoon</metadata>
<defs>
<font id="q-sn-sport" horiz-adv-x="512">
<font-face units-per-em="512" ascent="480" descent="-32" />
<missing-glyph horiz-adv-x="512" />
<glyph unicode="&#x20;" d="" horiz-adv-x="256" />
<glyph unicode="&#xe600;" d="M318.187 72.181v0c-0.569 2.615-0.941 5.643-0.783 4.464 32.972 3.877 59.128 30.033 63.005 63.005 24.925-3.338 44.66-23.072 47.998-47.998-32.972-3.877-59.128-30.033-63.005-63.005-23.418 3.136-42.253 20.745-47.214 43.534zM364.239 139.481v0 0c-3.727-23.988-22.679-42.94-46.667-46.667 3.727 23.988 22.679 42.94 46.667 46.667zM428.239 75.481c-3.727-23.988-22.679-42.94-46.667-46.667 3.727 23.988 22.679 42.94 46.667 46.667v0 0zM220.891 214.908l-116.421-132.48 14.234-14.233 132.48 116.421-30.291 30.291zM231.475 226.951l31.751-31.751 176.373 154.994c15.668 13.769 16.372 36.927 1.74 51.558l-3.313 3.313c-14.706 14.706-37.732 13.992-51.558-1.74l-154.994-176.373zM93.885 70.384l-10.584-12.043-5.709 5.709c-3.096 3.096-8.228 2.981-11.261-0.052-3.124-3.124-3.216-8.098-0.052-11.262l22.732-22.732c3.096-3.096 8.228-2.981 11.261 0.052 3.124 3.124 3.216 8.098 0.052 11.262l-5.709 5.709 12.043 10.584-12.773 12.774zM81.474 80.404l295.197 334.558c19.262 21.831 51.315 22.772 71.775 2.311l5.101-5.101c20.445-20.445 19.426-52.595-2.311-71.775l-334.571-295.21c3.745-8.75 2.066-19.298-5.079-26.444-9.438-9.438-24.57-9.372-33.943 0.002l-22.623 22.623c-9.343 9.344-9.374 24.57-0.002 33.943 7.2 7.2 17.713 8.868 26.457 5.094v0 0zM372.906 156.148c-39.764 0-72-32.236-72-72s32.236-72 72-72c39.764 0 72 32.236 72 72s-32.236 72-72 72v0z" />
<glyph unicode="&#xe601;" d="M304 448h-80v-230.828c12.511 4.422 25.975 6.828 40 6.828s27.489-2.406 40-6.828v230.828zM320 448v-237.841c9.529-5.037 18.298-11.32 26.090-18.63l21.91 64.311v192.16h-48zM208 448h-48v-192.16l21.91-64.311c7.792 7.311 16.561 13.594 26.090 18.63v237.841zM169.859 178.423l-25.859 77.577v208h240v-208l-25.859-77.577c16.192-20.454 25.859-46.309 25.859-74.423 0-66.274-53.726-120-120-120s-120 53.726-120 120c0 28.113 9.667 53.968 25.859 74.423v0 0zM264 0c57.438 0 104 46.563 104 104s-46.563 104-104 104c-57.438 0-104-46.563-104-104s46.563-104 104-104v0zM264 65.231l-44.308-33.231 12.308 55.385-40 40.615h56l16 48 16-48h56l-40-40.615 16-55.385-48 33.231z" />
<glyph unicode="&#xe602;" d="M124.592 336.094c-1.615-63.531 17.672-127.835 58.835-181.767-22.745-16.548-47.859-29.231-74.272-37.76 0.99-1.538-5.981 9.577-9.758 17.115-12.412 24.769-19.397 52.728-19.397 82.319 0 40.988 13.402 78.845 36.063 109.43 3.734 5.039 9.648 11.962 8.529 10.664v0zM142.112 353.84v0c-2.079-1.841 4.848 4.337 10.763 8.825 17.242 13.084 36.862 23.197 58.097 29.578 4.28 1.286 10.588 2.842 9.375 2.547-5.233-54.604 5.482-111.253 34.105-162.644-15.81-26.423-35.544-49.103-58.026-67.724-42.673 55.975-60.37 123.781-54.314 189.418zM428.983 297.558c-55.315 35.545-122.868 52.35-192.505 43.305-1.986 19.106-1.857 38.265 0.293 57.135-1.341-0.199 6.718 0.952 12.189 1.395 4.96 0.401 9.977 0.606 15.041 0.606 66.569 0 124.882-35.351 157.188-88.304 3.389-5.554 8.301-15.16 7.795-14.137v0zM440.084 269.558v0c-1.019 3.356 0.957-2.801 2.582-9.394 3.486-14.148 5.334-28.94 5.334-44.164 0-9.497-0.719-18.825-2.107-27.935-0.877-5.762-2.781-14.399-2.483-13.087-47.539 39.717-108.454 63.96-175.001 64.988-15.060 27.052-24.859 55.648-29.718 84.589 74.27 9.617 146.021-11.951 201.392-54.998zM181.194 51.642v0c3.227-1.629-2.882 1.337-8.931 4.823-18.395 10.601-34.784 24.291-48.459 40.363-2.422 2.848-5.656 6.979-4.969 6.098 60.452 20.717 114.115 62.102 149.368 121.042 30.95-0.483 60.608-6.292 88.096-16.551-32.789-78.245-98.598-133.64-175.106-155.774zM204.333 41.89c73.177 26.644 135.122 82.639 167.197 159.291 24.595-10.983 47.202-25.616 67.132-43.213 0.637 1.918-1.030-3.195-2.702-7.572-26.426-69.225-93.451-118.395-171.96-118.395-19.495 0-38.283 3.032-55.916 8.65-2.23 0.711-4.715 1.57-3.751 1.24v0zM464 216c0 110.457-89.543 200-200 200s-200-89.543-200-200c0-110.457 89.543-200 200-200s200 89.543 200 200v0z" />
<glyph unicode="&#xe603;" d="M184 144v0 0c-13.255 0-24 10.745-24 24s10.745 24 24 24c13.255 0 24-10.745 24-24s-10.745-24-24-24zM263.094 78.328c-3.837-7.726-14.237-14.282-23.047-14.282h-96.095c-8.704 0-15.953 7.156-15.953 15.983v16.034c0 8.901 7.098 15.983 15.853 15.983h80.148l123.57 246.385c4.312 8.596 14.883 12.050 23.589 7.666l12.136-6.112c8.748-4.406 12.228-15.055 7.868-23.833l-128.067-257.824zM339.435 306.522l15.277-7.784 22.12 44.531c0.464 0.933 0.113 1.998-0.735 2.425l-12.136 6.112c-0.829 0.417-1.757 0.115-2.089-0.548l-22.437-44.737zM332.262 292.22l-98.387-196.173h-9.875c0 0-80 0.074-80 0.017 0 0 0.039-16.017-0.048-16.017h96.095c2.659 0 7.548 3.046 8.717 5.4l98.829 198.962-15.332 7.812z" />
<glyph unicode="&#xe604;" d="M208.685 45.36l30.428 258.64h49.772l30.34-257.892-55.226-42.119-55.315 41.37zM192.839 47.597l-47.887-42.236-31.519 31.968 62.567 266.672h47.004l-30.165-256.403zM335.284 46.56l-30.287 257.44h47.003l62.264-266.672-30.897-31.968-48.084 41.199zM368 304v40c0 57.438-46.563 104-104 104s-104-46.563-104-104v-40l-64-272 48-48 56 48 64-48 64 48 56-48 48 48-64 272zM176 320v24c0 48.601 39.399 88 88 88s88-39.399 88-88v-24h-176z" />
<glyph unicode="&#xe605;" d="M192 344v-205.721c-65.838-10.965-112-36.512-112-66.279 0-39.764 82.38-72 184-72s184 32.236 184 72c0 39.764-82.38 72-184 72-19.526 0-38.343-1.19-56-3.396v0 122.252l208 89.143-224 96v-104zM208 124.813c17.516 2.063 36.364 3.187 56 3.187 92.784 0 168-25.072 168-56s-75.216-56-168-56c-92.784 0-168 25.072-168 56 0 22.339 39.242 41.623 96 50.611v-27.091c-18.258-2.224-32-11.909-32-23.52 0-13.255 17.909-24 40-24s40 10.745 40 24c0 11.611-13.742 21.296-32 23.52v29.293zM208 424l168-72-168-72v144zM328 64c13.255 0 24 7.163 24 16s-10.745 16-24 16c-13.255 0-24-7.163-24-16s10.745-16 24-16v0z" />
<glyph unicode="&#xe606;" d="M336 111.2v0 0c18.258-3.706 32-19.848 32-39.2 0-22.091-17.909-40-40-40s-40 17.909-40 40c0 19.351 13.742 35.493 32 39.2v37.486l-128 128v-52.687h-16v80h80v-16h-52.826l132.826-133.995v-42.805zM208 124.687l-28.285-28.284-11.314 11.313 28.285 28.284-28.285 28.284 11.314 11.313 28.285-28.284 28.285 28.284 11.314-11.313-28.285-28.284 28.285-28.284-11.314-11.313-28.285 28.284zM336 252.686l-28.284-28.285-11.313 11.314 28.284 28.285-28.284 28.284 11.313 11.314 28.284-28.285 28.284 28.285 11.313-11.314-28.284-28.284 28.284-28.285-11.313-11.314-28.284 28.285zM224 400v16.034c0 17.594 14.362 31.966 32.078 31.966h15.844c17.776 0 32.078-14.312 32.078-31.966v-16.034h32.071c8.812 0 15.929-7.156 15.929-15.983v-16.034c0-8.901-7.132-15.983-15.929-15.983h-144.142c-8.812 0-15.929 7.156-15.929 15.983v16.034c0 8.901 7.132 15.983 15.929 15.983h32.071zM208 416h-15.956c-17.672 0-32.002-14.26-32.044-32h-16.041c-17.65 0-31.959-14.236-31.959-32.058v-335.885c0-17.705 14.255-32.058 31.959-32.058h240.083c17.651 0 31.959 14.236 31.959 32.058v335.885c0 17.705-14.255 32.058-31.959 32.058h-16.041c-0.042 17.68-14.322 32-32.044 32h-15.956c-0.014 26.512-21.603 48-48.148 48h-15.704c-26.583 0-48.133-21.41-48.148-48v0 0zM368 368h16c8.724 0 16-7.185 16-16.049v-335.902c0-9.026-7.163-16.049-16-16.049h-240.001c-8.724 0-15.999 7.185-15.999 16.049v335.901c0 9.026 7.163 16.049 15.999 16.049h16c0.042-17.681 14.322-32 32.044-32h143.911c17.671 0 32.002 14.26 32.044 32v0 0zM264 400c4.418 0 8 3.582 8 8s-3.582 8-8 8c-4.418 0-8-3.582-8-8s3.582-8 8-8v0zM328 48c13.255 0 24 10.745 24 24s-10.745 24-24 24c-13.255 0-24-10.745-24-24s10.745-24 24-24v0z" />
<glyph unicode="&#xe607;" d="M256.115 160l-70.492-183.637-27.61 62.014-62.013-27.61 69.648 181.438c-32.48 26.403-53.231 66.676-53.231 111.796 0 79.529 64.471 144 144 144s144-64.471 144-144c0-45.12-20.752-85.392-53.231-111.796l69.647-181.438-62.014 27.61-27.61-62.014-70.492 183.637c-0.101 0-0.201-0-0.301-0s-0.201 0-0.301 0v0 0zM239.361 161v0 0c-22 2.596-42.48 10.151-60.293 21.517l-54.368-141.635 41.342 18.407 18.407-41.342 54.913 143.053zM333.767 182.517v0 0c-17.813-11.365-38.295-18.921-60.293-21.517l54.913-143.053 18.407 41.342 41.342-18.407-54.368 141.635zM256.417 176c70.692 0 128 57.308 128 128s-57.308 128-128 128c-70.692 0-128-57.308-128-128s57.308-128 128-128v0zM256.417 208v0c-53.019 0-96 42.981-96 96s42.981 96 96 96c53.019 0 96-42.981 96-96s-42.981-96-96-96zM256.417 224c44.183 0 80 35.817 80 80s-35.817 80-80 80c-44.183 0-80-35.817-80-80s35.817-80 80-80v0z" />
<glyph unicode="&#xe608;" d="M131.409 201.445v0 0c-5.383 4.113-12.111 6.555-19.409 6.555-17.673 0-32-14.327-32-32s14.327-32 32-32c7.297 0 14.025 2.443 19.409 6.555 11.151-40.671 48.382-70.555 92.591-70.555 53.019 0 96 42.981 96 96 0 6.901-0.728 13.631-2.111 20.119l130.111 27.881v48h-160v-32h-48v32h-16c-44.21 0-81.44-29.885-92.591-70.555zM304 256h128v-19.2l-134.576-28.986c4.231-9.75 6.576-20.509 6.576-31.815 0-44.183-35.817-80-80-80s-80 35.817-80 80c0 38.663 27.427 70.92 63.886 78.376 5.205 1.065 10.594 1.624 16.114 1.624v-32h80v32zM112 192v0c8.898 0 16-7.163 16-16 0-8.898-7.163-16-16-16-8.898 0-16 7.163-16 16 0 8.898 7.163 16 16 16zM256 368v-64h16v64h-16zM337.915 351.664l-33.915-54.275 13.569-8.479 33.915 54.275-13.569 8.478zM189.569 351.664l33.915-54.275-13.569-8.479-33.915 54.275 13.569 8.478z" />
<glyph unicode="&#xe609;" d="M87.832 120.506l7.666 3.712c-19.938 31.105-31.498 68.094-31.498 107.782 0 110.457 89.543 200 200 200s200-89.543 200-200c0-46.506-15.873-89.305-42.498-123.275-1.336-0.575 2.053 0.866 5.062 2.27 9.163 4.275 18.149 9.372 26.95 15.214 9.969 6.618 18.837 13.705 26.487 20.785v-21.157c-5.457-4.427-11.342-8.779-17.637-12.958-57.953-38.474-124.454-47.319-194.618-7.852-64.351 36.197-129.038 28-189.073-7.827-11.402-6.805-21.65-14.096-30.57-21.377-0.034-0.027-0.102 20.171-0.102 20.171 6.918 5.111 14.424 10.141 22.472 14.944 5.287 3.155 10.614 6.111 15.978 8.859 0.479 0.245 1.382 0.707 1.382 0.707v0zM173.138 144.291v0c-2.636-0.13 2.144 0.164 7.185 0.214 31.448 0.309 63.408-7.613 95.265-25.533 0.352-0.198 1.003-0.543 1.853-0.985 33.616 27.326 61.087 63.021 78.858 105.428-27.488 10.259-57.146 16.068-88.096 16.551-24.242-40.531-57.19-72.76-95.064-95.675zM391.019 98.875c19.613 18.719 35.096 41.728 44.942 67.52 1.671 4.377 3.338 9.49 2.702 7.572-19.93 17.596-42.536 32.231-67.132 43.213-17.836-42.623-44.906-78.858-78.009-107.212-0.154 0.068-0.308 0.137-0.462 0.205 31.1-13.836 61.157-17.458 89.846-12.834 4.339 0.7 9.721 1.883 8.115 1.534v0zM262.812 32.003h2.382c-0.397-0.002-0.796-0.003-1.193-0.003-0.396 0-0.792 0.001-1.188 0.003zM124.592 352.094v0 0c1.118 1.297-4.796-5.625-8.529-10.665-22.66-30.584-36.063-68.441-36.063-109.429 0-29.591 6.985-57.55 19.397-82.319 3.776-7.537 10.748-18.652 9.758-17.115 26.413 8.529 51.528 21.212 74.272 37.76-41.163 53.932-60.45 118.236-58.835 181.767zM142.112 369.84c-6.056-65.637 11.641-133.443 54.314-189.418 22.481 18.621 42.215 41.301 58.026 67.724-28.623 51.392-39.339 108.041-34.105 162.644 1.214 0.295-5.095-1.261-9.375-2.547-21.236-6.381-40.855-16.494-58.097-29.578-5.915-4.488-12.843-10.666-10.763-8.825v0 0zM428.983 313.558v0 0c0.507-1.022-4.406 8.584-7.795 14.137-32.307 52.953-90.619 88.304-157.188 88.304-5.064 0-10.081-0.204-15.041-0.606-5.47-0.442-13.53-1.594-12.189-1.395-2.15-18.87-2.279-38.029-0.293-57.135 69.636 9.044 137.19-7.761 192.505-43.305zM440.084 285.558c-55.37 43.047-127.122 64.614-201.392 54.998 4.858-28.942 14.657-57.538 29.718-84.589 66.547-1.028 127.462-25.27 175.001-64.988-0.299-1.313 1.605 7.325 2.483 13.087 1.387 9.109 2.107 18.438 2.107 27.935 0 15.224-1.849 30.017-5.334 44.164-1.624 6.593-3.601 12.749-2.582 9.394v0 0zM95.667 76.296c57.469 26.643 118.885 29.010 179.922-5.323 55.703-31.333 108.334-29.533 156.078-5.502v-17.745c-50.285-22.933-105.849-23.363-163.922 9.303-58.321 32.805-116.918 29.147-172.078 1.503v17.765z" />
<glyph unicode="&#xe60a;" d="M384.281 201.334c0 0-28.9-14.639-73.748-7.361-3.106 0.504-7.583 1.548-6.534 1.334v63.925c-12.875 2.314-26.716 6.319-41.060 12.778-13.89 6.255-26.941 10.304-38.94 12.776v-63.651c1.661-0.296-2.149 0.079-5.819 0.599-41.625 5.904-74.181-4.638-74.181-4.638v64.318c0.002 0 35.641 11.629 80 3.72v63.651c-48.631 10.016-79.998-5.881-80-5.882v63.594c0 0 31.364 15.774 80 5.863v-63.226c12.822-2.286 26.371-6.203 40-12.506 14.259-6.594 27.674-10.802 40-13.322v63.681c46.365-8.321 80.281 5.11 80.281 5.11v-64.632c-0.18 0.608-0.281 0.944-0.281 0.944-0.002-0.001-33.786-13.482-80-5.177v-63.925c11.354-2.321 21.784-3.209 31.099-3.209 30.385 0 48.9 9.451 48.901 9.452l0.281-64.216zM128 16.097h16v183.283c22.036 7.928 65.288 16.544 120-7.283 80.363-34.998 136 0 136 0v224c0 0-55.62-35.781-136 0s-136 0-136 0v-400z" />
<glyph unicode="&#xe60b;" d="M114.719 112c6.564-18.643 24.292-32 45.283-32h207.996c20.892 0 38.668 13.38 45.263 32h-298.542zM272 128h160c0-35.274-28.649-64-63.99-64h-208.020c-35.343 0-63.99 28.654-63.99 64h160v240h16v-240zM432 144l-144 144v-144h144zM392 160h-88v88l88-88zM144 280v0c48 80 96 88 96 88s-16-56-16-128c0-72 16-96 16-96h-144c0 0 0 56 48 136zM150.349 259.055c-36.749-69.752-36.749-99.055-36.749-99.055h104c0 0-9.6 28.94-9.6 80s9.6 99.653 9.6 99.653c0 0-35.845-20.986-67.251-80.597v0z" />
<glyph unicode="&#xe60c;" d="M224.62 68.521v0 0c-10.458 14.475-16.62 32.257-16.62 51.479 0 25.315 10.689 48.133 27.8 64.187-5.346 25.159-14.671 44.487-21.19 55.813h-45.401c-9.566-16.73-25.209-50.921-25.209-95.617 0-56.383 25.6-96.383 25.6-96.383h44.8c0 0 4.786 7.475 10.22 20.521zM236.311 55.337c-6.599-14.76-12.311-23.337-12.311-23.337h-64c0 0-32 48-32 112.383s32 111.617 32 111.617v32c0 32-16 48-16 72 0 17.797 16 40 48 40s48-22.327 48-40c0-24-16-40-16-72v-32c0.003-0.005 16.284-24.059 25.619-61.201 13.467 8.368 29.36 13.201 46.381 13.201 48.601 0 88-39.399 88-88s-39.399-88-88-88c-23.035 0-44.003 8.851-59.689 23.337v0 0zM176.399 256h31.004l0.597 32h-32l0.399-32zM175.029 304h33.956c3.482 26.572 15.016 35.624 15.016 56 0 17.673-15.22 24.324-32 24.324s-32-6.528-32-24.324c0-20.4 11.56-29.24 15.029-56zM296 48c39.764 0 72 32.236 72 72s-32.236 72-72 72c-39.764 0-72-32.236-72-72s32.236-72 72-72v0zM296 160c4.418 0 8 3.582 8 8s-3.582 8-8 8c-4.418 0-8-3.582-8-8s3.582-8 8-8v0zM280 128c4.418 0 8 3.582 8 8s-3.582 8-8 8c-4.418 0-8-3.582-8-8s3.582-8 8-8v0zM312 128c4.418 0 8 3.582 8 8s-3.582 8-8 8c-4.418 0-8-3.582-8-8s3.582-8 8-8v0z" />
<glyph unicode="&#xe60d;" d="M256 144v0c0-31.596 0 0 0 0 0-44.067 35.817-80 80-80 44.093 0 80 35.761 80 79.874v272.126h48v-272.063c0-70.627-57.308-127.938-128-127.938-70.548 0-128 57.308-128 128 0 0 0-61.856 0 0h-32v48h112v-48h-32zM432 143.897c0-52.962-43.089-95.897-96-95.897-53.019 0-96 42.982-96 95.953v16.047h32v16h-80v-16h32v-15.952c0-61.882 50.092-112.048 112-112.048 0 0-46.062 0 0 0 61.856 0 112 50.166 112 111.966v176.034h-16v-176.103zM432 336h16v64h-16v-64zM64 296v-7.982c0-44.193 35.745-80.018 79.906-80.018h16.048c8.863 0 20.075 5.753 25.294 13.211l28.416 40.594c10.127 14.467 26.569 14.391 36.605 0l28.311-40.594c5.088-7.296 16.232-13.211 25.289-13.211h16.077c44.212 0 80.053 35.828 80.053 80.017v7.983c0 48.601-39.531 88-87.841 88h-160.317c-48.513 0-87.841-39.498-87.841-88v0zM312.159 368c39.543 0 71.841-32.305 71.841-72v-7.982c0-35.353-28.677-64.018-64.053-64.018h-16.077c-3.75 0-10.026 3.294-12.166 6.363l-28.311 40.594c-16.412 23.534-46.349 23.577-62.837 0.023l-28.416-40.595c-2.184-3.119-8.471-6.386-12.186-6.386h-16.048c-35.307 0-63.906 28.645-63.906 64.017v7.982c0 39.709 32.207 72 71.841 72h160.317z" />
<glyph unicode="&#xe60e;" d="M198.4 277.674l8.008-12.308c-2.262-1.758-4.487-3.488-6.678-5.167l-8.719 13.401-13.411-8.726 9.178-14.108c-2.425-1.629-4.806-3.124-7.145-4.448l-9.422 14.481-13.411-8.725 7.606-11.691c-1.486-0.251-2.954-0.383-4.406-0.383-32 0-47.913 0-47.913 0-26.558 0-48.087-21.595-48.087-48.148 0-35.264 28.767-63.852 64.045-63.852h303.897c17.705 0 32.225 14.403 32.137 31.873 0 0 4.387 144.127-32.079 144.127s-32-31.543-80-31.543c-48 0-40 31.543-64 31.543-18.062 0-34.459-6.658-49.46-15.678l-7.834 12.041-13.411-8.726 7.885-12.119c-2.037-1.447-4.048-2.916-6.032-4.393l-7.335 11.274-13.411-8.726zM445.788 230.406c1.219-12.683 1.926-25.776 2.252-38.406h-96.040c-30.68 0-40 0-72.312-4.218-0.385 2.386-1.163 5.055-2.533 7.796-3.81 7.62-11.013 12.423-21.155 12.423h-88c-10.857 0-17.155 4.199-20.845 11.577-0.739 1.479-1.327 2.976-1.784 4.423 3.957 0 8.729 0 14.629 0 4.58 0 9.078 0.736 13.653 2.171l7.046-10.829 13.411 8.726-5.736 8.815c1.97 1.144 3.981 2.394 6.041 3.749 0.362 0.238 0.725 0.479 1.089 0.722l5.994-9.213 13.411 8.726-6.429 9.882c0.346 0.264 0.696 0.532 1.052 0.804 0.76 0.583 3.030 2.342 5.63 4.357l7.136-10.969 13.411 8.726-7.818 12.016c2.060 1.537 4.069 3.002 6.030 4.397l7.27-11.176 13.411 8.725-7.327 11.261c1.695 1.018 3.358 1.974 4.994 2.868l0.377-0.774c0 0 9.754-14.702 17.693-22.642 18.921-18.922 43.397-30.343 73.657-30.343 29.459 0 56.264 7.883 79.885 21.006 6.152 3.418 16.224 10.338 18.067 11.786 1.705-7.798 2.901-16.659 3.836-26.387zM448.255 176.572c0.010-4.328-0.022-8.55-0.091-12.627-0.029-1.762-0.059-2.979-0.077-3.587 0.036-9.122-7.261-16.359-16.144-16.359h-303.897c-14.219 0-27.017 6.187-35.823 16h115.778c22.549 0 38.262 5.221 68.852 10.503 35.148 6.069 56.998 6.069 75.148 6.069h96.255zM82.71 176c-1.755 4.964-2.71 10.299-2.71 15.852 0 17.736 14.386 32.148 32.087 32.148 0.564 0 0.564 0 3.384 0 5.776 0 9.105 0 13.373 0 1.466-5.48 3.27-10.116 4.001-11.577 6.31-12.62 18.013-20.423 35.155-20.423h88c3.858 0 5.655-1.199 6.844-3.577 0.845-1.69 1.156-3.553 1.156-4.423-21.136-5.539-37.217-8-56-8h-125.29zM288 288c2.050 0 2.517-0.286 5.51-3.82-0.211 0.248 4.019-4.877 5.525-6.573 12.442-14.016 27.82-21.15 52.966-21.15 24.356 0 38.502 6.062 54.582 19.491 0.728 0.608 1.818 1.528 3.476 2.925 8.548 7.165 12.729 9.127 21.942 9.127-0.291 0 2.185-2.895 5.291-11.793 1.769-5.069 1.318-3.482 1.318-3.482s-4.8-2.231-5.097-2.456c-5.091-3.843-10.906-7.669-17.397-11.275-21.378-11.877-45.574-18.994-72.115-18.994-25.74 0-46.264 9.578-62.343 25.657-5.108 5.107-12.975 16.023-12.975 16.023l-1.939 2.618c7.205 2.507 14.126 3.702 21.257 3.702z" />
<glyph unicode="&#xe60f;" d="M508.695 288.182l-188.82 188.82c-4 4-10.466 4-14.467 0l-302.409-302.409c-4-4-4-10.466 0-14.467l188.821-188.82c1.995-1.995 4.614-2.998 7.233-2.998s5.238 1.002 7.233 2.998l302.409 302.409c3.99 4 3.99 10.466 0 14.467zM441.546 326.385l-42.092-42.092-82.731 82.731 42.092 42.092 82.731-82.731zM70.883 121.185l42.092 42.092 82.731-82.731-42.092-42.092-82.731 82.731zM199.052-6.995l-30.97 30.971 49.326 49.325c4 4 4 10.466 0 14.467l-97.198 97.199c-4.001 4-10.466 4-14.467 0l-49.325-49.325-31.718 31.718 136.732 136.732 30.142-30.141c-10.784-13.864-17.22-31.288-17.22-50.165 0-45.13 36.721-81.851 81.851-81.851 18.887 0 36.301 6.435 50.164 17.219l29.405-29.405-136.722-136.743zM291.769 173.764c-10.037-7.152-22.315-11.367-35.554-11.367-33.856 0-61.388 27.532-61.388 61.389 0 13.239 4.215 25.517 11.367 35.554l85.575-85.576zM220.661 273.807c10.037 7.152 22.315 11.367 35.554 11.367 33.856 0 61.389-27.533 61.389-61.389 0-13.24-4.216-25.507-11.367-35.554l-85.576 85.576zM350.252 144.216l-29.405 29.405c10.784 13.863 17.219 31.288 17.219 50.164 0 45.13-36.721 81.851-81.851 81.851-18.887 0-36.301-6.425-50.165-17.22l-30.142 30.142 136.732 136.742 31.717-31.717-49.325-49.326c-4-4-4-10.466 0-14.467l97.199-97.198c1.995-1.995 4.615-2.998 7.233-2.998s5.238 1.002 7.233 2.998l49.325 49.326 30.971-30.971-136.743-136.732z" />
<glyph unicode="&#xe610;" d="M510.178 303.257c0 0-40.182 65.813-64.656 106.608-17.070 28.457-52.459 39.998-54.077 40.519-0.010 0-0.010 0-0.010 0-0.010 0-0.021 0-0.021 0-0.010 0-0.010 0-0.010 0s-0.010 0-0.021 0c0 0 0 0-0.021 0-0.154 0.051-0.307 0.092-0.461 0.133l-70.062 18.678c-4.874 2.099-27.474 10.803-64.839 10.803s-59.976-8.704-64.85-10.793l-70.062-18.688c-0.112-0.021-0.215-0.051-0.328-0.092v0c-0.082-0.021-0.164-0.051-0.236-0.072-2.069-0.656-37.090-12.226-54.036-40.499-24.494-40.786-64.665-106.599-64.665-106.599-2.939-4.813-1.433-11.090 3.358-14.050l67.389-41.646c4.761-2.939 10.998-1.516 14.008 3.185l26.061 40.694v-302.961c0-5.663 4.588-10.24 10.24-10.24h266.24c2.724 0 5.335 1.075 7.25 3.010s3 4.536 2.99 7.26l-0.788 241.849 0.512 61.522 26.348-41.134c3.021-4.7 9.257-6.124 13.998-3.185l67.389 41.646c4.803 2.959 6.297 9.236 3.358 14.049zM256 459.52c22.364 0 38.666-3.44 47.995-6.134-5.417-9.779-18.473-24.586-47.995-24.586-29.553 0-42.608 14.827-48.005 24.586 9.339 2.693 25.641 6.134 48.005 6.134zM114.176 331.797l-39.414-61.512-50.156 30.997c11.725 19.241 40.346 66.232 59.443 98.038 8.438 14.070 23.685 23.081 33.495 27.73 5.929-19.17 15.934-62.925-3.369-95.252zM378.849-1.28h-245.73v324.935c21.863 39.291 10.639 88.341 3.87 109.916l51.088 13.63c8.028-17.142 28.375-38.882 67.922-38.882s59.894 21.74 67.912 38.871l51.313-13.68c-5.346-19.097-12.964-60.815 3.646-108.81l-0.778-94.29 0.758-231.69zM437.238 270.285l-38.861 60.642c-14.623 41.881-8.202 79.022-3.666 96 9.831-4.68 24.883-13.66 33.25-27.607 19.087-31.795 47.708-78.797 59.443-98.038l-50.166-30.997z" />
<glyph unicode="&#xe611;" d="M293.622 377.457c1.833-2.089 4.434-3.338 7.199-3.471 0.174 0 0.327-0.010 0.502-0.010 2.601 0 5.099 0.983 7.004 2.775l40.264 37.735c4.127 3.861 4.342 10.332 0.481 14.469l-36.065 38.584c-3.769 4.034-10.055 4.342-14.224 0.707l-40.253-35.226c-2.048-1.792-3.298-4.322-3.482-7.035s0.727-5.386 2.509-7.424l36.065-41.103zM304.804 446.3l22.323-23.88-25.078-23.501-22.323 25.426 25.078 21.954zM396.933 290.745c-51.425 0-77.435-31.56-92.519-55.286-4.393-6.902-7.966-13.773-11.428-20.429-12.278-23.542-19.753-35.83-42.803-35.83-7.486 0-8.048 0.635-12.38 5.488-3.482 3.922-8.192 9.216-17.305 15.207 21.012 16.784 32.379 41.267 32.379 70.533 0 39.465-36.178 94.126-104.1 94.126-68.793 0-103.168-43.223-104.591-45.056-2.489-3.205-2.857-7.577-0.922-11.141l34.386-63.734c1.638-3.042 4.7-5.059 8.151-5.345 3.461-0.317 6.799 1.178 8.93 3.901 0.328 0.41 32.809 41.431 71.527 41.431 21.986 0 33.843-11.223 33.843-21.78 0-22.508-14.572-25.109-25.529-25.109-20.019 0-36.598 5.274-36.762 5.335-3.461 1.126-7.291 0.307-10.005-2.13-2.713-2.447-3.932-6.144-3.174-9.718l13.23-62.658c1.004-4.731 5.181-8.12 10.025-8.12 60.498 0 63.559-31.99 63.559-38.4 0-13.824-6.441-45.947-66.079-45.947-101.079 0-124.17 85.115-125.092 88.709-1.239 4.925-6.011 8.13-10.947 7.69-5.048-0.502-8.97-4.628-9.216-9.697-0.153-3.164-3.195-78.029 43.387-126.914 25.467-26.726 60.59-40.284 104.387-40.284 52.040 0 80.384 23.921 94.996 43.991 17.531 24.074 24.249 54.702 23.194 80.466 4.618-2.365 10.127-4.454 16.732-5.796-2.98-15.452 2.867-42.937 22.938-67.81 15.76-19.538 44.82-42.844 93.716-42.844 89.006 0 112.538 98.857 112.538 151.132 0 47.043-24.043 136.018-115.067 136.018zM304.548 112.804c33.423 2.416 51.108 29.573 66.796 53.647 15.483 23.757 28.856 44.288 54.087 44.288 39.926 0 41.707-53.135 41.758-55.060-0.041-3.349-1.894-82.135-73.625-82.135-63.949 0.010-82.452 27.228-89.017 39.26zM399.442 24.074c-40.807 0-64.819 19.149-77.783 35.216-4.034 4.987-7.342 10.096-10.005 15.114 16.149-11.49 41.534-21.33 81.91-21.33 73.697 0 93.788 66.99 94.106 102.707-0.543 26.091-14.254 75.438-62.238 75.438-36.332 0-54.876-28.467-71.25-53.586-15.575-23.89-29.020-44.534-54.548-44.534-21.351 0-30.638 8.827-36.793 14.674-1.925 1.833-3.594 3.338-5.048 4.393-3.594 2.56-8.438 2.539-12.001-0.062s-5.059-7.209-3.707-11.408c7.291-22.651 4.239-61.563-15.79-89.067-17.193-23.593-43.582-35.563-78.448-35.563-37.918 0-68.025 11.377-89.467 33.843-16.886 17.685-26.276 39.926-31.488 59.935 21.269-26.736 57.866-54.241 118.436-54.241 63.815 0 86.558 34.325 86.558 66.427 0 25.907-20.019 55.962-75.694 58.675l-8.222 38.963c7.311-1.3 16.528-2.416 26.573-2.416 28.805 0 46.008 17.049 46.008 45.589 0 20.48-19.036 42.26-54.323 42.26-34.202 0-62.915-23.429-77.456-38.011l-24.064 44.606c10.168 10.076 37.868 32.389 84.050 32.389 59.095 0 83.62-47.964 83.62-73.646 0-27.658-12.964-49.756-36.485-62.228-3.43-1.822-5.54-5.417-5.438-9.288 0.092-3.881 2.365-7.383 5.878-9.031 16.22-7.618 21.73-13.824 26.163-18.8 6.636-7.465 12.155-12.36 27.678-12.36 36.546 0 48.957 23.818 60.969 46.848 3.257 6.257 6.635 12.738 10.547 18.893 20.142 31.672 43.336 45.804 75.274 45.804 74.803 0 94.556-75.571 94.556-115.538 0-5.346-1.055-130.662-92.078-130.662zM334.868 289.751c46.336 0 81.797 26.082 83.292 27.197 4.127 3.082 5.325 8.755 2.775 13.25l-36.065 63.734c-1.721 3.041-4.885 4.997-8.366 5.182-3.461 0.164-6.841-1.434-8.878-4.281-0.215-0.307-22.599-30.935-65.475-30.935-43.397 0-80.937 40.683-81.305 41.093-3.082 3.389-8.059 4.332-12.144 2.274-4.096-2.038-6.349-6.553-5.509-11.049 0.215-1.065 21.299-106.466 131.676-106.466zM302.162 343.419c35.185 0 59.207 16.517 71.803 28.201l24.402-43.1c-11.591-6.779-35.399-18.288-63.488-18.288-54.712 0-83.385 29.696-97.874 54.948 17.101-11.202 39.926-21.76 65.157-21.76z" />
<glyph unicode="&#xe612;" d="M327.68 70.4c0-5.656-4.584-10.24-10.24-10.24s-10.24 4.584-10.24 10.24c0 5.656 4.584 10.24 10.24 10.24s10.24-4.584 10.24-10.24zM389.12 70.4c0-5.656-4.584-10.24-10.24-10.24s-10.24 4.584-10.24 10.24c0 5.656 4.584 10.24 10.24 10.24s10.24-4.584 10.24-10.24zM235.52 39.68c0-5.656-4.584-10.24-10.24-10.24s-10.24 4.584-10.24 10.24c0 5.656 4.584 10.24 10.24 10.24s10.24-4.584 10.24-10.24zM266.24 8.96c0-5.656-4.584-10.24-10.24-10.24s-10.24 4.584-10.24 10.24c0 5.656 4.584 10.24 10.24 10.24s10.24-4.584 10.24-10.24zM296.96 39.68c0-5.656-4.584-10.24-10.24-10.24s-10.24 4.584-10.24 10.24c0 5.656 4.584 10.24 10.24 10.24s10.24-4.584 10.24-10.24zM327.68 8.96c0-5.656-4.584-10.24-10.24-10.24s-10.24 4.584-10.24 10.24c0 5.656 4.584 10.24 10.24 10.24s10.24-4.584 10.24-10.24zM358.4 39.68c0-5.656-4.584-10.24-10.24-10.24s-10.24 4.584-10.24 10.24c0 5.656 4.584 10.24 10.24 10.24s10.24-4.584 10.24-10.24zM204.8 70.4c0-5.656-4.584-10.24-10.24-10.24s-10.24 4.584-10.24 10.24c0 5.656 4.584 10.24 10.24 10.24s10.24-4.584 10.24-10.24zM450.56 193.28c0-5.656-4.584-10.24-10.24-10.24s-10.24 4.584-10.24 10.24c0 5.656 4.584 10.24 10.24 10.24s10.24-4.584 10.24-10.24zM419.84 162.56c0-5.656-4.584-10.24-10.24-10.24s-10.24 4.584-10.24 10.24c0 5.656 4.584 10.24 10.24 10.24s10.24-4.584 10.24-10.24zM450.56 131.84c0-5.656-4.584-10.24-10.24-10.24s-10.24 4.584-10.24 10.24c0 5.656 4.584 10.24 10.24 10.24s10.24-4.584 10.24-10.24zM481.28 162.56c0-5.656-4.584-10.24-10.24-10.24s-10.24 4.584-10.24 10.24c0 5.656 4.584 10.24 10.24 10.24s10.24-4.584 10.24-10.24zM419.84 101.12c0-5.656-4.584-10.24-10.24-10.24s-10.24 4.584-10.24 10.24c0 5.656 4.584 10.24 10.24 10.24s10.24-4.584 10.24-10.24zM266.24 193.28c0-5.656-4.584-10.24-10.24-10.24s-10.24 4.584-10.24 10.24c0 5.656 4.584 10.24 10.24 10.24s10.24-4.584 10.24-10.24zM327.68 193.28c0-5.656-4.584-10.24-10.24-10.24s-10.24 4.584-10.24 10.24c0 5.656 4.584 10.24 10.24 10.24s10.24-4.584 10.24-10.24zM389.12 193.28c0-5.656-4.584-10.24-10.24-10.24s-10.24 4.584-10.24 10.24c0 5.656 4.584 10.24 10.24 10.24s10.24-4.584 10.24-10.24zM235.52 162.56c0-5.656-4.584-10.24-10.24-10.24s-10.24 4.584-10.24 10.24c0 5.656 4.584 10.24 10.24 10.24s10.24-4.584 10.24-10.24zM296.96 162.56c0-5.656-4.584-10.24-10.24-10.24s-10.24 4.584-10.24 10.24c0 5.656 4.584 10.24 10.24 10.24s10.24-4.584 10.24-10.24zM327.68 131.84c0-5.656-4.584-10.24-10.24-10.24s-10.24 4.584-10.24 10.24c0 5.656 4.584 10.24 10.24 10.24s10.24-4.584 10.24-10.24zM358.4 162.56c0-5.656-4.584-10.24-10.24-10.24s-10.24 4.584-10.24 10.24c0 5.656 4.584 10.24 10.24 10.24s10.24-4.584 10.24-10.24zM389.12 131.84c0-5.656-4.584-10.24-10.24-10.24s-10.24 4.584-10.24 10.24c0 5.656 4.584 10.24 10.24 10.24s10.24-4.584 10.24-10.24zM358.4 101.12c0-5.656-4.584-10.24-10.24-10.24s-10.24 4.584-10.24 10.24c0 5.656 4.584 10.24 10.24 10.24s10.24-4.584 10.24-10.24zM204.8 131.84c0-5.656-4.584-10.24-10.24-10.24s-10.24 4.584-10.24 10.24c0 5.656 4.584 10.24 10.24 10.24s10.24-4.584 10.24-10.24zM174.080 101.12c0-5.656-4.584-10.24-10.24-10.24s-10.24 4.584-10.24 10.24c0 5.656 4.584 10.24 10.24 10.24s10.24-4.584 10.24-10.24zM450.56 316.16c0-5.655-4.584-10.24-10.24-10.24s-10.24 4.585-10.24 10.24c0 5.656 4.584 10.24 10.24 10.24s10.24-4.584 10.24-10.24zM419.84 285.44c0-5.656-4.584-10.24-10.24-10.24s-10.24 4.584-10.24 10.24c0 5.656 4.584 10.24 10.24 10.24s10.24-4.584 10.24-10.24zM450.56 254.72c0-5.655-4.584-10.24-10.24-10.24s-10.24 4.584-10.24 10.24c0 5.655 4.584 10.24 10.24 10.24s10.24-4.585 10.24-10.24zM481.28 285.44c0-5.656-4.584-10.24-10.24-10.24s-10.24 4.584-10.24 10.24c0 5.656 4.584 10.24 10.24 10.24s10.24-4.584 10.24-10.24zM419.84 224c0-5.656-4.584-10.24-10.24-10.24s-10.24 4.584-10.24 10.24c0 5.655 4.584 10.24 10.24 10.24s10.24-4.584 10.24-10.24zM481.28 224c0-5.656-4.584-10.24-10.24-10.24s-10.24 4.584-10.24 10.24c0 5.655 4.584 10.24 10.24 10.24s10.24-4.584 10.24-10.24zM389.12 254.72c0-5.655-4.584-10.24-10.24-10.24s-10.24 4.584-10.24 10.24c0 5.655 4.584 10.24 10.24 10.24s10.24-4.585 10.24-10.24zM358.4 224c0-5.656-4.584-10.24-10.24-10.24s-10.24 4.584-10.24 10.24c0 5.655 4.584 10.24 10.24 10.24s10.24-4.584 10.24-10.24zM419.84 346.88c0-5.655-4.584-10.24-10.24-10.24s-10.24 4.584-10.24 10.24c0 5.656 4.584 10.24 10.24 10.24s10.24-4.585 10.24-10.24zM256 480c-141.159 0-256-114.841-256-256s114.841-256 256-256 256 114.841 256 256-114.841 256-256 256zM20.48 224c0 129.863 105.656 235.52 235.52 235.52 62.106 0 112.64-50.534 112.64-112.64s-50.534-112.64-112.64-112.64c-73.4 0-133.12-59.719-133.12-133.12 0-35.758 14.172-68.27 37.202-92.211-82.197 36.793-139.602 119.358-139.602 215.091zM413.563 49.122c-1.219 0.512-2.56 0.798-3.963 0.798-5.652 0-10.24-4.587-10.24-10.24 0-0.717 0.266-1.351 0.409-2.038-39.803-30.781-89.671-49.162-143.769-49.162-19.497 0-37.847 4.987-53.863 13.742 1.607 1.813 2.662 4.127 2.662 6.738 0 5.652-4.588 10.24-10.24 10.24-4.024 0-7.434-2.386-9.103-5.765-6.308 5.089-12.053 10.834-17.142 17.142 3.379 1.669 5.765 5.079 5.765 9.103 0 5.652-4.588 10.24-10.24 10.24-2.611 0-4.925-1.055-6.738-2.663-8.755 16.015-13.742 34.365-13.742 53.863s4.987 37.847 13.742 53.863c1.813-1.608 4.126-2.663 6.738-2.663 5.653 0 10.24 4.587 10.24 10.24 0 4.024-2.386 7.434-5.765 9.103 5.089 6.308 10.834 12.053 17.142 17.142 1.669-3.379 5.079-5.765 9.103-5.765 5.653 0 10.24 4.587 10.24 10.24 0 2.611-1.054 4.925-2.662 6.738 16.016 8.755 34.365 13.742 53.863 13.742 8.356 0 16.507 0.87 24.443 2.345 1.751-1.382 3.87-2.345 6.277-2.345 4.219 0 7.834 2.56 9.401 6.205 41.175 13.046 73.738 45.609 86.794 86.794 3.646 1.566 6.205 5.181 6.205 9.401 0 2.406-0.952 4.526-2.345 6.277 1.474 7.936 2.345 16.087 2.345 24.443 0 8.366-0.839 16.537-2.325 24.474 1.372 1.751 2.325 3.85 2.325 6.246 0 4.24-2.58 7.885-6.257 9.442-6.257 19.722-16.926 37.489-30.935 52.060 17.152-7.68 33.137-17.449 47.831-28.815-0.133-0.666-0.399-1.27-0.399-1.966 0-5.652 4.587-10.24 10.24-10.24 1.351 0 2.632 0.297 3.82 0.768 6.093-5.499 11.961-11.243 17.459-17.337-0.512-1.209-0.798-2.519-0.798-3.911 0-5.653 4.587-10.24 10.24-10.24 0.738 0 1.382 0.266 2.079 0.42 30.771-39.803 49.122-89.682 49.122-143.78s-18.381-103.966-49.162-143.769c-0.686 0.144-1.31 0.409-2.038 0.409-5.652 0-10.24-4.587-10.24-10.24 0-1.403 0.286-2.745 0.798-3.963-5.468-6.072-11.243-11.848-17.316-17.316zM256 295.68c28.231 0 51.2 22.969 51.2 51.2s-22.969 51.2-51.2 51.2-51.2-22.969-51.2-51.2 22.969-51.2 51.2-51.2zM246.119 375.829c0.87-4.772 4.854-8.469 9.881-8.469s9.011 3.686 9.882 8.469c8.96-3.072 15.995-10.107 19.067-19.067-4.772-0.87-8.469-4.854-8.469-9.882s3.687-9.011 8.469-9.881c-3.072-8.96-10.107-15.995-19.067-19.067-0.87 4.782-4.854 8.469-9.882 8.469-5.018 0-9.011-3.686-9.881-8.469-8.96 3.072-15.995 10.107-19.067 19.067 4.782 0.87 8.469 4.864 8.469 9.881 0 5.028-3.686 9.011-8.469 9.882 3.072 8.96 10.107 15.995 19.067 19.067zM256 152.32c-28.232 0-51.2-22.969-51.2-51.2s22.969-51.2 51.2-51.2 51.2 22.969 51.2 51.2-22.969 51.2-51.2 51.2zM256 70.4c-16.937 0-30.72 13.783-30.72 30.72s13.783 30.72 30.72 30.72 30.72-13.783 30.72-30.72-13.783-30.72-30.72-30.72z" />
<glyph unicode="&#xe613;" d="M173.483 337.131c0 0-50.698-38.452-50.667-65.372 0.010-16.063 10.776-26.268 26.023-26.257 7.297 0.020 15.042 0.939 19.583 5.195 0 0-9.583-24.696-15.206-36.033-0.959-1.928 41.513-1.949 40.544 0-5.633 11.348-15.206 36.034-15.206 36.034 4.531-4.459 11.746-5.113 19.634-5.113 15.276 0.030 25.971 10.256 25.971 26.339-0.051 26.911-50.678 65.209-50.678 65.209zM274.461 439.18h-7.817c-0.837 0-1.204-0.479-1.439-1.194l-28.329-79.241c-0.234-0.725 0.123-1.204 0.827-1.204h8.409c0.725 0 1.204 0.368 1.582 1.204l6.235 17.767h33.023l6.225-17.767c0.245-0.837 0.724-1.204 1.562-1.204h8.409c0.714 0 1.082 0.48 0.837 1.204l-27.971 79.241c-0.235 0.715-0.714 1.194-1.551 1.194zM257.398 386.36l12.971 37.095h0.235l12.848-37.095h-26.053zM109.264 173.853h-8.409c-0.725 0-1.204-0.357-1.582-1.194l-6.235-17.777h-33.023l-6.225 17.777c-0.245 0.837-0.724 1.194-1.562 1.194h-8.409c-0.715 0-1.081-0.479-0.837-1.194l27.971-79.251c0.234-0.714 0.715-1.194 1.551-1.194h7.817c0.837 0 1.204 0.479 1.439 1.194l28.329 79.251c0.234 0.714-0.123 1.194-0.826 1.194zM76.598 107.94h-0.234l-12.848 37.095h26.053l-12.971-37.095zM505.428 359.052c-5.062 9.654-13.593 16.766-24.002 20.001l-134.459 41.911v18.216c0 22.512-18.308 40.82-40.82 40.82h-265.327c-22.512 0-40.819-18.308-40.819-40.82v-346.966c0-22.512 18.308-40.82 40.819-40.82h51.922l261.144-81.537c4.041-1.255 8.113-1.857 12.123-1.857 17.389 0.010 33.553 11.226 39.003 28.676l103.223 331.261c3.265 10.409 2.255 21.461-2.807 31.115zM20.41 92.214v346.966c0 11.256 9.154 20.41 20.41 20.41h265.327c11.256 0 20.41-9.154 20.41-20.41v-346.966c0-11.256-9.154-20.41-20.41-20.41h-265.327c-11.256 0-20.41 9.154-20.41 20.41zM488.764 334.009l-103.233-331.261c-3.358-10.746-14.797-16.787-25.574-13.409l-198.761 62.056h144.951c22.512 0 40.82 18.308 40.82 40.82v307.372l128.398-40.013c5.204-1.623 9.46-5.174 11.991-10.001 2.541-4.816 3.041-10.348 1.409-15.563zM439.025 349.51l-7.46 2.327c-0.796 0.255-1.296-0.092-1.724-0.714l-50.627-67.23c-0.439-0.623-0.235-1.173 0.439-1.388l8.021-2.5c0.704-0.215 1.255-0.021 1.847 0.673l11.246 15.113 31.533-9.827 0.673-18.818c-0.021-0.878 0.327-1.368 1.123-1.613l8.021-2.5c0.694-0.204 1.173 0.133 1.153 0.898l-3.123 83.976c-0.021 0.755-0.327 1.357-1.123 1.602zM407.022 304.159l23.44 31.554 0.214-0.071 1.214-39.238-24.87 7.756z" horiz-adv-x="510" />
<glyph unicode="&#xe614;" d="M400.834 47.053c11.49 7.404 19.005 19.702 19.005 33.587 0 22.589-19.906 40.96-44.38 40.96h-6.82c0 55.644-48.005 101.028-74.558 125.808 5.755 2.119 10.875 6.042 15.534 9.615 3.113 2.386 8.315 6.39 10.23 6.492 7.024 0 9.072-2.335 13.148-6.974 4.464-5.079 11.213-12.749 24.986-12.749 15.575 0 23.757 12.421 28.662 19.835 1.024 1.557 1.945 3 2.837 4.096 0.543 0.574 2.775 1.577 4.25 2.253 4.557 2.048 11.449 5.15 14.356 12.903 2.304 6.123 1.464 13.159-2.642 22.139-4.034 8.857-26.389 53.965-70.523 72.222-2.457 1.014-3.175 2.14-5.243 5.878-6.441 11.643-14.725 21.401-48.865 22.62-1.157 8.54-0.829 25.733 2.212 40.96 0.656 3.308-0.338 6.717-2.693 9.144-2.345 2.416-5.704 3.533-9.052 2.969-51.353-8.642-62.434-51.486-66.601-67.625-0.061-0.215-0.113-0.44-0.164-0.645-14.623-9.401-32.195-25.067-44.359-37.233-38.43-38.441-49.469-99.553-28.13-155.689 1.444-3.779 3.246-7.916 5.232-12.432 7.291-16.589 16.343-37.222 16.343-63.591h-17.070c-24.463 0-44.37-18.37-44.37-40.96 0-13.865 7.486-26.132 18.934-33.536-19.579-20.828-34.273-46.715-27.443-64.154 2.181-5.581 8.478-14.951 26.061-14.951h292.618c17.572 0 23.849 9.36 26.030 14.93 6.82 17.408-7.906 43.274-27.525 64.123zM151.184 204.892c-18.483 48.609-9.267 101.181 23.47 133.929 11.725 11.725 30.249 28.252 43.847 36.28 2.089 1.239 3.666 3.175 4.464 5.458 0.451 1.28 0.952 3.164 1.556 5.499 3.349 12.923 9.799 37.918 36.137 48.64-1.577-15.872-1.68-35.758 4.075-44.636 1.884-2.908 5.12-4.669 8.591-4.669 31.703 0 35.144-6.195 38.462-12.196 2.591-4.68 6.144-11.090 15.329-14.889 37.017-15.319 56.228-54.159 59.709-61.798 1.741-3.83 1.997-5.755 2.253-5.99-0.758-0.533-2.529-1.331-3.748-1.884-3.625-1.628-8.13-3.655-11.623-7.875-1.321-1.607-2.704-3.645-4.158-5.867-4.106-6.226-7.342-10.639-11.561-10.639-4.332 0-5.663 1.29-9.605 5.785-4.885 5.55-12.247 13.937-28.529 13.937-8.745 0-16.159-5.703-22.712-10.721-3.707-2.846-8.786-6.748-11.305-6.953-2.529-0.226-4.209 0.727-6.154 1.782-2.233 1.229-7.486 4.096-13.077 0.788-3.779-2.243-5.704-6.175-5.704-11.684 0-6.861 4.997-11.52 18.35-23.982 24.074-22.446 68.905-64.256 68.905-111.606h-174.080c0 30.669-10.434 54.446-18.064 71.813-1.822 4.168-3.502 7.987-4.833 11.479zM136.53 101.12h238.93c13.179 0 23.9-9.185 23.9-20.48s-10.721-20.48-23.89-20.48h-238.94c-13.179 0-23.89 9.185-23.89 20.48s10.711 20.48 23.89 20.48zM409.293-9.595c-0.553-1.423-4.096-1.925-6.963-1.925h-292.618c-3.010 0-6.43 0.512-6.994 1.935-2.201 5.622 6.001 26.808 30.054 49.408 1.229-0.092 2.488-0.144 3.758-0.144h238.94c1.219 0 2.437 0.051 3.635 0.144 24.125-22.63 32.389-43.827 30.188-49.418z" />
<glyph unicode="&#xe615;" d="M276.48 183.040h40.96v-40.96h-40.96v-40.96h-40.96v40.96h-40.96v40.96h40.96v40.96h40.96v-40.96zM512 336.64v-286.72c0-16.937-13.783-30.72-30.72-30.72h-450.56c-16.937 0-30.72 13.783-30.72 30.72v286.72c0 16.937 13.783 30.72 30.72 30.72h133.12v30.72c0 16.937 13.783 30.72 30.72 30.72h122.88c16.937 0 30.72-13.783 30.72-30.72v-30.72h133.12c16.937 0 30.72-13.783 30.72-30.72zM184.32 367.36h143.36v30.72c0 5.642-4.587 10.24-10.24 10.24h-122.88c-5.642 0-10.24-4.598-10.24-10.24v-30.72zM491.52 264.96h-40.96c0-11.295-9.185-20.48-20.48-20.48h-40.96c-11.294 0-20.48 9.185-20.48 20.48h-225.28c0-11.295-9.185-20.48-20.48-20.48h-40.96c-11.294 0-20.48 9.185-20.48 20.48h-40.96v-215.040c0-5.652 4.598-10.24 10.24-10.24h450.56c5.652 0 10.24 4.587 10.24 10.24v215.040zM122.88 264.96v20.48h-40.96v-20.48h40.96zM430.080 264.96v20.48h-40.96v-20.48h40.96zM491.52 336.64c0 5.642-4.587 10.24-10.24 10.24h-450.56c-5.642 0-10.24-4.598-10.24-10.24v-51.2h40.96c0 11.295 9.186 20.48 20.48 20.48h40.96c11.294 0 20.48-9.185 20.48-20.48h225.28c0 11.295 9.185 20.48 20.48 20.48h40.96c11.295 0 20.48-9.185 20.48-20.48h40.96v51.2z" />
<glyph unicode="&#xe616;" d="M501.099 27.784c-5.656 0-10.226-4.571-10.226-10.226 0-16.046-13.049-29.105-29.104-29.105h-10.226c-61.891 0-83.356 33.461-90.433 51.572 97.807 5.942 150.851 37.194 150.851 54.098 0 71.186-47.063 116.040-123.198 118.495-0.788 2.863-2.649 5.42-5.522 6.862-5.399 2.68-11.904 0.501-14.583-4.858-0.143-0.296-0.296-0.593-0.45-0.889-7.271 0.788-15.708 2.209-24.635 4.469 0.215 3.375-0.941 6.78-3.743 9.091-4.653 3.825-11.485 3.139-15.288-1.493-0.327-0.399-0.664-0.818-0.992-1.227-6.892 2.731-13.673 6.115-20.095 10.104 1.339 3.426 1.074 7.404-1.329 10.534-3.579 4.653-10.196 5.553-14.951 2.117-5.522 5.41-10.339 11.576-14.041 18.684 4.643 3.293 6.075 9.593 3.048 14.512-2.199 3.569-6.156 5.287-10.073 4.99-1.524 6.156-2.639 12.65-3.426 19.41 0.512 0.163 1.012 0.317 1.534 0.481 5.696 1.902 8.764 8.048 6.872 13.745-1.462 4.398-5.481 7.169-9.858 7.353-0.286 10.472-0.103 21.056 0.409 31.498 3.937 2.659 5.911 7.558 4.336 12.293-0.644 1.933-1.882 3.405-3.324 4.643 0.542 7.455 1.125 14.747 1.697 21.486 1.166 13.857 2.188 25.832 2.188 34.985 0 28.603-26.865 48.596-65.317 48.596-34.668 0-171.171-77.834-171.171-119.537v-86.312c0-22.784-3.866-39.914-8.334-59.733-5.675-25.157-12.118-53.668-12.118-100.312 0-23.235 5.175-39.556 5.389-40.252 0.9-2.781 2.894-5.103 5.523-6.402 1.667-0.818 17.538-8.048 61.308-8.048 10.707 0 20.729-0.113 30.199-0.296-4.715-51.838-44.209-70.644-81.332-70.644h-20.453c-5.645 0-10.226-4.571-10.226-10.226s4.582-10.226 10.226-10.226h451.541c27.325 0 49.558 22.233 49.558 49.558 0 5.645-4.571 10.216-10.226 10.216zM34.361 85.615c-1.279 5.748-3.047 15.943-3.047 28.491 0 44.219 6.157 71.473 11.577 95.525 4.561 20.218 8.877 39.31 8.877 64.519v86.312c0 21.936 115.917 97.796 149.44 97.796 25.659 0 43.585-11.055 43.585-26.875 0-8.233-0.982-19.778-2.117-33.155-0.644-7.67-1.319-15.994-1.912-24.543-21.701-5.952-35.844-6.207-36.263-6.217-5.993-0.010-10.851-4.878-10.851-10.861 0-6.003 4.868-10.861 10.861-10.861 0.706 0 14.092 0.143 35.026 5.206-0.338-9.889-0.297-19.891 0.133-29.831-20.085-4.602-34.985-4.776-35.169-4.776-5.993-0.010-10.851-4.888-10.84-10.881 0-5.992 4.857-10.851 10.861-10.851 0.839 0 15.964 0.072 36.948 4.591 1.105-8.406 2.843-16.424 5.062-24.104-16.843-10.114-28.787-16.781-28.931-16.863-5.246-2.925-7.128-9.541-4.203-14.778 1.984-3.569 5.686-5.573 9.5-5.573 1.79 0 3.61 0.44 5.277 1.37 0.143 0.082 10.901 6.085 26.446 15.37 4.090-7.445 9.184-14.102 14.961-20.085-11.73-8.304-22.621-15.636-22.785-15.739-4.981-3.344-6.32-10.094-2.976-15.084 2.096-3.13 5.532-4.817 9.030-4.817 2.086 0 4.183 0.603 6.044 1.841 0.757 0.522 14.399 9.675 27.796 19.298 7.425-5.144 15.38-9.531 23.613-13.192-8.273-11.75-15.268-22.621-15.728-23.317-3.231-5.052-1.769-11.771 3.272-15.022 1.82-1.156 3.856-1.718 5.86-1.718 3.579 0 7.077 1.769 9.163 4.99 0.123 0.195 9.122 14.184 18.561 27.264 8.877-2.659 17.692-4.632 26.118-5.911-5.962-11.28-10.666-19.798-10.738-19.931-2.904-5.257-1.002-11.853 4.254-14.757 1.656-0.921 3.467-1.36 5.246-1.36 3.825 0 7.537 2.025 9.521 5.615 0.092 0.163 7.261 13.151 15.228 28.471 0.368 0 0.777-0.031 1.135-0.031 66.462 0 106.611-35.026 107.981-93.869-9.132-8.457-57.248-36.58-162.12-36.58-28.951 0-50.079 3.406-74.551 7.342-36.253 5.829-81.392 13.1-171.692 13.1-26.323 0-40.926 2.772-47.451 4.479zM95.874-11.537c19.716 14.777 33.819 37.889 36.508 70.051 56.236-2.076 89.707-7.435 117.686-11.945 25.382-4.080 47.308-7.618 78.008-7.618 4.060 0 7.905 0.143 11.842 0.225 3.937-12.282 13.898-34.382 37.399-50.724h-281.443z" />
<glyph unicode="&#xe617;" d="M503.378 389.183l-20.162 20.162 21.524 21.534c8.428 8.428 11.929 22.937-3.492 38.368-15.442 15.442-29.952 11.919-38.379 3.492l-21.524-21.535-20.152 20.152c-11.54 11.489-30.3 11.51-41.861-0.010l-18.76-18.749-8.346 8.356c-11.745 11.735-30.873 11.724-42.618 0l-14.090-14.090c-11.735-11.756-11.735-30.873 0.010-42.618l46.017-46.017-219.776-219.767-46.017 45.997c-5.673 5.694-13.24 8.827-21.299 8.837 0 0 0 0-0.010 0-8.049 0-15.626-3.134-21.32-8.806l-14.090-14.1c-11.714-11.735-11.714-30.853 0.010-42.608l8.335-8.325-18.759-18.769c-11.499-11.55-11.499-30.331 0.021-41.861l20.162-20.162-21.544-21.545c-8.417-8.428-11.919-22.937 3.502-38.358 15.431-15.421 29.941-11.93 38.379-3.492l21.534 21.534 20.152-20.152c5.765-5.755 13.343-8.622 20.92-8.622s15.155 2.867 20.941 8.632l18.76 18.749 8.345-8.346c11.735-11.735 30.852-11.745 42.629 0l14.090 14.090c11.714 11.735 11.714 30.863-0.010 42.608l-46.028 46.017 219.776 219.767 46.017-46.017c11.735-11.735 30.853-11.735 42.608-0.010l14.1 14.090c11.735 11.745 11.724 30.862-0.010 42.618l-8.325 8.335 18.76 18.769c11.489 11.53 11.489 30.31-0.021 41.85zM477.349 458.25c1.106 1.116 2.98 2.949 9.421-3.481 6.451-6.451 4.659-8.233 3.492-9.411l-21.534-21.534-12.892 12.902 21.514 21.524zM34.661-10.25c-1.188-1.178-2.959-2.949-9.421 3.492-6.441 6.451-4.659 8.233-3.492 9.411l21.535 21.534 12.902-12.902-21.524-21.534zM118.219-8.848c-3.573-3.563-9.38-3.563-12.922-0.021l-82.154 82.144c-3.553 3.563-3.553 9.37-0.010 12.933l18.739 18.749 95.097-95.077-18.749-18.728zM202 29.285c3.758-3.768 3.758-9.912 0.010-13.67l-14.079-14.070c-3.779-3.758-9.902-3.768-13.66-0.010l-140.726 140.705c-3.758 3.768-3.768 9.912-0.010 13.67l14.080 14.070c1.822 1.822 4.26 2.826 6.84 2.826 0 0 0 0 0 0 2.581 0 4.997-1.003 6.819-2.816l140.726-140.705zM155.983 104.25l-19.732 19.732 219.777 219.767 19.732-19.732-219.776-219.766zM478.485 292.079l-14.070-14.070c-3.768-3.758-9.902-3.768-13.67-0.010l-140.736 140.736c-3.758 3.768-3.758 9.892 0 13.66l14.070 14.070c1.894 1.884 4.373 2.826 6.851 2.826 2.468 0 4.935-0.942 6.82-2.816l140.726-140.726c3.768-3.768 3.768-9.902 0.010-13.67zM488.889 361.792l-18.739-18.749-95.087 95.077 18.739 18.739c3.563 3.564 9.359 3.553 12.923 0.010l82.154-82.143c3.553-3.574 3.553-9.38 0.010-12.933z" />
<glyph unicode="&#xe618;" d="M282.624 480c-134.113 0-177.152-33.587-177.152-138.24 0-1.762 0.061-3.87 0.174-6.277-19.282 3.349-38.892-2.796-53.474-17.264-23.675-23.481-27.986-62.403-11.561-104.018 38.001-99.738 81.654-128.573 113.654-141.558 8.899-55.306 14.776-76.185 24.146-85.555 15.657-14.449 43.223-19.087 113.428-19.087 73.288 0 104.079 7.076 113.449 25.836 13.762 25.406 14.521 96.932 14.551 108.513 29.952 51.364 40.96 156.979 40.96 239.411 0 104.653-43.305 138.24-178.176 138.24zM387.134 3.298c-3.379-6.759-22.661-14.817-95.293-14.817-61.767 0-88.75 3.697-99.246 13.384-6.052 6.052-12.452 39.987-16.313 62.986 1.863-0.635 3.625-1.26 5.263-1.915 28.826-11.53 173.548-8.653 217.232 15.995-1.168-26.542-4.311-62.065-11.643-75.632zM392.12 99.144c-19.568-19.568-173.148-29.113-203.029-17.162-3.318 1.3-6.994 2.529-10.977 3.861-30.403 10.107-76.359 25.385-118.405 135.782-13.363 33.853-10.793 64.533 6.891 82.063 8.038 7.966 18.34 12.155 28.897 12.155 3.922 0 7.895-0.584 11.786-1.762 3.789-39.577 12.862-101.98 20.47-120.576 2.14-5.233 8.131-7.762 13.353-5.601 5.232 2.14 7.742 8.12 5.591 13.363-8.254 20.142-20.746 114.452-20.746 140.493 0 83.046 21.77 117.76 156.672 117.76 135.783 0 157.696-34.714 157.696-117.76 0-93.645-15.084-209.5-48.2-242.616z" />
<glyph unicode="&#xe619;" d="M199.291 469.76c-99.031 0-199.291-74.947-199.291-218.194 0-72.653 49.295-189.051 51.989-195.338 0.072-0.185 0.154-0.348 0.236-0.533 0.041-0.092 0.092-0.185 0.144-0.276 3.666-7.137 35.635-66.939 76.431-66.939 69.438 0 113.439 68.741 116.756 135.301 118.057 30.679 239.216 62.649 265.605 123.73 0.625 1.444 0.911 3 0.829 4.567-7.301 146.473-109.589 217.682-312.699 217.682zM128.798 8.96c-22.999 0-47.678 36.444-56.934 53.401 0.42 4.67 1.648 15.053 4.977 27.136 13.424-29.645 36.342-70.298 61.041-70.298 39.168 0 70.021 67.522 76.4 112.558 3.564-1.833 7.178-3.779 10.855-5.847-2.437-50.893-35.768-116.951-96.338-116.951zM87.665 116.551c6.236 11.151 14.899 21.412 26.88 27.935 20.296 11.079 47.186 9.8 80.21-3.676-3.062-41.134-32.983-101.13-56.873-101.13-12.073 0-35.584 39.67-50.217 76.872zM237.261 142.776l-0.246-0.062c-9.39 5.356-18.483 10.005-27.279 13.906-0.226 0.113-0.451 0.215-0.686 0.297-41.984 18.555-76.984 20.409-104.305 5.54-26.849-14.623-40.284-42.26-46.971-65.065-14.919 40.141-37.294 108.001-37.294 154.173 0 98.253 61.419 197.714 178.811 197.714 188.815 0 284.396-64.041 292.106-195.748-24.986-51.19-146.637-82.811-254.137-110.756zM243.435 384.348c-8.007 2.837-16.384 5.171-25.017 6.882-2.929 0.583-8.376 2.038-14.633-4.434-6.042-6.247-15.073-15.698-18.483-19.405-5.294-5.765-2.488-9.072 0.082-9.748 7.71-2.038 15.442-4.935 22.969-8.96v0c2.806-1.495 8.734-4.352 14.448 1.321 6.81 6.748 17.029 17.664 21.904 23.019 7.516 8.253 1.731 10.261-1.27 11.325zM156.457 389.478c-19.65-5.529-38.072-16.118-53.125-33.577-2.427-2.806 9.749 1.423 28.744 4.034 2.14 0.297 7.383 1.321 11.326 5.755 5.376 6.041 14.602 15.442 18.873 19.682 6.39 6.359-1.72 5.253-5.816 4.106zM296.407 357.99c-2.478 2.099-7.772 5.929-13.384 0.471-3.84-3.738-19.394-19.968-28.713-29.972-7.588-8.141-4.024-12.278-2.406-14.684 5.837-8.673 11.090-18.841 15.554-30.74v0c3.717-9.912 49.572 29.338 49.582 41.308 0 10.906-7.875 22.774-20.634 33.618z" />
<glyph unicode="&#xe61a;" d="M256 469.76c-135.506 0-245.76-110.254-245.76-245.76s110.254-245.76 245.76-245.76 245.76 110.254 245.76 245.76-110.254 245.76-245.76 245.76zM442.214 350.659c23.337-34.202 37.519-75.141 38.953-119.245l-44.923 51.692 5.97 67.553zM423.741 374.231l-7.793-88.146-51.722-27.781-97.721 71.24v66.837l79.739 34.017c29.726-13.036 56.115-32.317 77.496-56.166zM348.959 244.081l-35.41-109.363h-114.514l-35.44 109.363 92.682 67.564 92.682-67.564zM317.983 440.606l-61.706-26.327-61.922 26.419c39.301 11.203 84.337 11.162 123.627-0.092zM166.021 430.52l80.005-34.14v-66.857l-95.518-69.622-53.965 26.378-7.823 88.474c21.371 23.685 47.688 42.824 77.302 55.767zM70.236 351.334l6.041-68.281-45.456-52.347c1.31 44.656 15.688 86.098 39.414 120.627zM31.908 200.735l57.528 66.233 53.73-26.256 36.874-113.776-32.041-35.779-86.917 20.009c-15.616 26.849-25.835 57.19-29.174 89.57zM77.834 86.282l67.195-15.483 35.267-58.993c-40.888 14.633-76.339 40.755-102.462 74.476zM209.040 3.635l-44.8 74.937 31.928 35.656h120.269l31.908-35.625-44.677-74.834c-30.495-6.564-64.092-6.615-94.628-0.133zM332.462 12.083l35.082 58.757 66.55 15.329c-25.959-33.454-61.113-59.433-101.632-74.087zM450.867 111.063l-86.293-19.876-32.021 35.748 35.697 110.285 55.040 29.563 56.853-65.434c-3.267-32.635-13.538-63.242-29.276-90.286z" />
<glyph unicode="&#xe61b;" d="M450.601 478.894c-29.082 0-60.375-9.267-60.375-29.614s31.293-29.614 60.375-29.614c29.041 0 60.293 9.267 60.293 29.614s-31.252 29.614-60.293 29.614zM450.601 437.934c-26.818 0-41.185 8.336-42.127 11.193 0.952 3.174 15.339 11.51 42.127 11.51 26.736 0 41.103-8.336 42.046-11.203-0.932-3.164-15.288-11.499-42.046-11.499zM348.119 478.556c-1.454 0.328-2.939 0.492-4.413 0.492-19.344 0-29.983-26.071-41.246-53.668-4.68-11.469-9.523-23.317-13.875-29.726-4.598-6.779-30.72-24.72-48.108-35.502-2.56-1.188-16.548-7.321-34.601-10.813 23.060 7.055 39.885 28.519 39.885 53.863 0 31.058-25.262 56.32-56.32 56.32s-56.32-25.262-56.32-56.32c0-29.87 23.399-54.313 52.818-56.146-1.26-0.041-2.478-0.174-3.738-0.174l-6.82 0.041c-15.431 0-37.519-1.178-51.108-11.366-12.954-9.707-47.124-62.935-49.858-75.274-1.823-8.182-7.014-69.56-6.656-87.47 0.512-25.651 15.647-29.788 22.108-30.382 0.317-0.031 1.485-0.082 1.802-0.082 9.042 0 20.562 6.902 23.255 26.337 0.829 5.98 1.71 13.056 2.621 20.306 1.936 15.401 4.578 36.485 6.226 41.216 1.424 4.106 9.707 14.786 19.692 26.368 0.358-19.056 0.645-44.124 0.082-58.245-4.669-11.202-35.614-62.505-40.581-67.594-3.236-2.058-19.026-6.123-31.713-9.39-12.933-3.318-27.587-7.086-40.878-11.366-14.745-4.752-24.566-20.664-21.012-34.038 3.963-14.858 15.319-21.238 34.99-19.712 10.599 0.85 87.644 14.377 95.488 17.644 11.51 4.762 32.092 29.235 48.496 52.5-2.171-15.637-4.751-29.266-6.195-32.727-3.492-8.366-36.117-54.272-58.859-83.743-3.87-5.028-5.305-11.806-4.014-19.098 1.034-5.888 4.403-14.142 10.455-17.981 3.236-2.058 8.315-4.803 15.053-4.803 0 0 0 0 0 0 7.23 0 14.398 3.092 21.913 9.442 7.701 6.502 75.223 82.985 79.391 89.938 7.486 12.483 19.599 72.254 20.368 122.327l0.226 14.633c0.512 31.314 1.045 63.632-0.185 90.737 14.663 10.209 55.317 39.475 66.775 57.753 0.236 0.379 0.45 0.768 0.635 1.178 1.075 2.365 2.457 5.253 4.024 8.54 19.169 40.335 36.997 81.531 26.45 103.229-3.205 6.687-8.837 11.090-16.251 12.759zM153.6 403.2c0 19.763 16.077 35.84 35.84 35.84s35.84-16.077 35.84-35.84-16.077-35.84-35.84-35.84-35.84 16.077-35.84 35.84zM319.447 371.385c-1.464-3.082-2.775-5.827-3.83-8.13-9.913-15.002-50.422-44.319-65.372-54.457-2.98-2.018-4.679-5.458-4.475-9.052 1.546-27.474 0.983-61.819 0.44-95.027l-0.236-14.654c-0.798-51.661-13.302-105.154-17.296-111.862-4.066-5.909-68.004-78.991-75.203-85.074-5.356-4.505-8.878-5.305-12.103-3.522-1.485 1.618-2.673 6.594-1.884 7.803 15.81 20.49 55.972 75.018 61.542 88.371 4.751 11.377 11.55 60.682 11.55 83.722 0 4.956-3.554 9.195-8.438 10.076-0.604 0.113-1.208 0.164-1.813 0.164-4.219 0-8.089-2.611-9.605-6.676-7.209-19.456-49.776-75.714-60.518-80.169-6.789-2.325-78.725-15.36-89.508-16.22-1.556-0.133-3.031-0.205-4.423-0.205-7.875 0-8.377 1.904-9.145 4.762-0.471 1.782 2.386 7.629 7.495 9.267 12.708 4.096 27.054 7.793 39.7 11.038 26.695 6.861 35.727 9.482 40.428 14.172 8.96 8.96 43.428 67.277 46.684 77.466 0.276 0.85 0.43 1.741 0.482 2.632 1.167 24.566-0.502 84.45-0.583 86.978-0.113 4.137-2.714 7.792-6.574 9.267-3.881 1.495-8.243 0.502-11.090-2.509-8.51-8.95-36.618-39.178-41.278-52.623-2.192-6.308-4.178-21.351-7.198-45.383-0.901-7.158-1.772-14.142-2.591-20.039-0.85-6.195-2.908-8.499-2.898-8.683-2.867 0.256-3.42 6.615-3.502 10.394-0.359 17.93 5.049 77.343 6.134 82.463 2.489 8.551 32.819 56.443 42.189 63.468 4.434 3.318 14.756 7.271 38.83 7.271l6.84-0.010c35.256 0 66.335 14.899 67.645 15.534 0.307 0.154 0.614 0.317 0.911 0.502 7.608 4.7 46.019 28.826 54.764 41.708 5.57 8.192 10.588 20.49 15.902 33.505 5.243 12.82 16.128 39.495 22.2 40.94 1.464-0.327 1.925-0.819 2.355-1.721 7.127-14.663-18.197-67.963-26.532-85.483z" />
<glyph unicode="&#xe61c;" d="M416.925 250.517l-54.394 68.508c-0.231 0.292-0.493 0.585-0.755 0.846-3.193 3.204-7.183 7.184-12.704 9.954-4.745 2.367-11.314 5.783-18.538 9.561 2.277-0.282 4.614-0.433 6.971-0.433 30.546 0 55.411 24.854 55.411 55.411s-24.865 55.411-55.411 55.411-55.411-24.854-55.411-55.411c0-14.467 5.572-27.656 14.679-37.538-5.622 2.811-10.317 5.067-13.44 6.368-16.663 7.777-35.13 8.936-35.705 8.976l-60.156 4.776c-3.053 2.659-8.553 7.415-14.861 12.835 21.993 3.103 38.959 22.044 38.959 44.883 0 24.995-20.341 45.337-45.337 45.337s-45.337-20.341-45.337-45.337c0-2.267 0.171-4.494 0.493-6.68-12.412 3.647-24.532-0.967-29.066-11.213-4.342-9.813-0.967-22.235 8.835-32.995 5.783-6.75 40.44-44.511 53.93-57.99 4.524-4.524 9.208-9.209 17.52-10.87l32.32-5.501-68.085-105.714c-1.078-1.541-26.758-38.173-41.981-67.591-4.906-9.319-5.017-19.122-0.313-26.92 4.353-7.204 12.332-11.515 21.349-11.515 6.438 0 16.372 2.146 26.97 12.251 6.428 5.964 23.636 23.122 40.733 40.299-25.096-52.268-59.874-124.635-63.653-132.181l-0.867-1.723c-4.12-8.11-10.337-20.361-5.783-31.978 2.6-6.629 8.060-11.515 15.868-14.387 3.163-1.3 6.468-1.964 9.823-1.964 19.756 0 33.478 22.799 34.748 25.015l165.106 259.305c9.762-8.18 24.724-20.724 29.086-24.331 0.403-0.292 0.675-0.524 0.846-0.614-0.070-0.715-0.262-1.864-0.423-2.74l-1.904-7.576c-2.921-10.146-7.868-27.283-9.42-33.509-1.894-6.629-7.667-26.819 11.284-34.395 2.569-0.937 5.209-1.411 7.818-1.411 0.010 0 0.010 0 0.010 0 12.966 0 22.457 11.375 27.122 22.235l1.652 3.99c3.758 9.027 11.596 27.817 16.734 44.067 0.171 0.534 0.292 1.068 0.373 1.622 0.998 6.922 2.831 19.787-5.098 30.869zM337.505 429.626c19.777 0 35.262-15.495 35.262-35.261s-15.485-35.262-35.262-35.262-35.262 15.495-35.262 35.262 15.485 35.261 35.262 35.261zM166.234 459.851c13.883 0 25.187-11.304 25.187-25.187s-11.304-25.187-25.187-25.187-25.187 11.304-25.187 25.187 11.304 25.187 25.187 25.187zM402.205 223.315c-4.876-15.233-12.281-32.974-15.868-41.589l-1.673-4.030c-2.478-5.783-6.478-9.813-8.513-9.813l-1.219 0.313c-0.554 1.128-0.060 4.423 1.572 10.135 1.592 6.428 6.448 23.202 9.309 33.136l1.683 5.834c0.121 0.443 0.212 0.887 0.282 1.35l0.413 2.539c1.048 6.055 2.639 15.193-7.969 22.728-6.045 5.037-37.247 31.212-37.247 31.212-2.236 1.874-5.148 2.7-8.010 2.237-2.861-0.444-5.4-2.096-6.962-4.543l-171.503-269.359c-3.083-5.339-11.375-15.324-17.52-15.324-0.715 0-1.421 0.151-2.508 0.594-2.418 0.897-4.030 1.974-4.423 2.972-1.26 3.193 2.811 11.183 4.997 15.485l0.927 1.844c6.014 12.019 86.321 179.411 89.736 186.535 2.126 4.433 0.745 9.772-3.285 12.603-1.753 1.229-3.788 1.824-5.793 1.824-2.619 0-5.229-1.027-7.184-3.002-0.685-0.695-68.508-69.506-82.382-82.392-4.523-4.312-9.319-6.781-13.178-6.781-1.129 0-3.163 0.231-4.1 1.783-0.947 1.572-0.615 4.241 0.927 7.173 14.618 28.26 40.339 64.962 40.833 65.678l76.569 118.873c1.833 2.841 2.115 6.418 0.745 9.52-1.36 3.093-4.191 5.3-7.526 5.874l-47.070 8.010c-1.894 0.383-3.244 1.602-6.941 5.299-13.228 13.228-47.21 50.253-53.074 57.084-5.39 5.924-6.035 10.317-5.511 11.516 0.111 0.252 0.867 0.503 1.945 0.503 1.653 0 6.186-0.604 13.239-6.71 11.656-8.745 50.414-42.525 50.807-42.858 1.632-1.421 3.667-2.277 5.823-2.448l63.672-5.048c0.151-0.010 15.565-1.058 28.955-7.304 7.476-3.123 26.678-13.147 42.123-21.207 8.846-4.625 17.077-8.926 22.728-11.747 2.458-1.229 4.614-3.325 7.053-5.773l53.739-67.642c2.589-3.617 2.156-9.38 1.38-15.082z" horiz-adv-x="504" />
<glyph unicode="&#xe61d;" d="M468.818 478.935c-5.058 2.519-11.202 0.44-13.721-4.628l-95.048-191.519c-4.055 3.144-8.243 6.124-12.585 8.899l87.808 173.445c2.55 5.048 0.533 11.202-4.505 13.762-5.069 2.55-11.202 0.522-13.773-4.505l-87.46-172.749c-19.108 9.186-40.161 14.889-62.413 16.333l73.974 147.19c2.539 5.058 0.502 11.213-4.546 13.752-5.089 2.55-11.213 0.491-13.752-4.546l-78.602-156.426c-5.304-0.368-10.517-0.983-15.678-1.822l74.455 149.074c2.529 5.058 0.471 11.213-4.577 13.732-5.069 2.529-11.223 0.471-13.742-4.587l-28.231-56.525-29.123 56.627c-2.581 5.028-8.766 7.004-13.783 4.423-5.028-2.58-7.014-8.755-4.423-13.783l35.082-68.24c0.286-0.563 0.625-1.086 0.994-1.567l-7.291-14.572-48.732 93.778c-2.601 5.017-8.796 6.983-13.804 4.362-5.018-2.601-6.974-8.786-4.362-13.804l55.593-106.988-24.095-48.251c-7.158-2.375-14.049-5.264-20.756-8.53l-86.702 173.077c-2.529 5.048-8.683 7.127-13.742 4.567-5.058-2.539-7.106-8.683-4.567-13.742l87.122-173.916c-4.086-2.642-8.028-5.479-11.868-8.458l-95.058 191.518c-2.509 5.059-8.642 7.148-13.721 4.618-5.069-2.519-7.138-8.663-4.618-13.732l97.424-196.25c-30.945-30.812-50.114-73.442-50.114-120.566-0.010-93.972 76.165-170.148 170.128-170.148s170.137 76.175 170.137 170.137c0 47.114-19.159 89.743-50.104 120.555l97.403 196.27c2.519 5.069 0.45 11.213-4.618 13.732zM405.658 148.388c0-82.524-67.134-149.668-149.658-149.668s-149.657 67.133-149.657 149.657c0 66.939 44.175 123.74 104.898 142.817 0.727 0.123 1.423 0.307 2.109 0.573 13.527 4.035 27.822 6.277 42.65 6.277 82.524 0 149.658-67.134 149.658-149.658zM209.060 184.217v-24.382h31.345v-94.515h37.806v151.234h-29.87c-1.116-7.424-5.95-32.338-39.281-32.338z" />
<glyph unicode="&#xe61e;" d="M508.17 54.989c-4.403 3.512-10.844 2.826-14.397-1.577-0.144-0.185-4.946-6.011-14.060-13.957-6.666 17.080-22.558 46.531-55.531 60.519 0.113 1.403 0.021 2.846-0.481 4.27-0.368 1.034-0.901 1.966-1.526 2.786l-48.743 206.5c16.22 13.107 16.108 41.923 16.036 58.716-0.133 29.543-12.267 63.57-12.79 65.004l-3.175 8.806-94.894-24.894 2.488-9.84c0.348-1.393 8.745-34.243 21.002-59.781 3.308-6.922 7.536-14.008 12.493-20.429-37.274-7.998-120.29-34.447-139.305-113.449-64.42-45.507-78.551-119.45-81.193-138.639-64.799-10.342-92.047-72.223-93.266-75.090-2.212-5.202 0.215-11.192 5.407-13.414 5.182-2.274 11.203 0.195 13.435 5.366 1.116 2.632 28.375 64.276 92.969 64.276 32.798 0 70.39-19.968 110.192-41.113 43.264-22.969 87.993-46.725 131.502-46.725 99.461 0 153.17 65.485 155.413 68.27 3.543 4.413 2.837 10.854-1.577 14.397zM462.654 26.348c-12.524-8.601-28.642-17.531-48.353-24.023-9.759 52.327-1.31 70.298 4.393 77.793 28.334-13.404 40.325-42.731 43.961-53.77zM355.082-7.168c-9.063 16.231-42.26 68.505-104.428 90.122 1.485 3.983 4.045 8.489 6.687 12.411 13.854-5.673 44.432-16.24 79.78-16.24 25.457 0 46.562 3.43 60.805 6.635-7.055-12.872-13.148-37.447-3.44-88.647-12.124-2.58-25.211-4.229-39.404-4.281zM392.192 144.855c-9.472-3.799-29.726-10.384-56.474-10.384-10.752 0-21.555 3.799-31.355 9.011 25.058 5.714 43.796 28.17 43.796 54.917 0 30.761-24.801 55.849-55.46 56.32 15.555 11.111 36.117 17.623 68.7 20.593l30.791-130.458zM291.84 162.56c-19.763 0-35.84 16.077-35.84 35.84s16.077 35.84 35.84 35.84 35.84-16.077 35.84-35.84-16.077-35.84-35.84-35.84zM303.667 406.558l56.596 14.848c3.399-11.356 8.632-31.662 8.714-49.244 0.092-21.576-1.351-41.913-12.318-44.524-10.394-2.509-25.959 11.582-36.096 32.748-7.486 15.596-13.578 34.796-16.896 46.172zM115.077 80.476c3.809 21.975 19.282 85.043 75.029 122.532l3.461 2.334 0.85 4.075c17.305 83.149 122.603 101.827 138.506 104.171 6.512-4.208 13.568-6.759 20.971-6.759 0.021 0 0.051 0 0.072 0l2.693-11.397c-56.965-5.601-85.002-22.252-111.81-64.738-0.696-1.106-1.157-2.304-1.393-3.512-5.038-8.428-7.936-18.279-7.936-28.784 0-15.094 5.97-28.805 15.657-38.933 0.061-0.082 0.123-0.154 0.195-0.215 1.659-1.853 41.145-45.25 84.347-45.25 27.525 0 49.111 6.205 61.214 10.742l4.055-17.173c-12.237-3.195-35.267-7.966-63.867-7.966-42.312 0-78.192 17.408-78.541 17.582l-7.168 3.533-5.161-6.072c-3.093-3.625-18.442-22.569-17.326-39.465l0.471-7.168 6.912-1.986c47.442-13.671 77.927-48.926 92.611-70.134-31.283 6.779-64.297 24.166-96.471 41.257-41.237 21.883-80.21 42.455-117.371 43.325z" />
<glyph unicode="&#xe61f;" d="M454.953 402.483c-94.976 94.955-217.61 58.859-291.349-14.858-30.597-30.567-50.749-64.686-56.689-140.247-0.020-0.236-0.031-0.471-0.041-0.707 0-0.195 0-0.389 0-0.573 0.43-23.941 4.69-46.52 12.656-67.133 3.481-17.849 3.676-39.946-2.837-46.469-17.090-17.081-38.471-33.813-55.664-47.248-12.431-9.728-23.163-18.135-29.512-24.474-9.4-9.38-12.964-21.913-10.025-35.267 2.529-11.541 9.882-23.654 21.268-35.031 14.838-14.827 30.29-22.416 44.216-22.416 9.687 0 18.637 3.676 26.112 11.161 6.605 6.605 15.104 17.459 24.935 30.034 13.291 16.988 29.839 38.144 46.797 55.091 5.765 5.755 24.351 7.055 45.394 3.205 21.074-8.243 44.063-12.606 68.372-13.015 0.215-0.010 0.43-0.021 0.635 0.010 0 0 0 0 0.010 0 0.082 0 0.174 0 0.246 0.010 59.812 3.338 105.789 21.883 140.575 56.688 39.803 39.793 64.911 88.945 70.686 138.414 6.635 56.863-12.647 109.712-55.788 152.822zM236.841 86.948c-0.614 0.236-1.239 0.42-1.884 0.543-14.142 2.683-48.722 7.188-64.614-8.673-17.849-17.838-34.816-39.526-48.446-56.955-9.431-12.042-17.572-22.446-23.286-28.17-13.588-13.589-33.454 3.358-41.37 11.264-8.602 8.612-14.050 17.234-15.739 24.945-1.444 6.574 0.031 11.93 4.495 16.394 5.479 5.468 15.749 13.507 27.658 22.825 17.623 13.783 39.547 30.935 57.529 48.896 16.671 16.681 10.526 54.63 8.254 65.874-0.113 0.584-0.286 1.147-0.502 1.7-4.178 10.649-7.25 21.934-9.175 33.741l142.008-141.936c-12.206 1.966-23.88 5.161-34.928 9.554zM490.404 252.027c-5.253-44.902-28.272-89.764-64.829-126.3-30.638-30.659-69.734-46.745-122.737-50.442l-175.135 175.032c6.523 73.39 27.536 100.014 50.37 122.829 66.775 66.745 177.377 99.87 262.4 14.858 38.553-38.533 55.818-85.545 49.93-135.977zM122.88 418.56c0 33.884-27.556 61.44-61.44 61.44s-61.44-27.556-61.44-61.44 27.556-61.44 61.44-61.44 61.44 27.556 61.44 61.44zM20.48 418.56c0 22.589 18.37 40.96 40.96 40.96s40.96-18.37 40.96-40.96-18.37-40.96-40.96-40.96-40.96 18.37-40.96 40.96z" />
<glyph unicode="&#xe620;" d="M384 316.16c31.048 0 56.32 25.262 56.32 56.32s-25.272 56.32-56.32 56.32-56.32-25.262-56.32-56.32 25.272-56.32 56.32-56.32zM384 408.32c19.763 0 35.84-16.077 35.84-35.84s-16.077-35.84-35.84-35.84-35.84 16.077-35.84 35.84 16.077 35.84 35.84 35.84zM409.6 172.8c-56.464 0-102.4-45.937-102.4-102.4s45.937-102.4 102.4-102.4 102.4 45.937 102.4 102.4-45.937 102.4-102.4 102.4zM409.6-11.52c-45.168 0-81.92 36.752-81.92 81.92s36.752 81.92 81.92 81.92 81.92-36.752 81.92-81.92-36.752-81.92-81.92-81.92zM102.4 172.8c-56.464 0-102.4-45.937-102.4-102.4s45.937-102.4 102.4-102.4 102.4 45.937 102.4 102.4-45.936 102.4-102.4 102.4zM102.4-11.52c-45.169 0-81.92 36.752-81.92 81.92s36.752 81.92 81.92 81.92 81.92-36.752 81.92-81.92-36.751-81.92-81.92-81.92zM284.866 202.947c-11.52 8.202-27.801 17.797-39.27 24.32 22.651 17.459 50.33 38.646 53.525 40.684 0.707 0.399 1.413 0.839 2.099 1.28 8.53-11.223 35.226-46.408 35.226-46.408l0.921-1.055c1.341-1.331 8.827-8.007 24.678-8.007h88.514c16.077 0 30.72 14.643 30.72 30.72s-14.643 30.72-30.72 30.72h-76.554c-9.789 14.151-40.171 58.112-47.401 69.028-10.178 15.35-25.18 23.132-44.615 23.132-17.541 0-37.95-14.029-62.812-32.368-32.798-24.208-54.21-41.39-61.911-47.667-5.662-4.639-24.146-22.037-24.146-51.446 0-27.781 26.993-44.401 46.695-56.535l4.25-2.632c15.145-9.442 36.505-22.846 46.48-29.113l-11.694-92.99-0.082-1.209c-0.071-10.526 5.571-31.222 27.484-34.151 1.587-0.215 3.102-0.307 4.557-0.307 18.882 0 28.467 15.749 31.385 26.030 0.676 3.687 16.773 90.685 19.344 106.731l0.697 4.147c2.632 15.216 5.335 30.935-17.367 47.094zM282.061 159.344l-0.738-4.393c-2.529-15.79-19.077-105.278-19.026-105.267-0.031-0.103-3.748-11.408-13.312-10.117-8.56 1.137-9.605 10.435-9.718 13.24l13.23 105.206-5.53 3.471c0 0-31.683 19.906-52.071 32.625l-4.342 2.693c-17.326 10.649-36.956 22.733-36.956 39.076 0 20.398 12.728 32.4 16.619 35.574 7.567 6.174 28.682 23.111 61.123 47.053 15.309 11.305 38.451 28.375 50.647 28.375 12.483 0 21.228-4.444 27.546-13.967 8.724-13.168 48.968-71.312 50.678-73.779l3.062-4.414h87.286c4.793 0 10.24-5.458 10.24-10.24s-5.447-10.24-10.24-10.24h-88.514c-6.134 0-9.257 1.546-10.025 1.946-4.864 6.41-32.072 42.261-36.495 48.066-4.464 5.858-9.543 7.086-13.015 7.086-5.048 0-8.807-2.509-11.541-4.342-0.625-0.42-1.25-0.85-1.915-1.219-4.168-2.345-44.575-33.475-68.281-51.815l-12.452-9.625 13.855-7.486c0.327-0.174 32.666-17.674 50.811-30.587 12.216-8.683 11.418-13.281 9.072-26.921z" />
<glyph unicode="&#xe621;" d="M436.982 196.762c-6.216 3.287-12.411 5.683-18.473 7.178 15.012 10.425 29.154 21.289 39.844 31.98 30.29 30.29 49.091 68.557 52.941 107.756 3.922 39.957-8.079 76.124-33.782 101.817-52.51 52.51-146.535 43.909-209.593-19.159-18.954-18.944-40.12-50.698-57.385-77.63-0.492 1.27-1.26 2.468-2.294 3.492-4.004 4.004-10.476 4.004-14.48 0-12.688-12.677-13.281-34.786-1.679-62.249 10.373-24.546 29.532-51.517 53.945-75.919 5.878-5.878 11.909-11.449 18.002-16.671 0.185-0.276 0.358-0.563 0.563-0.819 1.188-1.577 2.755-2.724 4.475-3.379 17.685-14.469 35.861-25.877 52.889-33.065 27.454-11.612 49.562-11.018 62.238 1.669 4.004 4.004 4.004 10.476 0 14.479-0.819 0.819-1.741 1.474-2.724 1.945 1.485 0.215 2.939 0.768 4.26 1.669 14.224 9.677 30.505 4.7 41.666-1.219 31.089-16.414 64.123-63.529 64.123-118.477 0-5.663 4.577-10.24 10.24-10.24s10.24 4.577 10.24 10.24c0 63.642-37.745 116.889-75.018 136.601zM260.516 228.516c-2.345 2.334-4.618 4.69-6.84 7.055 8.366 11.111 27.607 34.765 44.933 56.044 19.149 23.542 37.253 45.773 43.284 54.169 8.889 12.37 20.941 20.039 33.075 21.033 7.895 0.635 14.909-1.628 19.671-6.39 4.024-4.025 5.959-8.776 5.909-14.531-0.092-11.541-8.13-25.651-22.651-39.721-17.459-16.947-81.255-71.045-104.438-89.866-4.373 3.881-8.694 7.957-12.944 12.206zM289.587 203.038c26.183 21.422 85.351 71.741 102.574 88.443 18.75 18.176 28.733 36.935 28.866 54.262 0.092 11.202-4.034 21.289-11.909 29.174-8.95 8.95-21.904 13.476-35.81 12.318-18.135-1.475-35.656-12.226-48.057-29.491-5.673-7.895-24.402-30.925-42.517-53.187-19.415-23.87-34.243-42.137-42.782-53.218-4.28 5.304-8.254 10.629-11.888 15.944 27.443 44.8 73.646 105.575 88.514 120.433 35.492 35.481 87.511 41.236 115.938 12.8s22.692-80.435-12.8-115.938c-11.059-11.059-49.899-38.124-84.173-61.993-13.179-9.185-26.020-18.135-37.038-25.989-2.969 2.038-5.95 4.188-8.919 6.441zM362.25 191.815c-9.083-5.704-17.541-11.008-24.73-15.769-2.437 0.839-4.976 1.813-7.588 2.908-4.075 1.721-8.243 3.717-12.452 5.98 9.216 6.523 19.394 13.599 29.767 20.828 36.669 25.559 74.588 51.978 86.938 64.317 43.479 43.479 49.224 108.483 12.8 144.896-36.403 36.423-101.397 30.669-144.896-12.8-16.394-16.384-58.594-72.356-85.904-115.262-1.946 3.727-3.696 7.404-5.222 11.018-1.229 2.908-2.294 5.714-3.184 8.417 3.482 5.345 7.393 11.489 11.602 18.125 17.91 28.19 42.445 66.806 63.017 87.388 55.081 55.061 136.11 63.673 180.633 19.159 21.289-21.289 31.191-51.6 27.884-85.34-3.389-34.498-20.101-68.332-47.043-95.283-19.835-19.825-54.098-41.319-81.623-58.583zM311.409 117.934c-11.889-11.889-59.177 2.243-109.209 52.265-50.023 50.022-64.154 97.321-52.265 109.209 4.004 4.004 4.004 10.476 0 14.48s-10.476 4.004-14.48 0c-7.363-7.363-10.424-17.255-10.066-28.672-32.645-20.296-56.77-38.174-71.731-53.135-63.058-63.058-71.659-157.082-19.159-209.582 22.508-22.507 53.033-34.509 87.112-34.509 4.834 0 9.749 0.246 14.715 0.727 39.209 3.85 77.476 22.651 107.755 52.941 16.159 16.159 31.969 42.27 44.677 63.242 1.843 3.041 3.604 5.95 5.274 8.663 12.759-0.993 23.818 1.853 31.856 9.892 4.004 4.004 4.004 10.476 0 14.479s-10.476 3.993-14.479 0zM171.131 173.701c5.274-6.195 10.844-12.226 16.589-17.981 4.946-4.946 10.107-9.759 15.401-14.366-3.205-3.769-6.82-7.966-10.455-12.196-10.055-11.694-19.548-22.743-22.569-26.931-8.888-12.38-20.941-20.050-33.075-21.043-7.926-0.594-14.909 1.628-19.661 6.39-4.034 4.034-5.97 8.776-5.918 14.541 0.092 11.55 8.13 25.651 22.641 39.721 4.27 4.127 17.695 15.493 28.488 24.627 3.011 2.539 5.918 4.997 8.56 7.24zM147.589 205.639c3.328-5.315 6.953-10.619 10.814-15.882-2.775-2.345-5.857-4.966-9.052-7.67-12.165-10.301-24.75-20.941-29.501-25.559-18.749-18.166-28.733-36.925-28.867-54.262-0.092-11.202 4.025-21.289 11.909-29.184 8.96-8.96 21.996-13.414 35.819-12.319 18.135 1.485 35.645 12.237 48.046 29.502 2.488 3.461 12.565 15.186 21.463 25.529 3.768 4.393 7.516 8.745 10.823 12.636 6.072-4.577 12.226-8.848 18.381-12.708l-4.813-6.625c-13.589-18.78-30.505-42.137-37.161-48.814-35.502-35.471-87.511-41.226-115.938-12.8-13.507 13.497-19.773 32.788-17.664 54.323 2.181 22.282 13.005 44.155 30.464 61.625 7.537 7.536 35.389 27.812 55.276 42.209zM271.237 95.509c-12.135-20.029-27.238-44.964-41.636-59.371-26.941-26.942-60.785-43.653-95.283-47.043-33.761-3.236-64.051 6.605-85.34 27.884-44.514 44.514-35.922 125.543 19.159 180.624 12.831 12.841 33.413 28.273 61.245 45.947 2.028-6.441 4.772-13.127 8.11-19.917-27.791-20.132-51.394-37.427-59.678-45.721-20.797-20.798-33.71-47.125-36.362-74.096-2.714-27.74 5.652-52.889 23.572-70.799 36.413-36.423 101.406-30.679 144.896 12.8 7.823 7.824 23.808 29.911 39.27 51.282l6.195 8.53c5.949-2.939 11.806-5.417 17.511-7.373-0.533-0.901-1.096-1.813-1.659-2.745zM341.033 147.558c-11.899-11.899-59.187 2.253-109.209 52.265-50.023 50.023-64.154 97.321-52.265 109.22 4.004 4.004 4.004 10.476 0 14.479s-10.476 4.004-14.48 0c-27.904-27.904 6.103-92.017 52.265-138.179 34.59-34.591 79.268-62.351 111.227-62.351 10.69 0 19.947 3.103 26.942 10.087 4.004 4.004 4.004 10.476 0 14.479s-10.486 4.004-14.479 0z" />
<glyph unicode="&#xe622;" d="M321.68 275.2l23.481 23.481c4.004 4.004 4.004 10.476 0 14.479s-10.476 4.004-14.479 0l-23.481-23.481-38.841 38.841c-4.004 4.004-10.476 4.004-14.48 0s-4.004-10.476 0-14.48l38.84-38.84-36.721-36.721-38.84 38.84c-4.004 4.004-10.476 4.004-14.48 0s-4.004-10.476 0-14.479l38.84-38.841-36.72-36.721-38.84 38.84c-4.004 4.004-10.476 4.004-14.48 0s-4.004-10.475 0-14.48l38.84-38.841-23.481-23.481c-4.004-4.004-4.004-10.476 0-14.479s10.476-4.004 14.48 0l23.481 23.481 38.84-38.841c1.997-1.997 4.618-3 7.239-3s5.243 1.003 7.24 3c4.004 4.004 4.004 10.476 0 14.479l-38.84 38.841 36.72 36.721 38.841-38.841c4.004-4.004 10.476-4.004 14.479 0s4.004 10.476 0 14.479l-38.841 38.841 36.721 36.721 38.841-38.841c4.004-4.004 10.476-4.004 14.479 0s4.004 10.476 0 14.48l-38.841 38.84zM471.88 439.87c-19.272 19.272-54.446 29.89-99.072 29.89-70.553 0-174.367-28.436-254.178-108.247-119.102-119.132-132.629-298.988-78.367-353.25 19.343-19.364 54.559-30.024 99.174-30.024 70.43 0 174.162 28.467 254.065 108.38 117.033 117.033 131.39 300.216 78.377 353.25zM379.024 101.099c-75.479-75.479-173.25-102.38-239.585-102.38-32.727 0-59.904 6.298-76.708 17.531l87.87 87.87c4.004 4.004 4.004 10.476 0 14.479s-10.476 4.004-14.48 0l-87.808-87.808c-33.648 51.702-23.070 208.343 84.797 316.242 75.387 75.387 173.25 102.246 239.698 102.246 32.697 0 59.832-6.256 76.585-17.408l-87.993-87.993c-4.004-4.004-4.004-10.476 0-14.48s10.476-4.004 14.479 0l87.952 87.941c33.659-51.692 23.081-208.353-84.808-316.242z" />
<glyph unicode="&#xe623;" d="M501.76 393.513c0 48.722-37.929 66.007-70.421 66.007-13.691 0-31.969-4.362-43.714-10.24h-263.25c-11.735 5.878-30.023 10.24-43.715 10.24-32.481 0-70.421-17.285-70.421-66.007 0-47.964 41.758-89.877 75.305-123.566 20.623-20.706 41.954-42.117 40.776-53.647-0.103-0.993-0.409-4.034-6.226-7.885-4.71-3.123-6.011-9.472-2.888-14.192s9.462-6.011 14.193-2.887c8.775 5.806 13.865 13.046 15.145 21.555 15.248-51.077 35.041-95.539 58.091-123.106 0.471-1.116 1.157-2.171 2.048-3.092 10.885-11.305 16.005-20.541 14.797-26.675-1.843-9.37-20.030-17.387-36.055-24.484-24.494-10.813-52.255-23.070-52.255-49.92 0-8.622 0-17.531 123.218-17.623 122.46 0.072 122.46 8.99 122.46 17.623 0 26.798-27.699 39.178-52.142 50.104-16.087 7.178-34.334 15.329-36.168 24.822-1.209 6.185 3.911 15.442 14.786 26.747 0.88 0.921 1.557 1.956 2.027 3.072 23.040 27.678 42.813 72.038 58.061 122.942 1.168-8.683 6.277-16.056 15.186-21.965 4.711-3.113 11.070-1.833 14.192 2.887s1.833 11.070-2.887 14.192c-5.817 3.85-6.134 6.892-6.226 7.885-1.168 11.53 20.152 32.942 40.776 53.647 33.546 33.68 75.305 75.612 75.305 123.566zM100.055 284.395c-30.884 31.017-69.335 69.622-69.335 109.118 0 42.24 38.226 45.527 49.941 45.527 9.502 0 23.070-3.021 32.020-6.892 0.686-59.341 10.127-128.891 26.225-191.683-8.376 13.353-22.6 27.618-38.85 43.929zM318.341 17.019c15.882-7.096 32.205-14.387 37.898-24.054-16.865-2.13-56.996-4.475-100.608-4.485-42.998 0.031-83.005 2.365-99.861 4.495 5.714 9.605 22.026 16.825 37.918 23.829 21.617 9.554 43.971 19.415 47.882 39.26 0.399 1.997 0.583 4.034 0.563 6.103 9.103-2.714 18.658-2.632 27.74 0.215 0-1.945 0.195-3.861 0.553-5.755 3.87-19.927 26.265-29.942 47.913-39.608zM255.621 80.64c-51.374 0-119.859 170.578-122.429 348.16h245.616c-2.591-177.582-71.495-348.16-123.187-348.16zM372.859 240.087c16.24 62.894 25.774 132.598 26.46 192.062 8.94 3.87 22.507 6.891 32.020 6.891 11.725 0 49.94-3.287 49.94-45.527 0-39.495-38.451-78.101-69.335-109.118-16.414-16.456-30.74-30.853-39.086-44.309zM213.095 331.131v-21.063h30.853v-81.776h31.263v128.492h-24.73c-0.901-6-7.68-25.651-37.386-25.651z" />
<glyph unicode="&#xe624;" d="M419.84 152.32c-14.356 0-27.894-3.379-40.007-9.226-7.178 14.029-13.68 28.375-19.18 42.455 8.366-1.69 17.264-2.529 24.3-2.529 13.138 0 21.945 2.693 27.689 8.458 7.301 7.332 7.25 16.968 7.219 25.477l-0.010 1.925 0.010 1.925c0.031 8.51 0.082 18.135-7.219 25.467-5.755 5.775-14.551 8.469-27.689 8.469-16.988 0-31.887-4.137-42.526-11.479-3.103 12.012-5.171 20.675-5.223 20.91-0.195 0.819-0.481 1.587-0.85 2.314-3.195 11.161-9.584 23.214-9.872 23.757-1.782 3.349-5.253 5.438-9.042 5.438-1.433 0-35.226-0.266-58.44-23.481-4.004-4.004-4.004-10.476 0-14.479s10.476-4.004 14.479 0c12.083 12.083 28.897 15.81 37.827 16.967 2.089-4.557 4.557-10.526 5.776-15.442-0.195-4.464-2.642-13.107-8.079-19.169-3.522-3.922-7.465-5.837-12.042-5.837-62.822 0-74.588-29.552-80.906-45.424-0.768-1.915-1.741-4.382-2.499-5.765-32.932 0.246-57.785 8.93-61.235 15.175-13.712 24.832-24.955 25.774-70.4 25.774-70.922 0-80.784-34.755-81.674-38.717-0.727-3.246 0.164-6.646 2.396-9.113 1.27-1.403 13.066-13.609 38.318-13.609 3.748 0 7.557 0.103 11.428 0.205 19.845 0.574 38.983 0.993 57.364-12.165-5.704 1.096-11.571 1.721-17.593 1.721-50.913 0-92.16-41.246-92.16-92.16s41.246-92.16 92.16-92.16c44.769 0 82.032 31.897 90.388 74.209 20.357-9.421 51.374-12.667 68.198-12.667 0.461 0 0.922 0.010 1.372 0.010 18.832 0.236 44.841 4.762 56.156 16.732 5.038 5.335 5.909 10.731 5.663 15.278-8.336 60.048 20.48 88.289 35.134 98.529 4.127-9.329 8.673-18.647 13.435-27.853-21.207-16.886-34.826-42.865-34.826-72.079 0-50.913 41.247-92.16 92.16-92.16s92.16 41.246 92.16 92.16-41.246 92.16-92.16 92.16zM350.075 223.038c6.267 6.892 19.64 11.182 34.877 11.182 10.219 0 12.738-2.018 13.148-2.417 1.28-1.29 1.25-6.615 1.239-10.896l-0.010-2.007 0.010-2.017c0.010-4.291 0.041-9.615-1.239-10.906-0.409-0.399-2.928-2.416-13.148-2.416-11.684 0-25.815 2.529-32.174 5.755-0.358 0.185-0.748 0.174-1.116 0.317-1.178 4.004-2.334 8.059-3.451 12.073 0.635 0.409 1.321 0.748 1.863 1.331zM92.16-11.52c-39.526 0-71.68 32.164-71.68 71.68s32.154 71.68 71.68 71.68c18.688 0 35.666-7.25 48.446-19.005 0.707-0.86 1.464-1.608 2.365-2.181 10.608-10.67 17.808-24.668 20.050-40.253h-20.695c-4.741 23.368-25.406 40.96-50.166 40.96-28.273 0-51.2-22.917-51.2-51.2 0-28.272 22.927-51.2 51.2-51.2 24.761 0 45.424 17.593 50.166 40.96h20.695c-4.997-34.673-34.816-61.44-70.861-61.44zM92.16 49.92h28.836c-4.24-11.889-15.504-20.48-28.836-20.48-16.937 0-30.72 13.783-30.72 30.72s13.783 30.72 30.72 30.72c13.332 0 24.586-8.591 28.836-20.48h-28.836c-5.653 0-10.24-4.577-10.24-10.24s4.588-10.24 10.24-10.24zM293.468 60.375c-2.969-3.687-18.8-10.066-41.595-10.353-26.583-0.635-59.453 7.055-67.789 14.971-1.26 24.228-11.806 45.957-28.221 61.686-32.84 58.327-72.254 57.354-104.018 56.555-3.687-0.092-7.312-0.195-10.885-0.195-7.742 0-13.363 1.567-17.122 3.195 6.041 6.83 21.289 17.285 58.082 17.285 44.083 0 44.718-1.147 52.48-15.186 11.223-20.347 55.972-25.774 80.64-25.774 12.595 0 16.896 10.803 20.040 18.688 5.468 13.721 12.953 32.512 61.881 32.512 10.435 0 19.865 4.373 27.289 12.636 0.368 0.41 0.738 0.829 1.086 1.26 4.311-16.128 9.748-35.164 14.827-49.070-17.849-11.878-56.443-46.346-46.695-118.21zM419.84-11.52c-39.516 0-71.68 32.164-71.68 71.68 0 21.351 9.442 40.489 24.3 53.637 3.481-6.144 7.035-12.185 10.68-18.033-8.94-9.216-14.5-21.74-14.5-35.605 0-28.272 22.928-51.2 51.2-51.2s51.2 22.928 51.2 51.2c0 28.283-22.928 51.2-51.2 51.2-7.035 0-13.732-1.423-19.835-3.993-3.563 5.735-7.055 11.632-10.455 17.664 9.216 4.322 19.456 6.81 30.29 6.81 39.516 0 71.68-32.164 71.68-71.68s-32.164-71.68-71.68-71.68zM394.885 77.937c9.206-13.302 18.586-25.293 27.73-35.031 3.881-4.127 10.353-4.332 14.479-0.461 4.116 3.87 4.332 10.353 0.461 14.479-8.53 9.093-17.305 20.265-25.918 32.697 2.622 0.738 5.346 1.26 8.202 1.26 16.937 0 30.72-13.783 30.72-30.72s-13.783-30.72-30.72-30.72c-16.937 0-30.72 13.783-30.72 30.72 0 6.635 2.171 12.749 5.765 17.776z" />
<glyph unicode="&#xe625;" d="M428.016 121.312l-67.456 38.944 43.408 24.8c3.832 2.192 5.168 7.088 2.976 10.912-2.176 3.832-7.072 5.16-10.912 2.976l-51.504-29.432-80.52 46.488 80.504 46.488 51.504-29.432c1.264-0.72 2.632-1.056 3.976-1.056 2.776 0 5.48 1.448 6.952 4.032 2.192 3.832 0.848 8.72-2.976 10.912l-43.408 24.808 67.44 38.936c3.832 2.208 5.144 7.104 2.928 10.928s-7.104 5.152-10.928 2.928l-68-39.256v58.712c0 4.416-3.584 8-8 8s-8-3.584-8-8v-67.952l-80-46.192v93.504l51.968 29.696c3.832 2.192 5.168 7.080 2.976 10.912-2.176 3.832-7.088 5.168-10.912 2.976l-44.032-25.16v82.216c0 4.416-3.584 8-8 8s-8-3.584-8-8v-82.216l-44.032 25.16c-3.824 2.192-8.72 0.856-10.912-2.976s-0.856-8.72 2.976-10.912l51.968-29.696v-93.496l-80 46.184v67.952c0 4.416-3.584 8-8 8s-8-3.584-8-8v-58.712l-67.96 39.24c-3.84 2.216-8.72 0.896-10.928-2.928-2.208-3.832-0.896-8.72 2.928-10.928l67.4-38.912-43.408-24.808c-3.832-2.192-5.168-7.080-2.976-10.912 1.472-2.592 4.176-4.040 6.952-4.040 1.344 0 2.712 0.336 3.96 1.056l51.512 29.432 80.52-46.488-80.52-46.504-51.512 29.448c-3.832 2.176-8.72 0.848-10.912-2.976-2.192-3.832-0.856-8.72 2.976-10.912l43.408-24.808-67.44-38.936c-3.832-2.2-5.136-7.112-2.928-10.928 1.488-2.568 4.168-4 6.936-4 1.352 0 2.736 0.344 3.992 1.072l68 39.256v-58.712c0-4.416 3.584-8 8-8s8 3.584 8 8v67.952l80 46.184v-93.496l-51.968-29.696c-3.832-2.192-5.168-7.088-2.976-10.912 1.472-2.576 4.176-4.032 6.952-4.032 1.344 0 2.712 0.336 3.96 1.056l44.032 25.16v-82.216c0-4.416 3.584-8 8-8s8 3.584 8 8v82.216l44.032-25.168c1.248-0.712 2.616-1.048 3.96-1.048 2.776 0 5.48 1.456 6.952 4.032 2.192 3.832 0.848 8.72-2.976 10.912l-51.968 29.696v93.52l80-46.184v-59.976c0-4.416 3.584-8 8-8s8 3.584 8 8v50.72l68.016-39.264c1.264-0.736 2.64-1.080 3.992-1.080 2.776 0 5.464 1.44 6.936 4 2.216 3.824 0.896 8.736-2.928 10.936z" />
<glyph unicode="&#xe626;" d="M248 0c-119.104 0-216 96.888-216 216 0 119.104 96.896 216 216 216 119.112 0 216-96.896 216-216 0-119.112-96.888-216-216-216zM248 416c-110.28 0-200-89.72-200-200s89.72-200 200-200 200 89.72 200 200-89.72 200-200 200zM248 64c-83.816 0-152 68.184-152 152s68.184 152 152 152c83.816 0 152-68.184 152-152s-68.184-152-152-152zM248 352c-74.992 0-136-61.008-136-136s61.008-136 136-136 136 61.008 136 136-61.008 136-136 136zM248 128c-48.52 0-88 39.488-88 88 0 48.52 39.48 88 88 88 48.512 0 88-39.48 88-88 0-48.512-39.488-88-88-88zM248 288c-39.704 0-72-32.304-72-72s32.296-72 72-72 72 32.304 72 72-32.296 72-72 72zM248 192c-13.232 0-24 10.768-24 24s10.768 24 24 24c13.232 0 24-10.768 24-24s-10.768-24-24-24zM248 224c-4.416 0-8-3.592-8-8s3.584-8 8-8 8 3.592 8 8-3.584 8-8 8z" />
<glyph unicode="&#xe627;" d="M248 16c-101.456 0-184 82.528-184 184 0 101.464 82.544 184 184 184s184-82.536 184-184c0-101.472-82.544-184-184-184zM248 368c-92.64 0-168-75.368-168-168s75.36-168 168-168 168 75.368 168 168-75.36 168-168 168zM248 176c-13.232 0-24 10.768-24 24s10.768 24 24 24c13.232 0 24-10.768 24-24s-10.768-24-24-24zM248 208c-4.408 0-8-3.584-8-8s3.592-8 8-8 8 3.584 8 8-3.592 8-8 8zM240 336h16v-184h-16v184zM232 424h32v-56h-32v56zM393.344 387.304l33.936-33.944-16.968-16.968-33.936 33.944 16.968 16.968zM393.368 364.688l11.32-11.312-16.976-16.976-11.312 11.312 16.968 16.976z" />
<glyph unicode="&#xe628;" d="M495.384 404.944c0.808 1.952 0.808 4.16 0 6.112-0.824 1.96-2.368 3.52-4.328 4.328-0.976 0.408-2.016 0.616-3.056 0.616h-40v40c0 1.048-0.2 2.080-0.616 3.056-0.824 1.96-2.368 3.52-4.328 4.328-1.944 0.808-4.168 0.808-6.112 0-0.984-0.408-1.864-0.992-2.608-1.728l-31.992-31.992c0-0.008-0.008-0.008-0.008-0.008l-31.992-31.992c-0.744-0.744-1.328-1.624-1.736-2.608-0.408-0.976-0.608-2.008-0.608-3.056v-44.688l-0.44-0.44c-35.672 32.96-83.288 53.128-135.56 53.128-110.28 0-200-89.72-200-200 0-52.264 20.176-99.888 53.128-135.56l-50.784-50.784c-3.128-3.128-3.128-8.184 0-11.312 1.56-1.56 3.608-2.344 5.656-2.344s4.096 0.784 5.656 2.344l50.784 50.784c35.664-32.96 83.288-53.128 135.56-53.128s99.888 20.168 135.56 53.128l50.784-50.784c1.56-1.56 3.608-2.344 5.656-2.344s4.096 0.784 5.656 2.344c3.128 3.128 3.128 8.184 0 11.312l-50.784 50.784c32.96 35.672 53.128 83.296 53.128 135.56s-20.168 99.896-53.128 135.56l0.44 0.44h44.688c1.040 0 2.080 0.208 3.056 0.616 0.984 0.408 1.864 0.992 2.608 1.728l31.992 31.992c0 0.008 0.008 0.008 0.008 0.008l31.992 31.992c0.736 0.744 1.32 1.624 1.728 2.608zM452.688 384h-25.376l16 16h25.376l-16-16zM420.688 352h-25.376l16 16h25.376l-16-16zM384 388.688l16 16v-25.376l-16-16v25.376zM432 411.312l-16-16v25.376l16 16v-25.376zM416 200c0-101.472-82.544-184-184-184s-184 82.528-184 184c0 101.464 82.544 184 184 184 47.856 0 91.504-18.376 124.256-48.432l-34.072-34.064c-24.016 21.384-55.56 34.496-90.184 34.496-74.992 0-136-61.008-136-136s61.008-136 136-136 136 61.008 136 136c0 34.624-13.112 66.168-34.504 90.192l34.064 34.064c30.064-32.76 48.44-76.4 48.44-124.256zM288 200c0-30.872-25.128-56-56-56-30.88 0-56 25.128-56 56s25.12 56 56 56c12.56 0 24.128-4.2 33.472-11.216l-23.192-23.184c-3.128 1.496-6.584 2.4-10.28 2.4-13.232 0-24-10.768-24-24s10.768-24 24-24 24 10.768 24 24c0 3.696-0.904 7.16-2.408 10.28l23.184 23.184c7.024-9.336 11.224-20.92 11.224-33.464zM226.152 194.632c-0.632 0.68-1.168 1.448-1.536 2.304 0.352-0.824 0.888-1.6 1.536-2.304zM224.616 203.064c0.36 0.856 0.904 1.624 1.536 2.304-0.648-0.704-1.184-1.48-1.536-2.304zM228.944 192.616c-0.88 0.368-1.656 0.912-2.336 1.552 0.704-0.656 1.48-1.2 2.336-1.552zM237.4 194.168c-0.688-0.64-1.464-1.184-2.336-1.552 0.848 0.352 1.624 0.896 2.336 1.552zM276.888 256.2c-12.328 9.864-27.912 15.8-44.888 15.8-39.696 0-72-32.296-72-72s32.304-72 72-72 72 32.296 72 72c0 16.968-5.936 32.56-15.8 44.888l34 34c18.496-21.12 29.8-48.68 29.8-78.888 0-66.168-53.832-120-120-120s-120 53.832-120 120c0 66.168 53.832 120 120 120 30.2 0 57.768-11.304 78.888-29.8l-34-34z" />
<glyph unicode="&#xe629;" d="M464 216v0c0 60.84-25.328 115.84-65.944 155.144-0.128 0.152-0.168 0.328-0.288 0.472-0.216 0.216-0.496 0.304-0.72 0.504-38.8 37.040-91.28 59.872-149.048 59.872-57.76 0-110.248-22.832-149.048-59.888-0.224-0.184-0.504-0.272-0.712-0.496-0.136-0.144-0.168-0.32-0.296-0.472-40.616-39.296-65.944-94.296-65.944-155.136v0 0-0.008c0-60.832 25.32-115.832 65.928-155.136 0.128-0.168 0.168-0.344 0.304-0.496 0.208-0.208 0.496-0.304 0.72-0.496 38.8-37.064 91.288-59.888 149.048-59.888 57.768 0 110.272 22.832 149.072 59.904 0.216 0.176 0.496 0.264 0.696 0.48 0.128 0.152 0.168 0.32 0.288 0.48 40.616 39.304 65.944 94.32 65.944 155.16v0 0zM447.8 224h-111.6c1.92 49.28 21.48 95.144 55.736 130.656 32.936-34.184 53.864-80.024 55.864-130.656zM256 224v191.792c47.592-1.88 90.952-20.48 124.384-50.064-37.136-38.504-58.256-88.256-60.184-141.728h-64.2zM240 224h-64.2c-1.92 53.472-23.048 103.224-60.176 141.728 33.424 29.584 76.784 48.176 124.376 50.064v-191.792zM240 208v-191.816c-47.6 1.88-90.952 20.488-124.384 50.072 37.136 38.504 58.264 88.272 60.184 141.744h64.2zM256 208h64.184c1.92-53.472 23.048-103.232 60.184-141.744-33.416-29.584-76.776-48.176-124.368-50.072v191.816zM104.072 354.656c34.256-35.512 53.808-81.376 55.736-130.656h-111.608c2.008 50.632 22.928 96.472 55.872 130.656zM48.2 208h111.6c-1.912-49.296-21.48-95.16-55.736-130.664-32.944 34.192-53.864 80.024-55.864 130.664zM391.928 77.328c-34.256 35.512-53.816 81.376-55.744 130.672h111.608c-1.992-50.64-22.92-96.488-55.864-130.672z" />
<glyph unicode="&#xe62a;" d="M124 0c-11.032 0-20 8.968-20 20 0 3.544 0.952 7.056 2.752 10.128l100.064 184.256c2.12 3.872 6.952 5.32 10.848 3.208 3.88-2.112 5.32-6.968 3.208-10.848l-100.192-184.512c-0.504-0.84-0.68-1.512-0.68-2.232 0-2.2 1.8-4 4-4 1.296 0 2.488 0.616 3.24 1.656 0.136 0.232 0.272 0.472 0.424 0.688l105.752 153.2c2.512 3.64 7.488 4.528 11.136 2.040 3.632-2.512 4.544-7.504 2.040-11.136l-105.424-152.72c-0.024-0.040-0.048-0.080-0.072-0.12-3.608-5.92-10.168-9.608-17.096-9.608zM456-32h-448c-4.424 0-8 3.576-8 8s3.576 8 8 8h448c4.416 0 8 3.584 8 8 0 4.424 3.576 8 8 8s8-3.576 8-8c0-13.232-10.768-24-24-24zM512 243.992c0 10.056-7.96 18.44-19.112 19.952l-55.328 6.168c-0.144 0.016-13.016 1.952-19.2 11.68l-19.376 30.408c-2.392 3.744-7.336 4.816-11.048 2.456-3.736-2.376-4.832-7.32-2.456-11.048l19.376-30.408c10.264-16.12 29.8-18.832 30.776-18.968l55.288-6.168c2.040-0.272 5.080-1.584 5.080-4.072 0-1.44-0.736-2.392-1.168-2.832s-1.376-1.16-2.824-1.16c-0.008 0-0.008 0-0.008 0h-72.504c-11.592 0-18.016 10.152-18.328 10.648l-20.176 32.392c-2.328 3.76-7.272 4.904-11.016 2.56-3.76-2.336-4.896-7.264-2.56-11.016l20.104-32.272c0.448-0.752 11.2-18.312 31.984-18.312h61.704l-127.904-195.624c-2.432-3.696-1.384-8.656 2.32-11.072 1.344-0.88 2.88-1.304 4.368-1.304 2.608 0 5.168 1.272 6.704 3.624l135.504 207.248c1.4 0.832 2.744 1.784 3.92 2.968 3.784 3.784 5.88 8.808 5.88 14.152zM380.624 332.056c1.736 3.072 1.248 6.912-1.168 9.472-1.656 1.728-41.112 42.472-91.456 42.472h-61.672c-0.832-0.024-20.744-0.688-32.36-19.88l-47.072-77.752c-1.896-3.12-2.896-6.704-2.896-10.368 0-5.256 2.080-10.016 5.408-13.584l-132.104-202.040c-2.424-3.696-1.384-8.656 2.32-11.072 1.344-0.88 2.872-1.304 4.368-1.304 2.608 0 5.168 1.272 6.704 3.624l133.656 204.424c6.512 0.112 12.552 3.344 16.216 8.744l42.208 59.472c0.096 0.112 9.2 11.736 21.728 11.736h29.984l-33.336-60.808c-20.624-36.272-0.168-69.936 0.744-71.392l53.96-85.296c0.312-0.504 7.832-12.656 1.936-24.736l-32.192-65.968c-1.072-2.488-1.6-5.104-1.6-7.8 0-11.032 8.968-20 20-20 7.36 0 14.112 4.024 17.4 10.168l45.824 75.848c0.504 0.864 11.936 21.384-0.656 41.072l-29.672 64.36c-5.6 12.136-5.048 19.144 2.576 32.592l61.152 108.016zM302.352 184.744l29.92-64.864c0.168-0.376 0.376-0.736 0.6-1.080 7.64-11.52 0.72-24.344 0.528-24.672l-45.888-76.016c-0.544-1.024-1.744-2.112-3.512-2.112-2.2 0-4 1.8-4 4 0 0.528 0.112 1.064 0.144 1.168l32.016 65.592c9.92 20.304-2.344 39.6-2.832 40.328l-53.896 85.2c-0.168 0.264-16.352 26.896-0.32 55.104l39.904 72.76c1.36 2.48 1.304 5.488-0.144 7.92-1.416 2.432-4.040 3.928-6.872 3.928h-43.504c-20.584 0-33.904-17.336-34.6-18.256l-42.608-60.016c-0.032-0.048-0.072-0.104-0.104-0.152-0.752-0.992-1.936-1.576-3.184-1.576-2.2 0-4 1.8-4 4 0 0.736 0.184 1.416 0.584 2.064l47.072 77.776c6.968 11.512 18.616 12.152 18.848 12.168h61.496c34.744 0 64.832-23.808 75.624-33.504l-58.096-102.56c-8.696-15.4-12.024-28.056-3.176-47.2zM382.96 368c-7.152 0-14.192 2.216-20.952 6.6-20.848 13.528-23.912 37.784-8 63.288 15.64 25.064 39.4 32.848 59.984 19.504 20.832-13.536 23.912-37.792 8-63.28-10.504-16.84-24.368-26.112-39.032-26.112zM393.024 448c-8.808 0-18.072-6.776-25.44-18.576-5.256-8.424-15.48-29.328 3.128-41.4 4.12-2.672 8.24-4.024 12.248-4.024 8.824 0 18.088 6.776 25.456 18.576 5.256 8.424 15.48 29.304-3.144 41.392-4.112 2.68-8.232 4.032-12.248 4.032z" />
<glyph unicode="&#xe62b;" d="M20-16c-11.032 0-20 8.968-20 20 0 3.544 0.952 7.056 2.752 10.128l100.064 184.256c2.12 3.872 6.952 5.32 10.848 3.208 3.88-2.112 5.32-6.968 3.208-10.848l-100.192-184.512c-0.504-0.84-0.68-1.512-0.68-2.232 0-2.2 1.8-4 4-4 1.296 0 2.488 0.616 3.24 1.656 0.128 0.216 0.264 0.456 0.416 0.672l105.424 153.528c2.504 3.64 7.472 4.56 11.128 2.072 3.64-2.504 4.56-7.48 2.064-11.136l-105.096-153.040c-0.032-0.048-0.056-0.088-0.088-0.136-3.6-5.928-10.16-9.616-17.088-9.616zM296 464c-4.424 0-8-3.576-8-8v-8c-26.472 0-48-21.528-48-48s21.528-48 48-48v-8c0-4.424 3.576-8 8-8 33.504 0 56 25.72 56 64s-22.496 64-56 64zM256 400c0 17.648 14.352 32 32 32v-64c-17.648 0-32 14.352-32 32zM304 352.696v94.608c23.456-4.24 32-27.288 32-47.304s-8.544-43.064-32-47.304zM491.304 431.28c-4.032 1.856-8.776 0.032-10.584-3.976l-71.736-157.976c-5.456 1.736-11.168 2.664-16.984 2.664-4.424 0-8-3.576-8-8s3.576-8 8-8c11.36 0 22.216-4.856 29.816-13.328 1.584-1.768 3.76-2.664 5.968-2.664 1.896 0 3.816 0.672 5.328 2.040 3.288 2.952 3.568 8.008 0.624 11.296-3.096 3.456-6.592 6.416-10.376 8.968l71.92 158.392c1.832 4.024 0.048 8.768-3.976 10.584zM388.016 208c-0.008 0-0.016 0-0.024 0h-72.496c-20.792 0-31.528 17.56-31.984 18.312l-20.112 32.272c-2.336 3.752-1.184 8.68 2.56 11.016 3.744 2.344 8.68 1.192 11.016-2.56l20.168-32.392c0.344-0.496 6.76-10.648 18.36-10.648h72.496c0 0 0 0 0.008 0 1.448 0 2.384 0.728 2.824 1.168s1.168 1.384 1.168 2.824c0 2.488-3.040 3.8-5.080 4.072l-55.288 6.168c-0.976 0.136-20.504 2.848-30.776 18.968l-19.376 30.408c-2.376 3.728-1.28 8.672 2.456 11.048 3.712 2.376 8.656 1.288 11.048-2.456l19.376-30.408c6.184-9.728 19.080-11.664 19.2-11.68l55.328-6.168c11.152-1.512 19.112-9.896 19.112-19.952 0-5.344-2.096-10.368-5.856-14.152-3.784-3.76-8.8-5.84-14.128-5.84zM180-16c-11.032 0-20 8.968-20 20 0 2.696 0.528 5.312 1.576 7.8l32.2 65.984c5.888 12.064-1.624 24.208-1.944 24.72l-53.952 85.296c-0.912 1.472-21.368 35.136-0.744 71.4l33.352 60.8h-58.488c-17.648 0-32 14.352-32 32v92c0 11.032 8.968 20 20 20 10.528 0 18.536-7.648 19.936-19.024l7.336-76.976h56.728c50.344 0 89.8-40.744 91.456-42.48 2.44-2.552 2.904-6.4 1.168-9.472l-61.168-108.008c-7.624-13.464-8.176-20.48-2.576-32.6l29.68-64.352c12.592-19.688 1.152-40.192 0.648-41.072l-45.816-75.856c-3.288-6.136-10.032-10.16-17.392-10.16zM100 448c-2.2 0-4-1.8-4-4v-92c0-8.824 7.176-16 16-16h72c2.832 0 5.448-1.496 6.88-3.92 1.44-2.44 1.496-5.448 0.136-7.92l-39.904-72.76c-16.032-28.2 0.16-54.832 0.32-55.104l53.896-85.2c0.48-0.728 12.752-20.024 2.832-40.328l-32.024-65.592c-0.032-0.112-0.136-0.648-0.136-1.176 0-2.2 1.8-4 4-4 1.76 0 2.968 1.088 3.52 2.112l45.888 76.016c0.176 0.328 7.104 13.152-0.536 24.672-0.224 0.344-0.432 0.704-0.6 1.080l-29.92 64.864c-8.84 19.152-5.528 31.808 3.184 47.192l58.088 102.56c-10.8 9.696-40.88 33.504-75.624 33.504h-64c-4.128 0-7.568 3.136-7.96 7.24l-8 84c-0.256 2.056-1.192 4.76-4.040 4.76z" />
<glyph unicode="&#xe62c;" d="M264 336c-24.304 0-40 18.84-40 48s15.696 48 40 48 40-18.84 40-48-15.696-48-40-48zM264 416c-21.664 0-24-22.376-24-32s2.336-32 24-32 24 22.376 24 32-2.336 32-24 32zM396 0c-5.344 0-10.368 2.088-14.144 5.856l-99.536 100.504c-3.12 3.144-3.088 8.2 0.056 11.32 3.144 3.104 8.216 3.088 11.312-0.056l99.512-100.48c0.984-0.984 2.176-1.144 2.8-1.144s1.816 0.16 2.832 1.168c1.56 1.552 1.56 4.096 0 5.656l-92.896 107.96c-2.88 3.344-2.504 8.392 0.84 11.272 3.344 2.896 8.408 2.504 11.288-0.832l92.496-107.512c3.36-3.352 5.44-8.368 5.44-13.712s-2.080-10.36-5.856-14.144c-3.776-3.784-8.808-5.856-14.144-5.856zM185.664 284.328c-2.056 0-4.12 0.792-5.68 2.368l-110.152 111.184c-7.768 7.776-7.768 20.464 0.024 28.264 7.552 7.56 20.736 7.552 28.288-0.008l111.448-96.416c3.336-2.888 3.704-7.936 0.816-11.28s-7.952-3.712-11.288-0.816l-111.872 96.816c-1.44 1.408-2.624 1.56-3.248 1.56s-1.816-0.152-2.832-1.168c-1.56-1.56-1.56-4.096 0-5.656l110.176-111.208c3.112-3.144 3.088-8.2-0.056-11.312-1.552-1.552-3.584-2.328-5.624-2.328zM132 0c-11.024 0-20 8.968-20 20v124c0 16.928 12.488 29.768 31.072 31.944l64.928 7.224v88.832c0 26.472 21.528 48 48 48h156c11.024 0 20-8.968 20-20s-8.976-20-20-20l-108-7.472v-96.528c0-26.472-21.528-48-48-48h-91.336c-4.704 0-5.232-1.728-5.504-4.352l-7.184-104.192c-1.040-11.344-9.44-19.456-19.976-19.456zM256 304c-17.648 0-32-14.352-32-32v-96c0-4.080-3.064-7.504-7.12-7.952l-72-8c-8.136-0.952-16.88-5.672-16.88-16.048v-124c0-2.2 1.792-4 4-4 2.656 0 3.832 2.544 4.032 4.736l7.184 104.264c1.2 11.832 9.408 19 21.448 19h91.336c17.648 0 32 14.352 32 32v104c0 4.2 3.256 7.696 7.456 7.984l116 8c2.744 0.016 4.544 1.816 4.544 4.016s-1.8 4-4 4h-156z" />
<glyph unicode="&#xe62d;" d="M464 208c-4.424 0-8 3.576-8 8s3.576 8 8 8c8.832 0 16 7.168 16 15.992v72c0 4.424 3.576 8 8 8s8-3.576 8-8v-72c0-17.64-14.352-31.992-32-31.992zM311.992 256c-4.192 0-7.72 3.272-7.976 7.512-0.264 4.416 3.096 8.2 7.504 8.472l132 7.984c1.184 0.112 4.48 0.76 4.48 4.016 0 2.2-1.8 4.016-4 4.016h-140c-4.424 0-8 3.576-8 7.992 0 4.424 3.584 8 8 8v0l140-0.008c11.032 0 20-8.968 20-20 0-10.744-7.928-18.952-19.288-19.968l-132.224-8c-0.168-0.008-0.328-0.016-0.496-0.016zM296 0h-72c-17.648 0-32 14.352-32 32 0 4.424 3.576 8 8 8s8-3.576 8-8c0-8.832 7.176-16 16-16h72c4.424 0 8-3.576 8-8s-3.576-8-8-8zM260 32c-11.032 0-20 8.968-20 20v156h-112c-26.472 0-48 21.528-48 48v24.456c0 16.096 6.2 30.248 18.448 42.072l107.512 103.712c7.32 7.344 20.608 7.48 28.176-0.104 7.8-7.8 7.8-20.488 0-28.28l-87.712-93.856 93.576-0.008c12.832 0 24.872-4.992 33.944-14.056 9.064-9.064 14.056-21.112 14.056-33.936l-8.008-204.312c0.008-10.72-8.96-19.688-19.992-19.688zM220 416c-0.616 0-1.808-0.152-2.824-1.168l-107.624-103.824c-9.112-8.808-13.552-18.808-13.552-30.552v-24.456c0-17.648 14.352-32 32-32h120c4.424 0 8-3.576 8-8v-164c0-2.2 1.8-4 4-4s4 1.8 4 4l8.008 204.312c-0.008 17.328-14.376 31.688-32.008 31.688h-112c-3.184 0-6.072 1.888-7.336 4.816-1.272 2.92-0.688 6.32 1.496 8.648l100.48 107.512c1.744 1.76 1.744 4.288 0.184 5.848-1.016 1.016-2.208 1.176-2.824 1.176zM40 288c-24.296 0-40 18.84-40 48s15.704 48 40 48 40-18.84 40-48-15.704-48-40-48zM40 368c-21.664 0-24-22.376-24-32s2.336-32 24-32 24 22.376 24 32-2.336 32-24 32z" />
<glyph unicode="&#xe62e;" d="M184.336 64h-100.336c-11.032 0-20 8.968-20 20 0 9.856 7.056 18.16 16.776 19.744l93.872 7.264c8.232 0.552 12.888 7.384 13.088 7.672l23.944 37.232c2.384 3.712 7.336 4.808 11.056 2.4 3.72-2.392 4.792-7.336 2.4-11.056l-23.976-37.288c-0.352-0.552-9.032-13.832-25.352-14.92l-93.12-7.184c-1.28-0.24-2.688-1.896-2.688-3.864 0-2.2 1.8-4 4-4h100.336c10.28 0 16.328 2.912 25.872 12.472l25.568 26.248c3.104 3.168 8.16 3.208 11.312 0.16 3.168-3.080 3.232-8.152 0.16-11.312l-25.648-26.352c-12.576-12.568-22.656-17.216-37.264-17.216zM428 224h-67.656c-8.184 0-15.040 1.28-21.816 7.52-3.232 2.992-3.44 8.056-0.44 11.304 2.976 3.24 8.048 3.44 11.296 0.448 2.432-2.224 4.288-3.272 10.96-3.272l67.656-0.008c2.2 0 4 1.8 4 4 0 1.896-1.336 3.544-3.168 3.92l-47.328 5.92c-16.952 2.344-25.104 8.928-33.472 19.512l-10.472 14.272c-2.608 3.56-1.832 8.568 1.728 11.176 3.536 2.624 8.552 1.84 11.176-1.728l10.28-14.040c7.064-8.92 12.016-11.84 22.832-13.344l47.832-6.008c9.872-1.976 16.592-10.216 16.592-19.68 0-11.032-8.968-19.992-20-19.992zM280 368c-24.296 0-40 18.84-40 48s15.704 48 40 48 40-18.84 40-48-15.704-48-40-48zM280 448c-21.664 0-24-22.376-24-32s2.336-32 24-32 24 22.376 24 32-2.336 32-24 32zM380-32.008c-6.904 0-13.064 3.552-17.304 10.008l-120.432 177.888c-0.96 1.568-18.264 30.552-18.264 60.112v70.376c-6.832-4.496-15.144-9.912-21.2-13.752-9.336-5.912-10.072-9.824-10.824-20.256-1-14-7.88-72.648-8.168-75.136-1.504-9.944-10.008-17.24-19.808-17.24-11.032 0-20 8.968-20 20v75.36c0 24.712 9.752 42.584 30.688 56.248l32.456 21.176c57.040 35.2 106.352 11.408 108.416 10.384 2.72-1.344 4.44-4.12 4.44-7.16v-183.504c0-27.76 5.8-37.872 20.048-60.104 13.544-21.112 50.84-83.68 56.568-93.272 2.216-3.288 3.384-7.128 3.384-11.128 0-11.032-8.968-20-20-20zM232 309.232c1.296 0 2.592-0.312 3.784-0.952 2.6-1.392 4.216-4.104 4.216-7.048v-85.232c0-25.16 15.576-51.216 15.736-51.488l120.264-177.64c1.904-2.88 3.488-2.88 4-2.88 2.2 0 4 1.808 4 4 0 0.568-0.112 1.12-0.328 1.608-0.048 0.064-0.088 0.136-0.128 0.192-0.424 0.72-42.736 71.792-56.968 93.968-14.832 23.112-22.576 36.696-22.576 68.736v178.168c-12.2 4.44-47.824 13.568-88.28-11.392l-32.288-21.072c-16.64-10.856-23.432-23.28-23.432-42.848v-75.36c0-2.192 1.8-4 4-4 1.96 0 3.656 1.464 3.952 3.376 0.032 0.336 7.096 60.504 8.072 74.144 0.92 12.936 2.776 22.848 18.208 32.632 12.136 7.688 33.344 21.76 33.344 21.76 1.336 0.888 2.88 1.328 4.424 1.328z" />
<glyph unicode="&#xe62f;" d="M264 336c-24.296 0-40 18.84-40 48s15.704 48 40 48 40-18.84 40-48-15.704-48-40-48zM264 416c-21.664 0-24-22.376-24-32s2.336-32 24-32 24 22.376 24 32-2.336 32-24 32zM200.008 272c-0.184 0-0.368 0.008-0.552 0.016l-116 8c-0.016 0-0.024 0-0.040 0-10.464 0-19.416 8.968-19.416 19.984 0 11.032 8.968 20 20 20h132c4.424 0 8-3.576 8-8s-3.576-8-8-8h-132c-2.2 0-4-1.8-4-4s1.8-4 4-4l116.544-8.016c4.416-0.304 7.736-4.128 7.44-8.528-0.296-4.232-3.816-7.456-7.976-7.456zM148 0c-11.032 0-20 8.968-20 20v124c0 16.928 12.488 29.768 31.072 31.944l64.928 7.224v88.832c0 26.472 21.528 48 48 48h32c12.84 0 23.488-4.216 31.6-12.528l58.752-60.168c0.384-0.352 0.744-0.744 1.048-1.168 3.008-4.128 4.6-9.016 4.6-14.144 0-6.416-2.504-12.448-7.032-16.968s-10.544-7.024-16.952-7.024c-0.008 0-56.016 0-56.016 0v-32c0-26.472-21.528-48-48-48h-91.336c-4.712 0-5.232-1.728-5.504-4.352l-7.176-104.192c-1.056-11.344-9.448-19.456-19.984-19.456zM272 304c-17.648 0-32-14.352-32-32v-96c0-4.080-3.064-7.504-7.12-7.952l-72-8c-8.136-0.952-16.88-5.672-16.88-16.048v-124c0-2.2 1.8-4 4-4 2.656 0 3.832 2.544 4.032 4.736l7.184 104.264c1.2 11.832 9.408 19 21.448 19h91.336c17.648 0 32 14.352 32 32v32h-28c-11.032 0-20 8.96-20 19.992 0 10.328 7.816 18.52 19 19.936l43.888 5.848-20.544 20.56c-3.128 3.128-3.128 8.184 0 11.312s8.184 3.128 11.312 0l32-32.008c2.16-2.16 2.888-5.336 1.92-8.216-0.976-2.88-3.504-4.968-6.52-5.368l-60-8c-1.552-0.192-5.056-0.968-5.056-4.064 0-2.2 1.8-4 4-4h35.712c0.192 0.016 0.384 0.016 0.576 0l63.72 0.008c2.152 0 4.152 0.832 5.648 2.336 1.512 1.504 2.344 3.52 2.344 5.656 0 1.528-0.424 2.992-1.216 4.256l-58.624 60.048c-5.064 5.184-11.656 7.704-20.16 7.704h-32zM412 0c-5.352 0-10.376 2.088-14.16 5.856l-99.528 100.504c-3.112 3.144-3.080 8.2 0.056 11.32 3.152 3.104 8.192 3.088 11.32-0.056l99.512-100.48c0.984-0.984 2.184-1.144 2.8-1.144s1.816 0.16 2.832 1.168c1.552 1.552 1.552 4.096 0 5.656l-92.896 107.96c-2.88 3.344-2.504 8.392 0.84 11.272s8.408 2.504 11.272-0.832l92.496-107.504c3.376-3.36 5.456-8.376 5.456-13.72s-2.080-10.36-5.856-14.144c-3.776-3.784-8.8-5.856-14.144-5.856z" />
<glyph unicode="&#xe630;" d="M297.2 328.168c-2.168 0-4.312 0.872-5.888 2.592l-61.696 67.352c-7.664 8.824-7.504 20.28 0.24 28.032 7.56 7.568 20.744 7.552 28.288-0.008l75.352-69.696c3.24-3 3.448-8.064 0.448-11.304-3.008-3.248-8.072-3.432-11.304-0.448l-75.584 69.92c-1.248 1.24-2.44 1.392-3.056 1.392s-1.808-0.152-2.832-1.168c-2.168-2.168-0.984-4.496 0.384-6.064l61.56-67.192c2.984-3.256 2.768-8.32-0.504-11.304-1.528-1.416-3.464-2.104-5.408-2.104zM184.016 249.352c-2.112 0-4.208 0.832-5.784 2.472l-124.496 130.16c-7.672 7.672-7.672 20.36 0.128 28.16s20.488 7.8 28.28 0l122.256-116.728c3.192-3.056 3.312-8.12 0.264-11.312-3.064-3.192-8.128-3.304-11.312-0.264l-122.392 116.856c-1.152 1.152-2.344 1.304-2.96 1.304s-1.808-0.152-2.832-1.168c-1.008-1.024-1.168-2.216-1.168-2.832s0.16-1.808 1.168-2.832l124.632-130.288c3.056-3.192 2.936-8.256-0.248-11.312-1.56-1.48-3.544-2.216-5.536-2.216zM228 16c-11.032 0-20 8.968-20 20v212c0 25.064 28.064 35.576 29.256 36.016l105.928 48.024c12.792 5.776 27.92 4.72 39.544-2.792 11.144-7.168 17.272-18.976 17.272-33.248v-72c0-17.648-14.352-32-32-32h-76c-11.032 0-20 8.968-20 20 0 10.744 7.928 18.952 19.288 19.968l60.712 7.152v40.88c0 4.424 3.576 8 8 8s8-3.576 8-8v-48c0-4.056-3.040-7.472-7.064-7.944l-68-8c-1.64-0.152-4.936-0.8-4.936-4.056 0-2.2 1.8-4 4-4h76c8.832 0 16 7.168 16 16v72c0 11.080-5.4 16.88-9.92 19.808-7.016 4.512-16.544 5.176-24.264 1.656l-106.504-48.248c-0.736-0.296-19.312-7.384-19.312-21.216v-212c0-2.2 1.8-4 4-4 2.76 0 3.84 3.080 4.056 4.888l7.952 155.504c0.16 3.056 2.040 5.744 4.84 6.944l5.072 2.168c4.032 1.752 8.768-0.144 10.504-4.2 1.752-4.064-0.144-8.768-4.2-10.504l-0.488-0.208-7.744-151.016c-1.296-11.544-9.688-19.576-19.992-19.576zM422.96 320c-7.152 0-14.192 2.216-20.952 6.6-20.848 13.528-23.912 37.784-8 63.288 15.632 25.056 39.392 32.856 59.992 19.504 20.84-13.536 23.904-37.792 7.992-63.28-10.504-16.84-24.368-26.112-39.032-26.112zM433.032 400c-8.816 0-18.080-6.776-25.448-18.576-5.256-8.424-15.48-29.328 3.128-41.4 4.12-2.672 8.24-4.024 12.248-4.024 8.824 0 18.088 6.776 25.456 18.576 5.256 8.424 15.48 29.312-3.136 41.392-4.112 2.68-8.24 4.032-12.248 4.032z" />
</font>
</defs>
</svg>
