<?xml version="1.0" standalone="no"?>
<!DOCTYPE svg PUBLIC "-//W3C//DTD SVG 1.1//EN" "http://www.w3.org/Graphics/SVG/1.1/DTD/svg11.dtd" >
<svg xmlns="http://www.w3.org/2000/svg">
<metadata>Generated by IcoMoon</metadata>
<defs>
<font id="q-sn-substitution" horiz-adv-x="512">
<font-face units-per-em="512" ascent="480" descent="-32" />
<missing-glyph horiz-adv-x="512" />
<glyph unicode="&#x20;" horiz-adv-x="256" d="" />
<glyph unicode="&#xe600;" glyph-name="h-file-70-document-file-pdf" d="M336 272v48l-96 112h-175.956c-17.698 0-32.044-14.373-32.044-32.118v-367.765c0-17.738 14.255-32.118 31.959-32.118h240.083c17.651 0 31.959 14.372 31.959 31.853v32.147h127.891c26.57 0 48.11 21.476 48.11 47.981v112.039c0 26.499-21.376 47.981-48.11 47.981h-127.89zM320 64v-32.106c0-8.775-7.163-15.894-16-15.894h-240.001c-8.724 0-15.999 7.131-15.999 15.928v368.146c0 8.643 7.132 15.928 15.929 15.928h160.071v-79.906c0-17.91 14.312-32.094 31.966-32.094h64.034v-32h-127.891c-26.57 0-48.109-21.476-48.109-47.981v-112.039c0-26.499 21.376-47.981 48.109-47.981h127.891zM240 408l75.199-88h-59.251c-8.738 0-15.948 7.226-15.948 16.14v71.86zM191.913 256h272.174c17.476 0 31.913-14.269 31.913-31.873v-112.255c0-17.469-14.288-31.873-31.913-31.873h-272.174c-17.476 0-31.913 14.269-31.913 31.873v112.255c0 17.47 14.288 31.873 31.913 31.873zM400 176h48v-16h-48v-48h-16v112h80v-16h-64v-32zM192 192v32h47.922c17.775 0 32.078-14.327 32.078-32 0-17.796-14.362-32-32.078-32h-31.922v-48h-16v80zM208 208v-32h32.017c8.827 0 15.983 7.102 15.983 16 0 8.837-7.083 16-15.983 16h-32.017zM288 224h47.922c17.776 0 32.078-14.37 32.078-32.094v-47.81c0-17.91-14.362-32.094-32.078-32.094h-47.922v112zM304 208v-80h32.017c8.827 0 15.983 7.099 15.983 15.997v48.006c0 8.835-7.082 15.997-15.983 15.997h-32.017z" />
<glyph unicode="&#xe601;" glyph-name="h-spor-11-baseball-set" d="M318.187 72.181v0c-0.569 2.615-0.941 5.643-0.783 4.464 32.972 3.877 59.128 30.033 63.005 63.005 24.925-3.338 44.66-23.072 47.998-47.998-32.972-3.877-59.128-30.033-63.005-63.005-23.418 3.136-42.253 20.745-47.214 43.534zM364.239 139.481v0 0c-3.727-23.988-22.679-42.94-46.667-46.667 3.727 23.988 22.679 42.94 46.667 46.667zM428.239 75.481c-3.727-23.988-22.679-42.94-46.667-46.667 3.727 23.988 22.679 42.94 46.667 46.667v0 0zM220.891 214.908l-116.421-132.48 14.234-14.233 132.48 116.421-30.291 30.291zM231.475 226.951l31.751-31.751 176.373 154.994c15.668 13.769 16.372 36.927 1.74 51.558l-3.313 3.313c-14.706 14.706-37.732 13.992-51.558-1.74l-154.994-176.373zM93.885 70.384l-10.584-12.043-5.709 5.709c-3.096 3.096-8.228 2.981-11.261-0.052-3.124-3.124-3.216-8.098-0.052-11.262l22.732-22.732c3.096-3.096 8.228-2.981 11.261 0.052 3.124 3.124 3.216 8.098 0.052 11.262l-5.709 5.709 12.043 10.584-12.773 12.774zM81.474 80.404l295.197 334.558c19.262 21.831 51.315 22.772 71.775 2.311l5.101-5.101c20.445-20.445 19.426-52.595-2.311-71.775l-334.571-295.21c3.745-8.75 2.066-19.298-5.079-26.444-9.438-9.438-24.57-9.372-33.943 0.002l-22.623 22.623c-9.343 9.344-9.374 24.57-0.002 33.943 7.2 7.2 17.713 8.868 26.457 5.094v0 0zM372.906 156.148c-39.764 0-72-32.236-72-72s32.236-72 72-72c39.764 0 72 32.236 72 72s-32.236 72-72 72v0z" />
<glyph unicode="&#xe602;" glyph-name="h-spor-25-hockey-stick" d="M184 144v0 0c-13.255 0-24 10.745-24 24s10.745 24 24 24c13.255 0 24-10.745 24-24s-10.745-24-24-24zM263.094 78.328c-3.837-7.726-14.237-14.282-23.047-14.282h-96.095c-8.704 0-15.953 7.156-15.953 15.983v16.034c0 8.901 7.098 15.983 15.853 15.983h80.148l123.57 246.385c4.312 8.596 14.883 12.050 23.589 7.666l12.136-6.112c8.748-4.406 12.228-15.055 7.868-23.833l-128.067-257.824zM339.435 306.522l15.277-7.784 22.12 44.531c0.464 0.933 0.113 1.998-0.735 2.425l-12.136 6.112c-0.829 0.417-1.757 0.115-2.089-0.548l-22.437-44.737zM332.262 292.22l-98.387-196.173h-9.875c0 0-80 0.074-80 0.017 0 0 0.039-16.017-0.048-16.017h96.095c2.659 0 7.548 3.046 8.717 5.4l98.829 198.962-15.332 7.812z" />
<glyph unicode="&#xe603;" glyph-name="h-spor-33-award" d="M256.115 160l-70.492-183.637-27.61 62.014-62.013-27.61 69.648 181.438c-32.48 26.403-53.231 66.676-53.231 111.796 0 79.529 64.471 144 144 144s144-64.471 144-144c0-45.12-20.752-85.392-53.231-111.796l69.647-181.438-62.014 27.61-27.61-62.014-70.492 183.637c-0.101 0-0.201-0-0.301-0s-0.201 0-0.301 0v0 0zM239.361 161v0 0c-22 2.596-42.48 10.151-60.293 21.517l-54.368-141.635 41.342 18.407 18.407-41.342 54.913 143.053zM333.767 182.517v0 0c-17.813-11.365-38.295-18.921-60.293-21.517l54.913-143.053 18.407 41.342 41.342-18.407-54.368 141.635zM256.417 176c70.692 0 128 57.308 128 128s-57.308 128-128 128c-70.692 0-128-57.308-128-128s57.308-128 128-128v0zM256.417 208v0c-53.019 0-96 42.981-96 96s42.981 96 96 96c53.019 0 96-42.981 96-96s-42.981-96-96-96zM256.417 224c44.183 0 80 35.817 80 80s-35.817 80-80 80c-44.183 0-80-35.817-80-80s35.817-80 80-80v0z" />
<glyph unicode="&#xe604;" glyph-name="h-spor-38-whistle" d="M131.409 201.445v0 0c-5.383 4.113-12.111 6.555-19.409 6.555-17.673 0-32-14.327-32-32s14.327-32 32-32c7.297 0 14.025 2.443 19.409 6.555 11.151-40.671 48.382-70.555 92.591-70.555 53.019 0 96 42.981 96 96 0 6.901-0.728 13.631-2.111 20.119l130.111 27.881v48h-160v-32h-48v32h-16c-44.21 0-81.44-29.885-92.591-70.555zM304 256h128v-19.2l-134.576-28.986c4.231-9.75 6.576-20.509 6.576-31.815 0-44.183-35.817-80-80-80s-80 35.817-80 80c0 38.663 27.427 70.92 63.886 78.376 5.205 1.065 10.594 1.624 16.114 1.624v-32h80v32zM112 192v0c8.898 0 16-7.163 16-16 0-8.898-7.163-16-16-16-8.898 0-16 7.163-16 16 0 8.898 7.163 16 16 16zM256 368v-64h16v64h-16zM337.915 351.664l-33.915-54.275 13.569-8.479 33.915 54.275-13.569 8.478zM189.569 351.664l33.915-54.275-13.569-8.479-33.915 54.275 13.569 8.478z" />
<glyph unicode="&#xe605;" glyph-name="h-spor-46-bowling-pin-ball" d="M224.62 68.521v0 0c-10.458 14.475-16.62 32.257-16.62 51.479 0 25.315 10.689 48.133 27.8 64.187-5.346 25.159-14.671 44.487-21.19 55.813h-45.401c-9.566-16.73-25.209-50.921-25.209-95.617 0-56.383 25.6-96.383 25.6-96.383h44.8c0 0 4.786 7.475 10.22 20.521zM236.311 55.337c-6.599-14.76-12.311-23.337-12.311-23.337h-64c0 0-32 48-32 112.383s32 111.617 32 111.617v32c0 32-16 48-16 72 0 17.797 16 40 48 40s48-22.327 48-40c0-24-16-40-16-72v-32c0.003-0.005 16.284-24.059 25.619-61.201 13.467 8.368 29.36 13.201 46.381 13.201 48.601 0 88-39.399 88-88s-39.399-88-88-88c-23.035 0-44.003 8.851-59.689 23.337v0 0zM176.399 256h31.004l0.597 32h-32l0.399-32zM175.029 304h33.956c3.482 26.572 15.016 35.624 15.016 56 0 17.673-15.22 24.324-32 24.324s-32-6.528-32-24.324c0-20.4 11.56-29.24 15.029-56zM296 48c39.764 0 72 32.236 72 72s-32.236 72-72 72c-39.764 0-72-32.236-72-72s32.236-72 72-72v0zM296 160c4.418 0 8 3.582 8 8s-3.582 8-8 8c-4.418 0-8-3.582-8-8s3.582-8 8-8v0zM280 128c4.418 0 8 3.582 8 8s-3.582 8-8 8c-4.418 0-8-3.582-8-8s3.582-8 8-8v0zM312 128c4.418 0 8 3.582 8 8s-3.582 8-8 8c-4.418 0-8-3.582-8-8s3.582-8 8-8v0z" />
<glyph unicode="&#xe606;" glyph-name="h-spor-48-sports-shoe" d="M198.4 277.674l8.008-12.308c-2.262-1.758-4.487-3.488-6.678-5.167l-8.719 13.401-13.411-8.726 9.178-14.108c-2.425-1.629-4.806-3.124-7.145-4.448l-9.422 14.481-13.411-8.725 7.606-11.691c-1.486-0.251-2.954-0.383-4.406-0.383-32 0-47.913 0-47.913 0-26.558 0-48.087-21.595-48.087-48.148 0-35.264 28.767-63.852 64.045-63.852h303.897c17.705 0 32.225 14.403 32.137 31.873 0 0 4.387 144.127-32.079 144.127s-32-31.543-80-31.543c-48 0-40 31.543-64 31.543-18.062 0-34.459-6.658-49.46-15.678l-7.834 12.041-13.411-8.726 7.885-12.119c-2.037-1.447-4.048-2.916-6.032-4.393l-7.335 11.274-13.411-8.726zM445.788 230.406c1.219-12.683 1.926-25.776 2.252-38.406h-96.040c-30.68 0-40 0-72.312-4.218-0.385 2.386-1.163 5.055-2.533 7.796-3.81 7.62-11.013 12.423-21.155 12.423h-88c-10.857 0-17.155 4.199-20.845 11.577-0.739 1.479-1.327 2.976-1.784 4.423 3.957 0 8.729 0 14.629 0 4.58 0 9.078 0.736 13.653 2.171l7.046-10.829 13.411 8.726-5.736 8.815c1.97 1.144 3.981 2.394 6.041 3.749 0.362 0.238 0.725 0.479 1.089 0.722l5.994-9.213 13.411 8.726-6.429 9.882c0.346 0.264 0.696 0.532 1.052 0.804 0.76 0.583 3.030 2.342 5.63 4.357l7.136-10.969 13.411 8.726-7.818 12.016c2.060 1.537 4.069 3.002 6.030 4.397l7.27-11.176 13.411 8.725-7.327 11.261c1.695 1.018 3.358 1.974 4.994 2.868l0.377-0.774c0 0 9.754-14.702 17.693-22.642 18.921-18.922 43.397-30.343 73.657-30.343 29.459 0 56.264 7.883 79.885 21.006 6.152 3.418 16.224 10.338 18.067 11.786 1.705-7.798 2.901-16.659 3.836-26.387zM448.255 176.572c0.010-4.328-0.022-8.55-0.091-12.627-0.029-1.762-0.059-2.979-0.077-3.587 0.036-9.122-7.261-16.359-16.144-16.359h-303.897c-14.219 0-27.017 6.187-35.823 16h115.778c22.549 0 38.262 5.221 68.852 10.503 35.148 6.069 56.998 6.069 75.148 6.069h96.255zM82.71 176c-1.755 4.964-2.71 10.299-2.71 15.852 0 17.736 14.386 32.148 32.087 32.148 0.564 0 0.564 0 3.384 0 5.776 0 9.105 0 13.373 0 1.466-5.48 3.27-10.116 4.001-11.577 6.31-12.62 18.013-20.423 35.155-20.423h88c3.858 0 5.655-1.199 6.844-3.577 0.845-1.69 1.156-3.553 1.156-4.423-21.136-5.539-37.217-8-56-8h-125.29zM288 288c2.050 0 2.517-0.286 5.51-3.82-0.211 0.248 4.019-4.877 5.525-6.573 12.442-14.016 27.82-21.15 52.966-21.15 24.356 0 38.502 6.062 54.582 19.491 0.728 0.608 1.818 1.528 3.476 2.925 8.548 7.165 12.729 9.127 21.942 9.127-0.291 0 2.185-2.895 5.291-11.793 1.769-5.069 1.318-3.482 1.318-3.482s-4.8-2.231-5.097-2.456c-5.091-3.843-10.906-7.669-17.397-11.275-21.378-11.877-45.574-18.994-72.115-18.994-25.74 0-46.264 9.578-62.343 25.657-5.108 5.107-12.975 16.023-12.975 16.023l-1.939 2.618c7.205 2.507 14.126 3.702 21.257 3.702z" />
<glyph unicode="&#xe607;" glyph-name="h-weat-29-sun" d="M264.465 128v0c-48.601 0-88 39.399-88 88s39.399 88 88 88c48.601 0 88-39.399 88-88s-39.399-88-88-88zM264.465 144c39.764 0 72 32.236 72 72s-32.236 72-72 72c-39.764 0-72-32.236-72-72s32.236-72 72-72v0zM264.465 368c-4.418 0-8-3.452-8-7.926v-32.147c0-4.378 3.711-7.926 8-7.926 4.418 0 8 3.452 8 7.926v32.147c0 4.377-3.711 7.926-8 7.926v0zM372.274 323.344c-3.124 3.124-8.098 3.216-11.262 0.052l-22.732-22.732c-3.096-3.096-2.981-8.228 0.052-11.262 3.124-3.124 8.098-3.216 11.262-0.052l22.732 22.732c3.096 3.096 2.981 8.228-0.052 11.262v0zM416.93 215.535c0 4.418-3.452 8-7.926 8h-32.147c-4.377 0-7.926-3.711-7.926-8 0-4.418 3.452-8 7.926-8h32.147c4.377 0 7.926 3.711 7.926 8v0zM372.274 107.726c3.124 3.124 3.216 8.098 0.052 11.262l-22.732 22.732c-3.096 3.096-8.228 2.981-11.262-0.052-3.124-3.124-3.216-8.098-0.052-11.262l22.732-22.732c3.096-3.096 8.228-2.981 11.262 0.052v0zM264.465 63.070c4.418 0 8 3.452 8 7.926v32.147c0 4.377-3.711 7.926-8 7.926-4.418 0-8-3.452-8-7.926v-32.147c0-4.377 3.711-7.926 8-7.926v0zM156.656 107.726c3.124-3.124 8.098-3.216 11.262-0.052l22.732 22.732c3.095 3.096 2.981 8.228-0.052 11.262-3.124 3.124-8.098 3.216-11.262 0.052l-22.732-22.732c-3.095-3.096-2.981-8.228 0.052-11.262v0zM112 215.535c0-4.418 3.452-8 7.926-8h32.147c4.377 0 7.926 3.711 7.926 8 0 4.418-3.452 8-7.926 8h-32.148c-4.377 0-7.926-3.711-7.926-8v0zM156.656 323.344c-3.124-3.124-3.216-8.098-0.052-11.262l22.732-22.732c3.095-3.096 8.228-2.981 11.262 0.052 3.124 3.124 3.216 8.098 0.052 11.262l-22.732 22.732c-3.095 3.096-8.228 2.981-11.262-0.052v0z" />
<glyph unicode="&#xe608;" glyph-name="h-weat-35-umbrella" d="M472 288c22.091 0 40-14.327 40-32 0 86.639-106.736 157.193-240 159.918v24.091c0 4.413-3.711 7.99-8 7.99-4.418 0-8-3.458-8-7.99v-24.091c-133.264-2.725-240-73.279-240-159.918 0 17.673 17.909 32 40 32s40-14.327 40-32c0 17.673 17.909 32 40 32s40-14.327 40-32c0 17.673 17.909 32 40 32s40-14.327 40-32v-224.148c0-8.637-7.163-15.853-16-15.853-8.898 0-16 7.098-16 15.853v24.072c0 4.459-3.711 8.075-8 8.075-4.418 0-8-3.425-8-8.075v-23.909c0-17.683 14.203-32.017 32-32.017 17.673 0 32 14.204 32 32v224c0 17.673 17.909 32 40 32s40-14.327 40-32c0 17.673 17.909 32 40 32s40-14.327 40-32c0 17.673 17.909 32 40 32v0zM256 289.593c-10.164 8.891-24.331 14.407-40 14.407-14.304 0-27.355-4.596-37.253-12.161v0c9.095 58.103 39.788 102.049 77.253 107.574v-109.82zM272 289.593v109.82c37.464-5.525 68.158-49.471 77.253-107.574-9.898 7.564-22.949 12.161-37.253 12.161-15.669 0-29.836-5.517-40-14.407zM163.582 297.784c-8.142 3.957-17.554 6.216-27.582 6.216-12.811 0-24.618-3.688-34.054-9.892v0c14.68 45.971 55.275 82.765 107.487 98.126-22.217-21.107-38.883-54.717-45.851-94.451v0 0zM364.418 297.784v0 0c-6.968 39.733-23.635 73.344-45.851 94.451 52.212-15.362 92.807-52.155 107.488-98.126-9.436 6.204-21.243 9.892-34.054 9.892-10.028 0-19.44-2.26-27.582-6.216zM85.963 296.558c-8.665 4.713-18.942 7.442-29.963 7.442-3.89 0-7.688-0.34-11.355-0.987 18.535 33.323 56.224 61.103 104.898 78.271-30.674-21.218-53.379-50.774-63.579-84.726v0 0zM378.457 381.284c48.674-17.168 86.363-44.949 104.897-78.272-3.666 0.647-7.464 0.987-11.354 0.987-11.022 0-21.299-2.729-29.964-7.442-10.2 33.952-32.906 63.509-63.579 84.726v0 0z" />
<glyph unicode="&#xe609;" glyph-name="h-weat-61-warning" d="M246.787 397.625l-172.561-279.184c-18.645-30.164-5.055-54.442 30.219-54.442h335.097c35.266 0 48.803 24.375 30.219 54.442l-172.562 279.184c-13.888 22.469-36.491 22.522-50.412 0zM261.651 391.634c5.558 8.981 14.586 8.952 20.125 0l176.084-284.522c9.267-14.974 2.335-27.112-15.067-27.112h-342.148c-17.588 0-24.383 12.059-15.067 27.112l176.072 284.522zM272 304c-8.837 0-16-7.249-16-15.952v-96.095c0-8.81 7.102-15.952 16-15.952 8.837 0 16 7.248 16 15.952v96.095c0 8.81-7.102 15.952-16 15.952v0zM272 112c8.837 0 16 7.163 16 16s-7.163 16-16 16c-8.837 0-16-7.163-16-16s7.163-16 16-16v0z" />
<glyph unicode="&#xe60a;" glyph-name="h-weat-72-lightning" d="M273.067 256l24.533 64h-62.4l-36.799-96h41.258l-23.659-65.6 97.6 97.6h-40.533zM216.727 208h-40.727l48 128h96l-24-64h56l-176-176 40.727 112z" />
<glyph unicode="&#xe60b;" glyph-name="i-cine-comedy" d="M459.653 383.202c-1.546 3.113-39.895 76.237-203.244 76.237-163.277 0-202.435-73.052-204.022-76.165l-1.106-2.171v-2.437c0-354.13 194.386-398.428 202.66-400.138l2.119-0.44 2.12 0.471c8.274 1.822 202.537 48.579 202.537 400.108v2.386l-1.065 2.151zM255.908-1.024c-20.715 5.786-183.337 61.43-184.31 376.822 7.168 10.608 49.644 63.324 184.811 63.324 135.434 0 177.142-52.91 183.993-63.252-0.973-312.166-163.881-370.75-184.494-376.894zM355.298 213.279c-0.625-0.195-63.355-19.998-99.298-19.998-35.891 0-98.673 19.804-99.298 19.998-3.594 1.127-7.516 0.226-10.22-2.396-2.714-2.611-3.758-6.502-2.744-10.127 1.372-4.905 34.601-120.115 112.261-120.115s110.879 115.21 112.261 120.105c1.024 3.625-0.041 7.516-2.745 10.127-2.704 2.642-6.635 3.543-10.219 2.406zM256 101.12c-45.947 0-74.363 56.873-86.19 86.978 22.528-6.216 59.924-15.298 86.19-15.298s63.673 9.083 86.19 15.298c-11.827-30.106-40.243-86.978-86.19-86.978zM389.11 275.2c0 0-26.583-1.464-55.091 1.587s-57.538 8.653-57.538 8.653v0c0 0 26.849 30.72 51.2 30.72 29.44 0 61.43-40.96 61.43-40.96zM177.982 276.787c-28.508-3.052-55.091-1.587-55.091-1.587s31.99 40.96 61.43 40.96c24.351 0 51.2-30.72 51.2-30.72s-29.030-5.601-57.538-8.653z" />
<glyph unicode="&#xe60c;" glyph-name="i-clot-t_shirt" d="M510.178 303.257c0 0-40.182 65.813-64.656 106.608-17.070 28.457-52.459 39.998-54.077 40.519-0.010 0-0.010 0-0.010 0-0.010 0-0.021 0-0.021 0-0.010 0-0.010 0-0.010 0s-0.010 0-0.021 0c0 0 0 0-0.021 0-0.154 0.051-0.307 0.092-0.461 0.133l-70.062 18.678c-4.874 2.099-27.474 10.803-64.839 10.803s-59.976-8.704-64.85-10.793l-70.062-18.688c-0.112-0.021-0.215-0.051-0.328-0.092v0c-0.082-0.021-0.164-0.051-0.236-0.072-2.069-0.656-37.090-12.226-54.036-40.499-24.494-40.786-64.665-106.599-64.665-106.599-2.939-4.813-1.433-11.090 3.358-14.050l67.389-41.646c4.761-2.939 10.998-1.516 14.008 3.185l26.061 40.694v-302.961c0-5.663 4.588-10.24 10.24-10.24h266.24c2.724 0 5.335 1.075 7.25 3.010s3 4.536 2.99 7.26l-0.788 241.849 0.512 61.522 26.348-41.134c3.021-4.7 9.257-6.124 13.998-3.185l67.389 41.646c4.803 2.959 6.297 9.236 3.358 14.049zM256 459.52c22.364 0 38.666-3.44 47.995-6.134-5.417-9.779-18.473-24.586-47.995-24.586-29.553 0-42.608 14.827-48.005 24.586 9.339 2.693 25.641 6.134 48.005 6.134zM114.176 331.797l-39.414-61.512-50.156 30.997c11.725 19.241 40.346 66.232 59.443 98.038 8.438 14.070 23.685 23.081 33.495 27.73 5.929-19.17 15.934-62.925-3.369-95.252zM378.849-1.28h-245.73v324.935c21.863 39.291 10.639 88.341 3.87 109.916l51.088 13.63c8.028-17.142 28.375-38.882 67.922-38.882s59.894 21.74 67.912 38.871l51.313-13.68c-5.346-19.097-12.964-60.815 3.646-108.81l-0.778-94.29 0.758-231.69zM437.238 270.285l-38.861 60.642c-14.623 41.881-8.202 79.022-3.666 96 9.831-4.68 24.883-13.66 33.25-27.607 19.087-31.795 47.708-78.797 59.443-98.038l-50.166-30.997z" />
<glyph unicode="&#xe60d;" glyph-name="i-ecom-gift" d="M387.543 346.88c29.973 12.964 52.777 37.775 52.777 71.68 0 32.062-20.357 51.2-54.466 51.2-43.131 0-63.365-34.928-81.214-65.741-14.572-25.159-27.156-46.899-48.64-46.899s-34.078 21.74-48.65 46.899c-17.849 30.812-38.083 65.741-81.203 65.741-34.109 0-54.466-19.138-54.466-51.2 0-33.904 22.805-58.716 52.787-71.68h-114.227v-112.64h20.48v-256h450.56v256h20.48v112.64h-114.217zM322.365 393.749c16.548 28.559 32.164 55.531 63.488 55.531 22.548 0 33.986-10.332 33.986-30.72 0-38.462-41.646-61.44-81.92-61.44h-40.069c9.339 10.435 16.988 23.634 24.514 36.629zM92.16 418.56c0 20.388 11.438 30.72 33.987 30.72 31.324 0 46.94-26.972 63.488-55.521 7.516-13.005 15.166-26.204 24.514-36.639h-40.069c-40.274 0-81.92 22.978-81.92 61.44zM194.56-1.28h-143.36v235.52h143.36v-235.52zM194.56 254.72h-163.84v71.68h163.84v-71.68zM296.96-1.28h-81.92v327.68h81.92v-327.68zM460.8-1.28h-143.36v235.52h143.36v-235.52zM481.28 254.72h-163.84v71.68h163.84v-71.68z" />
<glyph unicode="&#xe60e;" glyph-name="i-gami-dice" d="M491.274 395.202c-0.154 0.697-0.379 1.372-0.666 2.018-0.778 1.71-1.986 3.113-3.451 4.137-0.717 0.502-1.495 0.912-2.345 1.229-0.389 0.144-0.788 0.266-1.198 0.358l-225.137 56.269c-1.628 0.42-3.338 0.409-4.966 0l-225.106-56.279c-0.42-0.092-0.819-0.215-1.209-0.358-0.973-0.359-1.874-0.86-2.683-1.465-1.352-1.034-2.468-2.416-3.184-4.065-0.287-0.656-0.502-1.331-0.645-2.038-0.154-0.768-0.226-1.536-0.205-2.284v-281.365c0-3.942 2.263-7.526 5.806-9.226l234.68-112.64c1.403-0.676 2.928-1.014 4.434-1.014 0.174 0 0.348 0.051 0.522 0.062 0.113 0 0.205-0.062 0.317-0.062 0.44 0 0.819 0.195 1.239 0.246 0.174 0.031 0.338 0.062 0.502 0.103 1.853 0.327 3.522 1.055 4.885 2.233l213.156 111.216c3.379 1.772 5.499 5.264 5.499 9.083v281.365c0.021 0.819-0.062 1.649-0.246 2.478zM256 438.722l189.491-47.37-180.234-62.699-197.161 63.099 187.904 46.971zM40.96 378.931l215.040-68.813v-295.526l-215.040 103.209v261.13zM471.040 117.565l-194.56-101.519v294.83l194.56 67.676v-260.987zM295.783 394.926c-0.031 2.765-1.557 7.936-11.418 11.591-12.002 4.434-32.327 4.311-44.226-0.266-9.697-3.737-11.151-8.898-11.151-11.643 0-2.714 1.423-7.834 10.957-11.469 5.98-2.274 13.793-3.512 22.057-3.512 8.632 0 16.732 1.341 22.856 3.768 9.564 3.717 10.947 8.817 10.926 11.53zM346.44 197.755c3.082 0 6.247 0.809 9.462 2.334 12.769 6.072 22.774 22.62 22.774 37.653 0 12.339-6.841 20.644-17.060 20.644-2.898 0-5.898-0.696-8.919-2.068-13.036-5.868-23.276-22.528-23.276-37.888 0-12.36 6.861-20.675 17.019-20.675zM407.122 154.777c0 0 0 0 0.021 0 3.062 0 6.195 0.839 9.39 2.478v0c11.991 6.154 21.392 22.405 21.392 36.946 0 11.858-6.41 19.825-15.944 19.825-2.877 0-5.827-0.717-8.837-2.202-12.267-6-21.863-22.344-21.863-37.212 0-11.878 6.37-19.815 15.841-19.835zM93.788 198.134c-2.969 1.474-5.939 2.222-8.745 2.222-9.38 0-15.688-7.936-15.688-19.743 0-14.479 9.216-30.618 20.972-36.762 3.144-1.628 6.257-2.457 9.298-2.457 4.608 0 8.704 2.027 11.52 5.704v0c2.672 3.502 4.106 8.356 4.117 13.988 0 14.776-9.442 31.048-21.474 37.048zM194.786 273.296c-2.99 1.31-5.959 1.956-8.837 1.956-10.343 0-17.593-8.683-17.593-21.094 0-15.227 10.25-31.897 23.327-37.97 3.205-1.464 6.38-2.192 9.411-2.192 5.089 0 9.677 2.14 12.862 6.011v0c3.082 3.789 4.71 9.022 4.72 15.114 0 15.595-10.486 32.348-23.89 38.174zM142.951 234.69c-3.021 1.413-6.021 2.13-8.868 2.13-9.912 0-16.558-8.202-16.558-20.409 0-14.827 9.728-31.232 22.108-37.366 3.184-1.557 6.328-2.345 9.369-2.345 4.844 0 9.155 2.099 12.155 5.837 2.877 3.666 4.403 8.683 4.393 14.551 0 15.175-9.943 31.693-22.6 37.601z" />
<glyph unicode="&#xe60f;" glyph-name="i-gami-hearts" d="M344.443 387.84c-34.294 0-66.427-14.92-88.443-40.51-21.986 25.59-54.139 40.51-88.433 40.51-64.164 0-116.368-51.845-116.368-115.569 0-103.71 95.324-168.745 158.403-211.794 15.893-10.844 29.625-20.214 39.874-28.692l6.523-5.397 6.533 5.397c10.25 8.478 23.982 17.849 39.875 28.702 63.068 43.029 158.392 108.083 158.392 211.784 0 63.724-52.204 115.568-116.357 115.568zM290.857 77.404c-13.24-9.031-25.017-17.070-34.857-24.637-9.84 7.567-21.617 15.596-34.857 24.637-63.078 43.038-149.463 101.98-149.463 194.867 0 52.429 43.018 95.089 95.887 95.089 32.195 0 62.065-15.933 79.923-42.608l8.51-12.708 8.519 12.708c17.858 26.675 47.739 42.608 79.923 42.608 52.869 0 95.877-42.66 95.877-95.089 0-92.877-86.385-151.828-149.463-194.867z" />
<glyph unicode="&#xe610;" glyph-name="i-hand-hand" d="M389.12 387.84c-5.959 0-13.497-1.014-20.48-4.885v4.885c0 42.311-22.272 51.2-40.96 51.2-9.595 0-17.224-2.222-23.173-5.858-5.438 14.469-18.913 26.337-38.267 26.337-23.593 0-38.451-17.633-40.673-36.137-6.4 3.584-13.66 5.417-20.767 5.417-20.132 0-40.96-15.022-40.96-40.171v-185.447l-17.060 22.425c-8.54 13.179-23.296 21.361-38.492 21.361-7.659 0-15.073-2.078-21.535-6.072-9.165-5.806-15.524-14.971-17.92-25.805-2.581-11.673-0.317-23.839 5.867-33.392 1.904-3.707 46.951-91.218 73.206-126.791 26.85-36.342 56.013-66.427 141.333-66.427 103.946 0 140.841 77.23 140.841 143.36v204.8c0 44.554-25.661 51.2-40.96 51.2zM409.6 131.84c0-114.022-92.119-122.88-120.361-122.88-75.899 0-100.536 25.19-124.846 58.122-25.273 34.243-71.014 123.095-71.957 124.836-3.717 5.796-4.987 12.452-3.594 18.77 1.209 5.458 4.362 10.046 8.786 12.851 3.123 1.935 6.82 2.959 10.67 2.959 8.335 0 16.496-4.608 21.75-12.647l35.891-47.237c2.662-3.512 7.26-4.946 11.428-3.512 4.147 1.392 6.953 5.294 6.953 9.697v215.828c0 14.346 12.565 19.692 20.48 19.692 8.233 0 20.48-5.458 20.48-20.48v-133.243c0-5.653 4.588-10.24 10.24-10.24s10.24 4.588 10.24 10.24v163.963c0 7.916 5.56 20.48 20.48 20.48s20.48-12.565 20.48-20.48v-163.942c0-5.653 4.577-10.24 10.24-10.24s10.24 4.588 10.24 10.24v143.462c0 9.349 3.553 20.48 20.48 20.48 9.913 0 20.48-2.375 20.48-30.72v-143.473c0-5.653 4.577-10.24 10.24-10.24s10.24 4.588 10.24 10.24v92.272c0 27.003 9.841 30.72 20.48 30.72s20.48-3.717 20.48-30.72v-204.8z" />
<glyph unicode="&#xe611;" glyph-name="i-hand-thumb_down" d="M460.8 314.532c0 20.275-14.183 32.635-24.382 38.891 2.048 5.427 3.901 12.739 3.901 21.474 0.010 7.567 0.021 23.326-20.531 35.348-20.51 11.981-57.651 17.808-113.552 17.808-93.553 0-126.147-12.564-154.9-23.644-22.579-8.694-42.087-16.21-89.897-16.21v-20.48c51.62 0 73.79 8.54 97.27 17.582 27.095 10.445 57.794 22.272 147.538 22.272 64.082 0 91.505-8.161 103.209-15.012 10.404-6.083 10.404-11.705 10.394-18.053 0-11.623-5.417-19.63-5.417-19.63-1.874-2.601-2.406-5.918-1.474-8.981 0.952-3.062 3.257-5.499 6.267-6.605 0.205-0.082 21.094-8.192 21.094-24.76 0-14.009-13.793-19.876-14.295-20.091-3.707-1.465-6.195-4.946-6.441-8.93-0.236-3.973 1.884-7.742 5.376-9.636 0.635-0.348 15.36-8.51 15.36-24.248 0-15.954-16.21-22.108-16.834-22.344-4.752-1.669-7.577-6.553-6.666-11.51 0.839-4.577 3.021-18.227 3.021-26.276 0-7.834-9.318-18.698-26.818-18.698-22.487 0-39.844 2.918-61.798 6.625-10.466 1.762-21.76 3.656-34.796 5.438-20.183 2.673-30.433-4.946-35.512-11.868-9.124-12.38-8.612-32.522 1.351-53.883l3.41-7.229c13.23-27.955 26.911-56.873 13.916-78.52-4.997-8.336-17.101-15.637-23.511-14.254-3.533 0.778-4.813 6.103-5.284 10.425-6.707 63.079-40.346 90.041-67.379 111.698-10.393 8.325-20.203 16.19-27.627 25.221-6.144 7.465-10.046 15.78-14.183 24.566-11.008 23.388-23.47 49.91-80.179 49.91v-20.48c43.704 0 51.221-15.995 61.645-38.144 4.281-9.103 9.134-19.415 16.896-28.856 8.775-10.68 19.394-19.19 30.638-28.201 26.553-21.279 54.016-43.295 59.822-97.884 2.232-21.012 14.254-26.716 21.227-28.262 1.915-0.42 3.87-0.625 5.868-0.625 15.196 0 31.99 11.612 39.618 24.33 18.627 31.048 1.843 66.519-12.974 97.822l-3.358 7.127c-6.441 13.814-7.824 27.106-3.42 33.075 3.267 4.454 10.649 4.475 16.261 3.707 12.8-1.741 23.88-3.615 34.151-5.335 22.006-3.687 41.011-6.882 65.219-6.882 29.214 0 47.298 20.337 47.298 39.178 0 6.892-1.147 15.985-2.099 22.344 9.052 5.417 22.579 16.999 22.579 37.786 0 14.817-6.922 25.579-13.66 32.553 6.83 6.205 13.66 15.995 13.66 30.351z" />
<glyph unicode="&#xe612;" glyph-name="i-hand-thumb_up" d="M447.14 163.82c6.738 6.974 13.66 17.726 13.66 32.553 0 20.787-13.527 32.368-22.579 37.775 0.952 6.359 2.099 15.452 2.099 22.354 0 18.841-18.084 39.178-47.298 39.178-24.197 0-43.192-3.195-65.178-6.902-10.281-1.731-21.371-3.605-34.181-5.335-5.601-0.768-12.985-0.737-16.261 3.707-4.403 5.97-3.021 19.272 3.42 33.075l3.349 7.117c14.817 31.304 31.611 66.786 12.985 97.823-8.632 14.397-28.979 27.402-45.486 23.716-6.974-1.536-18.985-7.25-21.227-28.252-5.806-54.6-33.27-76.606-59.822-97.884-11.244-9.011-21.863-17.52-30.638-28.19-7.762-9.452-12.615-19.763-16.896-28.857-10.414-22.149-17.941-38.154-61.645-38.154v-20.48c56.709 0 69.171 26.522 80.179 49.92 4.137 8.796 8.038 17.101 14.183 24.566 7.424 9.031 17.234 16.886 27.627 25.211 27.034 21.668 60.672 48.62 67.379 111.698 0.461 4.322 1.751 9.646 5.284 10.425 6.421 1.413 18.514-5.918 23.511-14.254 12.995-21.637-0.686-50.565-13.926-78.52l-3.399-7.219c-9.964-21.351-10.465-41.502-1.351-53.883 5.079-6.922 15.411-14.613 35.512-11.858 13.046 1.772 24.341 3.666 34.816 5.438 21.934 3.697 39.281 6.615 61.767 6.615 17.5 0 26.819-10.864 26.819-18.698 0-9.666-2.99-26.132-3.021-26.297-0.911-4.956 1.925-9.831 6.676-11.51 0.174-0.051 16.825-6.093 16.825-22.323 0-15.739-14.725-23.9-15.288-24.207-3.553-1.863-5.694-5.622-5.478-9.615 0.215-4.004 2.755-7.506 6.482-8.981 0.133-0.062 14.285-5.806 14.285-20.111 0-16.61-20.93-24.688-21.105-24.75-2.969-1.086-5.253-3.543-6.205-6.553-0.962-3.021-0.44-6.349 1.351-8.96 0.062-0.072 5.478-8.079 5.478-20.111 0.010-5.95 0.010-11.561-10.394-17.644-11.714-6.851-39.127-15.012-103.209-15.012-89.743 0-120.453 11.827-147.538 22.272-23.47 9.052-45.65 17.593-97.26 17.593v-20.48c47.8 0 67.308-7.516 89.897-16.22 28.754-11.079 61.348-23.644 154.9-23.644 55.9 0 93.041 5.827 113.552 17.808 20.551 12.012 20.541 27.771 20.531 35.728 0 8.53-1.843 15.719-3.891 21.094 10.199 6.277 24.371 18.627 24.371 38.882 0 14.366-6.83 24.156-13.66 30.361z" />
<glyph unicode="&#xe613;" glyph-name="i-holi-champagne" d="M508.293 38.656c-3.492 12.534-14.572 21.494-31.212 25.221-13.476 3.021-30.106 2.447-48.538-1.618l-20.173 72.233c56.135 23.019 64.041 97.321 46.633 159.703-11.12 39.813-41.718 121.334-43.008 124.784-1.884 4.966-7.229 7.731-12.349 6.256l-154.173-43.090c-4.925-1.372-8.059-6.165-7.404-11.182l-123.422 34.498c-5.11 1.454-10.466-1.28-12.339-6.256-1.3-3.451-31.897-84.971-43.018-124.795-17.398-62.361-9.492-136.663 46.643-159.703l-20.173-72.233c-47.462 10.619-74.189-3.625-79.76-23.572-0.737-2.622-0.399-5.417 0.942-7.793 1.331-2.355 3.553-4.096 6.165-4.834l135.742-37.898c0.911-0.256 1.833-0.379 2.755-0.379 1.741 0 3.482 0.45 5.028 1.321 2.365 1.341 4.106 3.563 4.833 6.175 5.55 19.958-9.923 45.957-55.993 61.481l20.183 72.263c52.48-8.018 101.786 37.868 122.644 112.414 3.41 12.216 7.301 28.877 11.090 46.183 2.284-9.749 4.546-18.934 6.646-26.419 20.818-74.547 70.267-120.402 122.614-112.405l20.173-72.243c-46.070-15.544-61.543-41.543-55.993-61.491 0.727-2.622 2.468-4.844 4.844-6.185 2.355-1.321 5.161-1.68 7.783-0.942l135.741 37.898c5.438 1.515 8.612 7.158 7.096 12.606zM138.782-7.547l-104.602 29.204c10.076 4.721 28.836 6.175 55.982-1.403 27.157-7.577 42.434-18.545 48.62-27.801zM396.094 402.985c5.776-15.586 18.084-49.214 28.048-78.879h-153.129c2.928 14.838 4.894 25.303 5.12 26.512 0.983 5.223-2.192 10.322-7.301 11.745l-8.745 2.447-0.021 0.144 136.028 38.031zM118.201 383.202l136.048-38.021c-2.13-11.059-5.99-30.771-10.373-51.794h-157.338c10.383 31.877 25.16 72.263 31.662 89.815zM137.625 128.788c-5.417 0-10.957 0.778-16.466 2.314-51.364 14.346-57.846 81.5-42.148 137.81 0.348 1.26 0.758 2.642 1.157 3.994h159.355c-3.768-17.265-7.629-33.854-10.947-45.753-13.712-48.968-47.145-98.366-90.952-98.366zM376.668 148.562c-43.817 0-77.24 49.398-90.921 98.355-3.502 12.544-8.069 32.010-13.322 56.709h158.382c1.7-5.417 3.226-10.486 4.475-14.93 15.708-56.32 9.216-123.474-42.148-137.81-5.509-1.546-11.038-2.325-16.466-2.325zM375.511 12.216c6.185 9.267 21.463 20.245 48.62 27.832 14.285 3.983 25.529 5.294 34.161 5.294 5.99 0 10.711-0.635 14.295-1.444 2.826-0.635 5.356-1.474 7.516-2.468l-104.591-29.214zM165.488 402.75c-3.062 4.721-1.741 11.018 2.949 14.111 1.034 0.707 22.856 15.995 18.882 51.763-0.532 4.793 2.345 9.298 6.902 10.844 4.547 1.536 9.584-0.307 12.053-4.454 5.673-9.472 17.787-15.186 33.239-15.678 18.105-0.573 36.29 6.247 43.151 16.22 2.519 3.645 7.106 5.284 11.336 4.014 4.25-1.26 7.209-5.11 7.342-9.534 0.266-9.902 3.584-18.002 9.554-23.419 6.339-5.744 15.503-8.386 26.296-7.608 5.806 0.379 10.537-3.85 10.926-9.502 0.399-5.642-3.85-10.537-9.493-10.926-16.691-1.168-30.925 3.298-41.493 12.861-5.663 5.13-9.902 11.449-12.647 18.719-12.319-7.567-28.857-11.868-45.639-11.305-11.95 0.379-22.692 3.175-31.549 8.038-4.874-31.979-26.542-46.448-27.668-47.175-1.7-1.106-3.625-1.638-5.54-1.638-3.349 0-6.636 1.638-8.601 4.67z" />
<glyph unicode="&#xe614;" glyph-name="i-holi-christmas_ice_skate" d="M501.099 27.784c-5.656 0-10.226-4.571-10.226-10.226 0-16.046-13.049-29.105-29.104-29.105h-10.226c-61.891 0-83.356 33.461-90.433 51.572 97.807 5.942 150.851 37.194 150.851 54.098 0 71.186-47.063 116.040-123.198 118.495-0.788 2.863-2.649 5.42-5.522 6.862-5.399 2.68-11.904 0.501-14.583-4.858-0.143-0.296-0.296-0.593-0.45-0.889-7.271 0.788-15.708 2.209-24.635 4.469 0.215 3.375-0.941 6.78-3.743 9.091-4.653 3.825-11.485 3.139-15.288-1.493-0.327-0.399-0.664-0.818-0.992-1.227-6.892 2.731-13.673 6.115-20.095 10.104 1.339 3.426 1.074 7.404-1.329 10.534-3.579 4.653-10.196 5.553-14.951 2.117-5.522 5.41-10.339 11.576-14.041 18.684 4.643 3.293 6.075 9.593 3.048 14.512-2.199 3.569-6.156 5.287-10.073 4.99-1.524 6.156-2.639 12.65-3.426 19.41 0.512 0.163 1.012 0.317 1.534 0.481 5.696 1.902 8.764 8.048 6.872 13.745-1.462 4.398-5.481 7.169-9.858 7.353-0.286 10.472-0.103 21.056 0.409 31.498 3.937 2.659 5.911 7.558 4.336 12.293-0.644 1.933-1.882 3.405-3.324 4.643 0.542 7.455 1.125 14.747 1.697 21.486 1.166 13.857 2.188 25.832 2.188 34.985 0 28.603-26.865 48.596-65.317 48.596-34.668 0-171.171-77.834-171.171-119.537v-86.312c0-22.784-3.866-39.914-8.334-59.733-5.675-25.157-12.118-53.668-12.118-100.312 0-23.235 5.175-39.556 5.389-40.252 0.9-2.781 2.894-5.103 5.523-6.402 1.667-0.818 17.538-8.048 61.308-8.048 10.707 0 20.729-0.113 30.199-0.296-4.715-51.838-44.209-70.644-81.332-70.644h-20.453c-5.645 0-10.226-4.571-10.226-10.226s4.582-10.226 10.226-10.226h451.541c27.325 0 49.558 22.233 49.558 49.558 0 5.645-4.571 10.216-10.226 10.216zM34.361 85.615c-1.279 5.748-3.047 15.943-3.047 28.491 0 44.219 6.157 71.473 11.577 95.525 4.561 20.218 8.877 39.31 8.877 64.519v86.312c0 21.936 115.917 97.796 149.44 97.796 25.659 0 43.585-11.055 43.585-26.875 0-8.233-0.982-19.778-2.117-33.155-0.644-7.67-1.319-15.994-1.912-24.543-21.701-5.952-35.844-6.207-36.263-6.217-5.993-0.010-10.851-4.878-10.851-10.861 0-6.003 4.868-10.861 10.861-10.861 0.706 0 14.092 0.143 35.026 5.206-0.338-9.889-0.297-19.891 0.133-29.831-20.085-4.602-34.985-4.776-35.169-4.776-5.993-0.010-10.851-4.888-10.84-10.881 0-5.992 4.857-10.851 10.861-10.851 0.839 0 15.964 0.072 36.948 4.591 1.105-8.406 2.843-16.424 5.062-24.104-16.843-10.114-28.787-16.781-28.931-16.863-5.246-2.925-7.128-9.541-4.203-14.778 1.984-3.569 5.686-5.573 9.5-5.573 1.79 0 3.61 0.44 5.277 1.37 0.143 0.082 10.901 6.085 26.446 15.37 4.090-7.445 9.184-14.102 14.961-20.085-11.73-8.304-22.621-15.636-22.785-15.739-4.981-3.344-6.32-10.094-2.976-15.084 2.096-3.13 5.532-4.817 9.030-4.817 2.086 0 4.183 0.603 6.044 1.841 0.757 0.522 14.399 9.675 27.796 19.298 7.425-5.144 15.38-9.531 23.613-13.192-8.273-11.75-15.268-22.621-15.728-23.317-3.231-5.052-1.769-11.771 3.272-15.022 1.82-1.156 3.856-1.718 5.86-1.718 3.579 0 7.077 1.769 9.163 4.99 0.123 0.195 9.122 14.184 18.561 27.264 8.877-2.659 17.692-4.632 26.118-5.911-5.962-11.28-10.666-19.798-10.738-19.931-2.904-5.257-1.002-11.853 4.254-14.757 1.656-0.921 3.467-1.36 5.246-1.36 3.825 0 7.537 2.025 9.521 5.615 0.092 0.163 7.261 13.151 15.228 28.471 0.368 0 0.777-0.031 1.135-0.031 66.462 0 106.611-35.026 107.981-93.869-9.132-8.457-57.248-36.58-162.12-36.58-28.951 0-50.079 3.406-74.551 7.342-36.253 5.829-81.392 13.1-171.692 13.1-26.323 0-40.926 2.772-47.451 4.479zM95.874-11.537c19.716 14.777 33.819 37.889 36.508 70.051 56.236-2.076 89.707-7.435 117.686-11.945 25.382-4.080 47.308-7.618 78.008-7.618 4.060 0 7.905 0.143 11.842 0.225 3.937-12.282 13.898-34.382 37.399-50.724h-281.443z" />
<glyph unicode="&#xe615;" glyph-name="i-hous-broom" d="M490.691 476.262c-15.882 7.055-32.409 3.85-38.471-7.506l-87.356-164.359c-10.291 3.891-20.408 5.95-30.105 5.95-27.812 0-50.913-16.077-63.385-44.113-0.041-0.103-0.041-0.215-0.082-0.307-0.021-0.051-0.062-0.082-0.082-0.133-45.905-117.635-168.117-133.599-198.314-131.52-4.055 0.276-7.925-1.863-9.809-5.478s-1.444-8.007 1.127-11.182c115.198-142.2 280.509-149.368 287.493-149.603 0.123-0.010 0.236-0.010 0.348-0.010 1.925 0 3.82 0.543 5.447 1.567 3.308 2.089 81.416 52.663 124.311 204.058 15.267 35.543 0.021 76.748-34.272 94.012l63.323 175.039c4.362 12.083-4.3 26.521-20.173 33.587zM449.261 139.896c-12.789 0.338-33.74 3.687-40.519 16.885-2.365 4.598-7.813 6.717-12.646 4.925-5.57-2.048-14.295-0.757-22.303 3.257-7.209 3.625-12.584 8.94-14.019 13.865-0.85 2.877-2.918 5.253-5.673 6.482-2.745 1.229-5.898 1.168-8.601-0.133-3.687-1.802-12.789-0.86-21.637 3.768-6.502 3.399-11.253 8.151-11.837 11.817-0.45 2.867-2.11 5.406-4.546 6.994-2.447 1.577-5.438 2.038-8.253 1.28-12.81-3.481-22.988 4.608-28.375 10.322 4.935 7.925 9.39 16.691 13.599 25.856 7.475-5.53 17.971-11.438 29.87-12.359 9.574-12.84 34.355-22.599 48.783-22.456 9.502-13.926 32.44-24.135 48.353-22.067 10.608-14.796 32.061-19.548 47.021-21.032-2.949-9.543-6.011-18.728-9.216-27.401zM349.106-11.315c-7.495 0.563-27.248 2.56-53.892 8.97 13.076 9.164 40.744 33.822 68.494 92.036-47.123-57.456-94.503-72.743-118.065-76.819-17.971 6.738-37.139 15.329-56.657 26.276 10.342 7.116 32.798 25.159 50.523 57.65-30.187-21.411-67.501-33.371-82.502-37.621-21.75 15.135-43.325 33.454-63.507 55.735 37.324 3.728 113.918 19.784 165.567 87.376 7.905-7.322 20.397-15.473 36.361-14.55 3.85-6.553 10.383-12.452 18.964-16.937 8.007-4.188 19.486-7.721 29.952-6.748 4.464-6.871 11.479-12.954 20.264-17.366 10.127-5.099 20.93-7.209 30.392-6.113 11.837-14.755 32.214-19.313 46.427-20.654-35.921-85.502-81.274-123.051-92.322-131.233zM463.801 221.312c4.229-11.018 4.649-22.865 1.28-33.986-14.213 0.88-34.867 4.966-38.696 16.291-0.942 2.775-3.021 5.017-5.735 6.164-1.269 0.533-2.622 0.798-3.973 0.798-1.515 0-3.031-0.338-4.434-1.014-1.433-0.676-3.236-1.034-5.386-1.034-12.524 0-26.541 10.618-27.565 14.684-0.45 3.113-2.314 5.837-5.038 7.404-2.745 1.577-6.041 1.792-8.94 0.604-0.144-0.051-0.932-0.338-2.745-0.338-11.53 0-29.214 9.789-31.959 14.223-1.014 5.15-5.735 8.796-11.11 8.213-9.676-1.034-19.906 5.591-26.235 10.916 13.66 24.043 38.286 31.805 66.528 20.234 0.798-0.327 2.529-1.075 4.823-2.079 0.041-0.020 0.051-0.051 0.092-0.071 0.082-0.041 0.164-0.031 0.246-0.071 12.605-5.53 43.171-19.22 59.268-26.419l11.848-5.304c12.841-5.724 22.692-16.087 27.729-29.214zM428.842 276.197c-13.332 5.97-31.784 14.223-45.096 20.131l86.281 162.444c1.003 0.819 5.99 1.608 12.329-1.219s9.082-7.055 9.236-7.905l-62.75-173.452zM81.918 357.112c0 22.589-18.37 40.959-40.959 40.959s-40.959-18.37-40.959-40.959 18.37-40.959 40.959-40.959 40.959 18.38 40.959 40.959zM40.959 336.632c-11.294 0-20.48 9.185-20.48 20.479s9.185 20.48 20.48 20.48 20.48-9.185 20.48-20.48-9.185-20.479-20.48-20.479zM112.638 346.873c0 11.315 9.165 20.479 20.48 20.479s20.48-9.164 20.48-20.479-9.165-20.479-20.48-20.479c-11.315 0-20.48 9.164-20.48 20.479zM117.757 183.036c31.058 0 56.319 25.272 56.319 56.319 0 31.058-25.262 56.319-56.319 56.319s-56.319-25.262-56.319-56.319c0-31.047 25.261-56.319 56.319-56.319zM117.757 275.194c19.763 0 35.839-16.077 35.839-35.839s-16.077-35.839-35.84-35.839-35.84 16.087-35.84 35.839 16.076 35.839 35.84 35.839z" />
<glyph unicode="&#xe616;" glyph-name="i-mobi-phone1" d="M500.654 90.849c-7.977 5.581-94.31 62.986-104.735 69.356-9.779 5.97-24.637 4.885-38.942-2.683-8.622-4.526-35.492-19.835-47.175-26.501-10.209 7.076-36.526 26.849-78.264 68.577-41.749 41.738-61.491 68.055-68.546 78.254 6.666 11.684 21.965 38.553 26.471 47.155 7.803 14.776 8.775 29.409 2.601 39.127-6.246 9.851-63.365 96.461-69.335 104.725-9.103 12.626-31.508 14.827-48.158 3.195-0.748-0.522-75.49-55.183-74.547-84.623 2.765-87.091 87.808-189.84 158.659-260.7 70.84-70.861 173.568-155.924 261.007-158.72h0.625c29.225 0 83.129 73.851 83.63 74.578 5.918 8.428 8.735 18.094 7.926 27.218-0.788 8.93-4.874 16.599-11.213 21.043zM487.158 54.334c-17.285-24.771-56.074-65.843-66.846-65.843v-10.24l-0.307 10.25c-80.404 2.57-178.606 84.459-246.835 152.709-68.249 68.24-150.119 166.471-152.689 247.184-0.113 10.68 40.98 49.51 65.823 66.867 5.028 3.523 9.41 4.26 12.206 4.26 4.178 0 6.902-1.618 7.639-2.642 5.581-7.731 62.71-94.331 68.638-103.69 1.351-2.13 1.618-9.063-3.43-18.626-5.54-10.567-29.010-51.569-29.245-51.978l-2.949-5.15 3-5.12c0.707-1.208 18.053-30.321 74.906-87.173 56.863-56.863 85.965-74.23 87.173-74.937l5.12-3.010 5.161 2.949c0.409 0.236 41.421 23.705 52.019 29.276 5.058 2.663 10.291 4.199 14.387 4.199 2.498 0 3.779-0.563 4.322-0.891 10.23-6.247 96.993-63.99 103.659-68.659 0.748-0.522 2.243-2.457 2.56-6.062 0.379-4.311-1.147-9.165-4.311-13.671z" />
<glyph unicode="&#xe617;" glyph-name="i-musi-guitar" d="M118.251 159.303c-2.243 2.263-5.868 2.263-8.11 0l-12.165-12.165c-2.263-2.243-2.263-5.868 0-8.13l73.042-73.042c2.222-2.222 5.868-2.222 8.11 0v0l12.165 12.185c2.243 2.243 2.243 5.847 0 8.11l-73.042 73.042zM458.813 445.767c-2.222 2.222-5.817 2.222-8.038 0l-37.929-37.929c-2.222-2.222-2.222-5.817 0-8.038 1.106-1.116 2.55-1.669 4.014-1.669v0c1.464 0 2.908 0.553 4.024 1.669l37.929 37.929c2.222 2.222 2.222 5.817 0 8.038zM469.74 426.803l-37.929-37.929c-2.222-2.222-2.222-5.817 0-8.038 1.106-1.116 2.55-1.669 4.014-1.669s2.908 0.553 4.024 1.669l37.929 37.929c2.222 2.222 2.222 5.817 0 8.038s-5.817 2.222-8.038 0zM502.108 401.971l1.341 1.341c5.529 5.529 8.571 12.882 8.56 20.706-0.010 7.792-3.062 15.124-8.56 20.592l-26.798 26.798c-5.488 5.529-12.81 8.571-20.623 8.581-0.010 0-0.021 0-0.041 0-7.813 0-15.145-3.042-20.664-8.561l-1.341-1.341-6.912 6.912c-4.004 4.004-10.476 4.004-14.479 0s-4.004-10.476 0-14.48l6.912-6.912-6-6-6.912 6.912c-4.004 4.004-10.476 4.004-14.479 0s-4.004-10.476 0-14.479l6.912-6.912-8.519-8.519c-5.755-5.755-8.663-13.547-8.264-21.657l-72.397-72.407c-18.012 14.233-43.12 28.805-70.533 28.805-15.565 0-30.29-4.69-43.776-13.916-18.944-12.953-25.006-30.167-29.87-44.001-3.226-9.165-6.011-17.070-11.725-22.559-5.294-5.089-16.825-7.178-30.157-9.605-25.579-4.639-60.6-10.998-93.573-43.991-20.285-20.286-30.444-44.135-30.177-70.861 0.389-39.158 23.214-81.603 65.721-122.43 41.493-43.161 84.265-65.976 123.709-65.976 26.327 0 49.828 10.148 69.837 30.167 32.983 32.983 39.332 68.024 43.971 93.604 2.416 13.353 4.505 24.883 9.605 30.178 5.447 5.673 13.425 8.387 22.64 11.541 13.957 4.762 31.334 10.68 44.298 29.655 22.794 33.3 17.305 73.769-15.237 114.678l72.407 72.397c8.069-0.41 15.913 2.509 21.668 8.263l8.519 8.519 6.892-6.891c1.976-1.997 4.598-3 7.219-3s5.243 1.003 7.24 3c4.004 4.004 4.004 10.476 0 14.479l-6.892 6.892 6 6 6.892-6.891c1.997-1.997 4.618-3.001 7.24-3.001s5.243 1.004 7.24 3.001c4.004 4.004 4.004 10.475 0 14.479l-6.892 6.892zM362.885 174.725c-9.134-13.353-21.217-17.48-34.007-21.842-10.772-3.666-21.904-7.465-30.791-16.722-9.38-9.759-11.981-24.105-14.991-40.735-4.393-24.197-9.851-54.323-38.308-82.77-16.036-16.036-34.662-24.166-55.358-24.166-33.25 0-71.936 21.197-109.23 59.976-38.185 36.69-59.392 75.1-59.719 108.155-0.215 21.022 7.926 39.916 24.187 56.166 28.447 28.467 58.552 33.925 82.749 38.318 16.609 3.011 30.946 5.612 40.694 14.981 9.226 8.848 13.107 19.865 16.855 30.526 4.485 12.718 8.714 24.729 22.129 33.904 10.025 6.861 20.859 10.342 32.215 10.342 20.818 0 40.827-11.335 55.91-22.948l-73.758-73.749c-0.020-0.020-0.030-0.051-0.051-0.071-26.388-2.007-47.329-23.89-47.329-50.8 0-28.231 22.969-51.2 51.2-51.2 26.9 0 48.773 20.921 50.811 47.309 0.031 0.031 0.062 0.031 0.092 0.062l73.789 73.789c19.108-24.658 34.007-57.733 12.913-88.525zM225.28 224.010c16.937 0 30.72-13.783 30.72-30.72s-13.783-30.72-30.72-30.72-30.72 13.783-30.72 30.72 13.783 30.72 30.72 30.72zM444.16 372.982c-2.959-2.939-6.779-2.365-8.305-1.976l-5.652 1.444-158.28-158.28c-5.14 11.428-14.315 20.613-25.744 25.754l158.28 158.27-1.444 5.652c-0.379 1.505-0.952 5.346 1.976 8.284l44.82 44.821c1.649 1.659 3.85 2.56 6.185 2.56 2.704-0.164 4.495-0.901 6.164-2.56l26.839-26.839c1.618-1.628 2.519-3.799 2.529-6.124 0-2.345-0.911-4.536-2.56-6.195l-44.81-44.81z" />
<glyph unicode="&#xe618;" glyph-name="i-phot-slr_camera2" d="M440.32 387.84h-23.716l-6.492 16.67c-7.783 20.009-26.788 34.53-45.189 34.53h-115.446c-18.381 0-37.386-14.521-45.189-34.53l-6.492-16.67h-54.436v10.24c0 5.653-4.588 10.24-10.24 10.24h-71.68c-5.653 0-10.24-4.588-10.24-10.24v-13.271c-30.126-8.898-51.2-36.505-51.2-68.649v-215.040c0-39.516 32.154-71.68 71.68-71.68h368.64c39.516 0 71.68 32.164 71.68 71.68v215.040c0 39.527-32.164 71.68-71.68 71.68zM491.52 101.12c0-28.231-22.969-51.2-51.2-51.2h-368.64c-28.231 0-51.2 22.969-51.2 51.2v215.040c0 25.058 17.941 46.264 42.66 50.422 4.925 0.829 8.54 5.1 8.54 10.096v11.162h51.2v-10.24c0-5.653 4.588-10.24 10.24-10.24h71.68c4.219 0 8.007 2.591 9.543 6.523l9.031 23.193c5.161 13.271 17.572 21.483 26.102 21.483h115.446c8.54 0 20.951-8.212 26.112-21.483l9.031-23.193c1.526-3.932 5.315-6.523 9.534-6.523h30.72c28.231 0 51.2-22.969 51.2-51.2v-215.040zM92.16 316.16c0-11.311-9.169-20.48-20.48-20.48s-20.48 9.169-20.48 20.48c0 11.311 9.169 20.48 20.48 20.48s20.48-9.169 20.48-20.48zM307.2 346.88c-73.4 0-133.12-59.719-133.12-133.12s59.719-133.12 133.12-133.12c73.401 0 133.12 59.719 133.12 133.12s-59.719 133.12-133.12 133.12zM307.2 101.12c-62.106 0-112.64 50.534-112.64 112.64s50.535 112.64 112.64 112.64 112.64-50.534 112.64-112.64-50.534-112.64-112.64-112.64z" />
<glyph unicode="&#xe619;" glyph-name="i-plan-flower" d="M495.207 285.768c-16.988 62.054-101.704 69.038-132.495 69.478-9.093 24.945-43.029 104.428-106.394 104.428-62.996 0-96.932-78.643-106.24-104.028-2.109 0.072-4.567 0.123-7.332 0.123-31.642 0-107.192-6.81-125.246-69.898-19.323-67.43 44.503-118.416 66.325-133.55-7.752-25.17-26.603-103.782 24.443-146.34 14.049-11.725 30.966-17.664 50.268-17.664 41.595 0 83.077 27.812 98.325 39.199 16.067-10.076 59.556-34.693 101.438-34.693 17.224 0 32.399 4.178 45.138 12.421 51.845 33.618 32.195 121.467 25.026 147.353 20.388 15.841 83.763 70.983 66.745 133.171zM410.747 164.956l-6.216-4.352 2.345-7.219c0.327-1.003 32.072-100.69-14.572-130.939-9.36-6.062-20.808-9.134-34.007-9.134-45.036 0-95.601 34.837-96.103 35.195l-6.421 4.464-6-4.997c-0.471-0.389-47.544-39.158-91.249-39.158-14.582 0-26.737 4.219-37.141 12.902-48.845 40.735-16.097 130.355-15.76 131.256l2.98 7.966-7.281 4.393c-0.829 0.502-82.555 50.617-64.133 114.903 14.224 49.695 78.561 55.050 105.564 55.050 8.202 0 13.435-0.502 13.486-0.502l8.315-0.809 2.468 7.977c0.297 0.973 30.72 97.25 89.303 97.25 58.46 0 88.996-96.266 89.303-97.239l2.325-7.475 7.813 0.266c0.103 0 1.382 0.041 3.584 0.041 16.896 0 101.95-2.622 116.121-54.436 15.933-58.286-63.918-114.841-64.727-115.405zM260.618 223.027c0 0 23.019 72.202-4.618 72.202s-4.629-72.202-4.629-72.202-60.283 44.124-70.083 17.92c-9.799-26.204 67.246-26.695 67.246-26.695s-58.563-44.053-38.707-61.143c19.845-17.091 46.172 55.695 46.172 55.695s24.31-73.298 46.182-55.695c21.832 17.623-38.707 61.143-38.707 61.143s77.455 0.563 67.226 26.696c-10.209 26.132-70.082-17.92-70.082-17.92z" />
<glyph unicode="&#xe61a;" glyph-name="i-scie-law" d="M482.857 29.44h-207.954c-16.077 0-29.143-13.783-29.143-30.72v-30.72h266.24v30.72c0 16.937-13.066 30.72-29.143 30.72zM491.52-11.52h-225.28v10.24c0 5.652 3.881 10.24 8.663 10.24h207.964c4.772 0 8.653-4.587 8.653-10.24v-10.24zM315.392 200.212c-0.921-1.935-1.68-3.952-2.161-6.103-1.71-7.588-0.368-15.401 3.789-21.975s10.629-11.151 18.217-12.861c2.161-0.491 4.332-0.727 6.492-0.727 5.438 0 10.783 1.526 15.503 4.505l111.903 70.656c6.594 4.167 11.161 10.639 12.872 18.248 1.71 7.588 0.358 15.391-3.799 21.965-5.458 8.643-14.745 13.384-24.289 13.517-1.618 14.305-8.356 38.543-31.038 74.455-22.681 35.922-41.666 52.418-53.883 60.037 0.88 1.884 1.598 3.84 2.068 5.918 1.71 7.598 0.358 15.411-3.799 21.986-8.612 13.589-26.644 17.644-40.202 9.083h-0.010l-111.892-70.656c-6.584-4.158-11.151-10.639-12.871-18.227s-0.369-15.401 3.799-21.975c4.157-6.585 10.629-11.152 18.217-12.872 2.119-0.482 4.25-0.707 6.369-0.717 1.075-9.39 4.413-23.050 12.923-41.421l-214.251-127.12c-15.165-8.94-24.402-19.825-27.433-32.348-2.622-10.824-0.338-22.364 6.615-33.362 7.199-11.418 17.049-18.719 28.487-21.115 2.775-0.594 5.591-0.88 8.458-0.88 10.281 0 21.064 3.769 32.164 11.274l206.408 139.653c12.708-15.227 23.429-23.982 31.344-28.938zM460.892 262.963c1.239-1.945 1.639-4.27 1.127-6.512-0.512-2.263-1.874-4.188-3.83-5.427l-111.902-70.646c-1.956-1.25-4.301-1.628-6.533-1.127-2.263 0.512-4.188 1.874-5.417 3.83-1.239 1.956-1.639 4.281-1.127 6.533 0.512 2.263 1.874 4.178 3.83 5.417l111.892 70.646c4.024 2.54 9.401 1.331 11.961-2.714zM405.555 350.946c25.231-39.966 28.252-62.423 28.334-70.543l-103.363-65.27c-7.271 3.543-26.255 15.893-51.527 55.921-25.354 40.141-28.293 62.628-28.345 70.656l103.27 65.209c7.209-3.471 26.245-15.749 51.63-55.972zM223.396 358.983c-1.239 1.956-1.638 4.27-1.126 6.533s1.874 4.178 3.83 5.417l111.882 70.656c4.034 2.539 9.421 1.331 11.971-2.714 1.239-1.956 1.639-4.27 1.127-6.533s-1.874-4.178-3.83-5.417l-111.892-70.646c-1.956-1.239-4.291-1.639-6.543-1.127-2.253 0.502-4.167 1.863-5.417 3.83zM66.16 106.455c-9.41-6.349-17.787-8.786-24.934-7.312-7.434 1.557-12.462 7.394-15.37 12.012-3.983 6.298-5.335 12.226-4.035 17.613 1.659 6.841 7.854 13.589 17.951 19.538l213.207 126.495c2.631-4.68 5.447-9.513 8.704-14.663 3.389-5.366 6.666-10.158 9.882-14.704l-205.404-138.977z" />
<glyph unicode="&#xe61b;" glyph-name="i-spor-boxing" d="M282.624 480c-134.113 0-177.152-33.587-177.152-138.24 0-1.762 0.061-3.87 0.174-6.277-19.282 3.349-38.892-2.796-53.474-17.264-23.675-23.481-27.986-62.403-11.561-104.018 38.001-99.738 81.654-128.573 113.654-141.558 8.899-55.306 14.776-76.185 24.146-85.555 15.657-14.449 43.223-19.087 113.428-19.087 73.288 0 104.079 7.076 113.449 25.836 13.762 25.406 14.521 96.932 14.551 108.513 29.952 51.364 40.96 156.979 40.96 239.411 0 104.653-43.305 138.24-178.176 138.24zM387.134 3.298c-3.379-6.759-22.661-14.817-95.293-14.817-61.767 0-88.75 3.697-99.246 13.384-6.052 6.052-12.452 39.987-16.313 62.986 1.863-0.635 3.625-1.26 5.263-1.915 28.826-11.53 173.548-8.653 217.232 15.995-1.168-26.542-4.311-62.065-11.643-75.632zM392.12 99.144c-19.568-19.568-173.148-29.113-203.029-17.162-3.318 1.3-6.994 2.529-10.977 3.861-30.403 10.107-76.359 25.385-118.405 135.782-13.363 33.853-10.793 64.533 6.891 82.063 8.038 7.966 18.34 12.155 28.897 12.155 3.922 0 7.895-0.584 11.786-1.762 3.789-39.577 12.862-101.98 20.47-120.576 2.14-5.233 8.131-7.762 13.353-5.601 5.232 2.14 7.742 8.12 5.591 13.363-8.254 20.142-20.746 114.452-20.746 140.493 0 83.046 21.77 117.76 156.672 117.76 135.783 0 157.696-34.714 157.696-117.76 0-93.645-15.084-209.5-48.2-242.616z" />
<glyph unicode="&#xe61c;" glyph-name="i-spor-football" d="M256 469.76c-135.506 0-245.76-110.254-245.76-245.76s110.254-245.76 245.76-245.76 245.76 110.254 245.76 245.76-110.254 245.76-245.76 245.76zM442.214 350.659c23.337-34.202 37.519-75.141 38.953-119.245l-44.923 51.692 5.97 67.553zM423.741 374.231l-7.793-88.146-51.722-27.781-97.721 71.24v66.837l79.739 34.017c29.726-13.036 56.115-32.317 77.496-56.166zM348.959 244.081l-35.41-109.363h-114.514l-35.44 109.363 92.682 67.564 92.682-67.564zM317.983 440.606l-61.706-26.327-61.922 26.419c39.301 11.203 84.337 11.162 123.627-0.092zM166.021 430.52l80.005-34.14v-66.857l-95.518-69.622-53.965 26.378-7.823 88.474c21.371 23.685 47.688 42.824 77.302 55.767zM70.236 351.334l6.041-68.281-45.456-52.347c1.31 44.656 15.688 86.098 39.414 120.627zM31.908 200.735l57.528 66.233 53.73-26.256 36.874-113.776-32.041-35.779-86.917 20.009c-15.616 26.849-25.835 57.19-29.174 89.57zM77.834 86.282l67.195-15.483 35.267-58.993c-40.888 14.633-76.339 40.755-102.462 74.476zM209.040 3.635l-44.8 74.937 31.928 35.656h120.269l31.908-35.625-44.677-74.834c-30.495-6.564-64.092-6.615-94.628-0.133zM332.462 12.083l35.082 58.757 66.55 15.329c-25.959-33.454-61.113-59.433-101.632-74.087zM450.867 111.063l-86.293-19.876-32.021 35.748 35.697 110.285 55.040 29.563 56.853-65.434c-3.267-32.635-13.538-63.242-29.276-90.286z" />
<glyph unicode="&#xe61d;" glyph-name="i-spor-pingpong" d="M454.953 402.483c-94.976 94.955-217.61 58.859-291.349-14.858-30.597-30.567-50.749-64.686-56.689-140.247-0.020-0.236-0.031-0.471-0.041-0.707 0-0.195 0-0.389 0-0.573 0.43-23.941 4.69-46.52 12.656-67.133 3.481-17.849 3.676-39.946-2.837-46.469-17.090-17.081-38.471-33.813-55.664-47.248-12.431-9.728-23.163-18.135-29.512-24.474-9.4-9.38-12.964-21.913-10.025-35.267 2.529-11.541 9.882-23.654 21.268-35.031 14.838-14.827 30.29-22.416 44.216-22.416 9.687 0 18.637 3.676 26.112 11.161 6.605 6.605 15.104 17.459 24.935 30.034 13.291 16.988 29.839 38.144 46.797 55.091 5.765 5.755 24.351 7.055 45.394 3.205 21.074-8.243 44.063-12.606 68.372-13.015 0.215-0.010 0.43-0.021 0.635 0.010 0 0 0 0 0.010 0 0.082 0 0.174 0 0.246 0.010 59.812 3.338 105.789 21.883 140.575 56.688 39.803 39.793 64.911 88.945 70.686 138.414 6.635 56.863-12.647 109.712-55.788 152.822zM236.841 86.948c-0.614 0.236-1.239 0.42-1.884 0.543-14.142 2.683-48.722 7.188-64.614-8.673-17.849-17.838-34.816-39.526-48.446-56.955-9.431-12.042-17.572-22.446-23.286-28.17-13.588-13.589-33.454 3.358-41.37 11.264-8.602 8.612-14.050 17.234-15.739 24.945-1.444 6.574 0.031 11.93 4.495 16.394 5.479 5.468 15.749 13.507 27.658 22.825 17.623 13.783 39.547 30.935 57.529 48.896 16.671 16.681 10.526 54.63 8.254 65.874-0.113 0.584-0.286 1.147-0.502 1.7-4.178 10.649-7.25 21.934-9.175 33.741l142.008-141.936c-12.206 1.966-23.88 5.161-34.928 9.554zM490.404 252.027c-5.253-44.902-28.272-89.764-64.829-126.3-30.638-30.659-69.734-46.745-122.737-50.442l-175.135 175.032c6.523 73.39 27.536 100.014 50.37 122.829 66.775 66.745 177.377 99.87 262.4 14.858 38.553-38.533 55.818-85.545 49.93-135.977zM122.88 418.56c0 33.884-27.556 61.44-61.44 61.44s-61.44-27.556-61.44-61.44 27.556-61.44 61.44-61.44 61.44 27.556 61.44 61.44zM20.48 418.56c0 22.589 18.37 40.96 40.96 40.96s40.96-18.37 40.96-40.96-18.37-40.96-40.96-40.96-40.96 18.37-40.96 40.96z" />
<glyph unicode="&#xe61e;" glyph-name="i-spor-rugby" d="M321.68 275.2l23.481 23.481c4.004 4.004 4.004 10.476 0 14.479s-10.476 4.004-14.479 0l-23.481-23.481-38.841 38.841c-4.004 4.004-10.476 4.004-14.48 0s-4.004-10.476 0-14.48l38.84-38.84-36.721-36.721-38.84 38.84c-4.004 4.004-10.476 4.004-14.48 0s-4.004-10.476 0-14.479l38.84-38.841-36.72-36.721-38.84 38.84c-4.004 4.004-10.476 4.004-14.48 0s-4.004-10.475 0-14.48l38.84-38.841-23.481-23.481c-4.004-4.004-4.004-10.476 0-14.479s10.476-4.004 14.48 0l23.481 23.481 38.84-38.841c1.997-1.997 4.618-3 7.239-3s5.243 1.003 7.24 3c4.004 4.004 4.004 10.476 0 14.479l-38.84 38.841 36.72 36.721 38.841-38.841c4.004-4.004 10.476-4.004 14.479 0s4.004 10.476 0 14.479l-38.841 38.841 36.721 36.721 38.841-38.841c4.004-4.004 10.476-4.004 14.479 0s4.004 10.476 0 14.48l-38.841 38.84zM471.88 439.87c-19.272 19.272-54.446 29.89-99.072 29.89-70.553 0-174.367-28.436-254.178-108.247-119.102-119.132-132.629-298.988-78.367-353.25 19.343-19.364 54.559-30.024 99.174-30.024 70.43 0 174.162 28.467 254.065 108.38 117.033 117.033 131.39 300.216 78.377 353.25zM379.024 101.099c-75.479-75.479-173.25-102.38-239.585-102.38-32.727 0-59.904 6.298-76.708 17.531l87.87 87.87c4.004 4.004 4.004 10.476 0 14.479s-10.476 4.004-14.48 0l-87.808-87.808c-33.648 51.702-23.070 208.343 84.797 316.242 75.387 75.387 173.25 102.246 239.698 102.246 32.697 0 59.832-6.256 76.585-17.408l-87.993-87.993c-4.004-4.004-4.004-10.476 0-14.48s10.476-4.004 14.479 0l87.952 87.941c33.659-51.692 23.081-208.353-84.808-316.242z" />
<glyph unicode="&#xe61f;" glyph-name="i-spor-trophy" d="M501.76 393.513c0 48.722-37.929 66.007-70.421 66.007-13.691 0-31.969-4.362-43.714-10.24h-263.25c-11.735 5.878-30.023 10.24-43.715 10.24-32.481 0-70.421-17.285-70.421-66.007 0-47.964 41.758-89.877 75.305-123.566 20.623-20.706 41.954-42.117 40.776-53.647-0.103-0.993-0.409-4.034-6.226-7.885-4.71-3.123-6.011-9.472-2.888-14.192s9.462-6.011 14.193-2.887c8.775 5.806 13.865 13.046 15.145 21.555 15.248-51.077 35.041-95.539 58.091-123.106 0.471-1.116 1.157-2.171 2.048-3.092 10.885-11.305 16.005-20.541 14.797-26.675-1.843-9.37-20.030-17.387-36.055-24.484-24.494-10.813-52.255-23.070-52.255-49.92 0-8.622 0-17.531 123.218-17.623 122.46 0.072 122.46 8.99 122.46 17.623 0 26.798-27.699 39.178-52.142 50.104-16.087 7.178-34.334 15.329-36.168 24.822-1.209 6.185 3.911 15.442 14.786 26.747 0.88 0.921 1.557 1.956 2.027 3.072 23.040 27.678 42.813 72.038 58.061 122.942 1.168-8.683 6.277-16.056 15.186-21.965 4.711-3.113 11.070-1.833 14.192 2.887s1.833 11.070-2.887 14.192c-5.817 3.85-6.134 6.892-6.226 7.885-1.168 11.53 20.152 32.942 40.776 53.647 33.546 33.68 75.305 75.612 75.305 123.566zM100.055 284.395c-30.884 31.017-69.335 69.622-69.335 109.118 0 42.24 38.226 45.527 49.941 45.527 9.502 0 23.070-3.021 32.020-6.892 0.686-59.341 10.127-128.891 26.225-191.683-8.376 13.353-22.6 27.618-38.85 43.929zM318.341 17.019c15.882-7.096 32.205-14.387 37.898-24.054-16.865-2.13-56.996-4.475-100.608-4.485-42.998 0.031-83.005 2.365-99.861 4.495 5.714 9.605 22.026 16.825 37.918 23.829 21.617 9.554 43.971 19.415 47.882 39.26 0.399 1.997 0.583 4.034 0.563 6.103 9.103-2.714 18.658-2.632 27.74 0.215 0-1.945 0.195-3.861 0.553-5.755 3.87-19.927 26.265-29.942 47.913-39.608zM255.621 80.64c-51.374 0-119.859 170.578-122.429 348.16h245.616c-2.591-177.582-71.495-348.16-123.187-348.16zM372.859 240.087c16.24 62.894 25.774 132.598 26.46 192.062 8.94 3.87 22.507 6.891 32.020 6.891 11.725 0 49.94-3.287 49.94-45.527 0-39.495-38.451-78.101-69.335-109.118-16.414-16.456-30.74-30.853-39.086-44.309zM213.095 331.131v-21.063h30.853v-81.776h31.263v128.492h-24.73c-0.901-6-7.68-25.651-37.386-25.651z" />
<glyph unicode="&#xe620;" glyph-name="i-time-birthday" d="M404.183 346.942c0.368-0.041 0.748-0.062 1.116-0.062h8.601c0.368 0 0.738 0.020 1.106 0.062 26.112 2.857 45.793 25.272 45.793 52.142 0 25.918-36.199 69.008-43.459 77.384-3.901 4.485-11.582 4.485-15.483 0-7.26-8.377-43.459-51.466-43.459-77.384 0-26.849 19.681-49.264 45.783-52.142zM409.6 453.683c14.633-18.503 30.72-43.182 30.72-54.599 0-15.442-10.537-28.334-24.853-31.242 8.438 2.396 14.613 9.728 14.613 18.473 0 10.68-20.48 42.486-20.48 42.486s-20.48-31.805-20.48-42.486c0-8.735 6.154-16.057 14.582-18.453-14.305 2.929-24.822 15.811-24.822 31.222 0 11.407 16.087 36.096 30.72 54.599zM501.76-11.52v96.409c0 0.031 0 0.062 0 0.082v42.209c0 30.515-21.75 56.279-51.2 63.846v89.293c0 5.325 2.837 11.202 5.335 16.384 2.529 5.202 4.905 10.127 4.905 15.319 0 14.95-9.564 24.269-24.955 24.33-29.276 0.071-62.32 9.954-62.649 10.055-0.502 0.154-1.014 0.266-1.526 0.338-6.164 0.87-12.002-0.768-16.445-4.628-4.495-3.891-7.065-9.758-7.065-16.098 0-5.253 2.969-10.26 7.465-17.848 5.499-9.247 13.015-21.924 13.015-32.973v-81.92h-71.68v87.040c0 5.325 2.837 11.202 5.335 16.384 2.529 5.202 4.905 10.127 4.905 15.319 0 14.95-9.564 24.269-24.955 24.33-29.276 0.071-62.331 9.954-62.659 10.055-0.492 0.154-1.014 0.266-1.516 0.338-6.154 0.84-12.001-0.778-16.456-4.628-4.485-3.891-7.055-9.758-7.055-16.098 0-5.253 2.97-10.26 7.465-17.848 5.499-9.247 13.015-21.924 13.015-32.973v-81.92h-71.68v87.040c0 5.325 2.837 11.202 5.345 16.384 2.519 5.202 4.894 10.127 4.894 15.319 0 14.95-9.554 24.269-24.955 24.33-29.276 0.071-62.331 9.954-62.659 10.055-0.492 0.154-1.014 0.266-1.516 0.338-6.165 0.84-11.991-0.778-16.456-4.628-4.485-3.891-7.056-9.758-7.056-16.098 0-5.253 2.97-10.27 7.475-17.848 5.489-9.247 13.005-21.924 13.005-32.973v-84.255c-29.44-7.577-51.2-33.25-51.2-63.764v-138.701c-5.652 0-10.24-4.577-10.24-10.24s4.588-10.24 10.24-10.24h491.52c5.663 0 10.24 4.577 10.24 10.24s-4.577 10.24-10.24 10.24zM435.784 315.874c4.536-0.010 4.536-0.676 4.557-3.543-0.185-1.137-1.741-4.362-2.867-6.718-3.123-6.451-7.394-15.278-7.394-25.293v-87.040h-40.96v81.92c0 16.671-9.175 32.133-15.882 43.428-1.495 2.54-3.471 5.847-4.342 7.7 7.414-2.119 38.103-10.383 66.887-10.455zM219.638 318.628c-1.506 2.54-3.461 5.837-4.342 7.7 7.434-2.13 38.113-10.383 66.887-10.455 4.536-0.010 4.536-0.676 4.557-3.543-0.185-1.137-1.741-4.362-2.867-6.718-3.123-6.451-7.394-15.278-7.394-25.293v-87.040h-40.96v81.92c0 16.671-9.175 32.133-15.882 43.428zM128.583 315.874c4.536-0.010 4.536-0.676 4.547-3.543-0.174-1.137-1.731-4.362-2.867-6.718-3.113-6.451-7.383-15.278-7.383-25.293v-87.040h-40.96v81.92c0 16.671-9.175 32.133-15.882 43.428-1.505 2.54-3.461 5.837-4.342 7.7 7.434-2.119 38.114-10.383 66.888-10.455zM79.36 172.8h353.28c26.818 0 48.64-20.47 48.64-45.619v-38.482c-5.622-5.069-12.841-8.059-20.48-8.059-16.937 0-30.72 13.783-30.72 30.72 0 5.663-4.577 10.24-10.24 10.24s-10.24-4.577-10.24-10.24c0-16.937-13.783-30.72-30.72-30.72s-30.72 13.783-30.72 30.72c0 5.663-4.577 10.24-10.24 10.24s-10.24-4.577-10.24-10.24c0-16.937-13.783-30.72-30.72-30.72s-30.72 13.783-30.72 30.72c0 5.663-4.577 10.24-10.24 10.24-5.653 0-10.24-4.577-10.24-10.24 0-16.937-13.783-30.72-30.72-30.72s-30.72 13.783-30.72 30.72c0 5.663-4.588 10.24-10.24 10.24s-10.24-4.577-10.24-10.24c0-16.937-13.783-30.72-30.72-30.72s-30.72 13.783-30.72 30.72c0 5.663-4.588 10.24-10.24 10.24s-10.24-4.577-10.24-10.24c0-16.937-13.783-30.72-30.72-30.72-7.639 0-14.858 2.99-20.48 8.059v38.482c0 25.149 21.821 45.619 48.64 45.619zM30.72 64.471c6.39-2.796 13.353-4.311 20.48-4.311 16.732 0 31.611 8.069 40.96 20.51 9.349-12.442 24.228-20.51 40.96-20.51s31.611 8.069 40.96 20.51c9.349-12.442 24.228-20.51 40.96-20.51s31.611 8.069 40.96 20.51c9.349-12.442 24.228-20.51 40.96-20.51s31.611 8.069 40.96 20.51c9.349-12.442 24.228-20.51 40.96-20.51s31.611 8.069 40.96 20.51c9.349-12.442 24.228-20.51 40.96-20.51 7.127 0 14.080 1.515 20.48 4.311v-75.991h-450.56v75.991zM250.583 346.942c0.369-0.041 0.738-0.062 1.116-0.062h8.601c0.368 0 0.738 0.020 1.106 0.062 26.112 2.857 45.793 25.272 45.793 52.142 0 25.918-36.199 69.008-43.459 77.384-3.901 4.485-11.591 4.485-15.483 0-7.25-8.377-43.459-51.466-43.459-77.384 0-26.849 19.681-49.264 45.783-52.142zM256 453.683c14.633-18.503 30.72-43.182 30.72-54.599 0-15.442-10.537-28.334-24.853-31.242 8.438 2.396 14.613 9.728 14.613 18.473 0 10.68-20.48 42.486-20.48 42.486s-20.48-31.805-20.48-42.486c0-8.735 6.144-16.046 14.561-18.453-14.295 2.949-24.802 15.811-24.802 31.222 0 11.407 16.097 36.096 30.72 54.599zM96.983 346.942c0.368-0.041 0.748-0.062 1.116-0.062h8.602c0.368 0 0.748 0.020 1.116 0.062 26.102 2.857 45.783 25.272 45.783 52.142 0 25.918-36.209 69.008-43.459 77.384-3.891 4.485-11.591 4.485-15.483 0-7.25-8.377-43.459-51.466-43.459-77.384 0-26.87 19.681-49.285 45.783-52.142zM102.4 453.683c14.623-18.503 30.72-43.182 30.72-54.599 0-15.442-10.537-28.334-24.852-31.242 8.438 2.396 14.612 9.728 14.612 18.473 0 10.68-20.48 42.486-20.48 42.486s-20.48-31.805-20.48-42.486c0-8.745 6.174-16.077 14.612-18.463-14.316 2.908-24.852 15.79-24.852 31.232 0 11.407 16.097 36.096 30.72 54.599z" />
<glyph unicode="&#xe621;" glyph-name="i-tran-bus" d="M399.36 377.6h-286.72c-26.030 0-40.96-14.93-40.96-40.96v-122.88c0-26.030 14.93-40.96 40.99-40.96l286.69 0.798c16.743 0 40.96 14.295 40.96 40.161v122.88c0 26.030-14.93 40.96-40.96 40.96zM419.84 213.76c0-13.834-14.654-19.682-20.48-19.682l-286.72-0.798c-14.736 0-20.48 5.745-20.48 20.48v122.88c0 14.736 5.745 20.48 20.48 20.48h286.72c14.736 0 20.48-5.745 20.48-20.48v-122.88zM153.6 387.84h215.040c11.294 0 20.48 9.185 20.48 20.48v20.48c0 11.295-9.185 20.48-20.48 20.48h-215.040c-11.294 0-20.48-9.185-20.48-20.48v-20.48c0-11.294 9.185-20.48 20.48-20.48zM153.6 428.8h215.040v-20.48h-215.040v20.48zM491.52 357.12h-10.24v30.72c0 44.585-5.54 92.16-71.68 92.16h-286.72c-67.184 0-92.16-22.2-92.16-81.92v-40.96h-10.24c-11.294 0-20.48-9.185-20.48-20.48v-81.92c0-11.294 9.185-20.48 20.48-20.48h10.24v-174.080c0-13.988 4.025-24.146 10.24-31.539v-29.901c0-16.937 13.783-30.72 30.72-30.72h40.96c16.937 0 30.72 13.783 30.72 30.72v10.24h225.28v-10.24c0-16.937 13.783-30.72 30.72-30.72h40.96c16.937 0 30.72 13.783 30.72 30.72v29.901c6.205 7.394 10.24 17.551 10.24 31.539v174.080h10.24c11.294 0 20.48 9.185 20.48 20.48v81.92c0 11.295-9.185 20.48-20.48 20.48zM30.72 254.72h-10.24v81.92h10.24v-81.92zM122.88-1.28c0-5.652-4.598-10.24-10.24-10.24h-40.96c-5.642 0-10.24 4.587-10.24 10.24v16.036c15.33-5.796 32.379-5.796 40.96-5.796h20.48v-10.24zM450.56-1.28c0-5.652-4.587-10.24-10.24-10.24h-40.96c-5.652 0-10.24 4.587-10.24 10.24v10.24h20.48c8.581 0 25.641 0 40.96 5.796v-16.036zM460.8 60.16c0-18.442-8.714-30.72-51.2-30.72h-307.2c-42.496 0-51.2 12.278-51.2 30.72v337.92c0 48.231 15.411 61.44 71.68 61.44h286.72c39.721 0 51.2-16.077 51.2-71.68v-327.68zM491.52 254.72h-10.24v81.92h10.24v-81.92zM394.24 142.080c-25.406 0-46.080-20.675-46.080-46.080s20.675-46.080 46.080-46.080 46.080 20.675 46.080 46.080-20.675 46.080-46.080 46.080zM394.24 70.4c-14.121 0-25.6 11.479-25.6 25.6s11.479 25.6 25.6 25.6 25.6-11.479 25.6-25.6-11.479-25.6-25.6-25.6zM117.76 142.080c-25.406 0-46.080-20.675-46.080-46.080s20.674-46.080 46.080-46.080 46.080 20.675 46.080 46.080-20.674 46.080-46.080 46.080zM117.76 70.4c-14.111 0-25.6 11.479-25.6 25.6s11.489 25.6 25.6 25.6 25.6-11.479 25.6-25.6-11.489-25.6-25.6-25.6z" />
<glyph unicode="&#xe622;" glyph-name="i-tran-motorcycle" d="M419.84 152.32c-14.356 0-27.894-3.379-40.007-9.226-7.178 14.029-13.68 28.375-19.18 42.455 8.366-1.69 17.264-2.529 24.3-2.529 13.138 0 21.945 2.693 27.689 8.458 7.301 7.332 7.25 16.968 7.219 25.477l-0.010 1.925 0.010 1.925c0.031 8.51 0.082 18.135-7.219 25.467-5.755 5.775-14.551 8.469-27.689 8.469-16.988 0-31.887-4.137-42.526-11.479-3.103 12.012-5.171 20.675-5.223 20.91-0.195 0.819-0.481 1.587-0.85 2.314-3.195 11.161-9.584 23.214-9.872 23.757-1.782 3.349-5.253 5.438-9.042 5.438-1.433 0-35.226-0.266-58.44-23.481-4.004-4.004-4.004-10.476 0-14.479s10.476-4.004 14.479 0c12.083 12.083 28.897 15.81 37.827 16.967 2.089-4.557 4.557-10.526 5.776-15.442-0.195-4.464-2.642-13.107-8.079-19.169-3.522-3.922-7.465-5.837-12.042-5.837-62.822 0-74.588-29.552-80.906-45.424-0.768-1.915-1.741-4.382-2.499-5.765-32.932 0.246-57.785 8.93-61.235 15.175-13.712 24.832-24.955 25.774-70.4 25.774-70.922 0-80.784-34.755-81.674-38.717-0.727-3.246 0.164-6.646 2.396-9.113 1.27-1.403 13.066-13.609 38.318-13.609 3.748 0 7.557 0.103 11.428 0.205 19.845 0.574 38.983 0.993 57.364-12.165-5.704 1.096-11.571 1.721-17.593 1.721-50.913 0-92.16-41.246-92.16-92.16s41.246-92.16 92.16-92.16c44.769 0 82.032 31.897 90.388 74.209 20.357-9.421 51.374-12.667 68.198-12.667 0.461 0 0.922 0.010 1.372 0.010 18.832 0.236 44.841 4.762 56.156 16.732 5.038 5.335 5.909 10.731 5.663 15.278-8.336 60.048 20.48 88.289 35.134 98.529 4.127-9.329 8.673-18.647 13.435-27.853-21.207-16.886-34.826-42.865-34.826-72.079 0-50.913 41.247-92.16 92.16-92.16s92.16 41.246 92.16 92.16-41.246 92.16-92.16 92.16zM350.075 223.038c6.267 6.892 19.64 11.182 34.877 11.182 10.219 0 12.738-2.018 13.148-2.417 1.28-1.29 1.25-6.615 1.239-10.896l-0.010-2.007 0.010-2.017c0.010-4.291 0.041-9.615-1.239-10.906-0.409-0.399-2.928-2.416-13.148-2.416-11.684 0-25.815 2.529-32.174 5.755-0.358 0.185-0.748 0.174-1.116 0.317-1.178 4.004-2.334 8.059-3.451 12.073 0.635 0.409 1.321 0.748 1.863 1.331zM92.16-11.52c-39.526 0-71.68 32.164-71.68 71.68s32.154 71.68 71.68 71.68c18.688 0 35.666-7.25 48.446-19.005 0.707-0.86 1.464-1.608 2.365-2.181 10.608-10.67 17.808-24.668 20.050-40.253h-20.695c-4.741 23.368-25.406 40.96-50.166 40.96-28.273 0-51.2-22.917-51.2-51.2 0-28.272 22.927-51.2 51.2-51.2 24.761 0 45.424 17.593 50.166 40.96h20.695c-4.997-34.673-34.816-61.44-70.861-61.44zM92.16 49.92h28.836c-4.24-11.889-15.504-20.48-28.836-20.48-16.937 0-30.72 13.783-30.72 30.72s13.783 30.72 30.72 30.72c13.332 0 24.586-8.591 28.836-20.48h-28.836c-5.653 0-10.24-4.577-10.24-10.24s4.588-10.24 10.24-10.24zM293.468 60.375c-2.969-3.687-18.8-10.066-41.595-10.353-26.583-0.635-59.453 7.055-67.789 14.971-1.26 24.228-11.806 45.957-28.221 61.686-32.84 58.327-72.254 57.354-104.018 56.555-3.687-0.092-7.312-0.195-10.885-0.195-7.742 0-13.363 1.567-17.122 3.195 6.041 6.83 21.289 17.285 58.082 17.285 44.083 0 44.718-1.147 52.48-15.186 11.223-20.347 55.972-25.774 80.64-25.774 12.595 0 16.896 10.803 20.040 18.688 5.468 13.721 12.953 32.512 61.881 32.512 10.435 0 19.865 4.373 27.289 12.636 0.368 0.41 0.738 0.829 1.086 1.26 4.311-16.128 9.748-35.164 14.827-49.070-17.849-11.878-56.443-46.346-46.695-118.21zM419.84-11.52c-39.516 0-71.68 32.164-71.68 71.68 0 21.351 9.442 40.489 24.3 53.637 3.481-6.144 7.035-12.185 10.68-18.033-8.94-9.216-14.5-21.74-14.5-35.605 0-28.272 22.928-51.2 51.2-51.2s51.2 22.928 51.2 51.2c0 28.283-22.928 51.2-51.2 51.2-7.035 0-13.732-1.423-19.835-3.993-3.563 5.735-7.055 11.632-10.455 17.664 9.216 4.322 19.456 6.81 30.29 6.81 39.516 0 71.68-32.164 71.68-71.68s-32.164-71.68-71.68-71.68zM394.885 77.937c9.206-13.302 18.586-25.293 27.73-35.031 3.881-4.127 10.353-4.332 14.479-0.461 4.116 3.87 4.332 10.353 0.461 14.479-8.53 9.093-17.305 20.265-25.918 32.697 2.622 0.738 5.346 1.26 8.202 1.26 16.937 0 30.72-13.783 30.72-30.72s-13.783-30.72-30.72-30.72c-16.937 0-30.72 13.783-30.72 30.72 0 6.635 2.171 12.749 5.765 17.776z" />
<glyph unicode="&#xe623;" glyph-name="i-user-user_female4" horiz-adv-x="511" d="M255.346 480c-140.798 0-255.346-114.548-255.346-255.346 0-126.161 90.219-232.14 214.552-252.108 14.208-3.024 28.251-4.545 41.754-4.545 79.536 0 146.375 36.892 174.82 71.18l0.817 1.052c50.079 47.984 78.749 115.038 78.749 184.422 0 140.798-114.548 255.346-255.346 255.346zM255.346-10.265c-12.42 0-24.881 0.981-37.046 2.901-51.611 11.103-95.121 41.162-113.987 55.798 14.422 10.010 31.98 16.342 49.067 22.481 27.209 9.795 52.908 19.049 61.681 42.643l0.602 2.635c0.582 6.394 0.847 10.204 0.97 13.288l0.388 9.539-9.499 1.031c-38.322 4.137-57.238 11.92-62.662 15.791 9.989 16.127 10.602 43.082 11.347 76.226 1.675 74.050 3.565 157.998 99.667 165.301 18.671 0 28.251-6.404 31.499-9.151l3.024-2.553 3.963 0.143c28.885 1.134 46.545-13.104 55.88-44.982 8.529-29.14 8.519-67.718 8.508-101.76-0.010-36.81-0.021-66.839 10.030-82.773-5.924-4.627-25.442-12.44-64.695-16.445l-9.468-0.971 0.286-9.509c0.163-5.117 0.378-10.040 0.644-13.115l0.603-2.666c8.784-23.625 35.115-34.022 62.999-45.033 16.7-6.598 33.859-13.38 48.015-23.155-42.397-35.983-95.857-55.666-151.819-55.666zM422.455 59.536c-16.986 12.655-37.464 20.734-55.808 27.986-23.88 9.428-44.594 17.619-50.855 31.949-0.031 0.348-0.051 0.715-0.072 1.093 36.269 4.545 75.113 14.586 75.113 36.668v8.661l-4.494 0.745c-7.19 9.305-7.18 42.745-7.17 72.385 0.010 35.411 0.031 75.541-9.325 107.501-11.603 39.63-35.973 59.731-72.447 59.731-0.021 0-0.031 0-0.051 0-7.272 5.107-20.611 11.481-42.122 11.481-0.041 0-0.082 0-0.133 0-115.314-8.712-117.715-114.936-119.308-185.218-0.623-27.414-1.205-53.439-7.752-65.062h-5.148v-6.046l-14.616-14.473h17.864c9.806-14.667 40.437-22.185 69.444-26.035-0.030-0.439-0.071-0.899-0.123-1.368-6.088-13.942-26.014-21.112-48.986-29.395-19.784-7.109-41.948-15.096-59.894-29.467-41.274 42.48-66.145 100.443-66.145 163.983 0 129.532 105.386 234.918 234.918 234.918 129.543 0 234.918-105.387 234.918-234.918 0-62.611-24.013-120.891-67.81-165.117z" />
<glyph unicode="&#xe624;" glyph-name="i-user-user_male4" horiz-adv-x="510" d="M254.99 480c-140.601 0-254.99-114.389-254.99-254.99 0-93.377 50.968-179.197 133.003-223.973 38.636-21.307 83.983-33.036 127.709-33.036 17.952 0 37.841 3.478 59.137 10.353 111.961 29.354 190.131 130.749 190.131 246.657 0 140.601-114.389 254.99-254.99 254.99zM314.138-2.064c-56.801-14.748-119.651-7.18-171.323 20.991-14.463 7.976-27.519 17.135-38.953 27.294 14.127 9.639 31.211 16.36 47.816 22.888 27.927 10.985 54.313 21.368 63.095 44.96l0.602 2.642c1.203 13.32 1.112 23.572 1.020 34.423l-0.051 9.435 0.184 6.069-5.467 2.856c-4.468 3.039-16.391 23.612-18.359 42.022l-0.908 8.394-8.415 0.683c-1.305 0.102-6.569 3.774-8.496 19.777-0.979 8.231 3.019 11.128 3.040 11.138l6.477 3.937-1.907 7.333c-12.382 47.642-10.332 84.157 5.936 105.587 12.678 16.707 34.811 25.469 65.604 26.029 19.144 0 33.301-4.784 37.861-12.78l2.488-4.365 4.967-0.683c13.627-1.897 23.296-7.711 29.538-17.778 15.666-25.214 6.599-71.805-1.224-95.356l-2.152-7.619 6.528-4.304c0.041-0.030 4.039-2.917 3.039-11.148-1.918-16.003-7.18-19.685-8.486-19.777l-8.414-0.673-0.897-8.394c-1.978-18.502-13.545-39.055-17.635-41.921l-5.457-2.856-0.061-15.656c-0.092-10.832-0.183-21.072 1.020-34.363l0.602-2.642c8.772-23.582 35.067-33.964 62.891-44.96 16.575-6.548 33.608-13.269 47.683-22.918-16.635-12.913-52.477-35.362-92.184-48.264zM421.907 60.092c-16.962 12.658-37.443 20.746-55.781 27.988-23.867 9.425-44.562 17.594-50.794 31.935-0.979 11.567-0.897 20.542-0.806 30.874l0.031 4.896c9.149 9.353 18.574 29.232 22 46.938 7.18 3.712 16.105 12.841 18.788 35.219 1.346 11.128-1.897 19.685-6.365 25.305 5.926 20.195 18.156 72.672-2.754 106.31-8.762 14.106-22.041 22.99-39.503 26.447-9.628 12.168-28.1 18.798-52.885 18.798-37.545-0.693-65.022-12.168-81.668-34.097-19.716-25.988-23.377-65.38-10.904-117.132-4.6-5.62-7.987-14.29-6.63-25.631 2.692-22.378 11.618-31.517 18.787-35.22 3.478-17.686 13.137-37.627 22.531-47l0.020-4.774c0.092-10.353 0.173-19.339-0.816-30.935-6.242-14.331-27.019-22.5-50.977-31.925-18.421-7.241-39.013-15.34-56.057-28.029-42.777 43.308-67.725 102.272-67.725 164.948 0 129.352 105.24 234.591 234.591 234.591 129.362 0 234.591-105.24 234.591-234.591 0-63.401-25.418-122.079-67.674-164.917z" />
<glyph unicode="&#xe625;" glyph-name="i-very-info" d="M256 480c-141.159 0-256-114.841-256-256s114.841-256 256-256 256 114.841 256 256-114.841 256-256 256zM256-11.52c-129.863 0-235.52 105.646-235.52 235.52 0 129.864 105.656 235.52 235.52 235.52 129.874 0 235.52-105.656 235.52-235.52 0-129.874-105.646-235.52-235.52-235.52zM268.473 347.853h-24.976c-2.202 0-3.655-1.474-3.655-3.676v-26.808c0-2.202 1.444-3.676 3.655-3.676h24.976c2.192 0 3.676 1.475 3.676 3.676v26.808c0 2.202-1.474 3.676-3.676 3.676zM267.745 274.033h-23.501c-2.191 0-3.666-1.475-3.666-3.676v-168.571c0-2.202 1.464-3.666 3.666-3.666h23.501c2.202 0 3.676 1.454 3.676 3.666v168.571c0 2.202-1.464 3.676-3.676 3.676z" />
<glyph unicode="&#xe626;" glyph-name="p-busi-briefcase" d="M468 364h-56v8c0 4.424-3.576 8-8 8h-16c-4.424 0-8-3.576-8-8v-8h-256v8c0 4.424-3.576 8-8 8h-16c-4.424 0-8-3.576-8-8v-8h-56c-4.424 0-8-3.576-8-8v-320c0-4.424 3.576-8 8-8h432c4.424 0 8 3.576 8 8v320c0 4.424-3.576 8-8 8zM460 44h-416v304h416v-304zM308 372c-4.424 0-8 3.576-8 8 0 8.824-7.168 16-16 16h-64c-8.824 0-16-7.176-16-16 0-4.424-3.576-8-8-8s-8 3.576-8 8c0 17.648 14.352 32 32 32h64c17.648 0 32-14.352 32-32 0-4.424-3.576-8-8-8z" />
<glyph unicode="&#xe627;" glyph-name="p-busi-calculator" d="M412 412h-336c-17.648 0-32-14.352-32-32v-336c0-17.648 14.352-32 32-32h336c17.648 0 32 14.352 32 32v336c0 17.648-14.352 32-32 32zM428 380v-160h-176v176h160c8.832 0 16-7.176 16-16zM76 396h160v-176h-176v160c0 8.824 7.176 16 16 16zM60 44v160h176v-176h-160c-8.824 0-16 7.168-16 16zM412 28h-160v176h176v-160c0-8.832-7.168-16-16-16zM196 316h-40v40c0 4.424-3.576 8-8 8s-8-3.576-8-8v-40h-40c-4.424 0-8-3.576-8-8s3.576-8 8-8h40v-40c0-4.424 3.576-8 8-8s8 3.576 8 8v40h40c4.424 0 8 3.576 8 8s-3.576 8-8 8zM159.312 116l26.344 26.344c3.128 3.128 3.128 8.184 0 11.312s-8.184 3.128-11.312 0l-26.344-26.344-26.344 26.344c-3.128 3.128-8.184 3.128-11.312 0s-3.128-8.184 0-11.312l26.344-26.344-26.344-26.344c-3.128-3.128-3.128-8.184 0-11.312 1.56-1.56 3.608-2.344 5.656-2.344s4.096 0.784 5.656 2.344l26.344 26.344 26.344-26.344c1.56-1.56 3.608-2.344 5.656-2.344s4.096 0.784 5.656 2.344c3.128 3.128 3.128 8.184 0 11.312l-26.344 26.344zM388 300h-96c-4.424 0-8 3.576-8 8s3.576 8 8 8h96c4.424 0 8-3.576 8-8s-3.576-8-8-8zM388 124h-96c-4.424 0-8 3.576-8 8s3.576 8 8 8h96c4.424 0 8-3.576 8-8s-3.576-8-8-8zM388 92h-96c-4.424 0-8 3.576-8 8s3.576 8 8 8h96c4.424 0 8-3.576 8-8s-3.576-8-8-8z" />
<glyph unicode="&#xe628;" glyph-name="p-busi-piggy_bank_coin" d="M234.328 343.968c-3.448 0-6.624 2.24-7.664 5.712-1.768 5.92-2.664 12.088-2.664 18.32 0 35.288 28.712 64 64 64s64-28.712 64-64c0-6.176-0.872-12.288-2.608-18.16-1.248-4.24-5.704-6.68-9.936-5.416-4.232 1.248-6.656 5.696-5.416 9.928 1.304 4.416 1.96 9 1.96 13.648 0 26.472-21.528 48-48 48s-48-21.528-48-48c0-4.688 0.672-9.312 1.992-13.744 1.264-4.232-1.144-8.688-5.376-9.952-0.768-0.224-1.536-0.336-2.288-0.336zM384 240c8.832 0 16-7.168 16-16s-7.168-16-16-16-16 7.168-16 16 7.168 16 16 16zM472 240h-33.112c-6.584 16.744-16.704 32.424-29.624 45.944l39.92 39.928c2.144 1.44 3.544 3.872 3.544 6.648 0 3.168-1.84 5.912-4.528 7.208-11.888 8.032-25.76 12.272-40.2 12.272-22.384 0-43.16-10.232-56.768-27.68-19.952 7.752-41.2 11.68-63.232 11.68-82.208 0-150.072-56.112-158.952-128h-25.048c-2.752 0-5.44 0.28-8.032 0.816 9.912 10.104 16.032 23.944 16.032 39.184 0 22.056-14.352 40-32 40s-32-17.944-32-40c0-15.24 6.12-29.080 16.032-39.184-2.592-0.536-5.28-0.816-8.032-0.816-13.232 0-24 14.352-24 32 0 4.424-3.584 8-8 8s-8-3.576-8-8c0-26.472 17.944-48 40-48 8.584 0 16.72 1.944 24 5.408 7.28-3.464 15.416-5.408 24-5.408h24c0-36.184 14.816-70.504 41.816-97.072l-9.448-53.536c-1.168-6.576 0.48-13.128 4.504-17.92 3.984-4.752 10.016-7.472 16.56-7.472h24c12.728 0 24.456 9.928 26.696 22.608l3.072 17.408c33.824-10.64 71.832-10.64 105.6 0.008l3.080-17.416c2.232-12.68 13.96-22.608 26.68-22.608h24c6.544 0 12.576 2.72 16.56 7.472 4.016 4.808 5.672 11.344 4.504 17.92l-9.456 53.512c14.416 14.216 25.608 31.032 32.704 49.096h33.128c13.232 0 24 10.768 24 24v48c0 13.232-10.768 24-24 24zM80 216.016c-9.712 7.304-16 18.92-16 31.984 0 13.008 7.328 24 16 24s16-10.992 16-24c0-13.064-6.288-24.68-16-31.984zM480 168c0-4.416-3.592-8-8-8h-38.688c-3.424 0-6.456-2.168-7.568-5.408-6.504-18.952-18.136-36.592-33.632-51.008-1.984-1.848-2.904-4.576-2.432-7.248l10.176-57.728c0.344-1.952 0-3.68-1-4.864-0.952-1.144-2.432-1.744-4.296-1.744h-24c-4.936 0-10.048 4.392-10.936 9.392l-4.704 26.648c-0.424 2.344-1.848 4.384-3.92 5.56-1.216 0.696-2.584 1.048-3.96 1.048-0.96 0-1.912-0.168-2.832-0.504-17.752-6.736-36.68-10.144-56.208-10.144-19.512 0-38.416 3.408-55.48 9.816-2.256 1.128-4.912 1.12-7.168-0.016-2.256-1.144-3.84-3.264-4.28-5.76l-4.704-26.648c-0.88-5-5.992-9.392-10.936-9.392h-24c-1.848 0-3.336 0.6-4.288 1.744-1 1.184-1.352 2.912-1.008 4.864l10.184 57.752c0.472 2.672-0.448 5.408-2.432 7.248-25.72 23.904-39.888 55.304-39.888 88.392 0 70.576 64.6 128 144 128 22.064 0 43.232-4.32 62.904-12.84 3.608-1.544 7.808-0.272 9.92 3.024 10.36 16.168 28.008 25.816 47.176 25.816 8.216 0 16.2-1.768 23.528-5.168l-39.256-39.256c-1.536-1.536-2.384-3.624-2.344-5.792 0.032-2.168 0.944-4.224 2.52-5.712 15.344-14.368 26.856-31.912 33.312-50.736 1.2-3.504 4.688-5.696 8.28-5.344h37.96c4.408 0 8-3.584 8-8v-47.992z" />
<glyph unicode="&#xe629;" glyph-name="p-char-question_mark" d="M248 0c-119.104 0-216 96.888-216 216 0 119.104 96.896 216 216 216 119.112 0 216-96.896 216-216 0-119.112-96.888-216-216-216zM248 416c-110.28 0-200-89.72-200-200s89.72-200 200-200 200 89.72 200 200-89.72 200-200 200zM248 160c-4.416 0-8 3.576-8 8v16c0 17.456 15.016 30.504 28.264 42.024 5.232 4.552 10.184 8.856 13.44 12.8 4.096 5.072 6.296 11.040 6.296 17.176 0 17.648-17.944 32-40 32s-40-14.352-40-32c0-4.424-3.584-8-8-8s-8 3.576-8 8c0 26.472 25.12 48 56 48 30.872 0 56-21.528 56-48 0-9.832-3.44-19.28-9.92-27.312-4.152-5.032-9.576-9.744-15.328-14.736-10.656-9.28-22.752-19.784-22.752-29.952v-16c0-4.424-3.584-8-8-8zM248 144c8.832 0 16-7.168 16-16s-7.168-16-16-16-16 7.168-16 16 7.168 16 16 16z" />
<glyph unicode="&#xe62a;" glyph-name="p-devi-mac" d="M448 416h-384c-17.648 0-32-14.352-32-32v-240c0-17.648 14.352-32 32-32h384c17.648 0 32 14.352 32 32v240c0 17.648-14.352 32-32 32zM64 400h384c8.832 0 16-7.176 16-16v-176h-416v176c0 8.824 7.176 16 16 16zM448 128h-384c-8.824 0-16 7.168-16 16v48h416v-48c0-8.832-7.168-16-16-16zM256 176c8.832 0 16-7.168 16-16s-7.168-16-16-16-16 7.168-16 16 7.168 16 16 16zM319.888 54.976c0.016 0.352 0.112 0.672 0.112 1.024 0 0.336-0.16 0.632-0.184 0.96-0.048 0.336 0.032 0.656-0.048 0.984l-8 32c-1.072 4.288-5.416 6.88-9.704 5.824-4.28-1.072-6.888-5.416-5.832-9.704l7.656-30.608c-0.296-4.144-3.672-7.456-7.888-7.456h-80c-4.216 0-7.592 3.312-7.888 7.456l7.656 30.608c1.072 4.288-1.536 8.632-5.824 9.704-4.264 1.064-8.632-1.528-9.704-5.824l-8-32c-0.080-0.336 0-0.656-0.040-0.984-0.048-0.328-0.2-0.624-0.2-0.96 0-0.352 0.088-0.672 0.104-1.024 0.016-0.12 0.016-0.208 0.032-0.328 0.712-12.592 11.088-22.648 23.864-22.648h80c12.784 0 23.16 10.056 23.856 22.648 0.016 0.12 0.016 0.208 0.032 0.328z" />
<glyph unicode="&#xe62b;" glyph-name="p-docu-certificate" d="M352 136c0 30.872-25.128 56-56 56s-56-25.128-56-56c0-15.2 6.12-29.016 16-39.112v-104.888c0-3.232 1.944-6.16 4.936-7.392 2.992-1.248 6.432-0.56 8.72 1.736l26.344 26.344 26.344-26.344c1.528-1.528 3.576-2.344 5.656-2.344 1.032 0 2.072 0.184 3.064 0.608 2.992 1.232 4.936 4.16 4.936 7.392v104.888c9.872 10.096 16 23.912 16 39.112zM296 176c22.056 0 40-17.944 40-40s-17.944-40-40-40-40 17.944-40 40 17.944 40 40 40zM301.656 29.656c-3.128 3.128-8.184 3.128-11.312 0l-18.344-18.344v74.168c7.288-3.48 15.408-5.48 24-5.48s16.712 2 24 5.488v-74.168l-18.344 18.336zM232 64h-104c-17.648 0-32 14.352-32 32v336c0 17.648 14.352 32 32 32 4.424 0 8-3.576 8-8s-3.576-8-8-8c-8.824 0-16-7.176-16-16v-336c0-8.832 7.176-16 16-16h104c4.424 0 8-3.576 8-8s-3.576-8-8-8zM397.656 373.656l-88 88c-1.496 1.504-3.528 2.344-5.656 2.344h-176c-4.424 0-8-3.576-8-8s3.576-8 8-8h160v-64c0-17.648 14.352-32 32-32h64v-256c0-8.832-7.168-16-16-16h-8c-4.424 0-8-3.576-8-8s3.576-8 8-8h8c17.648 0 32 14.352 32 32v272c0 2.128-0.84 4.16-2.344 5.656zM304 384v60.688l76.688-76.688h-60.688c-8.832 0-16 7.176-16 16zM232 320h-80c-4.424 0-8 3.576-8 8s3.576 8 8 8h80c4.424 0 8-3.576 8-8s-3.576-8-8-8zM344 272h-192c-4.424 0-8 3.576-8 8s3.576 8 8 8h192c4.424 0 8-3.576 8-8s-3.576-8-8-8zM344 224h-192c-4.424 0-8 3.576-8 8s3.576 8 8 8h192c4.424 0 8-3.576 8-8s-3.576-8-8-8z" />
<glyph unicode="&#xe62c;" glyph-name="p-docu-notebook" d="M360 304h-176c-4.424 0-8 3.576-8 8s3.576 8 8 8h176c4.424 0 8-3.576 8-8s-3.576-8-8-8zM328 256h-112c-4.424 0-8 3.576-8 8s3.576 8 8 8h112c4.424 0 8-3.576 8-8s-3.576-8-8-8zM400 432h-272c-17.648 0-32-14.352-32-32v-32h-8c-4.424 0-8-3.576-8-8s3.576-8 8-8h8v-32h-8c-4.424 0-8-3.576-8-8s3.576-8 8-8h8v-32h-8c-4.424 0-8-3.576-8-8s3.576-8 8-8h8v-32h-8c-4.424 0-8-3.576-8-8s3.576-8 8-8h8v-32h-8c-4.424 0-8-3.576-8-8s3.576-8 8-8h8v-32h-8c-4.424 0-8-3.576-8-8s3.576-8 8-8h8v-32h-8c-4.424 0-8-3.576-8-8s3.576-8 8-8h8v-32c0-17.648 14.352-32 32-32h272c17.648 0 32 14.352 32 32v368c0 17.648-14.352 32-32 32zM416 32c0-8.832-7.168-16-16-16h-272c-8.824 0-16 7.168-16 16v32h24c4.424 0 8 3.576 8 8s-3.576 8-8 8h-24v32h24c4.424 0 8 3.576 8 8s-3.576 8-8 8h-24v32h24c4.424 0 8 3.576 8 8s-3.576 8-8 8h-24v32h24c4.424 0 8 3.576 8 8s-3.576 8-8 8h-24v32h24c4.424 0 8 3.576 8 8s-3.576 8-8 8h-24v32h24c4.424 0 8 3.576 8 8s-3.576 8-8 8h-24v32h24c4.424 0 8 3.576 8 8s-3.576 8-8 8h-24v32c0 8.824 7.176 16 16 16h272c8.832 0 16-7.176 16-16v-368z" />
<glyph unicode="&#xe62d;" glyph-name="p-fold-folder_2" d="M448 336c0 17.648-14.352 32-32 32h-192c-16 0-20.024 5.368-25.6 12.8-6.416 8.552-14.4 19.2-38.4 19.2h-96c-17.648 0-32-14.352-32-32v-304c0-17.648 14.352-32 32-32h384c17.648 0 32 14.352 32 32v240c0 17.648-14.352 32-32 32zM48 64v304c0 8.824 7.176 16 16 16h96c16 0 20.024-5.368 25.6-12.8 6.416-8.552 14.4-19.2 38.4-19.2h192c8.832 0 16-7.176 16-16h-80c-24 0-31.984-10.648-38.4-19.2-5.576-7.432-9.6-12.8-25.6-12.8h-192c-17.648 0-32-14.352-32-32v-224c-8.824 0-16 7.168-16 16zM448 48h-368v224c0 8.824 7.176 16 16 16h192c24 0 31.984 10.648 38.4 19.2 5.576 7.432 9.6 12.8 25.6 12.8h96c8.832 0 16-7.176 16-16v-240c0-8.832-7.168-16-16-16z" />
<glyph unicode="&#xe62e;" glyph-name="p-gene-alarm" d="M440.16 80h-0.080c-0.016 0-0.048 0-0.080 0-22.056 0-40 17.944-40.024 40.616l-8 103.96c-7.056 98.8-53.472 165.088-119.976 174.232v25.192c0 4.416-3.576 8-8 8h-16c-4.424 0-8-3.584-8-8v-25.192c-66.496-9.152-112.92-75.432-119.976-174.192l-8.024-104.616c0-22.056-17.944-40-40-40-4.424 0-8-3.584-8-8s3.576-8 8-8h368c0.048 0 0.112 0 0.16 0 4.432 0 8 3.584 8 8s-3.584 8-8 8zM111.224 80c10.344 10.088 16.768 24.080 16.752 39.384l8 104.040c6.968 97.552 54.080 160.576 120.024 160.576s113.056-63.024 120.024-160.616l7.976-103.384c0-15.656 6.456-29.832 16.84-40h-289.616zM256 16c-16.856 0-32.768 6.504-44.8 18.296-3.16 3.096-3.2 8.16-0.112 11.312 3.088 3.16 8.168 3.2 11.312 0.112 9.032-8.848 20.96-13.72 33.6-13.72 12.632 0 24.56 4.856 33.576 13.704 3.168 3.096 8.216 3.040 11.312-0.12 3.096-3.168 3.048-8.216-0.112-11.312-12.024-11.776-27.936-18.272-44.776-18.272z" />
<glyph unicode="&#xe62f;" glyph-name="p-gene-light_bulb_on" d="M207.992 0c-3.736 0-7.080 2.632-7.832 6.44-0.864 4.328 1.944 8.536 6.272 9.408l80 16c4.344 0.872 8.544-1.936 9.408-6.264 0.864-4.344-1.936-8.544-6.264-9.424l-80-16c-0.536-0.112-1.064-0.16-1.584-0.16zM207.992 32c-3.736 0-7.080 2.632-7.832 6.44-0.864 4.328 1.944 8.536 6.272 9.408l80 16c4.344 0.856 8.544-1.936 9.408-6.264 0.864-4.344-1.936-8.544-6.264-9.424l-80-16c-0.536-0.112-1.064-0.16-1.584-0.16zM248 416c-4.416 0-8 3.584-8 8v32c0 4.416 3.584 8 8 8s8-3.584 8-8v-32c0-4.416-3.584-8-8-8zM88 256h-32c-4.416 0-8 3.584-8 8s3.584 8 8 8h32c4.416 0 8-3.584 8-8s-3.584-8-8-8zM440 256h-32c-4.416 0-8 3.584-8 8s3.584 8 8 8h32c4.416 0 8-3.584 8-8s-3.584-8-8-8zM360 368c-2.048 0-4.096 0.784-5.656 2.344-3.128 3.128-3.128 8.184 0 11.312l24 24c3.128 3.128 8.184 3.128 11.312 0s3.128-8.184 0-11.312l-24-24c-1.56-1.56-3.608-2.344-5.656-2.344zM384 120c-2.048 0-4.096 0.784-5.656 2.344l-24 24c-3.128 3.128-3.128 8.184 0 11.312s8.184 3.128 11.312 0l24-24c3.128-3.128 3.128-8.184 0-11.312-1.56-1.56-3.608-2.344-5.656-2.344zM136 368c-2.048 0-4.096 0.784-5.656 2.344l-24 24c-3.128 3.128-3.128 8.184 0 11.312s8.184 3.128 11.312 0l24-24c3.128-3.128 3.128-8.184 0-11.312-1.56-1.56-3.608-2.344-5.656-2.344zM112 120c-2.048 0-4.096 0.784-5.656 2.344-3.128 3.128-3.128 8.184 0 11.312l24 24c3.128 3.128 8.184 3.128 11.312 0s3.128-8.184 0-11.312l-24-24c-1.56-1.56-3.608-2.344-5.656-2.344zM215.992-30.4c-3.736 0-7.080 2.632-7.832 6.432-0.864 4.336 1.944 8.544 6.272 9.424l64 12.8c4.344 0.856 8.544-1.944 9.408-6.272 0.864-4.336-1.936-8.536-6.264-9.416l-64-12.8c-0.536-0.112-1.064-0.168-1.584-0.168zM248 400c-80.072 0-136-55.928-136-136 0-31.952 9.816-56.632 33.744-84.992 0.304-0.376 30.328-38.496 37.152-90.552 0.728-8.464 6.904-24.456 25.104-24.456h80c17.36 0 24.528 14.752 25.064 24.096 6.84 52.224 36.888 90.544 37.032 90.736 24.072 28.336 33.904 53.016 33.904 85.168 0 80.072-55.928 136-136 136zM224 208h-16c-8.824 0-16 7.168-16 16 0 8.824 7.176 16 16 16s16-7.176 16-16v-16zM256 80h-16v112h16v-112zM337.744 188.992c-1.344-1.688-33.096-42.016-40.6-99.384-0.096-1.608-0.976-9.608-9.144-9.608h-16v112h16c17.648 0 32 14.352 32 32s-14.352 32-32 32-32-14.352-32-32v-16h-16v16c0 17.648-14.352 32-32 32s-32-14.352-32-32 14.352-32 32-32h16v-112h-16c-7.552 0-8.92 7.56-9.192 10.168-7.448 56.8-39.2 97.136-40.688 99-18.080 21.416-30.12 42.344-30.12 74.832 0 70.656 49.344 120 120 120s120-49.344 120-120c0-32.688-12.032-53.544-30.256-75.008zM272 208v16c0 8.824 7.168 16 16 16s16-7.176 16-16c0-8.832-7.168-16-16-16h-16z" />
<glyph unicode="&#xe630;" glyph-name="p-gene-paperclip" d="M136 16c-23.504 0-45.6 9.16-62.216 25.784-16.624 16.608-25.784 38.712-25.784 62.216s9.16 45.608 25.784 62.232l251.384 244.752c13.52 13.52 31.6 21.016 50.832 21.016s37.312-7.496 50.904-21.096c13.6-13.592 21.096-31.68 21.096-50.904 0-19.232-7.504-37.312-21.096-50.912l-187.408-180.784c-10.472-10.472-24.528-16.304-39.488-16.304-0.008 0-0.008 0-0.008 0-14.96 0-29.024 5.832-39.592 16.4-10.576 10.576-16.408 24.632-16.408 39.6s5.832 29.024 16.408 39.6l130.032 126.152c3.168 3.072 8.224 3 11.304-0.168 3.088-3.168 3-8.232-0.168-11.312l-129.944-126.088c-7.464-7.456-11.632-17.504-11.632-28.184s4.168-20.728 11.72-28.272c7.552-7.56 17.592-11.728 28.28-11.728v0c10.688 0 20.728 4.16 28.28 11.712l187.416 180.784c10.472 10.48 16.304 24.544 16.304 39.504s-5.832 29.016-16.408 39.6c-10.576 10.576-24.632 16.4-39.592 16.4s-29.016-5.824-39.592-16.408l-251.392-244.752c-13.52-13.528-21.016-31.624-21.016-50.84s7.496-37.312 21.096-50.912c13.592-13.6 31.672-21.088 50.904-21.088s37.312 7.504 50.912 21.088l199.528 192.664c3.168 3.072 8.24 2.984 11.312-0.192 3.064-3.176 2.976-8.248-0.2-11.312l-199.424-192.576c-16.52-16.512-38.624-25.672-62.128-25.672z" />
<glyph unicode="&#xe631;" glyph-name="p-gene-pencil" d="M355.168 357.12l-196.408-196.424c-3.128-3.136-3.128-8.176 0-11.312 1.56-1.552 3.608-2.344 5.656-2.344s4.096 0.792 5.656 2.344l196.416 196.424c3.136 3.128 3.136 8.184 0 11.312-3.128 3.128-8.192 3.12-11.32 0zM462.624 396.704l-33.92 33.92c-6.040 6.040-14.072 9.376-22.608 9.376-0.016 0-0.016 0-0.016 0-8.544 0-16.576-3.336-22.624-9.376l-283.096-283.080c-0.616-0.616-1.136-1.344-1.512-2.128l-66.016-133.888c-1.512-3.064-0.904-6.768 1.512-9.184 1.536-1.528 3.584-2.344 5.656-2.344 1.2 0 2.416 0.272 3.536 0.832l133.872 66.016c0.784 0.376 1.504 0.896 2.12 1.512l13.136 13.144c0.024 0.016 0.040 0.032 0.056 0.048l269.904 269.904c6.048 6.040 9.376 14.072 9.376 22.624s-3.328 16.584-9.376 22.624zM141.8 79.168h24.448l-79.192-39.048-14.928 14.928 34.832 70.648 26.84-0.992v-37.536c0-4.416 3.576-8 8-8zM64.648 39.888l7.24-7.24-14.296-7.048 7.056 14.288zM183.72 95.168h-33.92v37.24c0 4.304-3.408 7.832-7.704 8l-25.296 0.944 244.024 244.032 56.552-56.552-233.656-233.664zM451.312 362.768l-22.616-22.624-56.552 56.552 22.624 22.616c3.032 3.024 7.048 4.688 11.312 4.688 4.272 0 8.288-1.664 11.304-4.688l33.928-33.928c3.024-3.016 4.688-7.032 4.688-11.304s-1.664-8.288-4.688-11.312z" />
<glyph unicode="&#xe632;" glyph-name="p-medi-pic_mountains_albums" d="M488 0h-464c-4.424 0-8 3.576-8 8v352c0 4.424 3.576 8 8 8h464c4.424 0 8-3.576 8-8v-352c0-4.424-3.576-8-8-8zM32 16h448v336h-448v-336zM128 208c-26.472 0-48 21.528-48 48s21.528 48 48 48 48-21.528 48-48-21.528-48-48-48zM128 288c-17.648 0-32-14.352-32-32s14.352-32 32-32 32 14.352 32 32-14.352 32-32 32zM461.656 125.656l-112 112c-3.128 3.128-8.184 3.128-11.312 0l-90.344-90.344-42.344 42.344c-3.128 3.128-8.184 3.128-11.312 0l-144-144c-3.128-3.128-3.128-8.184 0-11.312 1.56-1.56 3.608-2.344 5.656-2.344s4.096 0.784 5.656 2.344l138.344 138.344 90.344-90.344c3.128-3.128 8.184-3.128 11.312 0s3.128 8.184 0 11.312l-42.344 42.344 84.688 84.688 106.344-106.344c1.56-1.56 3.608-2.344 5.656-2.344s4.096 0.784 5.656 2.344c3.128 3.128 3.128 8.184 0 11.312zM456 384h-400c-4.424 0-8 3.576-8 8s3.576 8 8 8h400c4.424 0 8-3.576 8-8s-3.576-8-8-8zM424 416h-336c-4.424 0-8 3.576-8 8s3.576 8 8 8h336c4.424 0 8-3.576 8-8s-3.576-8-8-8z" />
<glyph unicode="&#xe633;" glyph-name="p-nati-alarms" d="M256 15.984c-97.048 0-176 78.952-176 176s78.952 176 176 176 176-78.952 176-176-78.952-176-176-176zM256 351.984c-88.224 0-160-71.776-160-160 0-88.216 71.776-160 160-160 88.216 0 160 71.784 160 160 0 88.224-71.784 160-160 160zM272 175.984h-96v16h80v128h16v-144zM135.608 74.92l11.312-11.312-45.264-45.264-11.312 11.312 45.264 45.264zM376.392 74.92l45.264-45.264-11.312-11.312-45.264 45.264 11.312 11.312zM69.624 282.272l-4.592 8.8c-5.992 11.488-9.032 23.912-9.032 36.928 0 44.112 35.888 80 80 80 17.968 0 34.952-5.832 49.12-16.856l7.832-6.104-123.328-102.768zM136 392c-35.288 0-64-28.712-64-64 0-6.976 1.096-13.744 3.248-20.208l91.584 76.312c-9.384 5.184-19.88 7.896-30.832 7.896zM442.384 282.272l-123.336 102.768 7.832 6.104c14.16 11.024 31.144 16.856 49.12 16.856 44.112 0 80-35.888 80-80 0-12.816-3.128-25.576-9.032-36.92l-4.584-8.808zM345.168 384.104l91.568-76.304c2.168 6.464 3.264 13.232 3.264 20.2 0 35.288-28.712 64-64 64-10.952 0-21.456-2.704-30.832-7.896z" />
<glyph unicode="&#xe634;" glyph-name="p-nati-download" d="M416 0h-304v304h112v-16h-96v-272h272v272h-96v16h112v-304zM322.344 237.656l-50.344-50.344v244.688h-16v-244.688l-50.344 50.344-11.312-11.312 69.656-69.656 69.656 69.656-11.312 11.312z" />
<glyph unicode="&#xe635;" glyph-name="p-nati-favorites" d="M399.528 10.688l-135.528 99.392-135.536-99.392 54.112 162.312-135.016 99h162.672l53.768 161.296 53.768-161.296h162.672l-135-99 54.088-162.312zM264 129.92l104.472-76.608-41.912 125.688 105 77h-125.328l-42.232 126.704-42.232-126.704h-125.328l105-77-41.896-125.688 104.456 76.608z" />
<glyph unicode="&#xe636;" glyph-name="p-nati-films" d="M48 384v-336h400v336h-400zM128 368h240v-144h-240v144zM64 368h48v-48h-48v48zM64 304h48v-48h-48v48zM64 240h48v-48h-48v48zM64 176h48v-48h-48v48zM112 64h-48v48h48v-48zM368 64h-240v144h240v-144zM432 64h-48v48h48v-48zM432 128h-48v48h48v-48zM432 192h-48v48h48v-48zM432 256h-48v48h48v-48zM384 320v48h48v-48h-48z" />
<glyph unicode="&#xe637;" glyph-name="p-nati-flags" d="M416 412.36l-11.936-6.744c-0.384-0.208-38.728-21.616-76.064-21.616-19.304 0-49.632 8.080-78.96 15.888-31.096 8.288-60.464 16.112-81.040 16.112-40.424 0-65.936-10.16-67-10.584l-5-2.024v-387.392h16v178.040c7.848 4.136 29.136 13.288 63.336 13.288 13.496 0 38.904-6.816 65.808-14.024 31.712-8.504 64.512-17.304 86.192-17.304 40.928 0 81.664 14.512 83.376 15.144l5.288 1.896v219.32zM400 204.44c-12.032-3.8-42.728-12.44-72.664-12.44-19.568 0-52.776 8.888-82.048 16.768-27.952 7.496-54.344 14.56-69.952 14.56-29.904 0-51.072-6.4-63.336-11.584v180.528c8.824 2.712 28.816 7.728 56 7.728 18.488 0 48.192-7.912 76.92-15.568 30.328-8.080 61.688-16.432 83.080-16.432 28.56 0 56.632 10.696 72 17.728v-181.288z" />
<glyph unicode="&#xe638;" glyph-name="p-nati-stop_watch" d="M248 16c-101.456 0-184 82.528-184 184 0 101.464 82.544 184 184 184s184-82.536 184-184c0-101.472-82.544-184-184-184zM248 368c-92.64 0-168-75.368-168-168s75.36-168 168-168 168 75.368 168 168-75.36 168-168 168zM248 176c-13.232 0-24 10.768-24 24s10.768 24 24 24c13.232 0 24-10.768 24-24s-10.768-24-24-24zM248 208c-4.408 0-8-3.584-8-8s3.592-8 8-8 8 3.584 8 8-3.592 8-8 8zM240 336h16v-184h-16v184zM232 424h32v-56h-32v56zM393.344 387.304l33.936-33.944-16.968-16.968-33.936 33.944 16.968 16.968zM393.368 364.688l11.32-11.312-16.976-16.976-11.312 11.312 16.968 16.976z" />
<glyph unicode="&#xe639;" glyph-name="p-nati-world_times" d="M511.978 224.011c0 141.161-114.839 255.989-255.989 255.989s-255.989-114.827-255.989-255.989c0-140.828 114.293-255.41 254.976-255.967 0.334 0 0.679-0.044 1.013-0.044s0.679 0.045 1.013 0.045c140.671 0.557 254.976 115.139 254.976 255.966zM389.404 235.141c-0.89 41.882-6.812 80.837-16.639 114.828 23.039 6.066 44.231 13.923 62.829 23.384 31.531-37.842 51.075-85.823 53.558-138.212h-99.747zM267.119 456.493c30.674-6.733 58.031-41.070 76.396-90.442-24.185-4.775-49.94-7.557-76.396-8.181v98.623zM244.859 357.86c-26.456 0.623-52.21 3.406-76.407 8.18 18.375 49.383 45.733 83.709 76.407 90.442v-98.622zM244.859 335.611v-100.47h-99.891c0.946 39.734 6.845 77.153 16.45 109.641 26.411-5.398 54.582-8.526 83.441-9.171zM244.859 212.881v-100.47c-28.86-0.646-57.030-3.773-83.463-9.171-9.594 32.5-15.493 69.907-16.439 109.652h99.903zM244.859 90.163v-98.667c-30.674 6.733-58.042 41.081-76.418 90.486 24.208 4.764 49.963 7.557 76.418 8.18zM267.119 90.163c26.456-0.623 52.211-3.417 76.407-8.18-18.365-49.394-45.733-83.742-76.407-90.487v98.667zM267.119 112.411v100.47h99.892c-0.935-39.734-6.822-77.153-16.439-109.653-26.423 5.409-54.592 8.536-83.452 9.182zM267.119 235.141v100.47c28.86 0.656 57.019 3.773 83.441 9.171 9.605-32.488 15.504-69.907 16.45-109.641h-99.892zM365.897 371.138c-11.519 31.909-26.745 58.332-44.609 77.141 37.642-10.974 71.387-31.086 98.6-57.909-16.172-7.702-34.358-14.124-53.991-19.233zM146.081 371.138c-19.633 5.097-37.809 11.53-53.992 19.243 27.213 26.812 60.97 46.924 98.6 57.898-17.863-18.82-33.090-45.232-44.609-77.141zM139.214 349.969c-9.827-33.991-15.749-72.957-16.639-114.827h-99.746c2.482 52.4 22.038 100.37 53.569 138.223 18.587-9.471 39.779-17.318 62.817-23.395zM122.574 212.881c0.891-41.882 6.801-80.848 16.64-114.839-23.039-6.066-44.219-13.923-62.817-23.384-31.531 37.842-51.087 85.834-53.569 138.223h99.746zM146.070 76.862c11.508-31.887 26.723-58.288 44.576-77.108-37.619 10.974-71.354 31.086-98.555 57.887 16.172 7.702 34.358 14.124 53.981 19.221zM365.92 76.873c19.611-5.098 37.798-11.531 53.981-19.233-27.202-26.812-60.947-46.913-98.555-57.887 17.841 18.82 33.056 45.221 44.575 77.12zM372.776 98.043c9.827 34.002 15.738 72.968 16.628 114.839h99.746c-2.493-52.389-22.038-100.381-53.558-138.223-18.598 9.461-39.789 17.318-62.817 23.384z" />
<glyph unicode="&#xe63a;" glyph-name="p-soci-flickr" d="M248 0c-119.104 0-216 96.888-216 216 0 119.104 96.896 216 216 216 119.112 0 216-96.896 216-216 0-119.112-96.888-216-216-216zM248 416c-110.28 0-200-89.72-200-200s89.72-200 200-200 200 89.72 200 200-89.72 200-200 200zM168 272c30.928 0 56-25.072 56-56s-25.072-56-56-56-56 25.072-56 56 25.072 56 56 56zM328 259.2c23.832 0 43.2-19.384 43.2-43.2s-19.392-43.2-43.2-43.2-43.2 19.392-43.2 43.2c0 23.816 19.368 43.2 43.2 43.2zM328 272c-30.928 0-56-25.072-56-56s25.072-56 56-56 56 25.072 56 56-25.072 56-56 56v0z" />
<glyph unicode="&#xe63b;" glyph-name="p-spor-archery_target" d="M495.384 404.944c0.808 1.952 0.808 4.16 0 6.112-0.824 1.96-2.368 3.52-4.328 4.328-0.976 0.408-2.016 0.616-3.056 0.616h-40v40c0 1.048-0.2 2.080-0.616 3.056-0.824 1.96-2.368 3.52-4.328 4.328-1.944 0.808-4.168 0.808-6.112 0-0.984-0.408-1.864-0.992-2.608-1.728l-31.992-31.992c0-0.008-0.008-0.008-0.008-0.008l-31.992-31.992c-0.744-0.744-1.328-1.624-1.736-2.608-0.408-0.976-0.608-2.008-0.608-3.056v-44.688l-0.44-0.44c-35.672 32.96-83.288 53.128-135.56 53.128-110.28 0-200-89.72-200-200 0-52.264 20.176-99.888 53.128-135.56l-50.784-50.784c-3.128-3.128-3.128-8.184 0-11.312 1.56-1.56 3.608-2.344 5.656-2.344s4.096 0.784 5.656 2.344l50.784 50.784c35.664-32.96 83.288-53.128 135.56-53.128s99.888 20.168 135.56 53.128l50.784-50.784c1.56-1.56 3.608-2.344 5.656-2.344s4.096 0.784 5.656 2.344c3.128 3.128 3.128 8.184 0 11.312l-50.784 50.784c32.96 35.672 53.128 83.296 53.128 135.56s-20.168 99.896-53.128 135.56l0.44 0.44h44.688c1.040 0 2.080 0.208 3.056 0.616 0.984 0.408 1.864 0.992 2.608 1.728l31.992 31.992c0 0.008 0.008 0.008 0.008 0.008l31.992 31.992c0.736 0.744 1.32 1.624 1.728 2.608zM452.688 384h-25.376l16 16h25.376l-16-16zM420.688 352h-25.376l16 16h25.376l-16-16zM384 388.688l16 16v-25.376l-16-16v25.376zM432 411.312l-16-16v25.376l16 16v-25.376zM416 200c0-101.472-82.544-184-184-184s-184 82.528-184 184c0 101.464 82.544 184 184 184 47.856 0 91.504-18.376 124.256-48.432l-34.072-34.064c-24.016 21.384-55.56 34.496-90.184 34.496-74.992 0-136-61.008-136-136s61.008-136 136-136 136 61.008 136 136c0 34.624-13.112 66.168-34.504 90.192l34.064 34.064c30.064-32.76 48.44-76.4 48.44-124.256zM288 200c0-30.872-25.128-56-56-56-30.88 0-56 25.128-56 56s25.12 56 56 56c12.56 0 24.128-4.2 33.472-11.216l-23.192-23.184c-3.128 1.496-6.584 2.4-10.28 2.4-13.232 0-24-10.768-24-24s10.768-24 24-24 24 10.768 24 24c0 3.696-0.904 7.16-2.408 10.28l23.184 23.184c7.024-9.336 11.224-20.92 11.224-33.464zM226.152 194.632c-0.632 0.68-1.168 1.448-1.536 2.304 0.352-0.824 0.888-1.6 1.536-2.304zM224.616 203.064c0.36 0.856 0.904 1.624 1.536 2.304-0.648-0.704-1.184-1.48-1.536-2.304zM228.944 192.616c-0.88 0.368-1.656 0.912-2.336 1.552 0.704-0.656 1.48-1.2 2.336-1.552zM237.4 194.168c-0.688-0.64-1.464-1.184-2.336-1.552 0.848 0.352 1.624 0.896 2.336 1.552zM276.888 256.2c-12.328 9.864-27.912 15.8-44.888 15.8-39.696 0-72-32.296-72-72s32.304-72 72-72 72 32.296 72 72c0 16.968-5.936 32.56-15.8 44.888l34 34c18.496-21.12 29.8-48.68 29.8-78.888 0-66.168-53.832-120-120-120s-120 53.832-120 120c0 66.168 53.832 120 120 120 30.2 0 57.768-11.304 78.888-29.8l-34-34z" />
<glyph unicode="&#xe63c;" glyph-name="p-spor-basketball" d="M464 216v0c0 60.84-25.328 115.84-65.944 155.144-0.128 0.152-0.168 0.328-0.288 0.472-0.216 0.216-0.496 0.304-0.72 0.504-38.8 37.040-91.28 59.872-149.048 59.872-57.76 0-110.248-22.832-149.048-59.888-0.224-0.184-0.504-0.272-0.712-0.496-0.136-0.144-0.168-0.32-0.296-0.472-40.616-39.296-65.944-94.296-65.944-155.136v0 0-0.008c0-60.832 25.32-115.832 65.928-155.136 0.128-0.168 0.168-0.344 0.304-0.496 0.208-0.208 0.496-0.304 0.72-0.496 38.8-37.064 91.288-59.888 149.048-59.888 57.768 0 110.272 22.832 149.072 59.904 0.216 0.176 0.496 0.264 0.696 0.48 0.128 0.152 0.168 0.32 0.288 0.48 40.616 39.304 65.944 94.32 65.944 155.16v0 0zM447.8 224h-111.6c1.92 49.28 21.48 95.144 55.736 130.656 32.936-34.184 53.864-80.024 55.864-130.656zM256 224v191.792c47.592-1.88 90.952-20.48 124.384-50.064-37.136-38.504-58.256-88.256-60.184-141.728h-64.2zM240 224h-64.2c-1.92 53.472-23.048 103.224-60.176 141.728 33.424 29.584 76.784 48.176 124.376 50.064v-191.792zM240 208v-191.816c-47.6 1.88-90.952 20.488-124.384 50.072 37.136 38.504 58.264 88.272 60.184 141.744h64.2zM256 208h64.184c1.92-53.472 23.048-103.232 60.184-141.744-33.416-29.584-76.776-48.176-124.368-50.072v191.816zM104.072 354.656c34.256-35.512 53.808-81.376 55.736-130.656h-111.608c2.008 50.632 22.928 96.472 55.872 130.656zM48.2 208h111.6c-1.912-49.296-21.48-95.16-55.736-130.664-32.944 34.192-53.864 80.024-55.864 130.664zM391.928 77.328c-34.256 35.512-53.816 81.376-55.744 130.672h111.608c-1.992-50.64-22.92-96.488-55.864-130.672z" />
<glyph unicode="&#xe63d;" glyph-name="p-spor-pool_ball" d="M248 0c-119.104 0-216 96.888-216 216 0 119.104 96.896 216 216 216 119.112 0 216-96.896 216-216 0-119.112-96.888-216-216-216zM248 416c-110.28 0-200-89.72-200-200s89.72-200 200-200 200 89.72 200 200-89.72 200-200 200zM248 111.992c-57.344 0-104 46.656-104 104s46.656 104 104 104 104-46.656 104-104-46.656-104-104-104zM248 303.992c-48.52 0-88-39.48-88-88s39.48-88 88-88c48.512 0 88 39.48 88 88s-39.488 88-88 88zM274.168 215.992c8.408 5.864 13.832 14.4 13.832 24 0 17.648-17.944 32-40 32s-40-14.352-40-32c0-9.6 5.424-18.136 13.824-24-8.4-5.864-13.824-14.4-13.824-24 0-17.648 17.944-32 40-32s40 14.352 40 32c0 9.6-5.424 18.136-13.832 24zM224 239.992c0 8.672 10.992 16 24 16s24-7.328 24-16c0-8.68-10.992-16-24-16s-24 7.32-24 16zM248 175.992c-13.008 0-24 7.32-24 16 0 8.672 10.992 16 24 16s24-7.328 24-16c0-8.68-10.992-16-24-16z" />
<glyph unicode="&#xe63e;" glyph-name="p-spor-tennis_ball" d="M464 215.992c0 60.84-25.328 115.848-65.944 155.152-0.128 0.152-0.168 0.328-0.288 0.472-0.216 0.216-0.496 0.304-0.72 0.496-38.8 37.048-91.28 59.88-149.048 59.88-57.76 0-110.248-22.832-149.048-59.888-0.224-0.184-0.504-0.272-0.712-0.496-0.136-0.144-0.168-0.32-0.296-0.472-40.616-39.296-65.944-94.304-65.944-155.144 0-60.832 25.32-115.832 65.928-155.136 0.128-0.168 0.168-0.344 0.304-0.496 0.208-0.208 0.496-0.304 0.72-0.496 38.8-37.064 91.288-59.888 149.048-59.888 57.768 0 110.272 22.832 149.072 59.904 0.216 0.176 0.496 0.264 0.696 0.48 0.128 0.152 0.168 0.32 0.288 0.48 40.616 39.304 65.944 94.32 65.944 155.152zM448 215.992c0-53.808-21.392-102.68-56.072-138.664-36.096 37.44-55.928 86.344-55.928 138.664s19.832 101.224 55.928 138.664c34.68-35.984 56.072-84.856 56.072-138.664zM48 215.992c0 53.808 21.392 102.68 56.072 138.664 36.096-37.44 55.928-86.344 55.928-138.664s-19.824-101.224-55.928-138.656c-34.68 35.976-56.072 84.848-56.072 138.656zM115.616 66.256c38.976 40.424 60.384 93.24 60.384 149.736s-21.4 109.32-60.384 149.736c35.296 31.24 81.648 50.264 132.384 50.264s97.096-19.024 132.384-50.264c-38.984-40.416-60.384-93.24-60.384-149.736s21.4-109.32 60.384-149.736c-35.288-31.24-81.648-50.264-132.384-50.264s-97.088 19.024-132.384 50.264z" />
<glyph unicode="&#xe63f;" glyph-name="p-trav-compass" d="M256 16c-114.696 0-208 93.304-208 208s93.304 208 208 208 208-93.304 208-208-93.304-208-208-208zM256 416c-105.864 0-192-86.136-192-192 0-105.856 86.136-192 192-192 105.856 0 192 86.144 192 192 0 105.864-86.144 192-192 192zM365.656 333.656c-2.488 2.496-6.296 3.048-9.4 1.416l-136-72c-1.424-0.752-2.576-1.904-3.328-3.328l-72-136c-1.64-3.104-1.072-6.912 1.416-9.4 1.536-1.528 3.584-2.344 5.656-2.344 1.272 0 2.56 0.304 3.744 0.928l136 72c1.432 0.752 2.576 1.896 3.328 3.328l72 136c1.64 3.104 1.072 6.912-1.416 9.4zM226.008 242.68l48.672-48.672-103.448-54.776 54.776 103.448zM285.992 205.32l-48.672 48.672 103.448 54.776-54.776-103.448z" />
</font>
</defs>
</svg>
