<?xml version="1.0" standalone="no"?>
<!DOCTYPE svg PUBLIC "-//W3C//DTD SVG 1.1//EN" "http://www.w3.org/Graphics/SVG/1.1/DTD/svg11.dtd" >
<svg xmlns="http://www.w3.org/2000/svg" xmlns:xlink="http://www.w3.org/1999/xlink" version="1.1">
<metadata></metadata>
<defs>
<font id="americorps_laserlaser" horiz-adv-x="1538" >
<font-face units-per-em="2048" ascent="1638" descent="-410" />
<missing-glyph horiz-adv-x="624" />
<glyph horiz-adv-x="0" />
<glyph unicode="&#xd;" horiz-adv-x="1024" />
<glyph unicode=" "  horiz-adv-x="624" />
<glyph unicode="&#x09;" horiz-adv-x="624" />
<glyph unicode="&#xa0;" horiz-adv-x="624" />
<glyph unicode="!" horiz-adv-x="688" d="M180 51v6l64 162q4 12 17 22.5t29.5 18.5t34 13.5t29.5 5.5h183q23 0 47 -15.5t24 -36.5l-65 -170q-8 -18 -45 -37.5t-66 -19.5h-182q-25 0 -47.5 17.5t-22.5 33.5zM283 502q2 20 5 44.5t9 53.5h549q-10 -25 -34 -56.5t-49.5 -62t-49 -52t-31.5 -23.5q-47 -6 -99.5 -9.5 t-93.5 -3.5q-86 0 -134 6.5t-52 8.5h-2q-10 12 -14 37.5t-4 56.5zM332 690l129 336q4 12 17.5 22.5t30.5 18.5t34.5 13t29.5 5h369q20 0 45 -14t25 -35q0 -8 -2 -10l-129 -336h-549z" />
<glyph unicode="&#x22;" horiz-adv-x="921" d="M307 551v24q0 16 2 25h338q-16 -23 -34.5 -46.5t-37 -42.5t-34 -33.5t-23.5 -16.5q-31 -12 -53.5 -15.5t-40.5 -3.5h-12q-45 0 -64.5 10.5t-23.5 10.5q-18 27 -17 88zM332 690q2 0 2 2l55 148q4 12 17.5 22t31 18.5t36 13.5t30.5 5h182q20 0 44 -14.5t24 -34.5 q0 -8 -2 -10l-58 -150h-362zM727 551v24q0 16 2 25h338q-16 -23 -34.5 -46.5t-37 -42.5t-34 -33.5t-23.5 -16.5q-31 -12 -53.5 -15.5t-40.5 -3.5h-13q-45 0 -64 10.5t-24 10.5q-18 27 -16 88zM752 690q2 0 2 2l55 148q4 12 17.5 22t30.5 18.5t35.5 13.5t31.5 5h182 q20 0 44 -14.5t24 -34.5q0 -8 -3 -10l-57 -150h-362z" />
<glyph unicode="#" horiz-adv-x="1736" d="M174 272q0 27 10 43q10 27 25.5 43.5t32.5 28.5h166l57 145h-168q-10 16 -10 37q0 25 2 31h1612q-8 -20 -19.5 -35.5t-23.5 -32.5h-177l-57 -145h176q2 -10 3 -16t1 -11l-3 -11t-7 -34q-10 -23 -23.5 -42t-27.5 -35h-176l-90 -238h-564l91 238h-89l-90 -238h-565l90 238 h-168q-8 14 -8 34zM522 690l82 209h565l-82 -209h-565zM973 387h88l57 145h-88zM1176 690l81 209h564l-82 -209h-563z" />
<glyph unicode="$" horiz-adv-x="1159" d="M78 27q0 31 10 47q16 43 51 78h316q2 8 7 35.5t5 62.5q0 14 -1 27.5t-1 25.5l-117 268q-2 18 -6 29h694v-4l119 -268q10 -37 10 -70q0 -61 -22 -98q-27 -76 -97.5 -118t-144.5 -42h-248l-78 -203q-16 -8 -36.5 -14t-42.5 -6q-23 0 -39.5 6t-30.5 14l78 203h-422 q-2 10 -3 16.5t-1 10.5zM344 690q2 12 6 24.5t8 24.5q31 76 101.5 118t144.5 42h244l72 193q16 10 39.5 19t50.5 9t39 -9t20 -21l-72 -191h426q2 -2 2 -12l-2 -13q0 -35 -8 -49q-20 -45 -51 -77h-317q-12 -35 -13 -58h-690z" />
<glyph unicode="%" horiz-adv-x="2242" d="M295 528q0 37 8 72h359v-6v-6h59l3 3t7 9h356q-37 -63 -78.5 -105t-88.5 -42h-568q-33 0 -46 21.5t-11 53.5zM332 690q4 8 6 14.5t6 14.5q20 49 45 96t51.5 84t57 59.5t65.5 22.5h565q33 0 46.5 -22.5t13.5 -59.5q-4 -78 -45 -184q-4 -6 -5 -12.5t-5 -12.5h-351 q4 6 5 11.5t6 11.5l2 10q16 33 20 61.5t4 49.5v12h-59q-2 -2 -23.5 -38t-40.5 -83l-4 -12q-4 -6 -5 -12.5t-3 -10.5h-352zM508 0l711 600h495l-717 -600h-489zM1327 690l248 209h498l-250 -209h-496zM1395 -4q0 41 15.5 93t33.5 97q20 49 44.5 96.5t52.5 84t58.5 59.5 t65.5 23h565q33 0 46.5 -21.5t11.5 -58.5q0 -37 -12.5 -85t-32.5 -102q-20 -49 -45 -96t-53.5 -84t-60.5 -59.5t-65 -22.5h-567q-57 0 -57 76zM1761 55h60q2 0 10 12.5t19.5 31t23.5 40t18 41.5l4 10q14 39 18.5 71t6.5 52h-59q-4 -2 -27 -37.5t-39 -82.5l-4 -13 q-18 -41 -24.5 -69.5t-6.5 -44.5v-11z" />
<glyph unicode="&#x26;" horiz-adv-x="1576" d="M143 162l2 16q0 18 4.5 39t20.5 62q27 63 84 104t104 66q-23 20 -46 48.5t-21 71.5q0 2 6 31h555q-4 -12 -4 -14v-2q0 -45 67 -52h783v-28q0 -29 -17.5 -61.5t-42.5 -57.5h-143q10 -41 10 -45q0 -37 -10 -49q-18 -49 -31.5 -77t-36.5 -52q-45 -53 -103 -86t-117.5 -49.5 t-115 -21.5t-94.5 -5h-546q-39 0 -91.5 5t-100.5 21.5t-81 48t-35 87.5zM330 690q6 10 11 20.5t15 20.5l4 4q45 55 103.5 87t118 49.5t116 22.5t97.5 5h794q2 -10 2 -16v-11l-3 -11t-7 -34q-8 -23 -21.5 -43t-29.5 -36h-604l-6 -11q-10 -16 -17.5 -26.5t-13.5 -20.5h-559z M698 152h179q29 41 42 64.5t23 51.5l12 29q6 20 7 37q0 23 -14.5 33t-43.5 18h-55q-45 -10 -70.5 -27.5t-42.5 -60.5l-12 -29q-10 -27 -13 -47t-10 -55q0 -2 -1 -3t-1 -5v-6z" />
<glyph unicode="'" horiz-adv-x="501" d="M307 551v24q0 16 2 25h338q-16 -23 -34.5 -46.5t-37 -42.5t-34 -33.5t-23.5 -16.5q-31 -12 -53.5 -15.5t-40.5 -3.5h-12q-45 0 -64.5 10.5t-23.5 10.5q-18 27 -17 88zM332 690q2 0 2 2l55 148q4 12 17.5 22t31 18.5t36 13.5t30.5 5h182q20 0 44 -14.5t24 -34.5 q0 -8 -2 -10l-58 -150h-362z" />
<glyph unicode="(" horiz-adv-x="962" d="M166 127q0 43 10 92t23.5 99.5t30 98.5t32.5 89q10 23 19.5 46t19.5 48h555q-4 -6 -5 -12t-3 -10l-25 -62q-18 -49 -36.5 -103.5t-33 -102.5t-23.5 -87t-9 -59q0 -4 1 -7t1 -5h215q2 -10 3 -16.5t1 -10.5q0 -33 -8 -47q-10 -20 -22.5 -40t-30.5 -38h-629q-49 0 -68.5 36 t-17.5 91zM344 690q37 72 78 142.5t86 126t89 90t87 34.5h610q2 -10 3 -16t1 -10q0 -10 -2 -23.5t-8 -27.5q-10 -20 -22.5 -40t-30.5 -38h-211q-4 -4 -16.5 -25.5t-31 -54.5t-40 -74t-41.5 -84h-551z" />
<glyph unicode=")" horiz-adv-x="962" d="M78 27q0 4 12 51q14 43 49 74h209q14 12 36 51t46.5 90t50 109.5t45.5 113.5l25 62q2 4 3 10t5 12h561q-8 -25 -16 -48.5t-19 -45.5q-25 -66 -63.5 -154t-87.5 -165.5t-105.5 -132t-117.5 -54.5h-629q-2 10 -3 16.5t-1 10.5zM432 954q0 4 12 52q18 51 52 77h610 q47 0 65.5 -40.5t16.5 -106.5q-4 -111 -41 -246h-559q12 41 22.5 81t17.5 71.5t10 54.5t3 29v2h-205q-2 10 -3 16t-1 10z" />
<glyph unicode="*" horiz-adv-x="559" d="M371 764l98 80l-94 26l114 156l84 -55l23 112h197l-62 -112l119 51l-4 -158l-119 -20l45 -82l-133 -72h-59l-17 55l-57 -55h-60z" />
<glyph unicode="+" horiz-adv-x="761" d="M231 420q0 29 9 43q10 27 25.5 43t33.5 29h213l23 65h149l-22 -65h221q0 -10 1 -16.5t1 -10.5l-3 -12q-3 -11 -8 -33q-8 -23 -22.5 -42.5t-28.5 -35.5h-221l-84 -223q-16 -8 -36.5 -14.5t-43.5 -6.5t-39 6.5t-30 14.5l84 223h-215q-8 14 -7 35zM569 690l23 58 q14 10 38.5 19t51.5 9t38 -9.5t19 -21.5l-20 -55h-150z" />
<glyph unicode="," horiz-adv-x="501" d="M70 -68q4 51 18 115q2 2 2 4l8 21l56 147q4 12 17 22.5t29.5 18.5t34 13.5t29.5 5.5h182q23 0 47.5 -15.5t24.5 -36.5l-69 -182q-8 -23 -31 -55.5t-49.5 -64t-51 -56.5t-34.5 -29q-33 -12 -56.5 -15t-42.5 -3h-12q-45 0 -62.5 10t-21.5 10q-10 12 -14 37t-4 53z" />
<glyph unicode="-" horiz-adv-x="659" d="M231 420q0 29 9 43q10 27 25.5 43t33.5 29h481q0 -10 1 -16.5t1 -10.5l-3 -12q-3 -11 -7 -33q-8 -23 -22.5 -42.5t-28.5 -35.5h-483q-8 14 -7 35z" />
<glyph unicode="." horiz-adv-x="501" d="M90 51v6l64 162q4 12 17 22.5t29.5 18.5t34 13.5t29.5 5.5h182q23 0 47.5 -15.5t24.5 -36.5l-65 -170q-8 -18 -45 -37.5t-66 -19.5h-182q-25 0 -47.5 17.5t-22.5 33.5z" />
<glyph unicode="/" horiz-adv-x="1482" d="M43 0l788 600h555l-792 -600h-551zM950 690l275 209h559l-277 -209h-557z" />
<glyph unicode="0" horiz-adv-x="1548" d="M162 127q2 74 27.5 166t56.5 168q14 35 29.5 69.5t31.5 69.5h570q-14 -29 -28.5 -58.5t-25.5 -62.5l-18 -51q-37 -92 -50.5 -155.5t-15.5 -98.5q0 -20 2 -22h177q2 2 19 27.5t40.5 65.5t49.5 88t42 93l18 49q12 31 22.5 61.5t16.5 63.5h572q-10 -39 -23.5 -80t-27.5 -82 q-33 -84 -74 -162.5t-89 -140t-100.5 -98.5t-107.5 -37h-1022q-53 0 -73.5 36t-18.5 91zM356 690q55 92 120 150.5t138 58.5h1018q53 0 73.5 -37t20.5 -98q-2 -16 -3 -34.5t-5 -39.5h-577q2 16 3 29.5t1 21.5v7h-174q-4 -4 -14.5 -18.5t-26.5 -39.5h-574z" />
<glyph unicode="1" horiz-adv-x="874" d="M242 0l227 600h565l-229 -600h-563zM362 760v10t3.5 16.5t7.5 34.5q20 47 53 78h723l-80 -209h-565l20 53h-159q-2 10 -3 17z" />
<glyph unicode="2" horiz-adv-x="1167" d="M78 0l59 160q23 55 52.5 94t64.5 74l321 268l5 4h702q-6 -8 -13 -15l-14 -14l-321 -268q-23 -29 -40 -49.5t-29.5 -36.5t-21.5 -31.5t-18 -33.5h318q2 -10 3 -16.5t1 -10.5t-3 -16.5t-7 -34.5q-18 -45 -52 -74h-1007zM365 764v10t3 16.5t7 34.5q16 45 51 74h825 q59 0 95 -26.5t36 -77.5q0 -11 -12 -56q-4 -10 -9 -22t-13 -27h-699q31 43 33 58h-315q-2 10 -2 16z" />
<glyph unicode="3" horiz-adv-x="1323" d="M78 27q0 4 12 51q14 43 49 74h588q29 41 42 63.5t24 50.5l14 33q6 20 6 37q0 23 -14.5 32t-42.5 17h-461l-2 23l12 55q20 43 49 72h453q41 10 66.5 22t44.5 43h569q-31 -57 -84 -94t-94 -57l4 -5q23 -20 43 -46.5t20 -67.5q0 -6 -12 -51q-16 -49 -27.5 -71t-33.5 -46 q-45 -53 -103.5 -86t-118 -49.5t-115 -21.5t-94.5 -5h-790q-2 10 -3 16.5t-1 10.5zM362 760v10t3.5 16.5t7.5 34.5q20 47 53 78h791q41 0 93 -5t99 -22.5t80 -51.5t35 -89v-8q-2 -6 -2 -18q0 -8 -2 -15h-574q2 6 2 23q0 6 1 13t3 17h-587q-2 10 -3 17z" />
<glyph unicode="4" d="M176 283l121 317h565l-61 -166h270l62 166h565l-230 -600h-563l107 283h-836zM332 690l82 209h565l-82 -209h-565zM1167 690l82 209h563l-79 -209h-566z" />
<glyph unicode="5" horiz-adv-x="1167" d="M78 27q0 31 10 47q16 43 51 78h316q2 8 7 35.5t5 62.5q0 14 -1 27.5t-1 25.5l-117 268q-2 18 -6 29h702v-4l117 -268q10 -37 10 -70q0 -61 -22 -98q-27 -76 -97.5 -118t-144.5 -42h-825q-2 10 -3 16.5t-1 10.5zM344 690q2 12 6 24.5t8 24.5l64 160h1008q2 -10 2 -16v-11 q0 -33 -9 -47q-16 -45 -53 -77h-317q-12 -31 -13 -58h-696z" />
<glyph unicode="6" horiz-adv-x="1447" d="M162 127q2 74 26.5 166t55.5 168q12 35 27.5 69.5t31.5 69.5h569q-20 -37 -28 -65h657q29 0 41 -21.5t12 -44.5v-10q-33 -84 -74.5 -166t-91 -147.5t-103.5 -105.5t-109 -40h-922q-53 0 -73.5 36t-18.5 91zM354 690q55 92 122 150.5t138 58.5h1088l2 -22q0 -4 -3 -16.5 t-7 -35.5q-20 -49 -52 -77h-675q-10 -6 -43 -58h-570zM735 166l2 -14h86q12 16 42 71.5t73 130.5l-2 29h-150q-25 -74 -37 -131t-14 -86z" />
<glyph unicode="7" horiz-adv-x="1228" d="M100 0l631 600h557l-629 -600h-559zM362 776l4 12q3 11 7 33q16 45 53 78h1077l-59 -151l-60 -58h-557l60 58h-520q-4 8 -5 28z" />
<glyph unicode="8" horiz-adv-x="1525" d="M141 162q2 25 6.5 46t20.5 71q27 63 84 104t104 66q-23 20 -45 48.5t-20 71.5v31h559q-2 -6 -2 -25q0 -25 16.5 -36t44.5 -19h101q47 10 73.5 25.5t44.5 54.5h560q-31 -57 -81.5 -93t-93.5 -58q23 -18 44.5 -48t21.5 -71q0 -12 -12 -51q-16 -49 -27.5 -71t-34.5 -46 q-43 -53 -100 -86t-116.5 -49.5t-116 -21.5t-95.5 -5h-628q-41 0 -94.5 5t-100.5 21.5t-80 49.5t-33 86zM330 690q4 10 11 21.5t17 23.5q45 55 105.5 87t121 49.5t116 22.5t92.5 5h628q37 0 89.5 -5t99.5 -22.5t81.5 -49t37.5 -87.5q-4 -16 -5 -22q0 -6 -4 -23h-561 q2 6 2 25q0 8 1 15t3 18h-235q-12 -18 -21.5 -33t-15.5 -25h-563zM702 152h236q29 41 42 63.5t24 50.5l8 19q8 18 8 37q0 23 -14.5 33t-42.5 18h-117q-45 -10 -70.5 -27.5t-44.5 -60.5l-8 -19q-10 -29 -12 -51t-9 -63z" />
<glyph unicode="9" horiz-adv-x="1447" d="M86 23q0 4 12 51q18 47 49 78h676q8 6 46 63t79 150h-657q-29 0 -43.5 20.5t-11.5 42.5l2 12q14 41 32.5 81t36.5 79h576l-31 -55l2 -29h150q8 23 15 43.5t11 40.5h572q-10 -43 -24.5 -85t-29.5 -77q-33 -84 -73.5 -162.5t-89 -140t-100.5 -98.5t-107 -37h-1088zM358 690 q57 92 123 150.5t135 58.5h922q53 0 72.5 -36t19.5 -91q-2 -20 -3 -39.5t-5 -42.5h-571q2 12 3 22.5t1 20.5l-2 15h-86q-6 -8 -14.5 -22.5t-20.5 -35.5h-574z" />
<glyph unicode=":" horiz-adv-x="501" d="M90 51v6l64 162q4 12 17 22.5t29.5 18.5t34 13.5t29.5 5.5h182q23 0 47.5 -15.5t24.5 -36.5l-65 -170q-8 -18 -45 -37.5t-66 -19.5h-182q-25 0 -47.5 17.5t-22.5 33.5zM248 463l2 8l47 129h362l-47 -129q-8 -18 -46 -37.5t-64 -19.5h-183q-23 0 -47 16t-24 33zM403 690 q4 2 21 2h182q12 0 17 -2h-220z" />
<glyph unicode=";" horiz-adv-x="501" d="M70 -68q4 51 18 115q2 2 2 4l8 21l56 147q4 12 17 22.5t29.5 18.5t34 13.5t29.5 5.5h182q23 0 47.5 -15.5t24.5 -36.5l-69 -182q-8 -23 -31 -55.5t-49.5 -64t-51 -56.5t-34.5 -29q-33 -12 -56.5 -15t-42.5 -3h-12q-45 0 -62.5 10t-21.5 10q-10 12 -14 37t-4 53zM248 463 l49 137h362l-47 -129q-8 -18 -46 -37.5t-64 -19.5h-183q-23 0 -47 16t-24 33zM403 690q4 2 21 2h182q12 0 17 -2h-220z" />
<glyph unicode="&#x3c;" horiz-adv-x="1091" d="M238 455l190 145h567l-192 -145l244 -455h-558zM547 690l276 209h570l-279 -209h-567z" />
<glyph unicode="=" horiz-adv-x="761" d="M180 272q0 27 10 43q10 27 25.5 43.5t32.5 28.5h571q2 -10 3 -16t1 -11l-3 -11t-7 -34q-10 -23 -23.5 -42t-27.5 -35h-574q-8 14 -8 34zM293 569q0 25 2 31h625q-8 -20 -19.5 -36t-23.5 -32h-574q-10 16 -10 37z" />
<glyph unicode="&#x3e;" horiz-adv-x="1093" d="M43 0l596 455l-84 145h567l82 -145l-602 -455h-559zM387 899h569l117 -209h-569z" />
<glyph unicode="?" horiz-adv-x="1351" d="M334 393l28 72l170 135h846l-260 -207h-784zM348 51v6l64 162q4 12 17 22.5t29.5 18.5t34 13.5t29.5 5.5h230q23 0 47 -15.5t24 -36.5l-65 -170q-8 -18 -45 -37.5t-66 -19.5h-229q-25 0 -47.5 17.5t-22.5 33.5zM428 932q0 14 2 30.5t8 32.5q25 51 62 88h987 q72 0 116 -33.5t42 -93.5q-1 -28 -13 -65q-25 -66 -61.5 -113t-77.5 -88h-846l37 29q27 35 47.5 59.5t34.5 44t24.5 38t20.5 40.5h-381q-2 2 -2 31z" />
<glyph unicode="@" horiz-adv-x="2254" d="M166 127q0 43 10 92t23.5 99.5t30 98.5t32.5 89q10 23 19.5 46t19.5 48h549q-4 -6 -5 -12t-3 -10l-25 -62q-18 -49 -36.5 -103.5t-33 -102.5t-23.5 -87t-9 -59q0 -4 1 -7t1 -5h1440q2 -10 3 -16.5t1 -10.5q0 -33 -9 -47q-10 -20 -22 -40t-31 -38h-1847q-49 0 -68.5 36 t-17.5 91zM344 690q37 72 78 142.5t86 126t89 90t87 34.5h1714q47 0 65.5 -39.5t16.5 -105.5q-4 -113 -41 -248h-547q12 41 22.5 81t17.5 71.5t10.5 54.5t3.5 29v2h-928q-4 -4 -17.5 -25.5t-32 -54.5t-40 -74t-39.5 -84h-545zM887 346q0 43 16.5 96.5t34.5 98.5 q6 14 12 28.5t13 30.5h350q-6 -12 -11.5 -24.5t-9.5 -24.5l-8 -21q-18 -43 -23.5 -72.5t-5.5 -43.5l-2 -8h52q2 0 10 12t19.5 30.5t23.5 40t18 41.5l8 19q4 14 8.5 26.5t6.5 24.5h350q-4 -16 -10 -32.5t-10 -32.5q-12 -29 -29 -66t-33 -63h96q12 10 33 48t43 78l16 46 q2 4 3.5 10t5.5 12h546q-8 -27 -16 -51.5t-18 -46.5q-12 -33 -45 -73t-71 -76t-77 -59.5t-63 -23.5h-1176q-57 0 -57 76zM1012 690q31 51 67.5 84t79.5 33h557q33 0 46.5 -22.5t11.5 -59.5v-18q0 -10 -2 -17h-760z" />
<glyph unicode="A" horiz-adv-x="1759" d="M43 0l496 600h278l-215 -260h395q2 49 4.5 97t4.5 98v65h737q-2 -147 -4 -245.5t-5 -161t-6.5 -100.5t-5.5 -64l-6 -29h-727l2 158h-538l-136 -158h-274zM614 690l326 393h809q2 -4 2 -16l-6 -377h-739v66t-2 67l-111 -133h-279z" />
<glyph unicode="B" horiz-adv-x="1808" d="M70 0l229 600h1606q-27 -18 -52.5 -32.5t-48.5 -26.5q26 -23 54 -57q27 -32 26 -82v-7q0 -8 -3 -22.5t-7 -36.5q-25 -59 -39 -85t-37 -56q-49 -66 -120.5 -104t-145.5 -58.5t-141.5 -26.5t-112.5 -6h-1208zM334 690l149 393h1211q49 0 111.5 -6t118.5 -26.5t96 -60.5 t44 -105q-6 -29 -8 -53.5t-26 -83.5q-8 -16 -15.5 -32t-15.5 -26h-674q14 14 27 49l8 23q16 35 19 63.5t10 75.5h-299l-82 -211h-674zM815 182h299q31 47 48.5 76t31.5 64l8 22q8 14 8 43q2 27 -15 40t-50 22h-227z" />
<glyph unicode="C" horiz-adv-x="1509" d="M178 152q0 45 11.5 97t26.5 104.5t33.5 103.5t35.5 98q4 10 8 21.5t8 23.5h680q-4 -6 -5 -12t-3 -10l-25 -62q-45 -117 -64.5 -196.5t-19.5 -120.5l2 -17h627q0 -10 1 -19t1 -18q0 -37 -8 -51q-10 -27 -28 -50.5t-36 -43.5h-1134q-63 0 -87 43t-24 109zM340 690 q39 80 82 151.5t90 125t100.5 85t110.5 31.5h1114q2 -10 3 -18t1 -12q0 -33 -14 -64q-10 -27 -26.5 -50.5t-35.5 -43.5h-620q-10 -6 -46 -62.5t-77 -142.5h-682z" />
<glyph unicode="D" horiz-adv-x="1826" d="M70 0l229 600h680q-4 -16 -6 -22l-25 -62q-43 -117 -61.5 -193.5t-18.5 -117.5q0 -20 2 -23h217q4 2 25 34t47.5 79t55 105.5t51.5 113.5l24 59q2 6 4 12.5t4 14.5h687q-6 -18 -12.5 -35.5t-12.5 -36.5q-39 -102 -89 -197t-106.5 -169t-120 -118t-131.5 -44h-1443z M334 690l149 393h1461q62 0 88 -44q25 -41 24 -105v-10q-2 -51 -13 -109.5t-30 -124.5h-686q23 86 29 143.5t6 67.5h-215q-8 -8 -46 -66.5t-81 -144.5h-686z" />
<glyph unicode="E" horiz-adv-x="1579" d="M178 152q0 45 11.5 97t26.5 104.5t33.5 103.5t35.5 98q4 10 8 21.5t8 23.5h1360q-2 -10 -4 -20.5t-6 -20.5q-12 -27 -28.5 -50.5t-33.5 -43.5h-657q-35 -98 -50.5 -161.5t-15.5 -100.5l2 -21h695q0 -10 1 -19t1 -18q0 -37 -9 -51q-10 -27 -27.5 -50.5t-35.5 -43.5h-1204 q-63 0 -87 43t-24 109zM340 690q39 80 82 151.5t90 125t100.5 85t110.5 31.5h1184q2 -10 3 -18t1 -12q0 -33 -15 -64q-10 -27 -26.5 -50.5t-34.5 -43.5h-688q-10 -8 -47 -63.5t-78 -141.5h-682z" />
<glyph unicode="F" horiz-adv-x="1509" d="M70 0l229 600h1368q0 -8 -10 -53q-25 -51 -64 -94h-673l-172 -453h-678zM334 690l149 393h1354q2 -2 2 -30q0 -14 -2 -30.5t-10 -33.5q-10 -27 -26.5 -49t-33.5 -39h-675l-80 -211h-678z" />
<glyph unicode="G" horiz-adv-x="1785" d="M178 154q2 92 34 200.5t69 200.5q4 10 8 21.5t8 23.5h684q-4 -16 -6 -22l-25 -62q-43 -117 -60.5 -192.5t-17.5 -116.5q0 -23 2 -25h173l1 1t3 5q12 16 53 84t84 154l-86 90l47 84h780l-10 -72q-39 -102 -89 -197t-106.5 -169t-120 -118t-130.5 -44h-1182q-63 0 -88 43 t-25 111zM336 690q39 80 83 151.5t93 126t102.5 85t108.5 30.5h1255q2 -8 3 -15t1 -17t-12 -56q-10 -27 -26.5 -50t-34.5 -44h-758q-8 -8 -47 -66.5t-82 -144.5h-686z" />
<glyph unicode="H" horiz-adv-x="1824" d="M70 0l229 600h1686l-230 -600h-680l172 453h-325l-172 -453h-680zM334 690l149 393h680l-149 -393h-680zM1339 690l150 393h680l-150 -393h-680z" />
<glyph unicode="I" horiz-adv-x="1384" d="M82 31q0 25 14 63q10 27 26.5 50.5t35.5 43.5h268l156 412h675l-155 -412h268q0 -10 1 -19t1 -17q0 -43 -23.5 -84t-50.5 -68h-1212q-2 10 -3 18.5t-1 12.5zM426 926q0 14 2 30.5t8 32.5q12 29 29.5 53.5t34.5 40.5h1212q2 -10 3 -18t1 -12q0 -33 -14 -64 q-10 -27 -26.5 -50.5t-35.5 -43.5h-268l-80 -205h-676l80 205h-268q-2 2 -2 31z" />
<glyph unicode="J" horiz-adv-x="1290" d="M84 31q0 29 12 63q23 53 60 88h393q2 2 23.5 34t49 79t58.5 104.5t51 112.5l33 88h686l-27 -72q-39 -102 -89 -197t-106.5 -169t-120 -118t-130.5 -44h-891q-2 2 -2 31zM799 690l151 393h684l-149 -393h-686z" />
<glyph unicode="K" horiz-adv-x="1806" d="M70 0l229 600h1245l-65 -51l282 -549h-684l-186 379l-143 -379h-678zM334 690l149 393h678l-143 -374l461 374h698l-514 -393h-1329z" />
<glyph unicode="L" horiz-adv-x="1290" d="M70 0l229 600h676l-158 -418h457q0 -10 1 -19t1 -18q0 -37 -8 -51q-10 -27 -27.5 -50.5t-36.5 -43.5h-1134zM334 690l149 393h678l-151 -393h-676z" />
<glyph unicode="M" horiz-adv-x="2623" d="M70 0l229 600h678l-227 -600h-680zM334 690l149 393h2274q67 -1 105 -33q36 -31 36 -91v-7q0 -37 -25 -112l-57 -150h-678l49 129l11 47q4 35 -37 35h-172l-82 -211h-666l82 211h-229l-82 -211h-678zM979 0l227 600h666l-227 -600h-666zM1874 0l229 600h678l-227 -600 h-680z" />
<glyph unicode="N" horiz-adv-x="1824" d="M70 0l229 600h678l-227 -600h-680zM334 690l149 393h1475q68 -1 106 -33q36 -31 35 -91v-7q0 -37 -24 -112l-58 -150h-678l50 129l10 47q4 35 -33 35h-272l-82 -211h-678zM1075 0l230 600h677l-227 -600h-680z" />
<glyph unicode="O" horiz-adv-x="1835" d="M178 154q2 92 35 200.5t70 200.5q4 10 9 21.5t9 23.5h684q-4 -16 -6 -22l-25 -62q-43 -117 -60 -192.5t-17 -116.5q0 -23 2 -25h213q4 2 24.5 34t47 79t55 105.5t51.5 113.5l24 59q2 6 4 12.5t5 14.5h690q-6 -18 -12.5 -35.5t-12.5 -36.5q-39 -102 -89 -197t-106.5 -169 t-120 -118t-130.5 -44h-1231q-63 0 -88 43t-25 111zM340 690q39 80 82 151.5t91 126t101.5 85t108.5 30.5h1229q62 0 88 -44q25 -41 24 -105v-10q-2 -51 -13 -109.5t-30 -124.5h-690q23 86 29 143.5t6 67.5h-211q-8 -8 -47 -66.5t-82 -144.5h-686z" />
<glyph unicode="P" horiz-adv-x="1777" d="M70 0l229 600h674l-31 -80q197 0 293 80h700q-84 -143 -225 -202.5t-344 -59.5h-492l-129 -338h-675zM334 690l149 393h1180q47 0 111.5 -6t122 -26.5t97.5 -59.5t40 -102q-2 -31 -17.5 -85t-40.5 -114h-673q2 4 5 11.5l7 17.5l14 43q14 33 16.5 59.5t12.5 79.5h-268 l-82 -211h-674z" />
<glyph unicode="Q" horiz-adv-x="1832" d="M178 154q2 92 35 200.5t70 200.5q4 10 9 21.5t9 23.5h680q-4 -16 -6 -22l-25 -62q-43 -117 -60.5 -192.5t-17.5 -116.5q0 -23 2 -25h144l-35 228h238q18 29 26 52t19 52l24 59q2 6 4 12.5t4 14.5h691q-6 -18 -12.5 -35.5t-12.5 -36.5q-39 -98 -83 -185t-95 -159l74 -184 h-1569q-63 0 -88 43t-25 111zM340 690q39 80 82 151.5t91 126t101.5 85t108.5 30.5h1225q61 0 88 -44q24 -41 24 -105v-10q-2 -51 -13 -109.5t-30 -124.5h-690q23 86 29 143.5t6 67.5h-211q-8 -8 -47 -66.5t-82 -144.5h-682z" />
<glyph unicode="R" horiz-adv-x="1765" d="M63 0l230 600h676l-29 -74q197 0 289 74h698q-55 -88 -132 -143.5t-163 -77.5l131 -379h-729l-141 406l-154 -406h-676zM328 690l149 393h1180q47 0 111.5 -6t122 -26.5t97.5 -59.5t40 -102q-2 -31 -17.5 -85t-40.5 -114h-672q2 4 5.5 11.5t7.5 17.5l14 43 q16 35 19.5 63.5t9.5 75.5h-271l-79 -211h-676z" />
<glyph unicode="S" horiz-adv-x="1378" d="M82 35q0 25 12 53q10 27 26.5 50.5t35.5 43.5h379q4 10 8 44t6 75v31q0 6 -1 14t-3 19l-103 235h852l90 -205q4 -23 8.5 -44t4.5 -46q-4 -45 -27 -112q-35 -92 -117 -142.5t-174 -50.5h-993q-2 10 -3 18.5t-1 16.5zM397 776q0 25 4.5 52.5t18.5 62.5q16 45 48 81t72 60.5 t85 37.5t88 13h993q2 -8 3 -15t1 -17t-12 -56q-10 -27 -26.5 -50t-35.5 -44h-381q-16 -29 -16 -80q0 -20 2 -43.5t2 -58.5l12 -29h-849q-4 25 -7.5 46.5t-1.5 39.5z" />
<glyph unicode="T" horiz-adv-x="1527" d="M426 0l227 600h680l-227 -600h-680zM426 926q0 14 2 30.5t8 32.5q12 29 29.5 53.5t34.5 40.5h1355q2 -10 3.5 -18t1.5 -12q0 -33 -15 -64q-10 -27 -26.5 -50.5t-34.5 -43.5h-336l-80 -205h-680l80 205h-340q-2 2 -2 31z" />
<glyph unicode="U" horiz-adv-x="1824" d="M137 133q0 16 7.5 44t17.5 67l135 356h682l-129 -336q-10 -57 -10 -49q-1 -33 32 -33h273l158 418h682l-230 -600h-1474q-70 0 -108 34q-36 32 -36 93v6zM332 690l151 393h680l-149 -393h-682zM1337 690l152 393h680l-150 -393h-682z" />
<glyph unicode="V" horiz-adv-x="1742" d="M420 0l20 600h725l-6 -340l281 340h272l-495 -600h-797zM442 690l15 393h717l-7 -393h-725zM1513 690l324 393h277l-326 -393h-275z" />
<glyph unicode="W" horiz-adv-x="2623" d="M137 133q0 16 7.5 44t17.5 67l135 356h682l-129 -336q-10 -57 -10 -49q-1 -33 32 -33h177l157 418h666l-158 -418h230l157 418h682l-229 -600h-2273q-70 0 -108 34q-36 32 -36 93v6zM332 690l151 393h680l-149 -393h-682zM1241 690l152 393h665l-151 -393h-666zM2136 690 l152 393h680l-150 -393h-682z" />
<glyph unicode="X" horiz-adv-x="1781" d="M45 0l711 549l-31 51h793l-66 -51l285 -549h-672l-94 190l-252 -190h-674zM457 1083h686l96 -182l227 182h686l-516 -393h-960z" />
<glyph unicode="Y" horiz-adv-x="1769" d="M457 1083h678l94 -192l233 192h678l-520 -393h-938zM553 0l211 549l-31 51h768l-80 -61l-207 -539h-661z" />
<glyph unicode="Z" horiz-adv-x="1464" d="M63 0l70 182l520 418h715l-518 -418h594q0 -10 1 -19t1 -18q0 -37 -8 -51q-10 -27 -27.5 -50.5t-36.5 -43.5h-1311zM430 934q0 43 22.5 81t51.5 68h1311l-70 -182l-264 -211h-715l264 211h-596q-2 8 -3 15.5t-1 17.5z" />
<glyph unicode="[" horiz-adv-x="946" d="M160 127q0 37 8 80t20.5 88t26.5 88t29 78q12 35 27.5 69.5t31.5 69.5h565q-14 -29 -28.5 -58.5t-24.5 -62.5l-18 -51q-68 -166 -68 -252q-4 -23 0 -24h193q2 -10 3 -16.5t1 -10.5q0 -33 -8 -47q-10 -20 -23 -40t-31 -38h-612q-53 0 -73.5 36t-18.5 91zM354 690 q57 92 123 150.5t137 58.5h594q2 -10 2 -16v-11q0 -4 -3 -16t-7 -35q-16 -45 -53 -78h-189q-4 -4 -13 -17t-23 -36h-568z" />
<glyph unicode="\" horiz-adv-x="1482" d="M387 899h559l113 -209h-555zM553 600h555l330 -600h-547z" />
<glyph unicode="]" horiz-adv-x="946" d="M78 27q0 4 12 51q14 43 49 74h193q55 51 145 276l19 51q12 33 22 62.5t17 58.5h563q-10 -35 -22.5 -69.5t-22.5 -69.5q-27 -66 -63 -147t-81 -150.5t-99 -116.5t-116 -47h-612q-2 10 -3 16.5t-1 10.5zM362 760v10t3.5 16.5t7.5 34.5q20 47 53 78h594q59 0 81.5 -38.5 t20.5 -104.5q0 -33 -6 -66h-565q2 8 2 15v12v18v8h-188q-2 10 -3 17z" />
<glyph unicode="^" horiz-adv-x="1759" d="M43 0l496 600h278l-215 -260h395l2 260h736l-19 -600h-727l2 158h-538l-136 -158h-274zM614 690l326 393h809l-12 -393h-736l3 133l-111 -133h-279z" />
<glyph unicode="_" horiz-adv-x="919" d="M70 0l51 133h780l-51 -133h-780z" />
<glyph unicode="`" horiz-adv-x="509" d="M496 1409q12 29 41.5 45.5t62.5 22.5h199q8 0 25.5 -9.5t36 -33t34.5 -65.5t27 -107l-4 -13q-4 -10 -16.5 -18t-27 -15.5t-30 -11.5t-23.5 -4h-190q-10 0 -23.5 7t-31 30t-38 63.5t-42.5 108.5z" />
<glyph unicode="a" horiz-adv-x="1474" d="M43 0l496 600h231l-264 -317h328l4 141q2 16 3 31.5t1 27.5t-1 27.5t-1 32.5v57h618q1 -26 1 -50v-24q-1 -34 -1 -67l-2 -113q-2 -66 -3 -113t-3 -81.5t-4 -59t-4 -43.5l-10 -49h-605l2 131h-446l-113 -131h-227zM612 690l174 209h672v-209h-846z" />
<glyph unicode="b" horiz-adv-x="1525" d="M70 0l229 600h559l-31 -80h181q47 10 73.5 25.5t44.5 54.5h562q-31 -57 -83.5 -93t-93.5 -58l5 -5q23 -20 43 -46.5t20 -67.5q0 -6 -12 -51q-16 -49 -28.5 -71t-35.5 -46q-43 -53 -100 -86t-116.5 -49.5t-116 -21.5t-95.5 -5h-1005zM334 690l80 209h1005q37 0 89.5 -5 t99.5 -22.5t81.5 -49t36.5 -87.5q-4 -16 -4 -22q0 -14 -2 -23h-563q2 6 2 25q0 8 1 15t3 18h-248l-22 -58h-559zM688 152h248q29 41 42 63.5t23 50.5l9 19q8 18 8 37q0 23 -14.5 33t-42.5 18h-189z" />
<glyph unicode="c" horiz-adv-x="1275" d="M160 127q2 74 28.5 167t57.5 167q12 35 27.5 69.5t31.5 69.5h567q-14 -29 -28.5 -58.5t-24.5 -62.5l-18 -51q-37 -98 -53.5 -162.5t-18.5 -97.5q0 -4 1 -8t1 -8h520q2 -10 3 -16.5t1 -10.5q0 -33 -8 -47q-10 -20 -22.5 -40t-30.5 -38h-942q-54 0 -74 36q-19 33 -18 81v10 zM356 690q55 92 121 150.5t137 58.5h924q2 -10 2 -16v-11q0 -4 -3 -16t-7 -35q-16 -45 -53 -78h-514q-6 -4 -39 -53h-568z" />
<glyph unicode="d" horiz-adv-x="1540" d="M70 0l229 600h573q-14 -29 -28.5 -58.5t-24.5 -62.5l-18 -51q-37 -94 -51.5 -157.5t-16.5 -98.5l2 -20h178q2 2 19.5 27.5t41 65.5t49.5 88t42 93l16 49q10 35 20.5 65.5t16.5 59.5h572q-10 -39 -23.5 -80t-28.5 -82q-33 -84 -73.5 -162.5t-87.5 -140t-99.5 -98.5 t-107.5 -37h-1200zM334 690l80 209h1212q53 0 73.5 -37t20.5 -96q-2 -18 -4 -36.5t-6 -39.5h-573q2 16 3 29.5t1 21.5v7h-176q-4 -4 -14.5 -18.5t-26.5 -39.5h-590z" />
<glyph unicode="e" horiz-adv-x="1333" d="M160 127q0 37 8 80t20.5 88t26.5 88t29 78q12 35 27.5 69.5t31.5 69.5h571q-8 -16 -15 -31.5t-13 -31.5h543q4 -8 4 -31q0 -27 -9 -41q-10 -23 -24 -43.5t-31 -36.5h-545q-27 -82 -38 -137t-13 -84v-12h576q2 -10 3 -16.5t1 -10.5q0 -33 -8 -47q-10 -20 -22.5 -40 t-31.5 -38h-999q-54 0 -74 36q-19 33 -18 81v10zM354 690q57 92 123 150.5t137 58.5h981q2 -10 2 -16v-11q0 -4 -3 -16t-7 -35q-16 -45 -53 -78h-569q-12 -10 -39 -53h-572z" />
<glyph unicode="f" horiz-adv-x="1263" d="M57 0l230 600h563l-29 -74h559q2 -10 3 -16t1 -10q0 -31 -8 -45q-18 -45 -53 -80h-559l-143 -375h-564zM322 690l79 209h1125q2 -10 2 -16v-11q0 -4 -3 -16t-7 -35q-18 -47 -52 -73h-561l-20 -58h-563z" />
<glyph unicode="g" horiz-adv-x="1507" d="M162 127q2 74 26.5 166t55.5 168q12 35 27.5 69.5t31.5 69.5h571q-14 -29 -28.5 -58.5t-24.5 -62.5l-18 -51q-37 -92 -50.5 -155.5t-15.5 -98.5q0 -20 2 -22h142l4 4q10 14 41.5 70.5t70.5 127.5l-69 74l47 86h641l-10 -76q-33 -84 -74 -162.5t-89 -140t-100.5 -98.5 t-107.5 -37h-981q-53 0 -74 36q-18 33 -18 81v10zM354 690q55 92 122 150.5t138 58.5h1041q2 -10 2 -16v-11q0 -33 -8 -47q-16 -45 -54 -77h-626q-4 -4 -14.5 -18.5t-26.5 -39.5h-574z" />
<glyph unicode="h" d="M70 0l229 600h565l-28 -74h270l29 74h563l-230 -600h-563l144 375h-271l-143 -375h-565zM334 690l80 209h565l-80 -209h-565zM1169 690l80 209h563l-79 -209h-564z" />
<glyph unicode="i" horiz-adv-x="704" d="M70 0l229 600h565l-229 -600h-565zM334 690l80 209h565l-80 -209h-565z" />
<glyph unicode="j" horiz-adv-x="1093" d="M78 27q0 4 12 51q14 43 49 74h326q2 2 19.5 28.5t42 65.5t49 87t42.5 93l66 174h569l-61 -162q-33 -84 -74 -162.5t-89 -140t-100 -98.5t-108 -37h-739q-2 10 -3 16.5t-1 10.5zM719 690l80 209h569l-80 -209h-569z" />
<glyph unicode="k" horiz-adv-x="1519" d="M70 0l229 600h561l-4 -12l14 12h557l-190 -145l238 -455h-566l-155 315l-121 -315h-563zM334 690l80 209h563l-82 -209h-561zM983 690l260 209h578l-275 -209h-563z" />
<glyph unicode="l" horiz-adv-x="1093" d="M70 0l229 600h563l-172 -448h379q2 -10 3 -16.5t1 -10.5q0 -33 -8 -47q-10 -20 -22.5 -40t-30.5 -38h-942zM334 690l80 209h563l-80 -209h-563z" />
<glyph unicode="m" horiz-adv-x="2201" d="M70 0l229 600h565l-229 -600h-565zM334 690l80 209h1888q117 0 117 -108q-4 -45 -21 -95l-2 -6h-563q4 12 4 27q0 31 -33 31h-141l-21 -58h-552l20 58h-190l-21 -58h-565zM825 0l230 600h553l-230 -600h-553zM1569 0l229 600h563l-229 -600h-563z" />
<glyph unicode="n" d="M70 0l229 600h565l-229 -600h-565zM334 690l80 209h1224q117 0 117 -108q-4 -45 -20 -95l-2 -6h-564q4 12 5 29q0 29 -29 29h-225l-21 -58h-565zM905 0l230 600h563l-230 -600h-563z" />
<glyph unicode="o" horiz-adv-x="1548" d="M162 127q2 74 27.5 166t56.5 168q14 35 29.5 69.5t31.5 69.5h570q-14 -29 -28.5 -58.5t-25.5 -62.5l-18 -51q-37 -92 -50.5 -155.5t-15.5 -98.5q0 -20 2 -22h177q2 2 19 27.5t40.5 65.5t49.5 88t42 93l18 49q12 31 22.5 61.5t16.5 63.5h572q-10 -39 -23.5 -80t-27.5 -82 q-33 -84 -74 -162.5t-89 -140t-100.5 -98.5t-107.5 -37h-1022q-54 0 -74 36q-19 33 -18 81v10zM356 690q55 92 120 150.5t138 58.5h1018q53 0 73.5 -37t20.5 -98q-2 -16 -3 -34.5t-5 -39.5h-577q2 16 3 29.5t1 21.5v7h-174q-4 -4 -14.5 -18.5t-26.5 -39.5h-574z" />
<glyph unicode="p" horiz-adv-x="1499" d="M70 0l229 600h561l-63 -168q135 0 204.5 43t100.5 121v4h561q-4 -10 -6 -17.5t-6 -17.5q-59 -158 -189.5 -221t-316.5 -63h-408l-106 -281h-561zM334 690l80 209h979q41 0 93 -5t98 -22.5t79 -49t37 -85.5q-2 -10 -3 -21t-5 -26h-562q2 6 3 25q0 8 1 15t3 18h-222 l-20 -58h-561z" />
<glyph unicode="q" horiz-adv-x="1548" d="M162 127q2 74 27.5 166t56.5 168q14 35 29.5 69.5t31.5 69.5h570q-14 -29 -28.5 -58.5t-25.5 -62.5l-18 -51q-35 -92 -50.5 -152.5t-15.5 -95.5q-2 -4 2 -28h117l-29 188h201q14 25 21.5 44t19.5 42l16 49q25 61 37 125h574q-10 -39 -23.5 -80t-27.5 -82 q-31 -82 -67 -153.5t-83 -130.5l64 -154h-1307q-53 0 -74 36q-18 33 -18 81v10zM356 690q55 92 120 150.5t138 58.5h1020q53 0 74 -37t21 -96q-2 -18 -4.5 -36.5t-6.5 -39.5h-575q4 23 5 38t1 20h-180q-12 -12 -39 -58h-574z" />
<glyph unicode="r" horiz-adv-x="1495" d="M70 0l229 600h561l-61 -164q135 0 205.5 40t99.5 120v4h557q-4 -10 -6 -17.5t-6 -17.5q-39 -104 -114 -165.5t-163 -84.5l109 -315h-607l-114 336l-129 -336h-561zM334 690l80 209h979q39 0 91 -5t98 -22.5t79 -49t37 -85.5v-4q0 -18 -6 -43h-559q2 6 2 25q0 8 1 15t3 18 h-224l-20 -58h-561z" />
<glyph unicode="s" horiz-adv-x="1167" d="M78 27q0 31 10 47q16 43 51 78h316q2 8 7 35.5t5 62.5q0 14 -1 27.5t-1 25.5l-117 268q-2 18 -6 29h702v-4l117 -268q10 -37 10 -70q0 -61 -22 -98q-27 -76 -97.5 -118t-144.5 -42h-825q-2 10 -3 16.5t-1 10.5zM344 690q2 12 6 24.5t8 24.5q31 74 100.5 117t143.5 43h828 q2 -10 2 -16v-11q0 -33 -9 -47q-16 -45 -53 -77h-317q-12 -31 -13 -58h-696z" />
<glyph unicode="t" horiz-adv-x="1288" d="M362 760v10t3.5 16.5t7.5 34.5q20 47 53 78h1124q2 -10 2 -16v-11q0 -4 -3 -16t-7 -35q-16 -45 -53 -78h-279l-20 -53h-563l20 53h-282q-2 10 -3 17zM365 0l227 600h563l-227 -600h-563z" />
<glyph unicode="u" d="M127 111q0 43 20 92l152 397h565l-145 -381q-8 -14 -8 -39q-5 -28 26 -28h226l172 448h563l-230 -600h-1222q-57 0 -89 28q-30 27 -30 77v6zM334 690l80 209h565l-80 -209h-565zM1169 690l80 209h563l-79 -209h-564z" />
<glyph unicode="v" horiz-adv-x="1460" d="M354 0l21 600h600l-6 -385l313 385h229l-495 -600h-662zM379 690l8 209h594l-4 -209h-598zM1358 690l172 209h231l-174 -209h-229z" />
<glyph unicode="w" horiz-adv-x="2201" d="M127 111q0 43 20 92l152 397h565l-145 -381q-8 -14 -8 -39q-5 -28 26 -28h146l172 448h553l-172 -448h190l172 448h563l-229 -600h-1886q-57 0 -89 28q-30 27 -30 77v6zM334 690l80 209h565l-80 -209h-565zM1090 690l79 209h553l-80 -209h-552zM1833 690l80 209h563 l-80 -209h-563z" />
<glyph unicode="x" horiz-adv-x="1492" d="M43 0l590 455l-82 145h850l-191 -145l238 -455h-557l-80 160l-209 -160h-559zM387 899h569l76 -154l193 154h569l-274 -209h-1018z" />
<glyph unicode="y" horiz-adv-x="1482" d="M387 899h561l76 -162l199 162h561l-279 -209h-1001zM465 0l174 455l-84 145h831l-202 -154l-170 -446h-549z" />
<glyph unicode="z" horiz-adv-x="1228" d="M59 0l58 152l557 448h598l-557 -448h489q2 -10 3 -16.5t1 -10.5q0 -33 -8 -47q-10 -20 -22.5 -40t-30.5 -38h-1088zM362 776l4 12q3 11 7 33q16 45 53 78h1087l-59 -151l-70 -58h-598l72 58h-491q-4 8 -5 28z" />
<glyph unicode="{" horiz-adv-x="962" d="M131 2q0 53 13.5 119.5t33 134.5t41 129t37.5 104q10 25 21.5 53.5t23.5 57.5h563q-10 -27 -20 -49.5t-19 -42.5l-75 -203q-66 -164 -70 -252q0 -23 2 -24h209q2 -10 3 -16.5t1 -10.5q0 -33 -8 -47q-10 -20 -22.5 -40t-30.5 -38h-629q-41 0 -58.5 35t-15.5 90zM344 690 q37 74 79 144.5t86 126t89 89t86 33.5h610q2 -10 3 -16t1 -10q0 -10 -2 -23.5t-8 -27.5q-10 -20 -22.5 -40t-30.5 -38h-205q-4 -4 -16.5 -25.5t-28.5 -53.5t-37.5 -74t-42.5 -85h-561z" />
<glyph unicode="|" horiz-adv-x="819" d="M70 0l229 600h680l-229 -600h-680zM334 690l149 393h680l-149 -393h-680z" />
<glyph unicode="}" horiz-adv-x="962" d="M31 -96q0 4 12 51q14 43 49 74h209q55 51 145 276l76 203q16 35 33 92h563q-10 -29 -19 -57.5t-20 -53.5q-25 -68 -70.5 -171t-102 -201.5t-119 -169t-123.5 -70.5h-629q-2 10 -3 16.5t-1 10.5zM432 954q0 4 12 52q18 51 52 77h610q45 0 63.5 -39.5t16.5 -105.5 q-4 -113 -41 -248h-563q25 88 42 159t17 79h-205q-2 10 -3 16t-1 10z" />
<glyph unicode="~" horiz-adv-x="1169" d="M78 27q0 4 12 51q16 43 51 78h224l167 444h562l-168 -444h221q2 -10 3 -16.5t1 -10.5t-3 -16.5t-7 -34.5q-25 -51 -54 -78h-1005q-2 10 -3 16.5t-1 10.5zM362 760v10t3.5 16.5t7.5 34.5q20 47 53 78h1006q2 -10 2 -16v-11q0 -4 -3.5 -16t-7.5 -35q-16 -45 -53 -78h-221 l-21 -53h-561l21 53h-223q-2 10 -3 17z" />
<glyph horiz-adv-x="403" />
<glyph unicode="&#xa1;" horiz-adv-x="688" d="M90 49q0 8 4 10l156 416q10 25 31.5 58.5t46.5 66.5h483q2 -6 2 -20v-21q0 -49 -12 -82l-158 -418q-4 -12 -18.5 -22t-32 -18.5t-34.5 -13.5t-30 -5h-368q-20 0 -45 14.5t-25 34.5zM487 856q0 8 2 10l64 162q2 8 15.5 18.5t29.5 19.5t34.5 14t31.5 5h182q25 0 47 -17 t22 -34v-6l-63 -162q-4 -12 -17.5 -22t-31 -18.5t-34.5 -13.5t-30 -5h-182q-20 0 -45 14.5t-25 34.5zM518 690q18 0 40 1t46 1h39h21q12 0 22 -2h-168z" />
<glyph unicode="&#xa2;" horiz-adv-x="1267" d="M160 127q2 74 28.5 167t57.5 167q12 35 27.5 69.5t31.5 69.5h565q-14 -29 -28.5 -58.5t-24.5 -62.5l-18 -51q-68 -166 -68 -252q-4 -23 0 -24h113l170 448h149l-170 -448h250q2 -10 3 -16.5t1 -10.5q0 -33 -8 -47q-10 -20 -22.5 -40t-30.5 -38h-250l-78 -203 q-16 -8 -36.5 -14t-43.5 -6t-39 6t-30 14l77 203h-534q-53 0 -73.5 36t-18.5 91zM356 690q55 92 121 150.5t137 58.5h516l72 193q16 10 40 19t50 9q27 0 39 -9t21 -21l-72 -191h250q2 -10 2 -16v-11q0 -4 -3 -16t-7 -35q-16 -45 -54 -78h-249l-21 -53h-149l20 53h-108 q-4 -4 -13.5 -17t-23.5 -36h-568z" />
<glyph unicode="&#xa3;" horiz-adv-x="1433" d="M80 35q0 27 10 43q10 27 25.5 43t31.5 29h203l-2 12l2 16q0 18 4 39t19 62q14 33 35.5 58t48.5 48h-224q-8 14 -6 35q0 29 9 43q10 27 25 43t34 29h205q-6 14 -6 32v15q0 6 4 18h559v-10q0 -25 17.5 -36t45.5 -19h254q0 -10 1 -16.5t1 -10.5l-3 -12q-3 -11 -7 -33 q-8 -23 -22.5 -42.5t-28.5 -35.5h-262q-45 -10 -71 -26.5t-42 -59.5l-14 -33q-10 -29 -14.5 -51t-10.5 -63h508q2 -10 3 -16.5t1 -10.5q0 -33 -8 -47q-10 -20 -22.5 -40t-30.5 -38h-1264q-8 14 -8 35zM535 690q12 20 28 41q47 55 105.5 89t118 51.5t114.5 22.5t98 5h320 q2 -10 2 -16v-11q0 -4 -3 -16t-7 -35q-17 -45 -54 -78h-131q-10 -18 -19 -31.5t-13 -21.5h-559z" />
<glyph unicode="&#xa4;" horiz-adv-x="1482" d="M43 0l430 328q6 33 18.5 66.5t22.5 62.5q10 31 24.5 59.5t30.5 56.5l-16 27h833l-34 -27q-6 -31 -16.5 -61.5t-22.5 -58.5q-20 -59 -56 -119l181 -334h-547l-84 166l-213 -166h-551zM387 899h559l80 -158l199 158h559l-279 -209h-1001zM831 336q0 -4 1.5 -6t1.5 -4h59 q2 0 10 12t19.5 30.5t22.5 40t18 42.5l4 10q14 39 19 70.5t5 52.5h-59q-4 -2 -25.5 -38t-40.5 -83l-4 -12q-18 -41 -24.5 -70t-6.5 -45z" />
<glyph unicode="&#xa5;" horiz-adv-x="1482" d="M174 139q0 33 10 45q10 27 24.5 43.5t31.5 28.5h321l39 96h-324q-10 16 -10 37q0 25 10 41q10 27 25.5 43t32.5 29h278l-55 98h827l-131 -98h285q2 -10 3 -16.5t1 -10.5l-3 -11t-7 -34q-10 -23 -22.5 -42.5t-26.5 -35.5h-334l-39 -96h334q2 -10 3 -17.5t1 -11.5 q0 -29 -8 -43q-23 -43 -51 -78h-334l-41 -106h-549l41 106h-324q-8 8 -8 33zM387 899h559l80 -158l199 158h559l-279 -209h-999z" />
<glyph unicode="&#xa6;" horiz-adv-x="702" d="M70 0l229 600h563l-229 -600h-563zM334 690l149 393h564l-150 -393h-563z" />
<glyph unicode="&#xa7;" horiz-adv-x="1482" d="M43 0l430 328q6 33 18.5 66.5t22.5 62.5q16 37 34.5 73.5t37.5 69.5h800l-34 -27q-6 -31 -16.5 -61.5t-22.5 -58.5q-18 -49 -43 -96.5t-53.5 -84t-60.5 -59.5t-64 -23h-250l-248 -190h-551zM662 690q35 29 73 29h260l230 180h559l-279 -209h-843zM831 336q0 -4 1.5 -6 t1.5 -4h59q2 0 10 12t19.5 30.5t22.5 40t18 42.5l4 10q14 39 19 70.5t5 52.5h-59q-4 -2 -25.5 -38t-40.5 -83l-4 -12q-18 -41 -24.5 -70t-6.5 -45z" />
<glyph unicode="&#xa8;" horiz-adv-x="976" d="M551 1253l1 5l3 12l55 147q4 12 17.5 22.5t31 19.5t36 14.5t30.5 5.5h186q18 0 44 -13.5t26 -31.5v-7l-66 -170q-4 -10 -18 -20t-31.5 -18.5t-35 -13.5t-27.5 -5h-187q-20 0 -43.5 14.5t-21.5 38.5zM1022 1253q0 12 2 15l57 147q10 23 47 42.5t66 19.5h186q18 0 45 -13.5 t27 -31.5l-66 -177q-4 -10 -18 -20t-31.5 -18.5t-35 -13.5t-27.5 -5h-187q-20 0 -43.5 15.5t-21.5 39.5z" />
<glyph unicode="&#xa9;" horiz-adv-x="620" d="M375 758v16q0 16 4 32.5t14 41.5q12 33 31.5 63.5t48.5 59.5l16 14q31 29 51.5 43t57.5 31q61 31 131 31q72 0 102 -31q59 -18 58 -92q6 -16 6 -35q0 -37 -21 -84q-31 -82 -73 -119q-12 -12 -22.5 -21.5t-20.5 -17.5h-58q16 10 35 24.5t35 30.5l51 74l10 29q18 49 19 78 q0 18 -2 20q-10 25 -16.5 41.5t-28.5 36.5h-2q-27 16 -39 20.5t-49 4.5h-11q-41 0 -81.5 -16.5t-75.5 -44t-63.5 -64.5t-43.5 -76q-8 -35 -12 -55.5t-4 -26.5q-2 -47 22 -76h-49q-4 8 -7 17.5t-7 21.5l-4 12q-2 10 -2 17zM492 780q0 41 14 68q31 76 75 106.5t109 30.5 q82 0 82 -65v-11l-43 -12q-4 49 -53 49q-86 0 -127 -102q-10 -57 -10 -49q-4 -49 57 -50q71 0 102 66l35 -12q-55 -86 -147 -86q-98 0 -94 67z" />
<glyph unicode="&#xaa;" horiz-adv-x="1474" d="M43 0l496 600h231l-264 -317h328l6 317h608l-16 -600h-605l2 131h-446l-113 -131h-227zM612 690l174 209h672l-6 -209h-840z" />
<glyph unicode="&#xab;" horiz-adv-x="782" d="M168 250q0 14 2 16l127 334h278l-10 -31q-6 -16 -37.5 -42.5t-109.5 -73.5q35 -43 46 -69t11 -42q0 -12 -2 -14l-76 -199q-16 -27 -37.5 -47.5t-50.5 -20.5h-4q-84 76 -110.5 120t-26.5 69zM362 690q31 25 88.5 61.5t151.5 90.5q41 -4 41 -51q0 -21 -2 -23l-31 -78h-248z M532 250q0 14 3 16l127 334h278l-10 -31q-6 -16 -38 -42.5t-110 -73.5q35 -43 46.5 -69t11.5 -42q0 -12 -2 -14l-76 -199q-16 -27 -38 -47.5t-50 -20.5h-4q-84 76 -111 120t-27 69zM727 690q31 25 88 61.5t152 90.5q41 -4 41 -51q0 -21 -2 -23l-31 -78h-248z" />
<glyph unicode="&#xac;" horiz-adv-x="774" d="M238 420q0 29 8 43q10 27 25.5 43t33.5 29h584l-144 -373q-16 -8 -36.5 -14.5t-42.5 -6.5q-23 0 -39.5 6.5t-30.5 14.5l84 223h-436q-8 14 -6 35z" />
<glyph unicode="&#xad;" horiz-adv-x="534" d="M238 420q0 29 8 43q10 27 25.5 43t33.5 29h344q0 -10 1 -16.5t1 -10.5l-3 -12q-3 -11 -7 -33q-8 -23 -22.5 -42.5t-28.5 -35.5h-346q-8 14 -6 35z" />
<glyph unicode="&#xae;" horiz-adv-x="618" d="M372 756.5q-1 7.5 1 15.5q0 16 4 31.5t14 40.5q18 41 33.5 64.5t46.5 58.5l10 12q18 14 30.5 25.5t25 20.5t25.5 16.5t34 15.5q63 33 131 33q59 -4 108.5 -33t47.5 -88v-2q6 -18 6 -41q0 -12 -19 -82q-27 -66 -77 -115q-12 -20 -39 -39h-58q16 10 34 24.5t38 30.5 q23 23 30 35.5t15 34.5l10 29q25 82 25 94q0 16 -4 25.5t-10 19.5l-9 4q-4 20 -30 37q-23 16 -36.5 20.5t-47.5 4.5h-11q-41 0 -81.5 -17.5t-77.5 -45.5t-67 -65.5t-44 -76.5q-12 -35 -12 -62q-4 -53 31 -92h-54q-4 8 -7 17.5t-7 21.5l-6 10q-2 10 -3 17.5zM477 717l98 258 h89q53 0 68.5 -6t23.5 -27v-4q0 -6 -2 -16.5t-6 -20.5q-12 -29 -26.5 -44t-62.5 -21h7q12 -10 12 -17v-4l2 -9t2 -30l12 -59h-55v41q-6 20 -8 33.5t-7.5 20.5t-15.5 9t-28 2h-23l-41 -106h-39zM571 860h56q41 0 50 7t19 30l3 15l1 6q0 8 -6 18q0 2 -22 2h-70z" />
<glyph unicode="&#xaf;" horiz-adv-x="919" d="M432 952l51 133h781l-52 -133h-780z" />
<glyph unicode="&#xb0;" horiz-adv-x="505" d="M551 1253q0 12 2 15l57 147q10 23 47 42.5t66 19.5h186q18 0 45 -13.5t27 -31.5l-66 -177q-4 -10 -18 -20t-31.5 -18.5t-35 -13.5t-27.5 -5h-187q-20 0 -43.5 15.5t-21.5 39.5zM717 1311q0 -10 12 -11h39q4 0 11 4.5t9 8.5l23 55q0 8 -12 8h-39q-16 0 -23 -12z" />
<glyph unicode="&#xb1;" horiz-adv-x="761" d="M84 35q0 27 10 43q10 27 25.5 43t32.5 29h583l2 -25q0 -33 -8 -47q-22 -43 -51 -78h-586q-8 14 -8 35zM264 508q0 27 10 43q12 31 31 49h613v-2q0 -33 -9 -47q-22 -43 -51 -78h-221l-86 -223q-16 -8 -35.5 -14.5t-42.5 -6.5t-39 6.5t-33 14.5l86 223h-215q-8 14 -8 35z M569 690l56 146q16 10 39.5 19t50.5 9t39 -9t20 -21l-53 -144h-152z" />
<glyph unicode="&#xb2;" horiz-adv-x="753" d="M283 557l14 43h612q-6 -14 -13 -26.5t-13 -16.5h-600zM338 690q14 20 53 56t125 118q29 35 48.5 49.5t29.5 36.5h-150v6q0 12 5.5 31t9.5 31q4 14 16 36.5t21 30.5h491q35 0 57.5 -16t22.5 -45q0 -16 -8 -33q-12 -35 -30 -57t-38 -45l-119 -96q-31 -29 -53 -56.5 t-26 -36.5h143l2 -10h-600z" />
<glyph unicode="&#xb3;" horiz-adv-x="858" d="M293 557v4q0 16 6 39h664q-49 -29 -102.5 -36t-86.5 -7h-481zM340 690q2 6 8 8h344q12 12 17 23l6 16q2 2 2 11q0 18 -39 18h-264q0 10 3 27.5t9 31.5q4 14 15.5 35t21.5 31h260q23 0 40 6t28 33q4 4 4 14q0 4 -2 6h-344v8q0 12 5 31t9 31q6 14 16 35.5t21 29.5h477 q25 0 54.5 -3t56 -13t45 -30.5t22.5 -53.5q0 -14 -3 -25.5t-13 -39.5q-14 -39 -44 -60.5t-59 -38.5q-6 -2 -10 -6l4 -4q14 -10 26.5 -23.5t10.5 -35.5q0 -4 -1 -10.5t-3 -16.5q-4 -12 -8 -21.5t-6 -13.5h-709z" />
<glyph unicode="&#xb4;" horiz-adv-x="503" d="M545 1243l6 19q57 66 106.5 107.5t86 65t61 33t33.5 9.5h198q53 -10 54 -50q0 -16 -3 -18q-76 -68 -128 -108.5t-85.5 -63.5t-53 -30t-27.5 -7h-191q-16 0 -37.5 13.5t-19.5 29.5z" />
<glyph unicode="&#xb5;" d="M70 0l229 600h563l-172 -448h225q43 0 72 67l146 381h565l-152 -397q-37 -98 -106.5 -150.5t-147.5 -52.5h-1222zM334 690l80 209h563l-80 -209h-563zM1167 690l80 209h565l-79 -209h-566z" />
<glyph unicode="&#xb6;" horiz-adv-x="1933" d="M293 547q0 18 6 53h1001l-284 -750h-682l190 496q-117 16 -175 64.5t-56 136.5zM326 690q25 59 49 113.5t49 85.5q51 63 120.5 102t142.5 59.5t139.5 26.5t115.5 6h1335l-149 -393h-682l82 211h-111l-82 -211h-1009zM1126 -150l285 750h682l-287 -750h-680z" />
<glyph unicode="&#xb7;" horiz-adv-x="501" d="M213 373v6l63 162q4 12 17.5 22t31 18.5t35 13.5t29.5 5h189q20 -4 41.5 -17.5t21.5 -31.5q0 -8 -2 -10l-64 -162q-8 -18 -44.5 -37.5t-65.5 -19.5h-182q-25 0 -47.5 17t-22.5 34z" />
<glyph unicode="&#xb8;" horiz-adv-x="288" d="M-197 -225q0 33 22.5 65.5t45.5 48.5h156l43 111h149l-98 -260h-307q-10 16 -11 35z" />
<glyph unicode="&#xb9;" horiz-adv-x="622" d="M408 557l14 43h358l-14 -43h-358zM444 950v8q0 12 5.5 31t9.5 31q6 14 16 35.5t21 29.5h471l-152 -395h-358l100 260h-113z" />
<glyph unicode="&#xba;" horiz-adv-x="940" d="M336 600h715q-47 -43 -90 -43h-568q-45 0 -57 43zM342 690q12 65 41 133q20 49 45 96.5t52.5 84t58 59t65.5 22.5h565q33 0 46.5 -22.5t13.5 -58.5q-4 -78 -45 -185q-12 -35 -28.5 -67.5t-35.5 -61.5h-778zM702 692h60q2 0 10 12.5t19.5 31t22.5 40t17 41.5l5 10 q14 39 19 71t5 52h-59q-2 -2 -23.5 -37.5t-42.5 -83.5l-4 -12q-18 -43 -23.5 -72.5t-5.5 -44.5v-8z" />
<glyph unicode="&#xbb;" horiz-adv-x="782" d="M117 109l2 20l76 199q6 16 37.5 43.5t111.5 81.5q-35 39 -47 63.5t-12 40.5q0 10 2 12l10 31h278l-126 -334q-4 -10 -18.5 -26.5t-46.5 -41t-86 -58.5t-136 -79h-4q-23 0 -32 13.5t-9 34.5zM332 690l30 78q16 29 41 50.5t56 23.5q53 -53 80.5 -90t40.5 -62h-248zM481 109 l2 20l76 199q6 16 38 43.5t112 81.5q-35 39 -47.5 63.5t-12.5 40.5q0 10 2 12l11 31h278l-127 -334q-4 -10 -18.5 -26.5t-46 -41t-86 -58.5t-136.5 -79h-4q-23 0 -32 13.5t-9 34.5zM696 690l31 78q16 29 41 50.5t55 23.5q53 -53 81 -90t40 -62h-248z" />
<glyph unicode="&#xbc;" horiz-adv-x="2076" d="M270 0l711 600h496l-717 -600h-490zM367 451l55 149h358l-55 -149h-358zM403 844v6q0 12 5.5 31.5t9.5 31.5q6 14 16 36t21 30h471l-111 -289h-358l59 154h-113zM1090 690l247 209h498l-250 -209h-495zM1229 55l151 394h349l-93 -242h103l92 242h348l-203 -529h-348 l51 135h-450z" />
<glyph unicode="&#xbd;" horiz-adv-x="1880" d="M270 0l711 600h496l-717 -600h-490zM367 451l55 149h358l-55 -149h-358zM403 844v6q0 12 5.5 31.5t9.5 31.5q6 14 16 36t21 30h471l-111 -289h-358l59 154h-113zM1090 690l247 209h498l-250 -209h-495zM1165 -80l37 96q8 23 23.5 40.5t38.5 39.5l215 217h-150v6 q0 12 4 31t8 31q4 14 17.5 36.5t21.5 31.5h492q35 0 57.5 -16.5t20.5 -45.5q0 -14 -6 -33q-12 -35 -31 -57t-39 -45l-119 -96q-29 -29 -51.5 -56.5t-26.5 -36.5h144v-12q0 -6 -11 -51q-4 -14 -19 -43t-26 -37h-600z" />
<glyph unicode="&#xbe;" horiz-adv-x="2224" d="M252 451v4q0 12 6 33.5t10 33.5q6 14 17.5 38t21.5 32h344q2 2 3 4t3 4h359q-8 -20 -14.5 -29.5t-16.5 -23.5q-25 -33 -58.5 -51.5t-69.5 -28.5t-68.5 -13t-55.5 -3h-481zM375 690q4 16 10 29q4 14 16.5 34.5t20.5 30.5h260q23 0 40 6.5t28 32.5q4 4 4 15q0 4 -2 6h-344 v6q0 12 5 31.5t9 31.5q6 14 16.5 36t20.5 30h477q25 0 54.5 -3t56 -13.5t45 -31t22.5 -52.5q0 -14 -3 -25.5t-13 -40.5q-14 -39 -44 -60.5t-59 -37.5q-6 -2 -10 -6l4 -4q4 -4 8 -7.5t9 -7.5h-631zM418 0l710 600h496l-717 -600h-489zM1237 690l248 209h497l-249 -209h-496z M1376 55l152 394h348l-92 -242h102l92 242h349l-203 -529h-348l51 135h-451z" />
<glyph unicode="&#xbf;" horiz-adv-x="1351" d="M119 129q0 33 14 64q25 66 61.5 112.5t77.5 89.5l260 205h846l-297 -235q-29 -35 -48 -59.5t-34.5 -44t-25.5 -38t-19 -41.5h381q0 -10 1 -19t1 -18q0 -6 -3 -20t-7 -37q-25 -51 -61 -88h-987q-72 0 -117 34t-43 95zM942 854q0 8 2 10l62 162q8 18 47 37.5t65 19.5h230 q23 0 46 -16t23 -33q0 -6 -2 -8l-61 -162q-4 -12 -17.5 -22.5t-31 -18.5t-35 -13t-29.5 -5h-229q-20 0 -45 14.5t-25 34.5z" />
<glyph unicode="&#xc0;" horiz-adv-x="1759" d="M43 0l496 600h278l-215 -260h395q4 66 5.5 129t3.5 131h737q-4 -164 -7 -267.5t-6.5 -167t-7.5 -99t-6 -66.5h-727l2 158h-538l-136 -158h-274zM614 690l326 393h809q2 -6 2 -28l-6 -353v-12h-739q-2 16 -2 33v33q2 33 0 67l-111 -133h-279zM1149 1409q12 29 41.5 45.5 t62.5 22.5h199q8 0 25.5 -9.5t36 -33t35 -65.5t26.5 -107l-4 -13q-4 -10 -16.5 -18t-27 -15.5t-29.5 -11.5t-23 -4h-191q-10 0 -23.5 7t-31 30t-38 63.5t-42.5 108.5z" />
<glyph unicode="&#xc1;" horiz-adv-x="1759" d="M43 0l496 600h278l-215 -260h395q4 66 5.5 129t3.5 131h737q-4 -164 -7 -267.5t-6.5 -167t-7.5 -99t-6 -66.5h-727l2 158h-538l-136 -158h-274zM614 690l326 393h809q2 -6 2 -28l-6 -353v-12h-739q-2 16 -2 33v33q2 33 0 67l-111 -133h-279zM1141 1243l6 19 q57 66 106.5 107.5t86 65t61 33t33.5 9.5h198q53 -10 54 -50q0 -16 -3 -18q-76 -68 -128 -108.5t-85.5 -63.5t-53 -30t-27.5 -7h-191q-16 0 -37.5 13.5t-19.5 29.5z" />
<glyph unicode="&#xc2;" horiz-adv-x="1759" d="M43 0l496 600h278l-215 -260h395q4 66 5.5 129t3.5 131h737q-4 -164 -7 -267.5t-6.5 -167t-7.5 -99t-6 -66.5h-727l2 158h-538l-136 -158h-274zM614 690l326 393h809q2 -6 2 -28l-6 -353v-12h-739q-2 16 -2 33v33q2 33 0 67l-111 -133h-279zM967 1241l1 5t3 16l2 4 q70 66 119 106.5t82.5 64t53 32t29.5 8.5h367q8 0 21.5 -7.5t29 -31t35 -64.5t43.5 -108q-14 -29 -41.5 -45.5t-58.5 -22.5h-199q-16 0 -34.5 21.5t-43.5 80.5q-78 -59 -112.5 -80.5t-51.5 -21.5h-198q-20 4 -34.5 14.5t-12.5 28.5z" />
<glyph unicode="&#xc3;" horiz-adv-x="1759" d="M43 0l496 600h278l-215 -260h395q4 66 5.5 129t3.5 131h737q-4 -164 -7 -267.5t-6.5 -167t-7.5 -99t-6 -66.5h-727l2 158h-538l-136 -158h-274zM614 690l326 393h809q2 -6 2 -28l-6 -353v-12h-739q-2 16 -2 33v33q2 33 0 67l-111 -133h-279zM899 1239q0 10 6 27 q61 66 106.5 106.5t75 64t47 32t25.5 8.5h307q16 0 34 -18.5t40 -72.5q61 53 91 73t42 20h170q35 -14 35 -43q0 -16 -2 -19l-2 -6q-61 -68 -105.5 -108.5t-75 -63t-48 -31t-25.5 -8.5h-307q-16 0 -33.5 17.5t-40.5 76.5q-61 -59 -91 -77.5t-42 -18.5h-168q-43 10 -39 41z " />
<glyph unicode="&#xc4;" horiz-adv-x="1759" d="M43 0l496 600h278l-215 -260h395q4 66 5.5 129t3.5 131h737q-4 -164 -7 -267.5t-6.5 -167t-7.5 -99t-6 -66.5h-727l2 158h-538l-136 -158h-274zM614 690l326 393h809q2 -6 2 -28l-6 -353v-12h-739q-2 16 -2 33v33q2 33 0 67l-111 -133h-279zM942 1253l1 5l3 12l55 147 q4 12 17.5 22.5t31 19.5t36 14.5t30.5 5.5h187q18 0 43.5 -13.5t25.5 -31.5v-7l-65 -170q-4 -10 -18.5 -20t-32 -18.5t-35 -13.5t-27.5 -5h-186q-20 0 -44 14.5t-22 38.5zM1413 1253q0 12 2 15l58 147q10 23 46.5 42.5t65.5 19.5h187q18 0 44.5 -13.5t26.5 -31.5l-65 -177 q-4 -10 -18.5 -20t-32 -18.5t-35 -13.5t-27.5 -5h-186q-20 0 -44 15.5t-22 39.5z" />
<glyph unicode="&#xc5;" horiz-adv-x="1759" d="M43 0l496 600h278l-215 -260h395q4 66 5.5 129t3.5 131h737q-4 -164 -7 -267.5t-6.5 -167t-7.5 -99t-6 -66.5h-727l2 158h-538l-136 -158h-274zM614 690l326 393h809q2 -6 2 -28l-6 -353v-12h-739q-2 16 -2 33v33q2 33 0 67l-111 -133h-279zM1178 1253q0 12 2 15l57 147 q10 23 47 42.5t66 19.5h186q18 0 45 -13.5t27 -31.5l-66 -177q-4 -10 -18.5 -20t-31.5 -18.5t-34.5 -13.5t-27.5 -5h-187q-20 0 -43.5 15.5t-21.5 39.5zM1343 1311q0 -10 13 -11h39q4 0 11 4.5t9 8.5l23 55q0 8 -13 8h-39q-16 0 -22 -12z" />
<glyph unicode="&#xc6;" horiz-adv-x="3014" d="M43 0l496 600h278l-215 -260h395q4 66 5.5 129t3.5 131h2091q-2 -10 -4.5 -20.5t-6.5 -20.5q-12 -27 -28.5 -50.5t-32.5 -43.5h-660q-33 -98 -50 -163.5t-17 -102.5q0 -4 1 -8.5t1 -8.5h698q0 -10 1 -19t1 -18q0 -37 -8 -51q-10 -27 -27.5 -50.5t-35.5 -43.5h-1940l2 158 h-538l-136 -158h-274zM614 690l326 393h809q2 -2 2 -16l-6 -377h-739q-2 16 -2 33v33q2 32 0 67l-111 -133h-279zM1776 690q37 80 81 150.5t92 125t100 86t110 31.5h1183q2 -10 3 -18t1 -12q0 -33 -14 -64q-10 -27 -26.5 -50.5t-34.5 -43.5h-693q-10 -8 -44.5 -63.5 t-77.5 -141.5h-680z" />
<glyph unicode="&#xc7;" horiz-adv-x="1499" d="M178 152q0 45 10.5 97t25.5 104.5t33.5 103.5t35.5 98q4 10 8 21.5t8 23.5h680q-4 -16 -6 -22l-25 -62q-45 -117 -64.5 -196.5t-19.5 -120.5q0 -4 1 -8.5t1 -8.5h617q0 -10 1 -19t1 -18q0 -37 -8 -51q-10 -27 -28 -50.5t-36 -43.5h-457l-98 -260h-307q-10 16 -10 35 q0 33 22.5 65.5t44.5 48.5h156l43 111h-518q-63 0 -87 43t-24 109zM340 690q39 80 82 151.5t90 125t100.5 85t110.5 31.5h1104q2 -10 3 -18t1 -12q0 -33 -14 -64q-10 -27 -26.5 -50.5t-35.5 -43.5h-610q-6 -4 -18.5 -20.5t-30 -43t-38 -62.5t-40.5 -79h-678z" />
<glyph unicode="&#xc8;" horiz-adv-x="1585" d="M178 152q0 45 11.5 97t26.5 104.5t33.5 103.5t35.5 98q4 10 8 21.5t8 23.5h1366q-2 -10 -4 -20.5t-6 -20.5q-12 -27 -28.5 -50.5t-33.5 -43.5h-682q-33 -98 -50 -163.5t-17 -102.5l2 -17h721q0 -10 1 -19t1 -18q0 -37 -8 -51q-10 -27 -27.5 -50.5t-36.5 -43.5h-1210 q-63 0 -87 43t-24 109zM340 690q39 80 82 151.5t90 125t100.5 85t110.5 31.5h1190q2 -10 3 -18t1 -12q0 -33 -14 -64q-10 -27 -26.5 -50.5t-35.5 -43.5h-715q-10 -8 -44.5 -63.5t-77.5 -141.5h-664zM1085 1409q12 29 42 45.5t63 22.5h199q8 0 25.5 -9.5t35.5 -33t34.5 -65.5 t26.5 -107l-4 -13q-4 -10 -16 -18t-26.5 -15.5t-30 -11.5t-23.5 -4h-190q-10 0 -23.5 7t-31 30t-38 63.5t-43.5 108.5z" />
<glyph unicode="&#xc9;" horiz-adv-x="1585" d="M178 152q0 45 11.5 97t26.5 104.5t33.5 103.5t35.5 98q4 10 8 21.5t8 23.5h1366q-2 -10 -4 -20.5t-6 -20.5q-12 -27 -28.5 -50.5t-33.5 -43.5h-682q-33 -98 -50 -163.5t-17 -102.5l2 -17h721q0 -10 1 -19t1 -18q0 -37 -8 -51q-10 -27 -27.5 -50.5t-36.5 -43.5h-1210 q-63 0 -87 43t-24 109zM340 690q39 80 82 151.5t90 125t100.5 85t110.5 31.5h1190q2 -10 3 -18t1 -12q0 -33 -14 -64q-10 -27 -26.5 -50.5t-35.5 -43.5h-715q-10 -8 -44.5 -63.5t-77.5 -141.5h-664zM1087 1243l7 19q57 66 106 107.5t86 65t61.5 33t32.5 9.5h199 q53 -10 53 -50q0 -16 -2 -18q-76 -68 -128 -108.5t-86 -63.5t-53.5 -30t-27.5 -7h-190q-16 0 -38 13.5t-20 29.5z" />
<glyph unicode="&#xca;" horiz-adv-x="1585" d="M178 152q0 45 11.5 97t26.5 104.5t33.5 103.5t35.5 98q4 10 8 21.5t8 23.5h1366q-2 -10 -4 -20.5t-6 -20.5q-12 -27 -28.5 -50.5t-33.5 -43.5h-682q-33 -98 -50 -163.5t-17 -102.5l2 -17h721q0 -10 1 -19t1 -18q0 -37 -8 -51q-10 -27 -27.5 -50.5t-36.5 -43.5h-1210 q-63 0 -87 43t-24 109zM340 690q39 80 82 151.5t90 125t100.5 85t110.5 31.5h1190q2 -10 3 -18t1 -12q0 -33 -14 -64q-10 -27 -26.5 -50.5t-35.5 -43.5h-715q-10 -8 -44.5 -63.5t-77.5 -141.5h-664zM903 1241l1 5t3 16l2 4q70 66 119 106.5t83 64t53.5 32t29.5 8.5h367 q8 0 21 -7.5t28.5 -31t35 -64.5t44.5 -108q-14 -29 -42 -45.5t-59 -22.5h-198q-16 0 -35 21.5t-43 80.5q-78 -59 -113 -80.5t-51 -21.5h-199q-20 4 -34.5 14.5t-12.5 28.5z" />
<glyph unicode="&#xcb;" horiz-adv-x="1585" d="M178 152q0 45 11.5 97t26.5 104.5t33.5 103.5t35.5 98q4 10 8 21.5t8 23.5h1366q-2 -10 -4 -20.5t-6 -20.5q-12 -27 -28.5 -50.5t-33.5 -43.5h-682q-33 -98 -50 -163.5t-17 -102.5l2 -17h721q0 -10 1 -19t1 -18q0 -37 -8 -51q-10 -27 -27.5 -50.5t-36.5 -43.5h-1210 q-63 0 -87 43t-24 109zM340 690q39 80 82 151.5t90 125t100.5 85t110.5 31.5h1190q2 -10 3 -18t1 -12q0 -33 -14 -64q-10 -27 -26.5 -50.5t-35.5 -43.5h-715q-10 -8 -44.5 -63.5t-77.5 -141.5h-664zM881 1253l1 5l3 12l55 147q4 12 17.5 22.5t31 19.5t35.5 14.5t31 5.5h186 q18 0 44 -13.5t26 -31.5v-7l-66 -170q-4 -10 -18.5 -20t-31.5 -18.5t-34.5 -13.5t-27.5 -5h-187q-20 0 -43.5 14.5t-21.5 38.5zM1352 1253q0 12 2 15l57 147q10 23 47 42.5t66 19.5h186q18 0 45 -13.5t27 -31.5l-66 -177q-4 -10 -18.5 -20t-31.5 -18.5t-34.5 -13.5t-27.5 -5 h-187q-20 0 -43.5 15.5t-21.5 39.5z" />
<glyph unicode="&#xcc;" horiz-adv-x="1384" d="M82 31q0 25 14 63q10 27 26.5 50.5t35.5 43.5h268l156 412h675l-155 -412h268q0 -10 1 -19t1 -17q0 -43 -23.5 -84t-50.5 -68h-1212q-2 10 -3 18.5t-1 12.5zM426 926q0 14 2 30.5t8 32.5q12 29 29.5 53.5t34.5 40.5h1212q2 -10 3 -18t1 -12q0 -33 -14 -64 q-10 -27 -26.5 -50.5t-35.5 -43.5h-268l-80 -205h-676l80 205h-268q-2 2 -2 31zM963 1409q12 29 41.5 45.5t62.5 22.5h199q8 0 25.5 -9.5t36 -33t34.5 -65.5t27 -107l-5 -13q-4 -10 -16 -18t-26.5 -15.5t-30 -11.5t-23.5 -4h-190q-10 0 -23.5 7t-31 30t-38 63.5t-42.5 108.5 z" />
<glyph unicode="&#xcd;" horiz-adv-x="1384" d="M82 31q0 25 14 63q10 27 26.5 50.5t35.5 43.5h268l156 412h675l-155 -412h268q0 -10 1 -19t1 -17q0 -43 -23.5 -84t-50.5 -68h-1212q-2 10 -3 18.5t-1 12.5zM426 926q0 14 2 30.5t8 32.5q12 29 29.5 53.5t34.5 40.5h1212q2 -10 3 -18t1 -12q0 -33 -14 -64 q-10 -27 -26.5 -50.5t-35.5 -43.5h-268l-80 -205h-676l80 205h-268q-2 2 -2 31zM950 1243l6 19q57 66 106.5 107.5t86.5 65t61.5 33t32.5 9.5h199q53 -10 53 -50q0 -16 -2 -18q-76 -68 -128 -108.5t-86 -63.5t-53.5 -30t-27.5 -7h-190q-16 0 -38 13.5t-20 29.5z" />
<glyph unicode="&#xce;" horiz-adv-x="1384" d="M82 31q0 25 14 63q10 27 26.5 50.5t35.5 43.5h268l156 412h675l-155 -412h268q0 -10 1 -19t1 -17q0 -43 -23.5 -84t-50.5 -68h-1212q-2 10 -3 18.5t-1 12.5zM426 926q0 14 2 30.5t8 32.5q12 29 29.5 53.5t34.5 40.5h1212q2 -10 3 -18t1 -12q0 -33 -14 -64 q-10 -27 -26.5 -50.5t-35.5 -43.5h-268l-80 -205h-676l80 205h-268q-2 2 -2 31zM778 1241l1 5t3 16l2 4q70 66 119 106.5t83 64t53.5 32t29.5 8.5h367q8 0 21 -7.5t28.5 -31t35 -64.5t44.5 -108q-14 -29 -42 -45.5t-59 -22.5h-198q-16 0 -35 21.5t-43 80.5 q-78 -59 -113 -80.5t-51 -21.5h-199q-20 4 -34.5 14.5t-12.5 28.5z" />
<glyph unicode="&#xcf;" horiz-adv-x="1384" d="M82 31q0 25 14 63q10 27 26.5 50.5t35.5 43.5h268l156 412h675l-155 -412h268q0 -10 1 -19t1 -17q0 -43 -23.5 -84t-50.5 -68h-1212q-2 10 -3 18.5t-1 12.5zM426 926q0 14 2 30.5t8 32.5q12 29 29.5 53.5t34.5 40.5h1212q2 -10 3 -18t1 -12q0 -33 -14 -64 q-10 -27 -26.5 -50.5t-35.5 -43.5h-268l-80 -205h-676l80 205h-268q-2 2 -2 31zM754 1253l1 5l3 12l55 147q4 12 17.5 22.5t31 19.5t35.5 14.5t31 5.5h186q18 0 44 -13.5t26 -31.5v-7l-66 -170q-4 -10 -18.5 -20t-31.5 -18.5t-34.5 -13.5t-27.5 -5h-187q-20 0 -43.5 14.5 t-21.5 38.5zM1225 1253q0 12 2 15l57 147q10 23 47 42.5t66 19.5h186q18 0 45 -13.5t27 -31.5l-66 -177q-4 -10 -18.5 -20t-31.5 -18.5t-34.5 -13.5t-27.5 -5h-187q-20 0 -43.5 15.5t-21.5 39.5z" />
<glyph unicode="&#xd0;" horiz-adv-x="1744" d="M227 420q0 29 9 43q10 27 25 43t34 29h182l23 65h575q-14 -29 -28.5 -58.5t-24.5 -62.5l-18 -51q-37 -92 -50.5 -155.5t-15.5 -98.5q0 -20 2 -22h180q2 2 19.5 27.5t41 65.5t49 88t42.5 93l16 49q12 31 22.5 61.5t16.5 63.5h567q-10 -39 -23 -80t-28 -82 q-33 -84 -73.5 -162.5t-89 -140t-100.5 -98.5t-107 -37h-1201l146 385h-185q-8 14 -6 35zM535 690l81 209h1215q51 0 71.5 -37t20.5 -96q-2 -18 -3 -36.5t-5 -39.5h-569q2 6 2 21v20v17h-179q-4 -4 -14 -18.5t-27 -39.5h-593z" />
<glyph unicode="&#xd1;" horiz-adv-x="1824" d="M70 0l229 600h678l-227 -600h-680zM334 690l149 393h1475q68 0 105.5 -32.5t35.5 -98.5q0 -37 -24 -112l-58 -150h-678l50 129l10 47q4 35 -33 35h-272l-82 -211h-678zM932 1239q0 10 6 27q61 66 106.5 106.5t75 64t47 32t25.5 8.5h307q16 0 33.5 -18.5t40.5 -72.5 q61 53 91 73t42 20h170q35 -14 35 -43q0 -16 -2 -19l-2 -6q-61 -68 -105.5 -108.5t-75 -63t-48 -31t-25.5 -8.5h-307q-16 0 -34 17.5t-40 76.5q-61 -59 -91 -77.5t-42 -18.5h-168q-43 10 -39 41zM1075 0l230 600h677l-227 -600h-680z" />
<glyph unicode="&#xd2;" horiz-adv-x="1835" d="M178 154q2 92 35 200.5t70 200.5q4 10 9 21.5t9 23.5h682q-4 -16 -6 -22l-25 -62q-43 -117 -61.5 -193.5t-18.5 -117.5q0 -20 2 -23h222q2 2 21.5 34t47 80t56 106.5t51.5 111.5l24 59q2 6 4.5 12.5t4.5 14.5h688q-6 -18 -12.5 -35.5t-12.5 -36.5q-39 -102 -89 -197 t-106.5 -169t-120 -118t-130.5 -44h-1231q-63 0 -88 43t-25 111zM340 690q39 80 82 151.5t91 126t101.5 85t108.5 30.5h1229q61 0 87.5 -44t24.5 -115q-2 -51 -13 -109.5t-30 -124.5h-688q23 86 30 143.5t7 67.5h-219q-8 -8 -46 -66.5t-81 -144.5h-684zM1180 1409 q12 29 41.5 45.5t62.5 22.5h199q8 0 25.5 -9.5t36 -33t34.5 -65.5t27 -107l-4 -13q-4 -10 -16.5 -18t-27 -15.5t-30 -11.5t-23.5 -4h-190q-10 0 -23.5 7t-31 30t-38 63.5t-42.5 108.5z" />
<glyph unicode="&#xd3;" horiz-adv-x="1835" d="M178 154q2 92 35 200.5t70 200.5q4 10 9 21.5t9 23.5h682q-4 -16 -6 -22l-25 -62q-43 -117 -61.5 -193.5t-18.5 -117.5q0 -20 2 -23h222q2 2 22.5 34t48 80t57 105.5t48.5 112.5l24 59q2 6 4.5 12.5t4.5 14.5h688q-6 -18 -12.5 -35.5t-12.5 -36.5q-39 -102 -89 -197 t-106.5 -169t-120 -118t-130.5 -44h-1231q-63 0 -88 43t-25 111zM340 690q39 80 82 151.5t91 126t101.5 85t108.5 30.5h1229q61 0 87.5 -44t24.5 -115q-2 -51 -13 -109.5t-30 -124.5h-688q23 86 30 143.5t7 67.5h-219q-8 -8 -46 -66.5t-81 -144.5h-684zM1180 1243l6 19 q57 66 106 107.5t86 65t61.5 33t33.5 9.5h198q53 -10 53 -50q0 -16 -2 -18q-76 -68 -128 -108.5t-85.5 -63.5t-53 -30t-28.5 -7h-190q-16 0 -37.5 13.5t-19.5 29.5z" />
<glyph unicode="&#xd4;" horiz-adv-x="1835" d="M178 154q2 92 35 200.5t70 200.5q4 10 9 21.5t9 23.5h682q-4 -16 -6 -22l-25 -62q-43 -117 -61.5 -193.5t-18.5 -117.5q0 -20 2 -23h222q2 2 22.5 34t48 80t57 105.5t48.5 112.5l24 59q2 6 4.5 12.5t4.5 14.5h688q-6 -18 -12.5 -35.5t-12.5 -36.5q-39 -102 -89 -197 t-106.5 -169t-120 -118t-130.5 -44h-1231q-63 0 -88 43t-25 111zM340 690q39 80 82 151.5t91 126t101.5 85t108.5 30.5h1229q61 0 87.5 -44t24.5 -115q-2 -51 -13 -109.5t-30 -124.5h-688q23 86 30 143.5t7 67.5h-219q-8 -8 -46 -66.5t-81 -144.5h-684zM1004 1241l1 5t3 16 l2 4q70 66 119 106.5t82.5 64t53 32t29.5 8.5h367q8 0 21.5 -7.5t28.5 -31t34.5 -64.5t44.5 -108q-14 -29 -41.5 -45.5t-58.5 -22.5h-199q-16 0 -34.5 21.5t-43.5 80.5q-78 -59 -112.5 -80.5t-51.5 -21.5h-198q-20 4 -35 14.5t-12 28.5z" />
<glyph unicode="&#xd5;" horiz-adv-x="1835" d="M178 154q2 92 35 200.5t70 200.5q4 10 9 21.5t9 23.5h682q-4 -16 -6 -22l-25 -62q-43 -117 -61.5 -193.5t-18.5 -117.5q0 -20 2 -23h222q2 2 22.5 34t48 80t57 105.5t48.5 112.5l24 59q2 6 4.5 12.5t4.5 14.5h688q-6 -18 -12.5 -35.5t-12.5 -36.5q-39 -102 -89 -197 t-106.5 -169t-120 -118t-130.5 -44h-1231q-63 0 -88 43t-25 111zM340 690q39 80 82 151.5t91 126t101.5 85t108.5 30.5h1229q61 0 87.5 -44t24.5 -115q-2 -51 -13 -109.5t-30 -124.5h-688q23 86 30 143.5t7 67.5h-219q-8 -8 -46 -66.5t-81 -144.5h-684zM938 1239q0 10 6 27 q61 66 106.5 106.5t75 64t47 32t25.5 8.5h307q16 0 33.5 -18.5t40.5 -72.5q61 53 91 73t42 20h170q35 -14 35 -43q0 -16 -2 -19l-2 -6q-61 -68 -105.5 -108.5t-75 -63t-48 -31t-25.5 -8.5h-307q-16 0 -34 17.5t-40 76.5q-61 -59 -91 -77.5t-42 -18.5h-168q-43 10 -39 41z " />
<glyph unicode="&#xd6;" horiz-adv-x="1835" d="M178 154q2 92 35 200.5t70 200.5q4 10 9 21.5t9 23.5h682q-4 -16 -6 -22l-25 -62q-43 -117 -61.5 -193.5t-18.5 -117.5q0 -20 2 -23h222q2 2 22.5 34t48 80t57 105.5t48.5 112.5l24 59q2 6 4.5 12.5t4.5 14.5h688q-6 -18 -12.5 -35.5t-12.5 -36.5q-39 -102 -89 -197 t-106.5 -169t-120 -118t-130.5 -44h-1231q-63 0 -88 43t-25 111zM340 690q39 80 82 151.5t91 126t101.5 85t108.5 30.5h1229q61 0 87.5 -44t24.5 -115q-2 -51 -13 -109.5t-30 -124.5h-688q23 86 30 143.5t7 67.5h-219q-8 -8 -46 -66.5t-81 -144.5h-684zM979 1253l1 5l3 12 l55 147q4 12 17.5 22.5t31 19.5t36 14.5t30.5 5.5h186q18 0 44 -13.5t26 -31.5v-7l-66 -170q-4 -10 -18 -20t-31.5 -18.5t-35 -13.5t-27.5 -5h-187q-20 0 -43.5 14.5t-21.5 38.5zM1450 1253q0 12 2 15l57 147q10 23 47 42.5t66 19.5h186q18 0 45 -13.5t27 -31.5l-65 -177 q-4 -10 -18.5 -20t-32 -18.5t-35 -13.5t-27.5 -5h-186q-20 0 -44 15.5t-22 39.5z" />
<glyph unicode="&#xd7;" horiz-adv-x="665" d="M182 287l4 14l217 158l-90 141h213l23 -35l47 35h211l-193 -141l99 -156q-18 -37 -63.5 -65.5t-84.5 -40.5l-96 155l-217 -157q-29 4 -49.5 31.5t-20.5 60.5zM377 690q23 16 42 20.5t36 4.5l14 -25h-92zM721 690l35 25h4q10 0 25.5 -6.5t25.5 -18.5h-90z" />
<glyph unicode="&#xd8;" horiz-adv-x="1832" d="M178 154q2 92 35 200.5t70 200.5q4 10 9 21.5t9 23.5h684q-2 -2 -2 -6l8 6h1000q-6 -18 -12.5 -35.5t-12.5 -36.5q-39 -102 -89 -197t-106.5 -169t-120 -118t-130.5 -44h-1229q-63 0 -88 43t-25 111zM340 690q39 80 82 151.5t91 126t101.5 85t108.5 30.5h1227 q61 0 87.5 -44t24.5 -115q-2 -51 -13 -109.5t-30 -124.5h-913l268 209v2h-221q-4 -4 -15.5 -21.5t-29.5 -46t-39.5 -65.5t-42.5 -78h-686zM870 182h222q6 4 25.5 33t44 72t51 96t49.5 106l-390 -305z" />
<glyph unicode="&#xd9;" horiz-adv-x="1824" d="M137 133q0 16 7.5 44t17.5 67l135 356h682l-129 -336q-10 -57 -10 -49q-1 -33 32 -33h273l158 418h682l-230 -600h-1474q-70 0 -108 34t-36 99zM332 690l151 393h680l-149 -393h-682zM1184 1409q12 29 41.5 45.5t62.5 22.5h199q8 0 25.5 -9.5t36 -33t34.5 -65.5t27 -107 l-4 -13q-4 -10 -16.5 -18t-27 -15.5t-29.5 -11.5t-24 -4h-190q-10 0 -23.5 7t-31 30t-38 63.5t-42.5 108.5zM1337 690l152 393h680l-150 -393h-682z" />
<glyph unicode="&#xda;" horiz-adv-x="1824" d="M137 133q0 16 7.5 44t17.5 67l135 356h682l-129 -336q-10 -57 -10 -49q-1 -33 32 -33h273l158 418h682l-230 -600h-1474q-70 0 -108 34t-36 99zM332 690l151 393h680l-149 -393h-682zM1171 1243l7 19q57 66 106 107.5t86 65t61.5 33t32.5 9.5h199q53 -10 53 -50 q0 -16 -2 -18q-76 -68 -128 -108.5t-86 -63.5t-53.5 -30t-27.5 -7h-190q-16 0 -38 13.5t-20 29.5zM1337 690l152 393h680l-150 -393h-682z" />
<glyph unicode="&#xdb;" horiz-adv-x="1824" d="M137 133q0 16 7.5 44t17.5 67l135 356h682l-129 -336q-10 -57 -10 -49q-1 -33 32 -33h273l158 418h682l-230 -600h-1474q-70 0 -108 34t-36 99zM332 690l151 393h680l-149 -393h-682zM999 1241l1 5t4 16l2 4q70 66 119 106.5t82.5 64t53 32t29.5 8.5h367q8 0 21.5 -7.5 t28.5 -31t34.5 -64.5t44.5 -108q-14 -29 -41.5 -45.5t-58.5 -22.5h-199q-16 0 -34.5 21.5t-43.5 80.5q-78 -59 -112.5 -80.5t-51.5 -21.5h-198q-20 4 -35 14.5t-13 28.5zM1337 690l152 393h680l-150 -393h-682z" />
<glyph unicode="&#xdc;" horiz-adv-x="1824" d="M137 133q0 16 7.5 44t17.5 67l135 356h682l-129 -336q-10 -57 -10 -49q-1 -33 32 -33h273l158 418h682l-230 -600h-1474q-70 0 -108 34t-36 99zM332 690l151 393h680l-149 -393h-682zM975 1253l1 5l3 12l55 147q4 12 17.5 22.5t31 19.5t36 14.5t30.5 5.5h186 q18 0 44 -13.5t26 -31.5v-7l-66 -170q-4 -10 -18 -20t-31.5 -18.5t-35 -13.5t-27.5 -5h-187q-20 0 -43.5 14.5t-21.5 38.5zM1337 690l152 393h680l-150 -393h-682zM1446 1253q0 12 2 15l57 147q10 23 47 42.5t66 19.5h186q18 0 45 -13.5t27 -31.5l-66 -177q-4 -10 -18 -20 t-31.5 -18.5t-35 -13.5t-27.5 -5h-187q-20 0 -43.5 15.5t-21.5 39.5z" />
<glyph unicode="&#xdd;" horiz-adv-x="1769" d="M457 1083h673l101 -190l235 190h674l-522 -393h-936zM553 0l211 551l-31 49h766l-78 -59l-207 -541h-661zM1143 1243l6 19q57 66 106.5 107.5t86 65t61 33t33.5 9.5h198q53 -10 54 -50q0 -16 -2 -18q-76 -68 -128.5 -108.5t-86 -63.5t-53 -30t-27.5 -7h-191 q-16 0 -37.5 13.5t-19.5 29.5z" />
<glyph unicode="&#xde;" horiz-adv-x="1779" d="M70 0l229 600h672l-94 -250q160 0 250 52.5t128 146.5l15 43q0 2 1 3t1 5h670q-6 -23 -13.5 -44t-17.5 -44q-72 -188 -227.5 -266t-380.5 -78h-494l-64 -168h-675zM334 690l149 393h674l-65 -170h507q47 0 111 -6t120 -26.5t97 -59.5t43 -102q0 -4 -1 -11.5t-3 -17.5 h-670q0 10 1 19.5t3 21.5h-278l-16 -41h-672z" />
<glyph unicode="&#xdf;" horiz-adv-x="1531" d="M0 -178l299 778h559l-297 -778h-561zM334 690l16 45q45 55 103.5 87t118 49.5t114.5 22.5t96 5h643q41 0 93.5 -5t99.5 -22.5t80 -51.5t35 -89v-4q-2 -6 -2 -18t-2 -19h-560q4 12 5 25q0 8 1 15t3 18h-244q-12 -18 -20.5 -33t-14.5 -25h-565zM698 27q0 4 13 51 q14 43 49 74h190q29 41 40 63.5t22 50.5l8 19q8 18 8 34q0 23 -12 33t-37 19h-135l-2 26q2 10 4 23.5t8 28.5q8 23 20.5 40t24.5 31h119q47 10 73.5 25.5t45.5 54.5h559q-31 -57 -84 -94t-94 -57l4 -5q23 -20 43 -46.5t20 -67.5q0 -6 -12 -51q-16 -49 -27.5 -71t-34.5 -46 q-45 -53 -103 -86t-117.5 -49.5t-115 -21.5t-94.5 -5h-379q-2 10 -3 16.5t-1 10.5z" />
<glyph unicode="&#xe0;" horiz-adv-x="1474" d="M43 0l496 600h231l-264 -317h328q4 53 6 103t2 97l2 58v28t-2 31h612q2 -35 1 -68.5t-1 -62.5l-2 -107q-2 -92 -4 -151t-5 -98t-6 -64.5t-5 -48.5h-605l2 131h-446l-113 -131h-227zM612 690l174 209h672l-2 -111q-4 -53 0 -98h-844zM936 1225q14 29 41.5 45t62.5 22h199 q8 0 25.5 -9t36 -32.5t35 -65.5t24.5 -108l-4 -12q-6 -18 -40 -33.5t-52 -15.5h-191q-10 0 -23.5 7t-31 29.5t-37.5 63.5t-45 109z" />
<glyph unicode="&#xe1;" horiz-adv-x="1474" d="M43 0l496 600h231l-264 -317h328q4 53 6 103t2 97l2 58v28t-2 31h612q2 -35 1 -68.5t-1 -62.5l-2 -107q-2 -92 -4 -151t-5 -98t-6 -64.5t-5 -48.5h-605l2 131h-446l-113 -131h-227zM612 690l174 209h672l-2 -111q-4 -53 0 -98h-844zM934 1059v6l4 12q59 66 108.5 108 t86 65.5t60.5 32.5t34 9h198q23 -4 39.5 -16t16.5 -35l-4 -16q-74 -68 -126.5 -109t-86 -63.5t-53 -29.5t-27.5 -7h-191q-16 0 -37.5 13t-21.5 30z" />
<glyph unicode="&#xe2;" horiz-adv-x="1474" d="M43 0l496 600h231l-264 -317h328q4 53 6 103t2 97l2 58v28t-2 31h612q2 -35 1 -68.5t-1 -62.5l-2 -107q-2 -92 -4 -151t-5 -98t-6 -64.5t-5 -48.5h-605l2 131h-446l-113 -131h-227zM612 690l174 209h672l-2 -111q-4 -53 0 -98h-844zM754 1059q0 16 2 18l2 4 q72 66 122 107t82.5 64.5t52 31.5t29.5 8h367q10 0 22.5 -7t28 -30.5t35 -64.5t41.5 -109q-12 -29 -38.5 -45t-59.5 -22h-199q-16 0 -34.5 21.5t-43.5 80.5q-78 -59 -112.5 -80.5t-51.5 -21.5h-198q-18 4 -32.5 14t-14.5 31z" />
<glyph unicode="&#xe3;" horiz-adv-x="1474" d="M43 0l496 600h231l-264 -317h328q4 53 6 103t2 97l2 58v28t-2 31h612q2 -35 1 -68.5t-1 -62.5l-2 -107q-2 -92 -4 -151t-5 -98t-6 -64.5t-5 -48.5h-605l2 131h-446l-113 -131h-227zM612 690l174 209h672l-2 -111q-4 -53 0 -98h-844zM688 1057q0 2 1 8t3 16 q63 66 107.5 107t75 64.5t48 31.5t25.5 8h307q16 0 34 -18.5t40 -71.5q61 53 90 72.5t41 19.5h170q39 -14 39 -43q0 2 -1 -3l-3 -15l-4 -6q-61 -68 -105.5 -109t-73 -63.5t-46 -30.5t-25.5 -8h-307q-16 0 -35.5 17.5t-42.5 76.5q-59 -59 -89 -77.5t-42 -18.5h-168 q-39 8 -39 43z" />
<glyph unicode="&#xe4;" horiz-adv-x="1474" d="M43 0l496 600h231l-264 -317h328q4 53 6 103t2 97l2 58v28t-2 31h612q2 -35 1 -68.5t-1 -62.5l-2 -107q-2 -92 -4 -151t-5 -98t-6 -64.5t-5 -48.5h-605l2 131h-446l-113 -131h-227zM612 690l174 209h672l-2 -111q-4 -53 0 -98h-844zM727 1067l1 4l3 12l55 148 q10 23 49 42t66 19h186q18 0 45 -13t27 -32v-6l-67 -170q-4 -10 -17.5 -20.5t-31 -18.5t-35 -13t-27.5 -5h-186q-20 0 -44 14t-24 39zM1198 1067q0 12 2 14l55 148q12 23 49 42t66 19h186q18 0 46 -13t28 -32l-67 -176q-4 -10 -17.5 -20.5t-31 -18.5t-35 -13t-27.5 -5h-186 q-20 0 -44 15t-24 40z" />
<glyph unicode="&#xe5;" horiz-adv-x="1474" d="M43 0l496 600h231l-264 -317h328l4 26l4 291h612l-2 -127q-2 -129 -4 -209t-5 -130t-6 -79.5t-5 -54.5h-605l2 131h-446l-113 -131h-227zM612 690l174 209h672q2 -2 2 -16l-4 -193h-844zM963 1067l1 4l3 12l55 148q10 23 49 42t66 19h186q18 0 45 -13t27 -32v-6l-68 -170 q-4 -10 -17.5 -20.5t-30.5 -18.5t-34.5 -13t-27.5 -5h-187q-20 0 -43.5 14t-23.5 39zM1130 1126q0 -10 13 -10h39q12 0 22 12l19 56q0 8 -13 8h-39q-18 0 -20 -12z" />
<glyph unicode="&#xe6;" horiz-adv-x="2519" d="M43 0l496 600h231l-264 -317h328q6 78 6 153v164h616l-2 -82q10 20 18.5 40t18.5 42h565q-8 -16 -14 -31.5t-14 -31.5h546q4 -8 4 -31q0 -27 -8 -41q-10 -23 -24.5 -43.5t-30.5 -36.5h-547q-27 -78 -39 -135t-14 -98h579q2 -10 3.5 -16.5t1.5 -10.5q0 -33 -9 -47 q-10 -20 -22.5 -40t-30.5 -38h-1610l2 131h-446l-113 -131h-227zM612 690l174 209h672q-2 -59 -2 -111v-98h-844zM1542 690q55 92 119.5 150.5t136.5 58.5h983q2 -10 2 -16v-11q0 -4 -3 -16t-7 -35q-16 -45 -53 -78h-574q-12 -10 -39 -53h-565z" />
<glyph unicode="&#xe7;" horiz-adv-x="1267" d="M160 127q2 74 28.5 167t57.5 167q12 35 27.5 69.5t31.5 69.5h567q-14 -29 -28.5 -58.5t-24.5 -62.5l-18 -51q-68 -166 -68 -252q-4 -23 0 -24h510q2 -10 3 -16.5t1 -10.5q0 -33 -8 -47q-10 -20 -22.5 -40t-30.5 -38h-371l-98 -260h-307q-10 16 -11 35q0 33 22.5 65.5 t45.5 48.5h156l43 111h-414q-53 0 -73.5 36t-18.5 91zM356 690q55 92 121 150.5t137 58.5h916q2 -10 2 -16v-11q0 -4 -3 -16t-7 -35q-16 -45 -54 -78h-505q-4 -4 -13.5 -17t-23.5 -36h-570z" />
<glyph unicode="&#xe8;" horiz-adv-x="1333" d="M160 127q0 37 8 80t20.5 88t26.5 88t29 78q12 35 27.5 69.5t31.5 69.5h569q-8 -16 -15 -31.5t-13 -31.5h545q4 -8 4 -31q0 -27 -9 -41q-10 -23 -24 -43.5t-31 -36.5h-547q-51 -160 -55 -219l2 -14h580q2 -10 3 -16.5t1 -10.5q0 -33 -8 -47q-10 -20 -22.5 -40t-31.5 -38 h-999q-53 0 -73.5 36t-18.5 91zM354 690q57 92 123 150.5t137 58.5h981q2 -10 2 -16v-11q0 -4 -3 -16t-7 -35q-16 -45 -53 -78h-573q-8 -6 -37 -53h-570zM872 1225q14 29 42 45t63 22h199q8 0 25.5 -9t35.5 -32.5t34.5 -65.5t24.5 -108l-4 -12q-6 -18 -39.5 -33.5 t-52.5 -15.5h-190q-10 0 -23.5 7t-31 29.5t-38 63.5t-45.5 109z" />
<glyph unicode="&#xe9;" horiz-adv-x="1333" d="M160 127q0 37 8 80t20.5 88t26.5 88t29 78q12 35 27.5 69.5t31.5 69.5h569q-8 -16 -15 -31.5t-13 -31.5h545q4 -8 4 -31q0 -27 -9 -41q-10 -23 -24 -43.5t-31 -36.5h-547q-51 -160 -55 -219l2 -14h580q2 -10 3 -16.5t1 -10.5q0 -33 -8 -47q-10 -20 -22.5 -40t-31.5 -38 h-999q-53 0 -73.5 36t-18.5 91zM354 690q57 92 123 150.5t137 58.5h981q2 -10 2 -16v-11q0 -4 -3 -16t-7 -35q-16 -45 -53 -78h-573q-8 -6 -37 -53h-570zM877 1059v6l4 12q59 66 108 108t86 65.5t60.5 32.5t33.5 9h199q23 -4 39 -16t16 -35l-4 -16q-74 -68 -126 -109 t-85.5 -63.5t-53 -29.5t-28.5 -7h-190q-16 0 -37.5 13t-21.5 30z" />
<glyph unicode="&#xea;" horiz-adv-x="1333" d="M160 127q0 37 8 80t20.5 88t26.5 88t29 78q12 35 27.5 69.5t31.5 69.5h569q-8 -16 -15 -31.5t-13 -31.5h545q4 -8 4 -31q0 -27 -9 -41q-10 -23 -24 -43.5t-31 -36.5h-547q-51 -160 -55 -219l2 -14h580q2 -10 3 -16.5t1 -10.5q0 -33 -8 -47q-10 -20 -22.5 -40t-31.5 -38 h-999q-53 0 -73.5 36t-18.5 91zM354 690q57 92 123 150.5t137 58.5h981q2 -10 2 -16v-11q0 -4 -3 -16t-7 -35q-16 -45 -53 -78h-573q-8 -6 -37 -53h-570zM692 1059q0 16 2 18l2 4q72 66 122 107t83 64.5t52.5 31.5t29.5 8h367q10 0 22 -7t27.5 -30.5t35 -64.5t42.5 -109 q-12 -29 -39 -45t-60 -22h-198q-16 0 -35 21.5t-43 80.5q-78 -59 -113 -80.5t-51 -21.5h-199q-18 4 -32.5 14t-14.5 31z" />
<glyph unicode="&#xeb;" horiz-adv-x="1333" d="M160 127q0 37 8 80t20.5 88t26.5 88t29 78q12 35 27.5 69.5t31.5 69.5h569q-8 -16 -15 -31.5t-13 -31.5h545q4 -8 4 -31q0 -27 -9 -41q-10 -23 -24 -43.5t-31 -36.5h-547q-51 -160 -55 -219l2 -14h580q2 -10 3 -16.5t1 -10.5q0 -33 -8 -47q-10 -20 -22.5 -40t-31.5 -38 h-999q-53 0 -73.5 36t-18.5 91zM354 690q57 92 123 150.5t137 58.5h981q2 -10 2 -16v-11q0 -4 -3 -16t-7 -35q-16 -45 -53 -78h-573q-8 -6 -37 -53h-570zM672 1067l1 4l3 12l55 148q10 23 49 42t66 19h186q18 0 45 -13t27 -32v-6l-68 -170q-4 -10 -17 -20.5t-30.5 -18.5 t-35 -13t-27.5 -5h-187q-20 0 -43.5 14t-23.5 39zM1143 1067q0 12 2 14l55 148q12 23 49 42t66 19h186q18 0 46 -13t28 -32l-68 -176q-4 -10 -17 -20.5t-30.5 -18.5t-35 -13t-27.5 -5h-187q-20 0 -43.5 15t-23.5 40z" />
<glyph unicode="&#xec;" horiz-adv-x="702" d="M70 0l229 600h563l-229 -600h-563zM334 690l80 209h563l-80 -209h-563zM578 1225q14 29 41.5 45t62.5 22h199q8 0 25.5 -9t36 -32.5t34.5 -65.5t24 -108l-4 -12q-6 -18 -39.5 -33.5t-52.5 -15.5h-190q-10 0 -23.5 7t-31 29.5t-38 63.5t-44.5 109z" />
<glyph unicode="&#xed;" horiz-adv-x="702" d="M70 0l229 600h563l-229 -600h-563zM334 690l80 209h563l-80 -209h-563zM516 1059v6l4 12q59 66 108.5 108t86.5 65.5t60.5 32.5t33.5 9h199q23 -4 39 -16t16 -35l-4 -16q-74 -68 -126 -109t-86 -63.5t-53.5 -29.5t-27.5 -7h-191q-16 0 -37.5 13t-21.5 30z" />
<glyph unicode="&#xee;" horiz-adv-x="702" d="M70 0l229 600h563l-229 -600h-563zM334 690l80 209h563l-80 -209h-563zM369 1059q0 16 2 18l2 4q72 66 122 107t82.5 64.5t52 31.5t29.5 8h367q10 0 22.5 -7t28 -30.5t34.5 -64.5t42 -109q-12 -29 -38.5 -45t-59.5 -22h-199q-16 0 -34.5 21.5t-43.5 80.5 q-78 -59 -112.5 -80.5t-51.5 -21.5h-198q-18 4 -32.5 14t-14.5 31z" />
<glyph unicode="&#xef;" horiz-adv-x="702" d="M70 0l229 600h563l-229 -600h-563zM334 690l80 209h563l-80 -209h-563zM342 1067l1 4l3 12l55 148q10 23 49 42t66 19h186q18 0 45 -13t27 -32v-6l-67 -170q-4 -10 -17.5 -20.5t-31 -18.5t-35 -13t-27.5 -5h-186q-20 0 -44 14t-24 39zM813 1067q0 12 2 14l55 148 q12 23 49 42t66 19h186q18 0 46 -13t28 -32l-67 -176q-4 -10 -17.5 -20.5t-31 -18.5t-35 -13t-27.5 -5h-186q-20 0 -44 15t-24 40z" />
<glyph unicode="&#xf0;" horiz-adv-x="1447" d="M170 147q2 66 22.5 146t53.5 166q12 25 45 50.5t65 25.5h662q12 35 18 65h563q-8 -35 -20 -69.5t-25 -69.5q-27 -66 -62.5 -147t-81.5 -150.5t-100.5 -116.5t-115.5 -47h-922q-57 0 -79.5 41t-22.5 106zM373 764v8q0 23 12 53q14 45 49 74h447l55 145q14 10 37.5 19.5 t50.5 9.5t39 -9.5t20 -21.5l-53 -143h492q59 0 82.5 -38t21.5 -103q0 -35 -6 -68h-567q2 6 2 19v16q0 20 -2 23h-82l-23 -58h-149l22 58h-446q-2 10 -2 16zM735 152h92q23 20 57.5 82.5t71.5 148.5h-159l-23 -29q-18 -76 -28.5 -131t-10.5 -71z" />
<glyph unicode="&#xf1;" d="M70 0l229 600h565l-229 -600h-565zM334 690l80 209h1224q117 0 117 -108q-4 -45 -20 -95l-2 -6h-564q4 12 5 29q0 29 -29 29h-225l-21 -58h-565zM719 1057l4 24q63 66 107 107t75 64.5t48.5 31.5t25.5 8h307q16 0 33.5 -18.5t40.5 -71.5q61 53 90 72.5t41 19.5h170 q39 -14 39 -43q0 2 -1 -3l-3 -15l-4 -6q-61 -68 -105.5 -109t-73 -63.5t-46 -30.5t-25.5 -8h-307q-16 0 -36 17.5t-42 76.5q-59 -59 -89 -77.5t-42 -18.5h-168q-39 8 -39 43zM905 0l230 600h563l-230 -600h-563z" />
<glyph unicode="&#xf2;" horiz-adv-x="1548" d="M162 127q2 74 27.5 166t56.5 168q14 35 29.5 69.5t31.5 69.5h567q-14 -29 -28.5 -58.5t-24.5 -62.5l-18 -51q-37 -94 -51.5 -157.5t-16.5 -98.5l2 -20h185q2 2 18 27.5t40 65.5t48.5 88t42.5 93l16 49q25 61 37 125h574q-10 -39 -23.5 -80t-27.5 -82q-33 -84 -74 -162.5 t-89 -140t-100.5 -98.5t-107.5 -37h-1022q-53 0 -73.5 36t-18.5 91zM356 690q55 92 120 150.5t138 58.5h1018q53 0 73.5 -37t20.5 -98q-2 -16 -3 -34.5t-5 -39.5h-575q4 23 5 38t1 20h-182q-12 -12 -39 -58h-572zM975 1225q14 29 41.5 45t62.5 22h199q8 0 25.5 -9t36 -32.5 t35 -65.5t24.5 -108l-4 -12q-6 -18 -40 -33.5t-52 -15.5h-191q-10 0 -23.5 7t-31 29.5t-38 63.5t-44.5 109z" />
<glyph unicode="&#xf3;" horiz-adv-x="1548" d="M162 127q2 74 27.5 166t56.5 168q14 35 29.5 69.5t31.5 69.5h567q-14 -29 -28.5 -58.5t-24.5 -62.5l-18 -51q-37 -94 -51.5 -157.5t-16.5 -98.5l2 -20h185q2 2 18 27.5t40 65.5t48.5 88t42.5 93l16 49q25 61 37 125h574q-10 -39 -23.5 -80t-27.5 -82q-33 -84 -74 -162.5 t-89 -140t-100.5 -98.5t-107.5 -37h-1022q-53 0 -73.5 36t-18.5 91zM356 690q55 92 120 150.5t138 58.5h1018q53 0 73.5 -37t20.5 -98q-2 -16 -3 -34.5t-5 -39.5h-575q4 23 5 38t1 20h-182q-12 -12 -39 -58h-572zM963 1059v6l4 12q59 66 108 108t86 65.5t60.5 32.5t33.5 9 h199q23 -4 39 -16t16 -35l-4 -16q-74 -68 -126 -109t-85.5 -63.5t-53 -29.5t-28.5 -7h-190q-16 0 -37.5 13t-21.5 30z" />
<glyph unicode="&#xf4;" horiz-adv-x="1548" d="M162 127q2 74 27.5 166t56.5 168q14 35 29.5 69.5t31.5 69.5h567q-14 -29 -28.5 -58.5t-24.5 -62.5l-18 -51q-37 -94 -51.5 -157.5t-16.5 -98.5l2 -20h185q2 2 18 27.5t40 65.5t48.5 88t42.5 93l16 49q25 61 37 125h574q-10 -39 -23.5 -80t-27.5 -82q-33 -84 -74 -162.5 t-89 -140t-100.5 -98.5t-107.5 -37h-1022q-53 0 -73.5 36t-18.5 91zM356 690q55 92 120 150.5t138 58.5h1018q53 0 73.5 -37t20.5 -98q-2 -16 -3 -34.5t-5 -39.5h-575q4 23 5 38t1 20h-182q-12 -12 -39 -58h-572zM791 1059q0 16 2 18l2 4q72 66 122 107t82.5 64.5t52 31.5 t29.5 8h367q10 0 22.5 -7t27.5 -30.5t34.5 -64.5t42.5 -109q-12 -29 -38.5 -45t-59.5 -22h-199q-16 0 -34.5 21.5t-43.5 80.5q-78 -59 -112.5 -80.5t-51.5 -21.5h-198q-18 4 -32.5 14t-14.5 31z" />
<glyph unicode="&#xf5;" horiz-adv-x="1548" d="M162 127q2 74 27.5 166t56.5 168q14 35 29.5 69.5t31.5 69.5h567q-14 -29 -28.5 -58.5t-24.5 -62.5l-18 -51q-37 -94 -51.5 -157.5t-16.5 -98.5l2 -20h185q2 2 18 27.5t40 65.5t48.5 88t42.5 93l16 49q25 61 37 125h574q-10 -39 -23.5 -80t-27.5 -82q-33 -84 -74 -162.5 t-89 -140t-100.5 -98.5t-107.5 -37h-1022q-53 0 -73.5 36t-18.5 91zM356 690q55 92 120 150.5t138 58.5h1018q53 0 73.5 -37t20.5 -98q-2 -16 -3 -34.5t-5 -39.5h-575q4 23 5 38t1 20h-182q-12 -12 -39 -58h-572zM725 1057q0 2 1 8t3 16q63 66 107.5 107t75 64.5t48 31.5 t25.5 8h307q16 0 33.5 -18.5t40.5 -71.5q61 53 90 72.5t41 19.5h170q39 -14 39 -43q0 2 -1 -3l-3 -15l-4 -6q-61 -68 -105.5 -109t-73 -63.5t-46 -30.5t-25.5 -8h-307q-16 0 -36 17.5t-42 76.5q-59 -59 -89 -77.5t-42 -18.5h-168q-39 8 -39 43z" />
<glyph unicode="&#xf6;" horiz-adv-x="1548" d="M162 127q2 74 27.5 166t56.5 168q14 35 29.5 69.5t31.5 69.5h567q-14 -29 -28.5 -58.5t-24.5 -62.5l-18 -51q-37 -94 -51.5 -157.5t-16.5 -98.5l2 -20h185q2 2 18 27.5t40 65.5t48.5 88t42.5 93l16 49q25 61 37 125h574q-10 -39 -23.5 -80t-27.5 -82q-33 -84 -74 -162.5 t-89 -140t-100.5 -98.5t-107.5 -37h-1022q-53 0 -73.5 36t-18.5 91zM356 690q55 92 120 150.5t138 58.5h1018q53 0 73.5 -37t20.5 -98q-2 -16 -3 -34.5t-5 -39.5h-575q4 23 5 38t1 20h-182q-12 -12 -39 -58h-572zM764 1067l1 4l3 12l55 148q10 23 49 42t66 19h186 q18 0 45 -13t27 -32v-6l-68 -170q-4 -10 -17 -20.5t-30.5 -18.5t-35 -13t-27.5 -5h-187q-20 0 -43.5 14t-23.5 39zM1235 1067q0 12 2 14l55 148q12 23 49 42t66 19h186q18 0 46 -13t28 -32l-68 -176q-4 -10 -17 -20.5t-30.5 -18.5t-35 -13t-27.5 -5h-186q-20 0 -44 15 t-24 40z" />
<glyph unicode="&#xf7;" horiz-adv-x="870" d="M231 420q0 29 9 43q10 27 25.5 43t33.5 29h692q0 -10 1 -16.5t1 -10.5l-3 -12q-3 -11 -7 -33q-8 -23 -22.5 -42.5t-28.5 -35.5h-694q-8 14 -7 35zM350 131v6l35 86q4 12 17.5 22.5t30 18.5t33.5 13.5t30 5.5h90q23 0 47 -15.5t24 -36.5l-36 -94q-8 -18 -45 -37.5 t-66 -19.5h-90q-25 0 -47.5 17.5t-22.5 33.5zM563 690l25 70q4 12 18.5 22.5t31.5 18.5t34.5 13t29.5 5h91q23 0 46 -15.5t23 -35.5l-28 -78h-271z" />
<glyph unicode="&#xf8;" horiz-adv-x="1546" d="M162 127q2 74 27.5 166t56.5 168q14 35 29.5 69.5t31.5 69.5h572q-14 -29 -26.5 -54.5t-25.5 -51.5l138 106h731q-10 -39 -23.5 -80t-27.5 -82q-33 -84 -74 -162.5t-89 -140t-100.5 -98.5t-107.5 -37h-1020q-53 0 -73.5 36t-18.5 91zM356 690q55 92 120 150.5t138 58.5 h1018q51 0 71.5 -37t20.5 -96q-2 -18 -3 -36.5t-5 -39.5h-635l70 55l2 3h-184q-12 -12 -39 -58h-574zM735 152h183q4 2 19 25.5t35.5 59t44 79.5t42.5 90l-324 -252v-2z" />
<glyph unicode="&#xf9;" d="M127 111q0 43 20 92l152 397h565l-145 -381q-8 -14 -8 -39q-5 -28 26 -28h226l172 448h563l-230 -600h-1222q-57 0 -89 28.5t-30 82.5zM334 690l80 209h565l-80 -209h-565zM971 1225q14 29 41.5 45t62.5 22h199q8 0 25.5 -9t36 -32.5t34.5 -65.5t25 -108l-4 -12 q-6 -18 -40 -33.5t-53 -15.5h-190q-10 0 -23.5 7t-31 29.5t-38 63.5t-44.5 109zM1169 690l80 209h563l-79 -209h-564z" />
<glyph unicode="&#xfa;" d="M127 111q0 43 20 92l152 397h565l-145 -381q-8 -14 -8 -39q-5 -28 26 -28h226l172 448h563l-230 -600h-1222q-57 0 -89 28.5t-30 82.5zM334 690l80 209h565l-80 -209h-565zM958 1059v6l5 12q59 66 108 108t86 65.5t60.5 32.5t33.5 9h199q23 -4 39 -16t16 -35l-4 -16 q-74 -68 -126 -109t-86 -63.5t-53 -29.5t-28 -7h-190q-16 0 -38 13t-22 30zM1169 690l80 209h563l-79 -209h-564z" />
<glyph unicode="&#xfb;" d="M127 111q0 43 20 92l152 397h565l-145 -381q-8 -14 -8 -39q-5 -28 26 -28h226l172 448h563l-230 -600h-1222q-57 0 -89 28.5t-30 82.5zM334 690l80 209h565l-80 -209h-565zM786 1059q0 16 2 18l3 4q72 66 122 107t82.5 64.5t52 31.5t29.5 8h367q10 0 22.5 -7t27.5 -30.5 t34.5 -64.5t42.5 -109q-12 -29 -38.5 -45t-59.5 -22h-199q-16 0 -34.5 21.5t-43.5 80.5q-78 -59 -112.5 -80.5t-51.5 -21.5h-198q-18 4 -33 14t-15 31zM1169 690l80 209h563l-79 -209h-564z" />
<glyph unicode="&#xfc;" d="M127 111q0 43 20 92l152 397h565l-145 -381q-8 -14 -8 -39q-5 -28 26 -28h226l172 448h563l-230 -600h-1222q-57 0 -89 28.5t-30 82.5zM334 690l80 209h565l-80 -209h-565zM760 1067l1 4l3 12l55 148q10 23 49 42t66 19h186q18 0 45 -13t27 -32v-6l-68 -170 q-4 -10 -17 -20.5t-30.5 -18.5t-35 -13t-27.5 -5h-187q-20 0 -43.5 14t-23.5 39zM1169 690l80 209h563l-79 -209h-564zM1231 1067q0 12 2 14l55 148q12 23 49 42t66 19h186q18 0 46 -13t28 -32l-68 -176q-4 -10 -17 -20.5t-30.5 -18.5t-35 -13t-27.5 -5h-187q-20 0 -43.5 15 t-23.5 40z" />
<glyph unicode="&#xfd;" horiz-adv-x="1482" d="M387 899h559l80 -158l199 158h559l-279 -209h-999zM465 0l174 457l-82 143h829l-200 -151l-172 -449h-549zM930 1059v6l4 12q59 66 108.5 108t86 65.5t60 32.5t34.5 9h198q23 -4 39.5 -16t16.5 -35l-4 -16q-74 -68 -126.5 -109t-86 -63.5t-53 -29.5t-27.5 -7h-191 q-16 0 -37.5 13t-21.5 30z" />
<glyph unicode="&#xfe;" horiz-adv-x="1501" d="M70 0l229 600h559l-119 -309q135 0 209 43t105 121l12 37q12 29 17 51t10 57h555v-4v-4q0 -27 -14.5 -73t-30.5 -93q-63 -158 -192.5 -222.5t-315.5 -64.5h-410l-53 -139h-561zM334 690l80 209h559l-55 -141h421q59 0 134 -13.5t126 -54.5h-1265z" />
<glyph unicode="&#xff;" horiz-adv-x="1482" d="M387 899h559l80 -158l199 158h559l-279 -209h-999zM465 0l174 457l-82 143h829l-200 -151l-172 -449h-549zM731 1067l1 4l3 12l56 148q10 23 49 42t65 19h187q18 0 44.5 -13t26.5 -32v-6l-67 -170q-4 -10 -17.5 -20.5t-31 -18.5t-35 -13t-27.5 -5h-186q-20 0 -44 14 t-24 39zM1202 1067q0 12 2 14l56 148q12 23 49 42t65 19h187q18 0 45.5 -13t27.5 -32l-67 -176q-4 -10 -17.5 -20.5t-31 -18.5t-35 -13t-27.5 -5h-186q-20 0 -44 15t-24 40z" />
<glyph unicode="&#x152;" horiz-adv-x="2785" d="M178 152q0 45 10.5 97t25.5 104.5t33.5 103.5t35.5 98q4 10 8 21.5t8 23.5h678q-4 -16 -6 -22l-25 -62q-45 -117 -64.5 -196.5t-19.5 -120.5q0 -4 1 -8.5t1 -8.5h529q8 86 37.5 186.5t62.5 186.5q4 10 8 21.5t8 23.5h1356q-2 -8 -3 -18.5t-5 -24.5q-25 -51 -64 -94h-655 q-33 -98 -48 -160.5t-15 -99.5l2 -21h692q0 -10 1 -19t1 -18q0 -37 -8 -51q-10 -27 -27.5 -50.5t-36.5 -43.5h-2410q-63 0 -87 43t-24 109zM340 690q39 80 82 151.5t90 125t100.5 85t110.5 31.5h2390q2 -10 3 -18t1 -12q0 -33 -14 -64q-10 -27 -26.5 -50.5t-35.5 -43.5h-686 q-10 -8 -47 -63.5t-78 -141.5h-680q51 106 117 205h-524q-6 -4 -18.5 -20.5t-30 -43t-38 -62.5t-40.5 -79h-676z" />
<glyph unicode="&#x153;" horiz-adv-x="2334" d="M160 127q2 74 28.5 167t57.5 167q12 35 27.5 69.5t31.5 69.5h567q-14 -29 -28.5 -58.5t-24.5 -62.5l-18 -51q-68 -166 -68 -252q-4 -23 0 -24h434q6 72 33 155.5t53 153.5q14 39 28.5 72.5t29.5 66.5h569q-20 -37 -29 -65h539q0 -10 1 -16.5t1 -10.5q0 -31 -8 -45 q-16 -41 -53 -78h-541q-27 -78 -39 -133t-14 -84q0 -4 1 -8t1 -8h571q2 -10 3 -16.5t1 -10.5q0 -33 -8 -47q-10 -20 -22.5 -40t-30.5 -38h-2001q-53 0 -73.5 36t-18.5 91zM356 690q55 92 121 150.5t137 58.5h1983q2 -10 2 -16v-11q0 -4 -3 -16t-7 -35q-16 -45 -54 -78h-567 q-4 -4 -13 -17t-24 -36h-571q16 29 35 53h-432q-4 -4 -13.5 -17t-23.5 -36h-570z" />
<glyph unicode="&#x178;" horiz-adv-x="1769" d="M457 1083h673l101 -190l235 190h674l-522 -393h-936zM553 0l211 551l-31 49h766l-78 -59l-207 -541h-661zM946 1253l1 5l3 12l56 147q4 12 17 22.5t30.5 19.5t36 14.5t30.5 5.5h187q18 0 43.5 -13.5t25.5 -31.5v-7l-65 -170q-4 -10 -18.5 -20t-32 -18.5t-35 -13.5 t-27.5 -5h-186q-20 0 -44 14.5t-22 38.5zM1417 1253q0 12 2 15l58 147q10 23 47 42.5t65 19.5h187q18 0 44.5 -13.5t26.5 -31.5l-2 -7l-63 -170q-4 -10 -18.5 -20t-32 -18.5t-35 -13.5t-27.5 -5h-186q-20 0 -44 15.5t-22 39.5z" />
<glyph unicode="&#x2c6;" horiz-adv-x="919" d="M547 1241l1 5t3 16l2 4q70 66 119 106.5t82.5 64t53 32t30.5 8.5h366q8 0 21.5 -7.5t29 -30t35 -63.5t43.5 -108q-14 -29 -40.5 -45.5t-59.5 -22.5h-199q-16 0 -34.5 20.5t-43.5 79.5q-78 -59 -112.5 -80.5t-50.5 -21.5h-199q-20 4 -34.5 14.5t-12.5 28.5z" />
<glyph unicode="&#x2dc;" horiz-adv-x="962" d="M547 1239q0 10 6 27q61 66 106.5 106.5t75 64t47 32t25.5 8.5h307q16 0 33.5 -18.5t40.5 -72.5q61 53 91 73t42 20h170q35 -14 35 -43q0 -16 -2 -19l-2 -6q-61 -68 -105.5 -108.5t-75 -63t-48 -31t-25.5 -8.5h-307q-16 0 -34 17.5t-40 76.5q-61 -59 -91 -77.5t-42 -18.5 h-168q-43 10 -39 41z" />
<glyph unicode="&#x2000;" horiz-adv-x="739" />
<glyph unicode="&#x2001;" horiz-adv-x="1479" />
<glyph unicode="&#x2002;" horiz-adv-x="739" />
<glyph unicode="&#x2003;" horiz-adv-x="1479" />
<glyph unicode="&#x2004;" horiz-adv-x="493" />
<glyph unicode="&#x2005;" horiz-adv-x="369" />
<glyph unicode="&#x2006;" horiz-adv-x="246" />
<glyph unicode="&#x2007;" horiz-adv-x="246" />
<glyph unicode="&#x2008;" horiz-adv-x="184" />
<glyph unicode="&#x2009;" horiz-adv-x="295" />
<glyph unicode="&#x200a;" horiz-adv-x="82" />
<glyph unicode="&#x2010;" horiz-adv-x="659" d="M231 420q0 29 9 43q10 27 25.5 43t33.5 29h481q0 -10 1 -16.5t1 -10.5l-3 -12q-3 -11 -7 -33q-8 -23 -22.5 -42.5t-28.5 -35.5h-483q-8 14 -7 35z" />
<glyph unicode="&#x2011;" horiz-adv-x="659" d="M231 420q0 29 9 43q10 27 25.5 43t33.5 29h481q0 -10 1 -16.5t1 -10.5l-3 -12q-3 -11 -7 -33q-8 -23 -22.5 -42.5t-28.5 -35.5h-483q-8 14 -7 35z" />
<glyph unicode="&#x2012;" horiz-adv-x="659" d="M231 420q0 29 9 43q10 27 25.5 43t33.5 29h481q0 -10 1 -16.5t1 -10.5l-3 -12q-3 -11 -7 -33q-8 -23 -22.5 -42.5t-28.5 -35.5h-483q-8 14 -7 35z" />
<glyph unicode="&#x2013;" horiz-adv-x="659" d="M231 420q0 29 9 43q10 27 25.5 43t33.5 29h481q0 -10 1 -16.5t1 -10.5l-3 -12q-3 -11 -7 -33q-8 -23 -22.5 -42.5t-28.5 -35.5h-483q-8 14 -7 35z" />
<glyph unicode="&#x2014;" horiz-adv-x="870" d="M231 420q0 29 9 43q10 27 25.5 43t33.5 29h692q0 -10 1 -16.5t1 -10.5l-3 -12q-3 -11 -7 -33q-8 -23 -22.5 -42.5t-28.5 -35.5h-694q-8 14 -7 35z" />
<glyph unicode="&#x2018;" horiz-adv-x="501" d="M258 494l2 8l37 98h362l-36 -98q-4 -12 -17.5 -22.5t-31 -18.5t-34 -13.5t-28.5 -5.5h-182q-23 0 -47.5 15.5t-24.5 36.5zM336 690q10 23 27.5 50.5t38 54t41 49t38.5 35.5q4 0 32 10t73 10h12q18 0 38.5 -3t43.5 -15q10 -4 16 -42t4 -81q0 -41 -6 -68h-358z" />
<glyph unicode="&#x2019;" horiz-adv-x="501" d="M307 551v24q0 16 2 25h338q-16 -23 -34.5 -46.5t-37 -42.5t-34 -33.5t-23.5 -16.5q-31 -12 -53.5 -15.5t-40.5 -3.5h-12q-45 0 -64.5 10.5t-23.5 10.5q-18 27 -17 88zM332 690q2 0 2 2l55 148q4 12 17.5 22t31 18.5t36 13.5t30.5 5h182q20 0 44 -14.5t24 -34.5 q0 -8 -2 -10l-58 -150h-362z" />
<glyph unicode="&#x201a;" horiz-adv-x="501" d="M70 -68q4 51 18 115q2 2 2 4l8 21l56 147q4 12 17 22.5t29.5 18.5t34 13.5t29.5 5.5h182q23 0 47.5 -15.5t24.5 -36.5l-69 -182q-8 -23 -31 -55.5t-49.5 -64t-51 -56.5t-34.5 -29q-33 -12 -56.5 -15t-42.5 -3h-12q-45 0 -62.5 10t-21.5 10q-10 12 -14 37t-4 53z" />
<glyph unicode="&#x201c;" horiz-adv-x="921" d="M258 494l2 8l37 98h362l-36 -98q-4 -12 -17.5 -22.5t-31 -18.5t-34 -13.5t-28.5 -5.5h-182q-23 0 -47.5 15.5t-24.5 36.5zM336 690q10 23 27.5 50.5t38 54t41 49t38.5 35.5q4 0 32 10t73 10h12q18 0 38.5 -3t43.5 -15q10 -4 16 -42t4 -81q0 -41 -6 -68h-358zM678 494l2 8 l37 98h362l-37 -98q-4 -12 -17 -22.5t-30.5 -18.5t-34 -13.5t-28.5 -5.5h-182q-23 0 -47.5 15.5t-24.5 36.5zM756 690q10 23 27.5 50.5t38 54t41 49t38.5 35.5q4 0 32 10t73 10h12q18 0 38.5 -3t43.5 -15q10 -4 16 -42t4 -81q0 -41 -6 -68h-358z" />
<glyph unicode="&#x201d;" horiz-adv-x="921" d="M307 551v24q0 16 2 25h338q-16 -23 -34.5 -46.5t-37 -42.5t-34 -33.5t-23.5 -16.5q-31 -12 -53.5 -15.5t-40.5 -3.5h-12q-45 0 -64.5 10.5t-23.5 10.5q-18 27 -17 88zM332 690q2 0 2 2l55 148q4 12 17.5 22t31 18.5t36 13.5t30.5 5h182q20 0 44 -14.5t24 -34.5 q0 -8 -2 -10l-58 -150h-362zM727 551v24q0 16 2 25h338q-16 -23 -34.5 -46.5t-37 -42.5t-34 -33.5t-23.5 -16.5q-31 -12 -53.5 -15.5t-40.5 -3.5h-13q-45 0 -64 10.5t-24 10.5q-18 27 -16 88zM752 690q2 0 2 2l55 148q4 12 17.5 22t30.5 18.5t35.5 13.5t31.5 5h182 q20 0 44 -14.5t24 -34.5q0 -8 -3 -10l-57 -150h-362z" />
<glyph unicode="&#x201e;" horiz-adv-x="929" d="M70 -68q4 51 18 115q2 2 2 4l8 21l56 147q4 12 17 22.5t29.5 18.5t34 13.5t29.5 5.5h182q23 0 47.5 -15.5t24.5 -36.5l-69 -182q-8 -23 -31 -55.5t-49.5 -64t-51 -56.5t-34.5 -29q-33 -12 -56.5 -15t-42.5 -3h-12q-45 0 -62.5 10t-21.5 10q-10 12 -14 37t-4 53zM498 -68 q4 51 18 115q2 2 2 4l8 21l56 147q4 12 17 22.5t29.5 18.5t34 13.5t29.5 5.5h182q23 0 47.5 -15.5t24.5 -36.5l-69 -182q-8 -23 -31 -55.5t-49.5 -64t-51 -56.5t-34.5 -29q-33 -12 -56.5 -15t-42.5 -3h-12q-45 0 -62.5 10t-21.5 10q-10 12 -14 37t-4 53z" />
<glyph unicode="&#x2022;" horiz-adv-x="1540" d="M162 127q2 74 27.5 166t56.5 168q14 35 29.5 69.5t31.5 69.5h1383q-10 -39 -23.5 -80t-28.5 -82q-33 -84 -73.5 -162.5t-87.5 -140t-99.5 -98.5t-107.5 -37h-1016q-53 0 -73.5 36t-18.5 91zM356 690q55 92 120 150.5t138 58.5h1012q53 0 73.5 -37t20.5 -96 q-2 -18 -4 -36.5t-6 -39.5h-1354z" />
<glyph unicode="&#x2026;" horiz-adv-x="1427" d="M90 51v6l64 162q4 12 17 22.5t29.5 18.5t34 13.5t29.5 5.5h182q23 0 47.5 -15.5t24.5 -36.5l-65 -170q-8 -18 -45 -37.5t-66 -19.5h-182q-25 0 -47.5 17.5t-22.5 33.5zM553 51v6l63 162q4 12 17.5 22.5t30 18.5t34 13.5t29.5 5.5h182q23 0 47.5 -15.5t24.5 -36.5 l-66 -170q-8 -18 -44.5 -37.5t-65.5 -19.5h-182q-25 0 -47.5 17.5t-22.5 33.5zM1016 51v6l63 162q4 12 17.5 22.5t30 18.5t34 13.5t29.5 5.5h182q23 0 47.5 -15.5t24.5 -36.5l-66 -170q-8 -18 -45 -37.5t-65 -19.5h-183q-25 0 -47 17.5t-22 33.5z" />
<glyph unicode="&#x202f;" horiz-adv-x="295" />
<glyph unicode="&#x2039;" horiz-adv-x="417" d="M168 250q0 14 2 16l127 334h278l-10 -31q-6 -16 -37.5 -42.5t-109.5 -73.5q35 -43 46 -69t11 -42q0 -12 -2 -14l-76 -199q-16 -27 -37.5 -47.5t-50.5 -20.5h-4q-84 76 -110.5 120t-26.5 69zM362 690q31 25 88.5 61.5t151.5 90.5q41 -4 41 -51q0 -21 -2 -23l-31 -78h-248z " />
<glyph unicode="&#x203a;" horiz-adv-x="417" d="M117 109l2 20l76 199q6 16 37.5 43.5t111.5 81.5q-35 39 -47 63.5t-12 40.5q0 10 2 12l10 31h278l-126 -334q-4 -10 -18.5 -26.5t-46.5 -41t-86 -58.5t-136 -79h-4q-23 0 -32 13.5t-9 34.5zM332 690l30 78q16 29 41 50.5t56 23.5q53 -53 80.5 -90t40.5 -62h-248z" />
<glyph unicode="&#x205f;" horiz-adv-x="369" />
<glyph unicode="&#x20ac;" horiz-adv-x="1437" d="M188 291q4 33 11 45q10 27 24.5 43t30.5 29h152l38 98h-153q-8 8 -6 33q0 31 8 45q2 4 3 8t3 8h1051q-4 -14 -7 -16q-20 -45 -51 -78h-280l-39 -98h280q2 -10 3 -17.5t1 -11.5q0 -29 -8 -43q-10 -23 -23.5 -42.5t-27.5 -35.5h-270q-14 -29 -15 -82q-2 -2 2 -24h498 q2 -10 3 -16.5t1 -10.5q0 -33 -8 -47q-10 -20 -22.5 -40t-30.5 -38h-922q-53 0 -74.5 37t-19.5 94q0 29 6 60.5t14 66.5h-163q-8 8 -9 33zM535 690q57 92 123.5 150.5t138.5 58.5h903q2 -10 2 -16v-11q0 -4 -3 -16t-7 -35q-16 -45 -54 -78h-493q-6 -4 -39 -53h-571z" />
<glyph unicode="&#x2122;" horiz-adv-x="1789" d="M455 1008l28 77h572l-29 -77h-149l-121 -318h-271l121 318h-151zM961 690l149 395h936q27 0 43 -21t20 -44l-124 -330h-267l115 305h-104l-115 -305h-279l115 305h-104l-115 -305h-270z" />
<glyph unicode="&#x25fc;" horiz-adv-x="901" d="M0 0v901h901v-901h-901z" />
</font>
</defs>
</svg>
